<?xml version="1.0" encoding="UTF-8"?>
<svg xmlns="http://www.w3.org/2000/svg" xmlns:xlink="http://www.w3.org/1999/xlink" version="1.1" viewBox="0 0 101.4 76.1">
  <defs>
    <style>
      .cls-1 {
        fill: none;
      }

      .cls-2 {
        fill: #9895f8;
      }

      .cls-2, .cls-3, .cls-4 {
        fill-rule: evenodd;
      }

      .cls-3 {
        fill: #615dfa;
      }

      .cls-5 {
        fill: #fff;
      }

      .cls-4 {
        fill: #eaeaf5;
      }

      .cls-6 {
        clip-path: url(#clippath);
      }
    </style>
    <clipPath id="clippath">
      <rect class="cls-1" width="101.4" height="76.3" rx="6" ry="6"/>
    </clipPath>
  </defs>
  <!-- Generator: Adobe Illustrator 28.8.0, SVG Export Plug-In . SVG Version: 1.2.0 Build 7)  -->
  <g>
    <g id="Layer_1">
      <rect class="cls-5" width="101.4" height="76.3" rx="6" ry="6"/>
      <g class="cls-6">
        <g>
          <path class="cls-4" d="M101.1,76.1h-1.4c-.4,0-.7-.3-.7-.7v-16.8c0-.4.3-.7.7-.7h1.4c.4,0,.7.3.7.7v16.8c0,.4-.3.7-.7.7ZM96.8,80.4h-1.4c-.4,0-.7-.3-.7-.7v-16.8c0-.4.3-.7.7-.7h1.4c.4,0,.7.3.7.7v16.8c0,.4-.3.7-.7.7ZM92.1,78.6h-1.4c-.4,0-.7-.3-.7-.7v-16.8c0-.4.3-.7.7-.7h1.4c.4,0,.7.3.7.7v16.8c0,.4-.3.7-.7.7ZM87.9,75.4h-1.4c-.4,0-.7-.3-.7-.7v-16.8c0-.4.3-.7.7-.7h1.4c.4,0,.7.3.7.7v16.8c0,.4-.3.7-.7.7ZM83.6,72.1h-1.4c-.4,0-.7-.3-.7-.7v-16.8c0-.4.3-.7.7-.7h1.4c.4,0,.7.3.7.7v16.8c0,.4-.3.7-.7.7ZM79.3,80.4h-1.4c-.4,0-.7-.3-.7-.7v-16.8c0-.4.3-.7.7-.7h1.4c.4,0,.7.3.7.7v16.8c0,.4-.3.7-.7.7ZM75,75.7h-1.4c-.4,0-.7-.3-.7-.7v-16.8c0-.4.3-.7.7-.7h1.4c.4,0,.7.3.7.7v16.8c0,.4-.3.7-.7.7ZM70.7,73.2h-1.4c-.4,0-.7-.3-.7-.7v-16.8c0-.4.3-.7.7-.7h1.4c.4,0,.7.3.7.7v16.8c0,.4-.3.7-.7.7ZM66.4,76.8h-1.4c-.4,0-.7-.3-.7-.7v-16.8c0-.4.3-.7.7-.7h1.4c.4,0,.7.3.7.7v16.8c0,.4-.3.7-.7.7ZM62.1,81.8h-1.4c-.4,0-.7-.3-.7-.7v-16.8c0-.4.3-.7.7-.7h1.4c.4,0,.7.3.7.7v16.8c0,.4-.3.7-.7.7ZM57.8,80h-1.4c-.4,0-.7-.3-.7-.7v-16.8c0-.4.3-.7.7-.7h1.4c.4,0,.7.3.7.7v16.8c0,.4-.3.7-.7.7ZM53.6,76.8h-1.4c-.4,0-.7-.3-.7-.7v-16.8c0-.4.3-.7.7-.7h1.4c.4,0,.7.3.7.7v16.8c0,.4-.3.7-.7.7ZM49.3,78.9h-1.4c-.4,0-.7-.3-.7-.7v-16.8c0-.4.3-.7.7-.7h1.4c.4,0,.7.3.7.7v16.8c0,.4-.3.7-.7.7ZM45,76.1h-1.4c-.4,0-.7-.3-.7-.7v-16.8c0-.4.3-.7.7-.7h1.4c.4,0,.7.3.7.7v16.8c0,.4-.3.7-.7.7ZM40.7,73.9h-1.4c-.4,0-.7-.3-.7-.7v-16.8c0-.4.3-.7.7-.7h1.4c.4,0,.7.3.7.7v16.8c0,.4-.3.7-.7.7ZM36.4,81.1h-1.4c-.4,0-.7-.3-.7-.7v-16.8c0-.4.3-.7.7-.7h1.4c.4,0,.7.3.7.7v16.8c0,.4-.3.7-.7.7ZM32.1,85.4h-1.4c-.4,0-.7-.3-.7-.7v-16.8c0-.4.3-.7.7-.7h1.4c.4,0,.7.3.7.7v16.8c0,.4-.3.7-.7.7ZM27.9,76.1h-1.4c-.4,0-.7-.3-.7-.7v-16.8c0-.4.3-.7.7-.7h1.4c.4,0,.7.3.7.7v16.8c0,.4-.3.7-.7.7ZM23.6,71.4h-1.4c-.4,0-.7-.3-.7-.7v-16.8c0-.4.3-.7.7-.7h1.4c.4,0,.7.3.7.7v16.8c0,.4-.3.7-.7.7ZM19.3,76.8h-1.4c-.4,0-.7-.3-.7-.7v-16.8c0-.4.3-.7.7-.7h1.4c.4,0,.7.3.7.7v16.8c0,.4-.3.7-.7.7ZM15,78.6h-1.4c-.4,0-.7-.3-.7-.7v-16.8c0-.4.3-.7.7-.7h1.4c.4,0,.7.3.7.7v16.8c0,.4-.3.7-.7.7ZM10.7,80.4h-1.4c-.4,0-.7-.3-.7-.7v-16.8c0-.4.3-.7.7-.7h1.4c.4,0,.7.3.7.7v16.8c0,.4-.3.7-.7.7ZM6.1,74.6h-1.4c-.4,0-.7-.3-.7-.7v-16.8c0-.4.3-.7.7-.7h1.4c.4,0,.7.3.7.7v16.8c0,.4-.3.7-.7.7ZM1.8,77.9H.4c-.4,0-.7-.3-.7-.7v-16.8c0-.4.3-.7.7-.7h1.4c.4,0,.7.3.7.7v16.8c0,.4-.3.7-.7.7Z"/>
          <path class="cls-2" d="M101.1,80.7h-1.4c-.4,0-.7-.3-.7-.7v-16.8c0-.4.3-.7.7-.7h1.4c.4,0,.7.3.7.7v16.8c0,.4-.3.7-.7.7ZM96.8,84.3h-1.4c-.4,0-.7-.3-.7-.7v-16.8c0-.4.3-.7.7-.7h1.4c.4,0,.7.3.7.7v16.8c0,.4-.3.7-.7.7ZM92.1,82.1h-1.4c-.4,0-.7-.3-.7-.7v-16.8c0-.4.3-.7.7-.7h1.4c.4,0,.7.3.7.7v16.8c0,.4-.3.7-.7.7ZM87.9,85.4h-1.4c-.4,0-.7-.3-.7-.7v-16.8c0-.4.3-.7.7-.7h1.4c.4,0,.7.3.7.7v16.8c0,.4-.3.7-.7.7ZM83.6,82.1h-1.4c-.4,0-.7-.3-.7-.7v-16.8c0-.4.3-.7.7-.7h1.4c.4,0,.7.3.7.7v16.8c0,.4-.3.7-.7.7ZM79.3,85h-1.4c-.4,0-.7-.3-.7-.7v-16.8c0-.4.3-.7.7-.7h1.4c.4,0,.7.3.7.7v16.8c0,.4-.3.7-.7.7ZM75,79.6h-1.4c-.4,0-.7-.3-.7-.7v-16.8c0-.4.3-.7.7-.7h1.4c.4,0,.7.3.7.7v16.8c0,.4-.3.7-.7.7ZM70.7,82.1h-1.4c-.4,0-.7-.3-.7-.7v-16.8c0-.4.3-.7.7-.7h1.4c.4,0,.7.3.7.7v16.8c0,.4-.3.7-.7.7ZM66.4,80.7h-1.4c-.4,0-.7-.3-.7-.7v-16.8c0-.4.3-.7.7-.7h1.4c.4,0,.7.3.7.7v16.8c0,.4-.3.7-.7.7ZM62.1,85h-1.4c-.4,0-.7-.3-.7-.7v-16.8c0-.4.3-.7.7-.7h1.4c.4,0,.7.3.7.7v16.8c0,.4-.3.7-.7.7ZM57.8,88.6h-1.4c-.4,0-.7-.3-.7-.7v-16.8c0-.4.3-.7.7-.7h1.4c.4,0,.7.3.7.7v16.8c0,.4-.3.7-.7.7ZM53.6,86.1h-1.4c-.4,0-.7-.3-.7-.7v-16.8c0-.4.3-.7.7-.7h1.4c.4,0,.7.3.7.7v16.8c0,.4-.3.7-.7.7ZM49.3,82.9h-1.4c-.4,0-.7-.3-.7-.7v-16.8c0-.4.3-.7.7-.7h1.4c.4,0,.7.3.7.7v16.8c0,.4-.3.7-.7.7ZM45,79.3h-1.4c-.4,0-.7-.3-.7-.7v-16.8c0-.4.3-.7.7-.7h1.4c.4,0,.7.3.7.7v16.8c0,.4-.3.7-.7.7ZM40.7,82.1h-1.4c-.4,0-.7-.3-.7-.7v-16.8c0-.4.3-.7.7-.7h1.4c.4,0,.7.3.7.7v16.8c0,.4-.3.7-.7.7ZM36.4,85h-1.4c-.4,0-.7-.3-.7-.7v-16.8c0-.4.3-.7.7-.7h1.4c.4,0,.7.3.7.7v16.8c0,.4-.3.7-.7.7ZM32.1,90h-1.4c-.4,0-.7-.3-.7-.7v-16.8c0-.4.3-.7.7-.7h1.4c.4,0,.7.3.7.7v16.8c0,.4-.3.7-.7.7ZM27.9,86.1h-1.4c-.4,0-.7-.3-.7-.7v-16.8c0-.4.3-.7.7-.7h1.4c.4,0,.7.3.7.7v16.8c0,.4-.3.7-.7.7ZM23.6,80.7h-1.4c-.4,0-.7-.3-.7-.7v-16.8c0-.4.3-.7.7-.7h1.4c.4,0,.7.3.7.7v16.8c0,.4-.3.7-.7.7ZM19.3,82.1h-1.4c-.4,0-.7-.3-.7-.7v-16.8c0-.4.3-.7.7-.7h1.4c.4,0,.7.3.7.7v16.8c0,.4-.3.7-.7.7ZM15,88.6h-1.4c-.4,0-.7-.3-.7-.7v-16.8c0-.4.3-.7.7-.7h1.4c.4,0,.7.3.7.7v16.8c0,.4-.3.7-.7.7ZM10.7,83.6h-1.4c-.4,0-.7-.3-.7-.7v-16.8c0-.4.3-.7.7-.7h1.4c.4,0,.7.3.7.7v16.8c0,.4-.3.7-.7.7ZM6.1,86.8h-1.4c-.4,0-.7-.3-.7-.7v-16.8c0-.4.3-.7.7-.7h1.4c.4,0,.7.3.7.7v16.8c0,.4-.3.7-.7.7ZM1.8,81.1H.4c-.4,0-.7-.3-.7-.7v-16.8c0-.4.3-.7.7-.7h1.4c.4,0,.7.3.7.7v16.8c0,.4-.3.7-.7.7Z"/>
          <path class="cls-3" d="M92.1,82.1h-1.4c-.4,0-.7-.3-.7-.7v-16.8c0-.4.3-.7.7-.7h1.4c.4,0,.7.3.7.7v16.8c0,.4-.3.7-.7.7ZM70.7,82.1h-1.4c-.4,0-.7-.3-.7-.7v-16.8c0-.4.3-.7.7-.7h1.4c.4,0,.7.3.7.7v16.8c0,.4-.3.7-.7.7ZM45,79.3h-1.4c-.4,0-.7-.3-.7-.7v-16.8c0-.4.3-.7.7-.7h1.4c.4,0,.7.3.7.7v16.8c0,.4-.3.7-.7.7ZM36.4,85h-1.4c-.4,0-.7-.3-.7-.7v-16.8c0-.4.3-.7.7-.7h1.4c.4,0,.7.3.7.7v16.8c0,.4-.3.7-.7.7ZM27.9,86.1h-1.4c-.4,0-.7-.3-.7-.7v-16.8c0-.4.3-.7.7-.7h1.4c.4,0,.7.3.7.7v16.8c0,.4-.3.7-.7.7ZM6.1,86.8h-1.4c-.4,0-.7-.3-.7-.7v-16.8c0-.4.3-.7.7-.7h1.4c.4,0,.7.3.7.7v16.8c0,.4-.3.7-.7.7Z"/>
        </g>
      </g>
    </g>
  </g>
</svg>