<?xml version="1.0" encoding="utf-8"?>
<!-- Generator: Adobe Illustrator 26.3.1, SVG Export Plug-In . SVG Version: 6.00 Build 0)  -->
<svg version="1.1" id="Layer_1" xmlns="http://www.w3.org/2000/svg" xmlns:xlink="http://www.w3.org/1999/xlink" x="0px" y="0px"
	 viewBox="0 0 512 512" enable-background="new 0 0 512 512" xml:space="preserve">
<pattern  width="624" height="589.13" patternUnits="userSpaceOnUse" id="pattern_1" viewBox="0 -589.13 624 589.13" overflow="visible">
	<g>
		<rect y="-589.13" fill="none" width="624" height="589.13"/>
		<g transform="scale(0.018041348,0.018041348)">
			
				<image overflow="visible" enable-background="new    " width="2653" height="2653" id="img_6_00000124124194294722574160000001318932657809843863_" xlink:href="98AB33405480B745.jpg"  transform="matrix(0.018 0 0 -0.018 0 -140.1264)">
			</image>
		</g>
	</g>
</pattern>
<pattern  width="802.57" height="449" patternUnits="userSpaceOnUse" id="pattern_2" viewBox="0 -449 802.57 449" overflow="visible">
	<g>
		<rect y="-449" fill="none" width="802.57" height="449"/>
		<g transform="scale(0.015832415,0.015832415)">
			
				<image overflow="visible" enable-background="new    " width="2653" height="2653" id="img_6_00000170264583751475023370000015946416994502021249_" xlink:href="98AB33405480B74B.jpg"  transform="matrix(0.0158 0 0 -0.0158 178.5741 0)">
			</image>
		</g>
	</g>
</pattern>
<pattern  width="624" height="464.72" patternUnits="userSpaceOnUse" id="pattern_3" viewBox="0 -464.72 624 464.72" overflow="visible">
	<g>
		<rect y="-464.72" fill="none" width="624" height="464.72"/>
		<g transform="scale(0.014755998,0.014755998)">
			
				<image overflow="visible" enable-background="new    " width="2653" height="2653" id="img_6_00000147214326913297895640000015099824076581652149_" xlink:href="98AB33405480B74C.jpg"  transform="matrix(0.0148 0 0 -0.0148 0 -15.7161)">
			</image>
		</g>
	</g>
</pattern>
<g id="card-14">
	<g id="Illustration">
		<g id="_x31_6-01" transform="translate(21 0)">
			<g id="Background" transform="translate(40.40766 41.008312)">
				<path id="Rectangle" fill-rule="evenodd" clip-rule="evenodd" fill="#FFFFFF" d="M-7.75,53.26h437.91v293.05H-7.75V53.26z"/>
				<path id="Rectangle_00000140726689274807541190000001838484929492579227_" fill="none" stroke="#000000" stroke-width="2" d="
					M2.89,279.54L2.04,65.07c0-0.07,0-0.15,0-0.22c0-0.07,0.01-0.14,0.02-0.22c0.01-0.07,0.02-0.14,0.03-0.22
					c0.01-0.07,0.02-0.14,0.04-0.21c0.01-0.07,0.03-0.14,0.05-0.21c0.02-0.07,0.04-0.14,0.06-0.21s0.04-0.14,0.07-0.21
					c0.02-0.07,0.05-0.14,0.08-0.2c0.03-0.07,0.06-0.13,0.09-0.2s0.06-0.13,0.1-0.19c0.03-0.06,0.07-0.13,0.11-0.19
					s0.08-0.12,0.12-0.18c0.04-0.06,0.08-0.12,0.12-0.18c0.04-0.06,0.09-0.12,0.13-0.17c0.05-0.06,0.09-0.11,0.14-0.17
					c0.05-0.05,0.1-0.11,0.15-0.16s0.1-0.1,0.16-0.15c0.05-0.05,0.11-0.1,0.16-0.14c0.06-0.05,0.11-0.09,0.17-0.13
					c0.06-0.04,0.12-0.09,0.18-0.13s0.12-0.08,0.18-0.12c0.06-0.04,0.13-0.07,0.19-0.11s0.13-0.07,0.19-0.1
					c0.07-0.03,0.13-0.06,0.2-0.09c0.07-0.03,0.13-0.05,0.2-0.08c0.07-0.02,0.14-0.05,0.21-0.07c0.07-0.02,0.14-0.04,0.21-0.06
					c0.07-0.02,0.14-0.03,0.21-0.05c0.07-0.01,0.14-0.03,0.21-0.04c0.07-0.01,0.14-0.02,0.22-0.03c0.07-0.01,0.14-0.01,0.22-0.02
					c0.07,0,0.15-0.01,0.22-0.01h404.29c0.07,0,0.15,0,0.22,0.01c0.07,0,0.14,0.01,0.22,0.02c0.07,0.01,0.14,0.02,0.22,0.03
					c0.07,0.01,0.14,0.02,0.21,0.04c0.07,0.01,0.14,0.03,0.21,0.05s0.14,0.04,0.21,0.06c0.07,0.02,0.14,0.04,0.21,0.07
					c0.07,0.02,0.14,0.05,0.2,0.08c0.07,0.03,0.13,0.06,0.2,0.09c0.07,0.03,0.13,0.06,0.19,0.1s0.13,0.07,0.19,0.11
					c0.06,0.04,0.12,0.08,0.18,0.12c0.06,0.04,0.12,0.08,0.18,0.13c0.06,0.04,0.12,0.09,0.17,0.13c0.06,0.05,0.11,0.09,0.16,0.14
					c0.05,0.05,0.11,0.1,0.16,0.15c0.05,0.05,0.1,0.1,0.15,0.16c0.05,0.05,0.1,0.11,0.14,0.16c0.05,0.06,0.09,0.11,0.13,0.17
					c0.04,0.06,0.08,0.12,0.12,0.18c0.04,0.06,0.08,0.12,0.12,0.18c0.04,0.06,0.07,0.13,0.11,0.19c0.03,0.06,0.07,0.13,0.1,0.19
					c0.03,0.07,0.06,0.13,0.09,0.2c0.03,0.07,0.05,0.13,0.08,0.2c0.02,0.07,0.05,0.14,0.07,0.21c0.02,0.07,0.04,0.14,0.06,0.21
					c0.02,0.07,0.03,0.14,0.05,0.21c0.01,0.07,0.03,0.14,0.04,0.21c0.01,0.07,0.02,0.14,0.03,0.22s0.01,0.14,0.02,0.22
					c0,0.07,0.01,0.14,0.01,0.22V322.8c0,0.07,0,0.14-0.01,0.22c0,0.07-0.01,0.14-0.02,0.22c-0.01,0.07-0.02,0.14-0.03,0.22
					c-0.01,0.07-0.02,0.14-0.04,0.21c-0.01,0.07-0.03,0.14-0.05,0.21c-0.02,0.07-0.04,0.14-0.06,0.21
					c-0.02,0.07-0.04,0.14-0.07,0.21c-0.02,0.07-0.05,0.14-0.08,0.2c-0.03,0.07-0.06,0.13-0.09,0.2c-0.03,0.07-0.06,0.13-0.1,0.19
					c-0.03,0.06-0.07,0.13-0.11,0.19c-0.04,0.06-0.08,0.12-0.12,0.18c-0.04,0.06-0.08,0.12-0.13,0.18
					c-0.04,0.06-0.09,0.12-0.13,0.17c-0.05,0.06-0.09,0.11-0.14,0.16c-0.05,0.05-0.1,0.11-0.15,0.16c-0.05,0.05-0.1,0.1-0.16,0.15
					c-0.05,0.05-0.11,0.1-0.16,0.14c-0.06,0.05-0.11,0.09-0.17,0.13c-0.06,0.04-0.12,0.08-0.18,0.13c-0.06,0.04-0.12,0.08-0.18,0.12
					s-0.12,0.07-0.19,0.11c-0.06,0.03-0.13,0.07-0.19,0.1c-0.07,0.03-0.13,0.06-0.2,0.09c-0.07,0.03-0.13,0.05-0.2,0.08
					c-0.07,0.02-0.14,0.05-0.21,0.07c-0.07,0.02-0.14,0.04-0.21,0.06s-0.14,0.03-0.21,0.05c-0.07,0.01-0.14,0.03-0.21,0.04
					c-0.07,0.01-0.14,0.02-0.22,0.03s-0.14,0.01-0.22,0.02c-0.07,0-0.15,0.01-0.22,0.01H119.55"/>
				<g id="Group_00000150806253485872743120000012398960509906423428_" transform="translate(37.512596 21.099466)">
					<g id="Group" transform="translate(0.7267118 27.247906)">
						
							<linearGradient id="Rectangle_00000023999682895769368970000015298303075257875627_" gradientUnits="userSpaceOnUse" x1="-98.274" y1="418.8983" x2="-98.274" y2="421.4349" gradientTransform="matrix(189.668 0 0 -54.6734 18711.3848 23163.3242)">
							<stop  offset="0.0106" style="stop-color:#FFFFFF;stop-opacity:0"/>
							<stop  offset="1" style="stop-color:#B7E3F0"/>
						</linearGradient>
						
							<path id="Rectangle_00000163056811886783672620000012444659372645788839_" fill-rule="evenodd" clip-rule="evenodd" fill="url(#Rectangle_00000023999682895769368970000015298303075257875627_)" d="
							M-11.97,47.61h167.85V96H-11.97V47.61z"/>
						
							<linearGradient id="Rectangle_00000114775937587874649380000009630643018835874740_" gradientUnits="userSpaceOnUse" x1="-98.274" y1="420.0899" x2="-98.274" y2="422.6265" gradientTransform="matrix(189.668 0 0 -54.6734 18711.3848 23225.5273)">
							<stop  offset="0.0106" style="stop-color:#FFFFFF;stop-opacity:0"/>
							<stop  offset="1" style="stop-color:#B7E3F0"/>
						</linearGradient>
						
							<path id="Rectangle_00000073718403613406549710000013635787851583783588_" fill-rule="evenodd" clip-rule="evenodd" fill="url(#Rectangle_00000114775937587874649380000009630643018835874740_)" d="
							M-11.97,102.66h167.85v48.38H-11.97V102.66z"/>
						
							<linearGradient id="Rectangle_00000170956799402919690190000013207140524992573612_" gradientUnits="userSpaceOnUse" x1="-98.274" y1="421.2878" x2="-98.274" y2="423.8244" gradientTransform="matrix(189.668 0 0 -54.6734 18711.3848 23288.0645)">
							<stop  offset="0.0106" style="stop-color:#FFFFFF;stop-opacity:0"/>
							<stop  offset="1" style="stop-color:#B7E3F0"/>
						</linearGradient>
						
							<path id="Rectangle_00000036944921075393732200000010464721837442081195_" fill-rule="evenodd" clip-rule="evenodd" fill="url(#Rectangle_00000170956799402919690190000013207140524992573612_)" d="
							M-11.97,158h167.85v48.38H-11.97V158z"/>
						
							<linearGradient id="Rectangle_00000136371787266257282110000015969132932452644230_" gradientUnits="userSpaceOnUse" x1="-98.274" y1="422.4802" x2="-98.274" y2="425.0167" gradientTransform="matrix(189.668 0 0 -54.6734 18711.3848 23350.3086)">
							<stop  offset="0.0106" style="stop-color:#FFFFFF;stop-opacity:0"/>
							<stop  offset="1" style="stop-color:#B7E3F0"/>
						</linearGradient>
						
							<path id="Rectangle_00000054981414715736517380000007719677160072164004_" fill-rule="evenodd" clip-rule="evenodd" fill="url(#Rectangle_00000136371787266257282110000015969132932452644230_)" d="
							M-11.97,213.09h167.85v48.38H-11.97V213.09z"/>
					</g>
					<g id="Group_00000022522647426431683230000018280779322782476934_" transform="translate(211.25291 27.247906)">
						
							<linearGradient id="Rectangle_00000039119622872275294140000017139696855738924987_" gradientUnits="userSpaceOnUse" x1="-308.9279" y1="418.9124" x2="-308.9279" y2="421.449" gradientTransform="matrix(189.668 0 0 -55.5984 58641.5039 23555.1953)">
							<stop  offset="0.0106" style="stop-color:#FFFFFF;stop-opacity:0"/>
							<stop  offset="1" style="stop-color:#B7E3F0"/>
						</linearGradient>
						
							<path id="Rectangle_00000081631955236732408060000002870028307031360175_" fill-rule="evenodd" clip-rule="evenodd" fill="url(#Rectangle_00000039119622872275294140000017139696855738924987_)" d="
							M-36.15,47.61H131.7v49.2H-36.15V47.61z"/>
						
							<linearGradient id="Rectangle_00000003098866640508956750000017448870819601421207_" gradientUnits="userSpaceOnUse" x1="-308.9279" y1="420.1018" x2="-308.9279" y2="422.6384" gradientTransform="matrix(189.668 0 0 -55.5984 58641.5039 23617.3984)">
							<stop  offset="0.0106" style="stop-color:#FFFFFF;stop-opacity:0"/>
							<stop  offset="1" style="stop-color:#B7E3F0"/>
						</linearGradient>
						
							<path id="Rectangle_00000176727803657148414180000008903561053976877739_" fill-rule="evenodd" clip-rule="evenodd" fill="url(#Rectangle_00000003098866640508956750000017448870819601421207_)" d="
							M-36.15,102.66H131.7v49.2H-36.15V102.66z"/>
						
							<linearGradient id="Rectangle_00000058556625778691721120000004118335457051112079_" gradientUnits="userSpaceOnUse" x1="-308.9279" y1="421.2975" x2="-308.9279" y2="423.8341" gradientTransform="matrix(189.668 0 0 -55.5984 58641.5039 23679.9336)">
							<stop  offset="0.0106" style="stop-color:#FFFFFF;stop-opacity:0"/>
							<stop  offset="1" style="stop-color:#B7E3F0"/>
						</linearGradient>
						
							<path id="Rectangle_00000001642361018239370210000010228715687393060502_" fill-rule="evenodd" clip-rule="evenodd" fill="url(#Rectangle_00000058556625778691721120000004118335457051112079_)" d="
							M-36.15,158H131.7v49.2H-36.15V158z"/>
						
							<linearGradient id="Rectangle_00000045605567145618064500000007949656320770389130_" gradientUnits="userSpaceOnUse" x1="-308.9279" y1="422.4877" x2="-308.9279" y2="425.0243" gradientTransform="matrix(189.668 0 0 -55.5984 58641.5039 23742.1797)">
							<stop  offset="0.0106" style="stop-color:#FFFFFF;stop-opacity:0"/>
							<stop  offset="1" style="stop-color:#B7E3F0"/>
						</linearGradient>
						
							<path id="Rectangle_00000042007247156654044350000012516887927882670006_" fill-rule="evenodd" clip-rule="evenodd" fill="url(#Rectangle_00000045605567145618064500000007949656320770389130_)" d="
							M-36.15,213.09H131.7v49.2H-36.15V213.09z"/>
					</g>
					<path id="Rectangle_00000100380325235414264850000009263001901245124791_" fill="none" stroke="#36C2DB" stroke-width="2" d="
						M178.78,70.74h168.38v46.05H178.78V70.74z"/>
					<g transform="matrix(0.3508198 0 0 0.41299978 261.4621 0.7879196)">
						
							<image overflow="visible" enable-background="new    " width="462" height="252" id="img_1" xlink:href="98AB33405480B74F.png"  transform="matrix(0.3105 0 0 0.3655 219.3169 51.2256)">
						</image>
					</g>
				</g>
			</g>
			<g id="man" transform="translate(212.4409 110.38209)">
				<g id="Group_00000114040456165904181910000014993663306775727001_">
					<path id="Path" fill-rule="evenodd" clip-rule="evenodd" fill="#FDC485" d="M106.56,140.21c1.55,4.46,4.21,11.02,9.02,12.93
						c3.56,1.4,7.42-0.35,11.18,0.9c8.22,2.76,11.88,12.17,17.99,17.58c0.65,0.6,1.35,1.15,2.21,1.4c1.05,0.3,2.1,0.05,3.16-0.2
						c13.88-3.46,27.16-9.47,38.99-17.58c-10.52-11.22-10.42-30.11-22.3-39.98c-4.96-4.11-11.43-6.06-16.64-9.92
						c-10.22-7.56-24.41-37.22-40.69-22.09c-5.51,5.11-6.36,15.18-7.02,22.09C101.25,117.12,102.65,129.09,106.56,140.21z"/>
					
						<path id="Path_00000070801294849699727030000013930578477646875303_" fill-rule="evenodd" clip-rule="evenodd" fill="#0A2A3C" d="
						M92.43,71.98c-1.35-1.05-2.71-2.2-3.36-3.76c-1.75-4.41,3.06-8.67,7.62-10.02c7.22-2.15,15.03-1.4,22.3-3.41
						c2.26-0.6,4.46-1.5,6.77-1.5c1.75,0,3.41,0.5,5.11,1c5.16,1.55,10.32,3.06,15.49,4.61c10.42-4.66,24.1,0.15,29.27,10.32
						c0.8,1.55,1.45,3.21,2.71,4.36c1,0.9,2.26,1.35,3.46,2c5.56,2.86,9.17,8.77,10.22,14.93c1.05,6.16-0.25,12.52-2.66,18.34
						c-2.3,5.66-5.71,11.07-6.26,17.13c-0.35,4.11,0.65,8.32,2.86,11.82c-4.36,1.2-9.27-0.15-12.43-3.36
						c-0.65,3.11-3.41,5.46-6.46,6.41c-3.01,0.95-6.31,0.75-9.47,0.35c-9.42-1.15-18.64-3.96-27.21-8.17
						c-0.2-3.36-0.35-6.76-0.55-10.12c-0.15-2.81-0.35-5.76-1.95-8.07c-1.6-2.3-5.06-3.56-7.27-1.85c-1.5,1.15-1.95,3.21-2.1,5.11
						c-0.75,8.32,1.8,16.83,7.02,23.35c-1.45-0.15-2.96,0.55-3.76,1.75c4.61,3.46,8.77,7.46,12.38,11.92
						c4.41,5.46-2.96,8.82-7.22,10.77c-0.8,0.35-1.65,0.7-2.56,0.8c-2.51,0.2-4.86-1.6-7.32-1.15c-0.95,0.2-1.8,0.7-2.76,0.8
						c-1.4,0.15-2.76-0.65-3.66-1.7c-0.9-1.1-1.4-2.4-1.9-3.76c-2.96-8.22-5.86-17.18-5.81-26c0-0.9,0.15-1.95,0.95-2.4
						c0.95,2.1,1.95,4.21,2.91,6.26c0.4,0.8,0.8,1.65,1.45,2.25c2.2,1.85,7.72,1.4,10.02,0.2c-1.95,1-4.71-22.34-4.56-24.35
						c0.6-8.92,3.76-16.58,7.97-24.3c-1.85-1.35-2.36-3.56-4.01-4.96c-2.31-1.9-5.61-2.96-8.22-4.36
						C103.46,79.89,97.79,76.19,92.43,71.98z"/>
					
						<path id="Path_00000176035727090393745480000011271916747746022586_" fill-rule="evenodd" clip-rule="evenodd" fill="#F26C5D" d="
						M199.42,170.72c3.71-6.51-3.21-20.34-4.66-26.9c-7.22,1.5-13.48,5.86-19.9,9.47c-10.22,5.66-21.4,9.57-32.92,11.47
						c-1.3,0.2-2.61,0.4-3.86-0.05c-1.2-0.45-2.2-1.8-1.8-3.01c-0.5,1.55-3.56,3.41-4.41,5.26c-0.7,1.6-1.3,4.06-1.1,5.76
						c0.05,0.6,0.2,1.2,0,1.75c-0.25,0.55-0.8,0.9-1.3,1.25c-12.38,7.72-24.15,16.98-34.23,27.55c-4.66,4.91-9.27,9.92-13.38,15.38
						c-2.15,2.86-4.21,5.81-6.06,8.87c-0.9,1.45-4.81,6.51-4.46,8.22c-3.56-16.88-11.43-32.81-22.6-45.99
						c-2.51-2.96-5.31-5.31-6.77-8.97c-8.42,3.11-17.69,4.01-26.56,2.61c0.3,17.58,2.91,34.32,9.42,50.75
						c6.36,16.13,15.54,31.16,26.31,44.74c4.56,5.76,9.42,11.22,14.58,16.48c5.96,6.06,12.88,11.27,20.85,5.96
						c7.92-5.26,15.03-11.77,21.05-19.19c-2.15,2.71-1.1,13.18-1.2,16.63c-0.15,6.36,0,12.72,0.5,19.04s1.25,12.67,2.46,18.89
						c1.4,7.41,2.86,6.91,10.02,5.71c24.06-4.01,46.86-13.33,69.01-23.2c31.82-14.18,63.75-30.21,87.85-55.36
						c-3.51-18.69-6.97-39.83-12.83-57.91c-1.05-3.26-2.15-6.56-4.31-9.22c-2.05-2.55-4.86-4.31-7.67-5.96
						c-15.49-9.12-32.37-15.88-49.91-19.99C200.98,171.62,199.92,169.92,199.42,170.72z"/>
					<g id="Clipped" transform="translate(48.13385 111.52197)">
						<path id="SVGID_16_" fill="none" d="M151.29,59.2c3.71-6.51-3.21-20.34-4.66-26.9c-7.22,1.5-13.48,5.86-19.9,9.47
							c-10.22,5.66-21.4,9.57-32.92,11.47c-1.3,0.2-2.61,0.4-3.86-0.05c-1.2-0.45-2.2-1.8-1.8-3.01c-0.5,1.55-3.56,3.41-4.41,5.26
							c-0.7,1.6-1.3,4.06-1.1,5.76c0.05,0.6,0.2,1.2,0,1.75c-0.25,0.55-0.8,0.9-1.3,1.25C68.95,71.92,57.18,81.19,47.1,91.76
							c-4.66,4.91-9.27,9.92-13.38,15.38c-2.15,2.86-4.21,5.81-6.06,8.87c-0.9,1.45-4.81,6.51-4.46,8.22
							c-3.56-16.88-11.43-32.81-22.6-45.99c-2.51-2.96-5.31-5.31-6.77-8.97c-8.42,3.11-17.69,4.01-26.56,2.61
							c0.3,17.58,2.91,34.32,9.42,50.75c6.36,16.13,15.54,31.16,26.31,44.74c4.56,5.76,9.42,11.22,14.58,16.48
							c5.96,6.06,12.88,11.27,20.85,5.96c7.92-5.26,15.03-11.77,21.05-19.19c-2.15,2.71-1.1,13.18-1.2,16.63
							c-0.15,6.36,0,12.72,0.5,19.04c0.5,6.31,1.25,12.67,2.46,18.89c1.4,7.41,2.86,6.91,10.02,5.71
							c24.06-4.01,46.86-13.33,69.01-23.2c31.82-14.18,63.75-30.21,87.85-55.36c-3.51-18.69-6.97-39.83-12.83-57.91
							c-1.05-3.26-2.15-6.56-4.31-9.22c-2.05-2.55-4.86-4.31-7.67-5.96c-15.49-9.12-32.37-15.88-49.91-19.99
							C152.84,60.1,151.79,58.4,151.29,59.2z"/>
						<g>
							<defs>
								<path id="SVGID_1_" d="M151.29,59.2c3.71-6.51-3.21-20.34-4.66-26.9c-7.22,1.5-13.48,5.86-19.9,9.47
									c-10.22,5.66-21.4,9.57-32.92,11.47c-1.3,0.2-2.61,0.4-3.86-0.05c-1.2-0.45-2.2-1.8-1.8-3.01c-0.5,1.55-3.56,3.41-4.41,5.26
									c-0.7,1.6-1.3,4.06-1.1,5.76c0.05,0.6,0.2,1.2,0,1.75c-0.25,0.55-0.8,0.9-1.3,1.25C68.95,71.92,57.18,81.19,47.1,91.76
									c-4.66,4.91-9.27,9.92-13.38,15.38c-2.15,2.86-4.21,5.81-6.06,8.87c-0.9,1.45-4.81,6.51-4.46,8.22
									c-3.56-16.88-11.43-32.81-22.6-45.99c-2.51-2.96-5.31-5.31-6.77-8.97c-8.42,3.11-17.69,4.01-26.56,2.61
									c0.3,17.58,2.91,34.32,9.42,50.75c6.36,16.13,15.54,31.16,26.31,44.74c4.56,5.76,9.42,11.22,14.58,16.48
									c5.96,6.06,12.88,11.27,20.85,5.96c7.92-5.26,15.03-11.77,21.05-19.19c-2.15,2.71-1.1,13.18-1.2,16.63
									c-0.15,6.36,0,12.72,0.5,19.04c0.5,6.31,1.25,12.67,2.46,18.89c1.4,7.41,2.86,6.91,10.02,5.71
									c24.06-4.01,46.86-13.33,69.01-23.2c31.82-14.18,63.75-30.21,87.85-55.36c-3.51-18.69-6.97-39.83-12.83-57.91
									c-1.05-3.26-2.15-6.56-4.31-9.22c-2.05-2.55-4.86-4.31-7.67-5.96c-15.49-9.12-32.37-15.88-49.91-19.99
									C152.84,60.1,151.79,58.4,151.29,59.2z"/>
							</defs>
							<clipPath id="SVGID_00000049196128007651908250000006434435345990650533_">
								<use xlink:href="#SVGID_1_"  overflow="visible"/>
							</clipPath>
							<g clip-path="url(#SVGID_00000049196128007651908250000006434435345990650533_)">
								<g id="Group_00000106113572032847364000000017870438297340378764_" transform="translate(-17.779394 -36.79659)">
									
										<path id="Rectangle_00000182500168711905853790000018044191602893442437_" fill="none" stroke="#FFFFFF" stroke-width="1.9999" d="
										M-30.83,68.78l309.76-31.91l24.46,237.3L-6.37,306.08L-30.83,68.78z"/>
									<path id="Path_00000041990481417663543130000012485322022005947060_" fill="none" stroke="#FFFFFF" stroke-width="2" d="
										M246.34,40.24l24.46,237.31"/>
									<path id="Path_00000118399089072567935090000004464946161070081417_" fill="none" stroke="#FFFFFF" stroke-width="2" d="
										M230.06,41.89l24.46,237.31"/>
									<path id="Path_00000129890363765113228940000007526955214727392935_" fill="none" stroke="#FFFFFF" stroke-width="2" d="
										M213.72,43.59l24.46,237.31"/>
									<path id="Path_00000127753874743868112840000017357360804591058346_" fill="none" stroke="#FFFFFF" stroke-width="2" d="
										M197.43,45.25l24.46,237.31"/>
									<path id="Path_00000169533097056983106380000005132070376910578593_" fill="none" stroke="#FFFFFF" stroke-width="2" d="
										M181.15,46.95l24.46,237.31"/>
									<path id="Path_00000022529085199283267310000013016158028386145462_" fill="none" stroke="#FFFFFF" stroke-width="2" d="
										M164.81,48.6l24.46,237.31"/>
									<path id="Path_00000161622704559340983480000012257596812728951187_" fill="none" stroke="#FFFFFF" stroke-width="2" d="
										M148.52,50.31l24.46,237.31"/>
									<path id="Path_00000018940604957768213110000014234566359108426387_" fill="none" stroke="#FFFFFF" stroke-width="2" d="
										M132.24,51.96l24.46,237.31"/>
									<path id="Path_00000127034798085320770450000009561059620510307003_" fill="none" stroke="#FFFFFF" stroke-width="2" d="
										M115.9,53.66l24.46,237.31"/>
									<path id="Path_00000096053847396322853140000008543234488704523447_" fill="none" stroke="#FFFFFF" stroke-width="2" d="
										M99.61,55.37l24.46,237.26"/>
									<path id="Path_00000111173086981903254050000004054412683922159785_" fill="none" stroke="#FFFFFF" stroke-width="2" d="
										M83.32,57.02l24.46,237.31"/>
									<path id="Path_00000036219833628246075530000006601134947115497915_" fill="none" stroke="#FFFFFF" stroke-width="2" d="
										M66.99,58.72l24.46,237.26"/>
									<path id="Path_00000028296308207183491140000008061082305100904632_" fill="none" stroke="#FFFFFF" stroke-width="2" d="
										M50.7,60.38l24.46,237.31"/>
									<path id="Path_00000162343514744449524920000014134328096740309901_" fill="none" stroke="#FFFFFF" stroke-width="2" d="
										M34.41,62.08l24.46,237.26"/>
									<path id="Path_00000129926886334488576500000006961581662070529205_" fill="none" stroke="#FFFFFF" stroke-width="2" d="
										M18.08,63.73l24.46,237.31"/>
									<path id="Path_00000168835804391561623180000010057083427948802981_" fill="none" stroke="#FFFFFF" stroke-width="2" d="
										M1.79,65.44L26.24,302.7"/>
									<path id="Path_00000110444833374248240610000013987809826314195391_" fill="none" stroke="#FFFFFF" stroke-width="2" d="
										M-14.5,67.09L9.96,304.4"/>
								</g>
							</g>
						</g>
					</g>
					<path id="Path_00000006692309077003435690000005009915354097658029_" fill="none" stroke="#0A2A3C" stroke-width="2" d="
						M70.43,235.95c-4.01,8.02-6.87,16.63-8.42,25.45c-0.25,1.45-0.5,2.91-0.4,4.36c0,0.15,0,0.3,0.05,0.45"/>
					<g id="Group_00000105418378944478886970000003424626369307259580_" transform="translate(48.13385 153.41348)" opacity="0.6">
						<g id="Clipped_00000090293526565642958160000002573109901032106893_">
							<path id="SVGID_18_" fill="none" d="M21.95,82.54v-3.96C18.09,63.1,10.57,48.52,0.25,36.29c-2.51-2.96-5.31-5.31-6.77-8.97
								c-8.42,3.11-17.69,4.01-26.56,2.61c0.3,17.58,2.91,34.32,9.42,50.75c6.36,16.13,15.54,31.16,26.31,44.74
								c3.01,3.81,6.21,7.51,9.47,11.12l1.05-23.8c0-0.15,0-0.3-0.05-0.45c-0.05-1.45,0.15-2.91,0.4-4.36
								C15.08,99.17,17.94,90.55,21.95,82.54z"/>
							<g>
								<defs>
									<path id="SVGID_00000055681551136997810980000003628122180754876087_" d="M21.95,82.54v-3.96
										C18.09,63.1,10.57,48.52,0.25,36.29c-2.51-2.96-5.31-5.31-6.77-8.97c-8.42,3.11-17.69,4.01-26.56,2.61
										c0.3,17.58,2.91,34.32,9.42,50.75c6.36,16.13,15.54,31.16,26.31,44.74c3.01,3.81,6.21,7.51,9.47,11.12l1.05-23.8
										c0-0.15,0-0.3-0.05-0.45c-0.05-1.45,0.15-2.91,0.4-4.36C15.08,99.17,17.94,90.55,21.95,82.54z"/>
								</defs>
								<clipPath id="SVGID_00000183931213698010408700000002766908890006618001_">
									<use xlink:href="#SVGID_00000055681551136997810980000003628122180754876087_"  overflow="visible"/>
								</clipPath>
								<g clip-path="url(#SVGID_00000183931213698010408700000002766908890006618001_)">
									<g transform="matrix(0.56628054 0 0 0.56610143 11.671948 -33.69928)">
										
											<image overflow="visible" enable-background="new    " width="162" height="264" id="img_2" xlink:href="98AB33405480B74C.png"  transform="matrix(0.5011 0 0 0.501 -22.7504 -2.4953)">
										</image>
									</g>
								</g>
							</g>
						</g>
					</g>
					<path id="Path_00000090981402328546801220000015070276771664382126_" fill="none" stroke="#0A2A3C" stroke-width="2" d="
						M197.82,170.82c-2-0.2-4.01-0.45-6.01-0.65"/>
					<path id="Path_00000107582268512025974900000015001027690992928897_" fill="none" stroke="#0A2A3C" stroke-width="2" d="
						M187.1,170.22c-11.58-0.9-23.3,0.05-34.63,2.76"/>
					<path id="Path_00000006685238027865722330000011433939639460844477_" fill="none" stroke="#0A2A3C" stroke-width="2" d="
						M132.32,174.38c3.91-0.3,7.82-0.55,11.73-0.85"/>
					<g id="Group_00000150093157414638414270000009795979849849530289_" transform="translate(35.109394 69.63047)">
						
							<path id="Path_00000084521436147599759010000007204175066826034350_" fill-rule="evenodd" clip-rule="evenodd" fill="#FAAA4B" d="
							M-29.43,54.2l23.05-14.08l-1.65-2.81l-23.1,14.13L-29.43,54.2z"/>
						
							<path id="Path_00000048482022004795333110000006759865485664827045_" fill-rule="evenodd" clip-rule="evenodd" fill="#FAAA4B" d="
							M-27.32,57.56l23-14.03l-1.1-1.85l-23,14.03L-27.32,57.56z"/>
						
							<path id="Path_00000039127227938964433730000017864028590430540957_" fill-rule="evenodd" clip-rule="evenodd" fill="#FAAA4B" d="
							M-25.47,60.46l22.9-14.03l-0.8-1.35l-22.95,14.03L-25.47,60.46z"/>
						
							<path id="Path_00000108272819004263026070000000973794698910156477_" fill-rule="evenodd" clip-rule="evenodd" fill="#FAAA4B" d="
							M-23.91,62.97l22.85-13.98l-0.55-1l-22.9,13.98L-23.91,62.97z"/>
					</g>
					<g id="Group_00000137105929258540394020000014873806957627477144_" transform="translate(48.13385 111.52197)" opacity="0.6">
						<g id="Clipped_00000103255581712854043260000004707836041935142796_">
							<path id="SVGID_20_" fill="none" d="M151.29,59.2c3.71-6.51-3.21-20.34-4.66-26.9c-7.22,1.5-13.48,5.86-19.9,9.47
								c-10.22,5.66-21.4,9.57-32.92,11.47c-1.3,0.2-2.61,0.4-3.86-0.05c-1.2-0.45-2.2-1.8-1.8-3.01c-0.5,1.55-3.56,3.41-4.41,5.26
								c-0.7,1.6-1.3,4.06-1.1,5.76c0.05,0.6,0.2,1.2,0,1.75c-0.25,0.55-0.8,0.9-1.3,1.25C68.95,71.92,57.18,81.19,47.1,91.76
								c-4.66,4.91-9.27,9.92-13.38,15.38c-2.15,2.86-4.21,5.81-6.06,8.87c-0.9,1.45-4.81,6.51-4.46,8.22
								c-3.56-16.88-11.43-32.81-22.6-45.99c-2.51-2.96-5.31-5.31-6.77-8.97c-8.42,3.11-17.69,4.01-26.56,2.61
								c0.3,17.58,2.91,34.32,9.42,50.75c6.36,16.13,15.54,31.16,26.31,44.74c4.56,5.76,9.42,11.22,14.58,16.48
								c5.96,6.06,12.88,11.27,20.85,5.96c7.92-5.26,15.03-11.77,21.05-19.19c-2.15,2.71-1.1,13.18-1.2,16.63
								c-0.15,6.36,0,12.72,0.5,19.04c0.5,6.31,1.25,12.67,2.46,18.89c1.4,7.41,2.86,6.91,10.02,5.71
								c24.06-4.01,46.86-13.33,69.01-23.2c31.82-14.18,63.75-30.21,87.85-55.36c-3.51-18.69-6.97-39.83-12.83-57.91
								c-1.05-3.26-2.15-6.56-4.31-9.22c-2.05-2.55-4.86-4.31-7.67-5.96c-15.49-9.12-32.37-15.88-49.91-19.99
								C152.84,60.1,151.79,58.4,151.29,59.2z"/>
							<g>
								<defs>
									<path id="SVGID_00000173862782123823181240000015454127239750784655_" d="M151.29,59.2c3.71-6.51-3.21-20.34-4.66-26.9
										c-7.22,1.5-13.48,5.86-19.9,9.47c-10.22,5.66-21.4,9.57-32.92,11.47c-1.3,0.2-2.61,0.4-3.86-0.05
										c-1.2-0.45-2.2-1.8-1.8-3.01c-0.5,1.55-3.56,3.41-4.41,5.26c-0.7,1.6-1.3,4.06-1.1,5.76c0.05,0.6,0.2,1.2,0,1.75
										c-0.25,0.55-0.8,0.9-1.3,1.25C68.95,71.92,57.18,81.19,47.1,91.76c-4.66,4.91-9.27,9.92-13.38,15.38
										c-2.15,2.86-4.21,5.81-6.06,8.87c-0.9,1.45-4.81,6.51-4.46,8.22c-3.56-16.88-11.43-32.81-22.6-45.99
										c-2.51-2.96-5.31-5.31-6.77-8.97c-8.42,3.11-17.69,4.01-26.56,2.61c0.3,17.58,2.91,34.32,9.42,50.75
										c6.36,16.13,15.54,31.16,26.31,44.74c4.56,5.76,9.42,11.22,14.58,16.48c5.96,6.06,12.88,11.27,20.85,5.96
										c7.92-5.26,15.03-11.77,21.05-19.19c-2.15,2.71-1.1,13.18-1.2,16.63c-0.15,6.36,0,12.72,0.5,19.04
										c0.5,6.31,1.25,12.67,2.46,18.89c1.4,7.41,2.86,6.91,10.02,5.71c24.06-4.01,46.86-13.33,69.01-23.2
										c31.82-14.18,63.75-30.21,87.85-55.36c-3.51-18.69-6.97-39.83-12.83-57.91c-1.05-3.26-2.15-6.56-4.31-9.22
										c-2.05-2.55-4.86-4.31-7.67-5.96c-15.49-9.12-32.37-15.88-49.91-19.99C152.84,60.1,151.79,58.4,151.29,59.2z"/>
								</defs>
								<clipPath id="SVGID_00000082350448690611387590000016325599348844226179_">
									<use xlink:href="#SVGID_00000173862782123823181240000015454127239750784655_"  overflow="visible"/>
								</clipPath>
								<g clip-path="url(#SVGID_00000082350448690611387590000016325599348844226179_)">
									<g transform="matrix(0.5662806 0 0 0.5661014 90.03861 108.502785)">
										
											<image overflow="visible" enable-background="new    " width="268" height="246" id="img_3" xlink:href="98AB33405480B74B.png"  transform="matrix(0.5011 0 0 0.501 46.6015 128.1677)">
										</image>
									</g>
								</g>
							</g>
						</g>
					</g>
					<path id="Path_00000042014607116149409500000011791195393073548449_" fill="none" stroke="#BD7361" d="M199.42,170.72
						c3.71-6.51-3.21-20.34-4.66-26.9c-7.22,1.5-13.48,5.86-19.9,9.47c-10.22,5.66-21.4,9.57-32.92,11.47
						c-1.3,0.2-2.61,0.4-3.86-0.05c-1.2-0.45-2.2-1.8-1.8-3.01c-0.5,1.55-3.56,3.41-4.41,5.26c-0.7,1.6-1.3,4.06-1.1,5.76
						c0.05,0.6,0.2,1.2,0,1.75c-0.25,0.55-0.8,0.9-1.3,1.25c-12.38,7.72-24.15,16.98-34.23,27.55c-4.66,4.91-9.27,9.92-13.38,15.38
						c-2.15,2.86-4.21,5.81-6.06,8.87c-0.9,1.45-4.81,6.51-4.46,8.22c-3.56-16.88-11.43-32.81-22.6-45.99
						c-2.51-2.96-5.31-5.31-6.77-8.97c-8.42,3.11-17.69,4.01-26.56,2.61c0.3,17.58,2.91,34.32,9.42,50.75
						c6.36,16.13,15.54,31.16,26.31,44.74c4.56,5.76,9.42,11.22,14.58,16.48c5.96,6.06,12.88,11.27,20.85,5.96
						c7.92-5.26,15.03-11.77,21.05-19.19c-2.15,2.71-1.1,13.18-1.2,16.63c-0.15,6.36,0,12.72,0.5,19.04s1.25,12.67,2.46,18.89
						c1.4,7.41,2.86,6.91,10.02,5.71c24.06-4.01,46.86-13.33,69.01-23.2c31.82-14.18,63.75-30.21,87.85-55.36
						c-3.51-18.69-6.97-39.83-12.83-57.91c-1.05-3.26-2.15-6.56-4.31-9.22c-2.05-2.55-4.86-4.31-7.67-5.96
						c-15.49-9.12-32.37-15.88-49.91-19.99C200.98,171.62,199.92,169.92,199.42,170.72z"/>
					<g id="Group_00000096753504208323974210000018379404322301748653_">
						
							<path id="Path_00000170957066572893949900000015602523747011425924_" fill-rule="evenodd" clip-rule="evenodd" fill="#FAAA4B" d="
							M-25.04,44.98L2.02,89.26c1.5-0.5,3.16-0.4,4.66,0.4c2.96,1.55,4.11,5.21,2.61,8.17c-1.5,2.96-5.21,4.11-8.17,2.61
							c-2.96-1.55-4.11-5.21-2.61-8.17c0.3-0.55,0.65-1.05,1.1-1.5l-27.06-44.29l9.72,66.08l19.09,4.31l8.42-5.16l1.95-1.2l2.41-1.5
							l6.11-3.71l4.26-2.61l4.86-18.99L-25.04,44.98z"/>
						<g id="Group_00000013169968008039176200000004755670252323875489_" transform="translate(31.711712 63.969456)">
							
								<path id="Path_00000082345752461037931880000006101582092930470070_" fill-rule="evenodd" clip-rule="evenodd" fill="#21B787" d="
								M36.31,160.01c0.05,0.15,0.1,0.35,0.15,0.5l4.61,7.41c1.1-1.75,2.46-3.61,2.91-4.41c1.85-3.06,3.91-6.01,6.06-8.87
								c2.26-3.01,4.71-5.86,7.22-8.67L-7.64,37.92l-6.31,3.86l-10.52,6.46l-6.31,3.86l67.05,107.96L36.31,160.01z"/>
							
								<path id="Path_00000103246299245774877570000018315603609074706582_" fill-rule="evenodd" clip-rule="evenodd" fill="#21B787" d="
								M89.83,200.13c-4.21,5.86-8.07,12.17-12.83,17.53c0,0-2.41,2.86-2.91,3.41l22.25,35.82l4.81-2.96l10.52-6.46l4.81-2.96
								L89.83,200.13z"/>
						</g>
						<g id="Group_00000105408462612290511290000004029991366273577864_" transform="translate(31.711712 71.894875)">
							
								<path id="Path_00000005970298609761253940000006390022748757869454_" fill-rule="evenodd" clip-rule="evenodd" fill="#0A2A3C" d="
								M36.31,152.08c0.05,0.15,0.1,0.35,0.15,0.5l4.61,7.42c1.1-1.75,2.46-3.61,2.91-4.41c1.5-2.45,3.11-4.81,4.76-7.11l-68-111.37
								l-5.26,3.21l-6.31,3.86l67.05,107.96L36.31,152.08z"/>
							
								<path id="Path_00000109718742462935341650000003347085836228797097_" fill-rule="evenodd" clip-rule="evenodd" fill="#0A2A3C" d="
								M81.87,202.58c-1.8,2.2-2.96,5.01-4.86,7.11l-1.35,1.6c-0.45,0.55-1.1,1.25-1.55,1.8l22.25,35.82l4.81-2.96l5.26-3.21
								L81.87,202.58z"/>
						</g>
					</g>
					<path id="Path_00000120538438960745307880000017623680090560345760_" fill="none" stroke="#0A2A3C" stroke-width="2" d="
						M105.81,284.99c6.41-7.16,14.53-18.89,19.85-26.9c1.6,0.85,3.51,1.2,5.31,0.95"/>
					
						<path id="Path_00000034053627730022318200000006583571376634684039_" fill-rule="evenodd" clip-rule="evenodd" fill="#FDC485" d="
						M41.92,180.79l2.46-14.63c0.25-1.55-0.2-3.11-1.25-4.26l-3.61-4.06c-3.46-3.91-5.21-9.07-4.81-14.28l0.3-3.46
						c0,0-5.41-2.76-7.77,3.86c-2.36,6.61,0,14.33,0,14.33L9.59,130.14c0,0,0,17.18-2.91,29.06c-0.05,0.15-0.05,0.3,0.05,0.5
						l8.57,23.8C15.35,183.4,27.98,186.65,41.92,180.79z"/>
					<g id="Group_00000054969935891589647880000001674591179255045817_" transform="translate(48.13385 111.52197)" opacity="0.6">
						<g id="Clipped_00000006704234445668069080000004640720747109539760_">
							<path id="SVGID_22_" fill="none" d="M151.29,59.2c3.71-6.51-3.21-20.34-4.66-26.9c-7.22,1.5-13.48,5.86-19.9,9.47
								c-10.22,5.66-21.4,9.57-32.92,11.47c-1.3,0.2-2.61,0.4-3.86-0.05c-1.2-0.45-2.2-1.8-1.8-3.01c-0.5,1.55-3.56,3.41-4.41,5.26
								c-0.7,1.6-1.3,4.06-1.1,5.76c0.05,0.6,0.2,1.2,0,1.75c-0.25,0.55-0.8,0.9-1.3,1.25C68.95,71.92,57.18,81.19,47.1,91.76
								c-4.66,4.91-9.27,9.92-13.38,15.38c-2.15,2.86-4.21,5.81-6.06,8.87c-0.9,1.45-4.81,6.51-4.46,8.22
								c-3.56-16.88-11.43-32.81-22.6-45.99c-2.51-2.96-5.31-5.31-6.77-8.97c-8.42,3.11-17.69,4.01-26.56,2.61
								c0.3,17.58,2.91,34.32,9.42,50.75c6.36,16.13,15.54,31.16,26.31,44.74c4.56,5.76,9.42,11.22,14.58,16.48
								c5.96,6.06,12.88,11.27,20.85,5.96c7.92-5.26,15.03-11.77,21.05-19.19c-2.15,2.71-1.1,13.18-1.2,16.63
								c-0.15,6.36,0,12.72,0.5,19.04c0.5,6.31,1.25,12.67,2.46,18.89c1.4,7.41,2.86,6.91,10.02,5.71
								c24.06-4.01,46.86-13.33,69.01-23.2c31.82-14.18,63.75-30.21,87.85-55.36c-3.51-18.69-6.97-39.83-12.83-57.91
								c-1.05-3.26-2.15-6.56-4.31-9.22c-2.05-2.55-4.86-4.31-7.67-5.96c-15.49-9.12-32.37-15.88-49.91-19.99
								C152.84,60.1,151.79,58.4,151.29,59.2z"/>
							<g>
								<defs>
									<path id="SVGID_00000178890653446143229350000007193948683536390029_" d="M151.29,59.2c3.71-6.51-3.21-20.34-4.66-26.9
										c-7.22,1.5-13.48,5.86-19.9,9.47c-10.22,5.66-21.4,9.57-32.92,11.47c-1.3,0.2-2.61,0.4-3.86-0.05
										c-1.2-0.45-2.2-1.8-1.8-3.01c-0.5,1.55-3.56,3.41-4.41,5.26c-0.7,1.6-1.3,4.06-1.1,5.76c0.05,0.6,0.2,1.2,0,1.75
										c-0.25,0.55-0.8,0.9-1.3,1.25C68.95,71.92,57.18,81.19,47.1,91.76c-4.66,4.91-9.27,9.92-13.38,15.38
										c-2.15,2.86-4.21,5.81-6.06,8.87c-0.9,1.45-4.81,6.51-4.46,8.22c-3.56-16.88-11.43-32.81-22.6-45.99
										c-2.51-2.96-5.31-5.31-6.77-8.97c-8.42,3.11-17.69,4.01-26.56,2.61c0.3,17.58,2.91,34.32,9.42,50.75
										c6.36,16.13,15.54,31.16,26.31,44.74c4.56,5.76,9.42,11.22,14.58,16.48c5.96,6.06,12.88,11.27,20.85,5.96
										c7.92-5.26,15.03-11.77,21.05-19.19c-2.15,2.71-1.1,13.18-1.2,16.63c-0.15,6.36,0,12.72,0.5,19.04
										c0.5,6.31,1.25,12.67,2.46,18.89c1.4,7.41,2.86,6.91,10.02,5.71c24.06-4.01,46.86-13.33,69.01-23.2
										c31.82-14.18,63.75-30.21,87.85-55.36c-3.51-18.69-6.97-39.83-12.83-57.91c-1.05-3.26-2.15-6.56-4.31-9.22
										c-2.05-2.55-4.86-4.31-7.67-5.96c-15.49-9.12-32.37-15.88-49.91-19.99C152.84,60.1,151.79,58.4,151.29,59.2z"/>
								</defs>
								<clipPath id="SVGID_00000132791891401365979040000006244129071507647679_">
									<use xlink:href="#SVGID_00000178890653446143229350000007193948683536390029_"  overflow="visible"/>
								</clipPath>
								<g clip-path="url(#SVGID_00000132791891401365979040000006244129071507647679_)">
									<g transform="matrix(0.56628054 0 0 0.56610143 158.67482 -33.133236)">
										
											<image overflow="visible" enable-background="new    " width="337" height="410" id="img_4" xlink:href="98AB33405480B744.png"  transform="matrix(0.5011 0 0 0.501 107.3422 2.8245)">
										</image>
									</g>
								</g>
							</g>
						</g>
					</g>
					<g id="Clipped_00000021836693650932626890000016457251422367072170_" transform="translate(130.8108 9.057622)">
						<path id="SVGID_24_" fill="none" d="M-38.38,62.92c-1.35-1.05-2.71-2.2-3.36-3.76c-1.75-4.41,3.06-8.67,7.62-10.02
							c7.22-2.15,15.03-1.4,22.3-3.41c2.26-0.6,4.46-1.5,6.77-1.5c1.75,0,3.41,0.5,5.11,1c5.16,1.55,10.32,3.06,15.49,4.61
							c10.42-4.66,24.1,0.15,29.27,10.32c0.8,1.55,1.45,3.21,2.71,4.36c1,0.9,2.26,1.35,3.46,2c5.56,2.86,9.17,8.77,10.22,14.93
							c1.05,6.16-0.25,12.52-2.66,18.34c-2.3,5.66-5.71,11.07-6.26,17.13c-0.35,4.11,0.65,8.32,2.86,11.82
							c-4.36,1.2-9.27-0.15-12.43-3.36c-0.65,3.11-3.41,5.46-6.46,6.41c-3.01,0.95-6.31,0.75-9.47,0.35
							c-9.42-1.15-18.64-3.96-27.21-8.17c-0.2-3.36-0.35-6.76-0.55-10.12c-0.15-2.81-0.35-5.76-1.95-8.07
							c-1.6-2.3-5.06-3.56-7.27-1.85c-1.5,1.15-1.95,3.21-2.1,5.11c-0.75,8.32,1.8,16.83,7.02,23.35c-1.45-0.15-2.96,0.55-3.76,1.75
							c4.61,3.46,8.77,7.46,12.38,11.92c4.41,5.46-2.96,8.82-7.22,10.77c-0.8,0.35-1.65,0.7-2.56,0.8c-2.51,0.2-4.86-1.6-7.32-1.15
							c-0.95,0.2-1.8,0.7-2.76,0.8c-1.4,0.15-2.76-0.65-3.66-1.7c-0.9-1.1-1.4-2.4-1.9-3.76c-2.96-8.22-5.86-17.18-5.81-26
							c0-0.9,0.15-1.95,0.95-2.4c0.95,2.1,1.95,4.21,2.91,6.26c0.4,0.8,0.8,1.65,1.45,2.25c2.2,1.85,7.72,1.4,10.02,0.2
							c-1.95,1-4.71-22.34-4.56-24.35c0.6-8.92,3.76-16.58,7.97-24.3c-1.85-1.35-2.36-3.56-4.01-4.96c-2.31-1.9-5.61-2.96-8.22-4.36
							C-27.36,70.84-33.02,67.13-38.38,62.92z"/>
						<g>
							<defs>
								<path id="SVGID_00000094609864552941742330000013303583834794882478_" d="M-38.38,62.92c-1.35-1.05-2.71-2.2-3.36-3.76
									c-1.75-4.41,3.06-8.67,7.62-10.02c7.22-2.15,15.03-1.4,22.3-3.41c2.26-0.6,4.46-1.5,6.77-1.5c1.75,0,3.41,0.5,5.11,1
									c5.16,1.55,10.32,3.06,15.49,4.61c10.42-4.66,24.1,0.15,29.27,10.32c0.8,1.55,1.45,3.21,2.71,4.36c1,0.9,2.26,1.35,3.46,2
									c5.56,2.86,9.17,8.77,10.22,14.93c1.05,6.16-0.25,12.52-2.66,18.34c-2.3,5.66-5.71,11.07-6.26,17.13
									c-0.35,4.11,0.65,8.32,2.86,11.82c-4.36,1.2-9.27-0.15-12.43-3.36c-0.65,3.11-3.41,5.46-6.46,6.41
									c-3.01,0.95-6.31,0.75-9.47,0.35c-9.42-1.15-18.64-3.96-27.21-8.17c-0.2-3.36-0.35-6.76-0.55-10.12
									c-0.15-2.81-0.35-5.76-1.95-8.07c-1.6-2.3-5.06-3.56-7.27-1.85c-1.5,1.15-1.95,3.21-2.1,5.11
									c-0.75,8.32,1.8,16.83,7.02,23.35c-1.45-0.15-2.96,0.55-3.76,1.75c4.61,3.46,8.77,7.46,12.38,11.92
									c4.41,5.46-2.96,8.82-7.22,10.77c-0.8,0.35-1.65,0.7-2.56,0.8c-2.51,0.2-4.86-1.6-7.32-1.15c-0.95,0.2-1.8,0.7-2.76,0.8
									c-1.4,0.15-2.76-0.65-3.66-1.7c-0.9-1.1-1.4-2.4-1.9-3.76c-2.96-8.22-5.86-17.18-5.81-26c0-0.9,0.15-1.95,0.95-2.4
									c0.95,2.1,1.95,4.21,2.91,6.26c0.4,0.8,0.8,1.65,1.45,2.25c2.2,1.85,7.72,1.4,10.02,0.2c-1.95,1-4.71-22.34-4.56-24.35
									c0.6-8.92,3.76-16.58,7.97-24.3c-1.85-1.35-2.36-3.56-4.01-4.96c-2.31-1.9-5.61-2.96-8.22-4.36
									C-27.36,70.84-33.02,67.13-38.38,62.92z"/>
							</defs>
							<clipPath id="SVGID_00000067945897089401788420000010033094831344548258_">
								<use xlink:href="#SVGID_00000094609864552941742330000013303583834794882478_"  overflow="visible"/>
							</clipPath>
							<g clip-path="url(#SVGID_00000067945897089401788420000010033094831344548258_)">
								<g transform="matrix(0.07882631 0.5607876 -0.56061023 0.07880138 45.521515 -38.884384)">
									
										<image overflow="visible" enable-background="new    " width="159" height="163" id="img_5" xlink:href="98AB33405480B747.png"  transform="matrix(0.0698 0.4963 -0.4961 0.0697 -2.3053 9.5218)">
									</image>
								</g>
							</g>
						</g>
					</g>
				</g>
			</g>
			<g id="folder" transform="translate(79.253876 69.68281)">
				<path id="Shape" fill="#36C2DB" d="M-9.59,50.5c0.62,0,1.14,0.51,1.14,1.13c0,0.62-0.51,1.13-1.14,1.13s-1.14-0.51-1.14-1.13
					C-10.73,51.01-10.21,50.5-9.59,50.5 M-9.59,49.77c-1.03,0-1.87,0.84-1.87,1.87c0,1.02,0.85,1.87,1.87,1.87
					c1.03,0,1.87-0.84,1.87-1.87C-7.71,50.61-8.56,49.77-9.59,49.77L-9.59,49.77z"/>
				<path id="Shape_00000115503708394649632710000005460469341750545309_" fill="#36C2DB" d="M-3.41,50.5
					c0.62,0,1.14,0.51,1.14,1.13c0,0.62-0.51,1.13-1.14,1.13s-1.14-0.51-1.14-1.13C-4.55,51.01-4.07,50.5-3.41,50.5 M-3.41,49.77
					c-1.03,0-1.87,0.84-1.87,1.87c0,1.02,0.85,1.87,1.87,1.87c1.03,0,1.87-0.84,1.87-1.87C-1.54,50.61-2.38,49.77-3.41,49.77
					L-3.41,49.77z"/>
				<path id="Oval" fill-rule="evenodd" clip-rule="evenodd" fill="#36C2DB" d="M2.98,53.5c1.04,0,1.87-0.84,1.87-1.87
					c0-1.03-0.84-1.87-1.87-1.87c-1.04,0-1.87,0.84-1.87,1.87C1.11,52.66,1.95,53.5,2.98,53.5z"/>
				
					<path id="Path_00000032609616285279333670000014156540482211925128_" fill-rule="evenodd" clip-rule="evenodd" fill="#EAF1FA" d="
					M36.06,151.67l8.89,8.89h-8.89V151.67z"/>
			</g>
			<g id="Details" transform="translate(0.6365357 0.88553035)">
				<g id="Group_00000159447129803905413950000015846472320220548013_" transform="translate(0.7368479 133.373)">
					<path id="Path_00000018236983023172031510000000087276718520761519_" fill="none" stroke="#072A3D" stroke-width="2" d="
						M1.06,53.78l2.16-11.55"/>
					<path id="Path_00000024715722965130883200000006561669192274353062_" fill="none" stroke="#072A3D" stroke-width="2" d="
						M-3.12,46.83l10.52,2.35"/>
				</g>
				<g id="Group_00000154409642130092098680000004275217994932760207_" transform="translate(370.6713 0.020339238)">
					<path id="Path_00000020388105372811317290000007042920464789185707_" fill="none" stroke="#072A3D" stroke-width="2" d="
						M-41.99,68.19L-40,57.6"/>
					<path id="Path_00000142150889636975013380000018377809880916031361_" fill="none" stroke="#072A3D" stroke-width="2" d="
						M-45.82,61.82l9.61,2.16"/>
				</g>
				<g id="Group_00000102546909837554393520000012792333865825201848_" transform="translate(253.21246 420.39197)">
					<path id="Path_00000036957039356797508590000008980297161476032688_" fill="none" stroke="#072A3D" stroke-width="2" d="
						M-32.01,17.05l10.49-5.19"/>
					<path id="Path_00000036234304727206844780000005750391839607525533_" fill="none" stroke="#072A3D" stroke-width="2" d="
						M-28.97,9.54l4.4,9.86"/>
				</g>
				<g id="Group_00000085963298392868243760000006192828773649773469_" transform="translate(25.521812 19.891825)">
					<path id="Path_00000088855122323135922170000015221221529528931971_" fill="none" stroke="#072A3D" stroke-width="2" d="
						M-2.7,61.61l-0.66-6.14"/>
					<path id="Path_00000097495772929019288600000008559028523750496667_" fill="none" stroke="#072A3D" stroke-width="2" d="
						M-5.86,58.74l5.65-0.4"/>
				</g>
				<g id="Group_00000110464725104687845640000006245024896621834937_" transform="translate(530.0694 403.82034)">
					<path id="Path_00000072967005639261572600000003673803893619868058_" fill="none" stroke="#072A3D" stroke-width="2" d="
						M-60.93,17.33l-0.66-6.18"/>
					<path id="Path_00000150819401697020593760000009223598535764367261_" fill="none" stroke="#072A3D" stroke-width="2" d="
						M-64.08,14.43l5.65-0.37"/>
				</g>
				<path id="Oval_00000151527927221823846460000002883236089716540329_" fill="none" stroke="#072A3D" stroke-width="2" d="
					M488.27,208.57c1.16,0,2.09-0.94,2.09-2.1s-0.94-2.1-2.09-2.1s-2.09,0.94-2.09,2.1S487.12,208.57,488.27,208.57z"/>
				<path id="Oval_00000048475537467485003980000007798346728185133701_" fill="none" stroke="#072A3D" stroke-width="2" d="
					M465.72,86.28c0.69,0,1.25-0.56,1.25-1.25c0-0.69-0.56-1.25-1.25-1.25s-1.25,0.56-1.25,1.25
					C464.47,85.72,465.03,86.28,465.72,86.28z"/>
				<path id="Oval_00000067238276780292879500000013004032521498123148_" fill="none" stroke="#072A3D" stroke-width="2" d="
					M112.7,389.89c1.4,0,2.53-1.14,2.53-2.54c0-1.4-1.13-2.54-2.53-2.54c-1.4,0-2.53,1.14-2.53,2.54
					C110.17,388.75,111.31,389.89,112.7,389.89z"/>
				<path id="Path_00000116933574231538204790000014191849596612365444_" fill="none" stroke="#072A3D" stroke-width="2" d="
					M175.17,65.84l-5.87-6.66C170.99,61.65,172.93,63.89,175.17,65.84z"/>
				<path id="Path_00000028285571450745026050000012147607142927701643_" fill="none" stroke="#072A3D" stroke-width="2" d="
					M251.13,371.13l4.18,4.19"/>
			</g>
		</g>
		<g id="Group-38" transform="translate(123 111)">
			
				<path id="Rectangle_00000143588223379457378350000010685164231284373691_" fill-rule="evenodd" clip-rule="evenodd" fill="#36C2DB" d="
				M-14.03,44.9h94.84c0.05,0,0.11,0.01,0.16,0.02c0.05,0.01,0.1,0.03,0.15,0.05c0.05,0.02,0.1,0.05,0.14,0.07s0.09,0.06,0.12,0.1
				c0.04,0.04,0.07,0.08,0.1,0.12c0.03,0.04,0.05,0.09,0.07,0.14c0.02,0.05,0.04,0.1,0.05,0.15c0.01,0.05,0.02,0.1,0.02,0.16v0
				c0,0.05-0.01,0.11-0.02,0.16c-0.01,0.05-0.03,0.1-0.05,0.15c-0.02,0.05-0.04,0.1-0.07,0.14c-0.03,0.04-0.06,0.09-0.1,0.12
				c-0.04,0.04-0.08,0.07-0.12,0.1c-0.04,0.03-0.09,0.05-0.14,0.07c-0.05,0.02-0.1,0.04-0.15,0.05c-0.05,0.01-0.1,0.02-0.16,0.02
				h-94.84c-0.05,0-0.11-0.01-0.16-0.02c-0.05-0.01-0.1-0.03-0.15-0.05c-0.05-0.02-0.1-0.05-0.14-0.07
				c-0.04-0.03-0.09-0.06-0.12-0.1c-0.04-0.04-0.07-0.08-0.1-0.12c-0.03-0.04-0.05-0.09-0.07-0.14c-0.02-0.05-0.04-0.1-0.05-0.15
				c-0.01-0.05-0.02-0.1-0.02-0.16v0c0-0.05,0.01-0.11,0.02-0.16c0.01-0.05,0.03-0.1,0.05-0.15c0.02-0.05,0.05-0.1,0.07-0.14
				c0.03-0.04,0.06-0.09,0.1-0.12c0.04-0.04,0.08-0.07,0.12-0.1c0.04-0.03,0.09-0.05,0.14-0.07c0.05-0.02,0.1-0.04,0.15-0.05
				C-14.13,44.91-14.08,44.9-14.03,44.9L-14.03,44.9z"/>
			
				<path id="Rectangle_00000096754504738204916470000006847431272093054084_" fill-rule="evenodd" clip-rule="evenodd" fill="#36C2DB" d="
				M-14.03,99.26h94.84c0.05,0,0.11,0.01,0.16,0.02c0.05,0.01,0.1,0.03,0.15,0.05c0.05,0.02,0.1,0.05,0.14,0.07
				c0.04,0.03,0.09,0.06,0.12,0.1c0.04,0.04,0.07,0.08,0.1,0.12c0.03,0.04,0.05,0.09,0.07,0.14c0.02,0.05,0.04,0.1,0.05,0.15
				c0.01,0.05,0.02,0.1,0.02,0.16v0c0,0.05-0.01,0.11-0.02,0.16c-0.01,0.05-0.03,0.1-0.05,0.15c-0.02,0.05-0.04,0.1-0.07,0.14
				c-0.03,0.04-0.06,0.09-0.1,0.12c-0.04,0.04-0.08,0.07-0.12,0.1c-0.04,0.03-0.09,0.05-0.14,0.07c-0.05,0.02-0.1,0.04-0.15,0.05
				c-0.05,0.01-0.1,0.02-0.16,0.02h-94.84c-0.05,0-0.11-0.01-0.16-0.02c-0.05-0.01-0.1-0.03-0.15-0.05
				c-0.05-0.02-0.1-0.05-0.14-0.07c-0.04-0.03-0.09-0.06-0.12-0.1c-0.04-0.04-0.07-0.08-0.1-0.12c-0.03-0.04-0.05-0.09-0.07-0.14
				c-0.02-0.05-0.04-0.1-0.05-0.15c-0.01-0.05-0.02-0.1-0.02-0.16v0c0-0.05,0.01-0.11,0.02-0.16c0.01-0.05,0.03-0.1,0.05-0.15
				c0.02-0.05,0.05-0.1,0.07-0.14c0.03-0.04,0.06-0.09,0.1-0.12c0.04-0.04,0.08-0.07,0.12-0.1c0.04-0.03,0.09-0.05,0.14-0.07
				c0.05-0.02,0.1-0.04,0.15-0.05C-14.13,99.26-14.08,99.26-14.03,99.26L-14.03,99.26z"/>
			
				<path id="Rectangle_00000171706449630361800140000005502049644773481876_" fill-rule="evenodd" clip-rule="evenodd" fill="#36C2DB" d="
				M-14.03,57.07H33.4c0.05,0,0.11,0.01,0.16,0.02c0.05,0.01,0.1,0.03,0.15,0.05c0.05,0.02,0.1,0.05,0.14,0.07
				c0.04,0.03,0.09,0.06,0.12,0.1c0.04,0.04,0.07,0.08,0.1,0.12c0.03,0.04,0.05,0.09,0.07,0.14c0.02,0.05,0.04,0.1,0.05,0.15
				c0.01,0.05,0.02,0.1,0.02,0.16v0c0,0.05-0.01,0.11-0.02,0.16c-0.01,0.05-0.03,0.1-0.05,0.15c-0.02,0.05-0.05,0.1-0.07,0.14
				s-0.06,0.09-0.1,0.12c-0.04,0.04-0.08,0.07-0.12,0.1c-0.04,0.03-0.09,0.05-0.14,0.07c-0.05,0.02-0.1,0.04-0.15,0.05
				c-0.05,0.01-0.1,0.02-0.16,0.02h-47.43c-0.05,0-0.11-0.01-0.16-0.02c-0.05-0.01-0.1-0.03-0.15-0.05
				c-0.05-0.02-0.1-0.05-0.14-0.07c-0.04-0.03-0.09-0.06-0.12-0.1c-0.04-0.04-0.07-0.08-0.1-0.12c-0.03-0.04-0.05-0.09-0.07-0.14
				c-0.02-0.05-0.04-0.1-0.05-0.15c-0.01-0.05-0.02-0.1-0.02-0.16v0c0-0.05,0.01-0.11,0.02-0.16c0.01-0.05,0.03-0.1,0.05-0.15
				c0.02-0.05,0.05-0.1,0.07-0.14c0.03-0.04,0.06-0.09,0.1-0.12c0.04-0.04,0.08-0.07,0.12-0.1c0.04-0.03,0.09-0.05,0.14-0.07
				c0.05-0.02,0.1-0.04,0.15-0.05C-14.13,57.08-14.08,57.07-14.03,57.07L-14.03,57.07z"/>
			
				<path id="Rectangle_00000163062209425158864150000006876583776721782449_" fill-rule="evenodd" clip-rule="evenodd" fill="#36C2DB" d="
				M-14.03,111.42H33.4c0.05,0,0.11,0.01,0.16,0.02c0.05,0.01,0.1,0.03,0.15,0.05c0.05,0.02,0.1,0.05,0.14,0.07
				c0.04,0.03,0.09,0.06,0.12,0.1c0.04,0.04,0.07,0.08,0.1,0.12c0.03,0.04,0.05,0.09,0.07,0.14c0.02,0.05,0.04,0.1,0.05,0.15
				c0.01,0.05,0.02,0.1,0.02,0.16v0c0,0.05-0.01,0.11-0.02,0.16c-0.01,0.05-0.03,0.1-0.05,0.15c-0.02,0.05-0.05,0.1-0.07,0.14
				c-0.03,0.04-0.06,0.09-0.1,0.12c-0.04,0.04-0.08,0.07-0.12,0.1c-0.04,0.03-0.09,0.05-0.14,0.07c-0.05,0.02-0.1,0.04-0.15,0.05
				c-0.05,0.01-0.1,0.02-0.16,0.02h-47.43c-0.05,0-0.11-0.01-0.16-0.02c-0.05-0.01-0.1-0.03-0.15-0.05
				c-0.05-0.02-0.1-0.05-0.14-0.07c-0.04-0.03-0.09-0.06-0.12-0.1s-0.07-0.08-0.1-0.12c-0.03-0.04-0.05-0.09-0.07-0.14
				c-0.02-0.05-0.04-0.1-0.05-0.15c-0.01-0.05-0.02-0.1-0.02-0.16v0c0-0.05,0.01-0.11,0.02-0.16c0.01-0.05,0.03-0.1,0.05-0.15
				c0.02-0.05,0.05-0.1,0.07-0.14c0.03-0.04,0.06-0.09,0.1-0.12c0.04-0.04,0.08-0.07,0.12-0.1c0.04-0.03,0.09-0.05,0.14-0.07
				c0.05-0.02,0.1-0.04,0.15-0.05C-14.13,111.43-14.08,111.42-14.03,111.42L-14.03,111.42z"/>
		</g>
		<g id="Developing-Social-Networks_x40_1x" transform="translate(0 185)">
			<g id="Group-9">
				<g id="Rectangle_00000127764903815564030540000012782037659885874364_">
					<path fill-rule="evenodd" clip-rule="evenodd" fill="#FFFFFF" d="M9.04,37.12h175.23c0.15,0,0.29,0,0.43,0.01
						c0.14,0.01,0.29,0.02,0.43,0.03s0.29,0.03,0.43,0.05c0.14,0.02,0.29,0.05,0.43,0.07c0.14,0.03,0.28,0.06,0.42,0.1
						c0.14,0.04,0.28,0.07,0.42,0.12c0.14,0.04,0.28,0.09,0.41,0.14c0.14,0.05,0.27,0.1,0.4,0.16c0.13,0.06,0.27,0.11,0.4,0.18
						c0.13,0.06,0.26,0.13,0.39,0.2c0.13,0.07,0.25,0.14,0.38,0.21c0.12,0.07,0.25,0.15,0.37,0.23c0.12,0.08,0.24,0.16,0.35,0.25
						c0.12,0.09,0.23,0.18,0.34,0.27c0.11,0.09,0.22,0.19,0.33,0.28s0.21,0.2,0.31,0.3c0.1,0.1,0.2,0.21,0.3,0.31
						c0.1,0.11,0.19,0.22,0.28,0.33c0.09,0.11,0.18,0.23,0.27,0.34c0.09,0.12,0.17,0.23,0.25,0.36c0.08,0.12,0.16,0.24,0.23,0.37
						c0.07,0.12,0.15,0.25,0.21,0.38c0.07,0.13,0.13,0.26,0.2,0.39c0.06,0.13,0.12,0.26,0.18,0.4c0.06,0.13,0.11,0.27,0.16,0.41
						c0.05,0.14,0.09,0.27,0.14,0.41c0.04,0.14,0.08,0.28,0.12,0.42c0.04,0.14,0.07,0.28,0.1,0.42c0.03,0.14,0.05,0.28,0.07,0.43
						c0.02,0.14,0.04,0.29,0.05,0.43c0.01,0.14,0.02,0.29,0.03,0.43c0.01,0.14,0.01,0.29,0.01,0.43v206.21c0,0.14,0,0.29-0.01,0.43
						c-0.01,0.15-0.02,0.29-0.03,0.43c-0.01,0.14-0.03,0.29-0.05,0.43c-0.02,0.14-0.05,0.29-0.07,0.43
						c-0.03,0.14-0.06,0.28-0.1,0.42c-0.03,0.14-0.07,0.28-0.12,0.42c-0.04,0.14-0.09,0.28-0.14,0.41c-0.05,0.14-0.1,0.27-0.16,0.41
						c-0.06,0.13-0.11,0.27-0.18,0.4s-0.13,0.26-0.2,0.39c-0.07,0.13-0.14,0.25-0.21,0.38c-0.07,0.12-0.15,0.25-0.23,0.37
						c-0.08,0.12-0.16,0.24-0.25,0.35c-0.09,0.12-0.18,0.23-0.27,0.34c-0.09,0.11-0.19,0.22-0.28,0.33c-0.1,0.11-0.2,0.21-0.3,0.31
						c-0.1,0.1-0.21,0.2-0.31,0.3c-0.11,0.1-0.22,0.19-0.33,0.28c-0.11,0.09-0.23,0.18-0.34,0.27c-0.12,0.09-0.23,0.17-0.35,0.25
						c-0.12,0.08-0.24,0.16-0.37,0.23c-0.12,0.07-0.25,0.15-0.38,0.21c-0.13,0.07-0.26,0.13-0.39,0.2c-0.13,0.06-0.26,0.12-0.4,0.18
						c-0.13,0.06-0.27,0.11-0.4,0.16c-0.14,0.05-0.27,0.09-0.41,0.14c-0.14,0.04-0.28,0.08-0.42,0.12c-0.14,0.04-0.28,0.07-0.42,0.1
						c-0.14,0.03-0.28,0.05-0.43,0.07c-0.14,0.02-0.29,0.04-0.43,0.05c-0.14,0.01-0.29,0.02-0.43,0.03
						c-0.14,0.01-0.29,0.01-0.43,0.01H9.04c-0.14,0-0.29,0-0.43-0.01c-0.14-0.01-0.29-0.02-0.43-0.03
						c-0.14-0.01-0.29-0.03-0.43-0.05c-0.14-0.02-0.29-0.05-0.43-0.07c-0.14-0.03-0.28-0.06-0.42-0.1
						c-0.14-0.04-0.28-0.07-0.42-0.12c-0.14-0.04-0.28-0.09-0.41-0.14c-0.14-0.05-0.27-0.1-0.41-0.16c-0.13-0.06-0.27-0.11-0.4-0.18
						c-0.13-0.06-0.26-0.13-0.39-0.2c-0.13-0.07-0.25-0.14-0.38-0.21s-0.25-0.15-0.37-0.23c-0.12-0.08-0.24-0.16-0.36-0.25
						c-0.12-0.09-0.23-0.18-0.34-0.27c-0.11-0.09-0.22-0.19-0.33-0.28c-0.11-0.1-0.21-0.2-0.31-0.3c-0.1-0.1-0.2-0.21-0.3-0.31
						c-0.1-0.11-0.19-0.22-0.28-0.33c-0.09-0.11-0.18-0.23-0.27-0.34c-0.09-0.12-0.17-0.23-0.25-0.35
						c-0.08-0.12-0.16-0.24-0.23-0.37c-0.07-0.12-0.15-0.25-0.21-0.38c-0.07-0.13-0.13-0.26-0.2-0.39s-0.12-0.26-0.18-0.4
						c-0.06-0.13-0.11-0.27-0.16-0.41c-0.05-0.14-0.09-0.27-0.14-0.41c-0.04-0.14-0.08-0.28-0.12-0.42
						c-0.04-0.14-0.07-0.28-0.1-0.42c-0.03-0.14-0.05-0.28-0.07-0.43c-0.02-0.14-0.04-0.29-0.05-0.43
						c-0.01-0.14-0.02-0.29-0.03-0.43c-0.01-0.14-0.01-0.29-0.01-0.43V45.97c0-0.14,0-0.29,0.01-0.43c0.01-0.14,0.02-0.29,0.03-0.43
						c0.01-0.14,0.03-0.29,0.05-0.43c0.02-0.14,0.05-0.29,0.07-0.43c0.03-0.14,0.06-0.28,0.1-0.42c0.04-0.14,0.07-0.28,0.12-0.42
						c0.04-0.14,0.09-0.28,0.14-0.41c0.05-0.14,0.1-0.27,0.16-0.41c0.06-0.13,0.11-0.27,0.18-0.4c0.06-0.13,0.13-0.26,0.2-0.39
						c0.07-0.13,0.14-0.25,0.21-0.38c0.07-0.12,0.15-0.25,0.23-0.37c0.08-0.12,0.16-0.24,0.25-0.36c0.09-0.12,0.18-0.23,0.27-0.34
						c0.09-0.11,0.19-0.22,0.28-0.33c0.1-0.11,0.2-0.21,0.3-0.31c0.1-0.1,0.21-0.2,0.31-0.3c0.11-0.1,0.22-0.19,0.33-0.28
						c0.11-0.09,0.23-0.18,0.34-0.27c0.12-0.09,0.23-0.17,0.36-0.25c0.12-0.08,0.24-0.16,0.37-0.23c0.12-0.07,0.25-0.15,0.38-0.21
						c0.13-0.07,0.26-0.13,0.39-0.2c0.13-0.06,0.26-0.12,0.4-0.18c0.13-0.06,0.27-0.11,0.41-0.16c0.14-0.05,0.27-0.09,0.41-0.14
						c0.14-0.04,0.28-0.08,0.42-0.12c0.14-0.04,0.28-0.07,0.42-0.1c0.14-0.03,0.28-0.05,0.43-0.07c0.14-0.02,0.29-0.04,0.43-0.05
						c0.14-0.01,0.29-0.02,0.43-0.03C8.75,37.12,8.89,37.12,9.04,37.12z"/>
				</g>
				<g id="Group-2" transform="translate(40.487396 14.898077)">
					<g id="Mask" transform="translate(0.14156432 0.97692305)">
						
							<linearGradient id="path-37_00000033334641958776817470000011570972785739564986_" gradientUnits="userSpaceOnUse" x1="-39.3061" y1="311.4959" x2="-39.3061" y2="310.6109" gradientTransform="matrix(53.2055 0 0 -53.3529 2109.4788 16653.7734)">
							<stop  offset="0" style="stop-color:#98D8FF"/>
							<stop  offset="1" style="stop-color:#5FB0FF"/>
						</linearGradient>
						
							<path id="path-37" fill-rule="evenodd" clip-rule="evenodd" fill="url(#path-37_00000033334641958776817470000011570972785739564986_)" d="
							M18.18,81.78c13,0,23.54-10.57,23.54-23.61S31.18,34.57,18.18,34.57S-5.36,45.13-5.36,58.17S5.18,81.78,18.18,81.78z"/>
					</g>
					<g id="Clipped_00000002384778003191378500000012054100002971603361_" transform="translate(0.14156432 0.97692305)">
						<g id="path-37_00000075881721032375139870000016786022989232544149_">
							<g>
								<path id="path_4" fill="none" stroke="#FFFFFF" stroke-width="16" d="M18.18,81.78c13,0,23.54-10.57,23.54-23.61
									S31.18,34.57,18.18,34.57S-5.36,45.13-5.36,58.17S5.18,81.78,18.18,81.78z"/>
							</g>
							<g>
								
									<path id="path_4_00000101101185086129642980000007851682187167155110_" fill-rule="evenodd" clip-rule="evenodd" fill="#FFF2DA" d="
									M18.18,81.78c13,0,23.54-10.57,23.54-23.61S31.18,34.57,18.18,34.57S-5.36,45.13-5.36,58.17S5.18,81.78,18.18,81.78z"/>
							</g>
						</g>
						<g>
							<defs>
								<ellipse id="SVGID_00000046297499443530766270000011447550417133696387_" cx="18.18" cy="58.17" rx="23.54" ry="23.61"/>
							</defs>
							<clipPath id="SVGID_00000098934764265250441170000015845663690121255560_">
								<use xlink:href="#SVGID_00000046297499443530766270000011447550417133696387_"  overflow="visible"/>
							</clipPath>
							<g clip-path="url(#SVGID_00000098934764265250441170000015845663690121255560_)">
								<g id="Group_00000093153828422769231640000003972436260280481161_" transform="matrix(-1 0 0 1 48.53057 8.48289)">
									<path id="Path-68" fill-rule="evenodd" clip-rule="evenodd" fill="#FFFFFF" d="M41.3,52.07l0.48,0.18
										c3.8,1.43,6.56,4.78,7.23,8.79l2.43,14.44H41.3V52.07z"/>
									<path id="Path-74" fill-rule="evenodd" clip-rule="evenodd" fill="#0D152A" d="M42.34,63.48l3.48,12h-3.85L42.34,63.48z"/>
									<path id="Path-48" fill-rule="evenodd" clip-rule="evenodd" fill="#FFFFFF" d="M27.51,49.32L27.51,49.32
										c-6.33,1.55-11.61,5.91-14.33,11.85l-2.16,4.7l8.94,9.61h23.06L41.9,52.25l-9.41-2.93H27.51z"/>
									<g id="Group-35" transform="translate(16.794678 0.1182406)">
										
											<linearGradient id="Path-45_00000036957772261732421020000001111396696129221539_" gradientUnits="userSpaceOnUse" x1="70.1239" y1="300.9554" x2="70.1239" y2="300.0704" gradientTransform="matrix(-12.5166 0 0 -12.6758 892.4083 3848.5637)">
											<stop  offset="0" style="stop-color:#354970"/>
											<stop  offset="1" style="stop-color:#18233D"/>
										</linearGradient>
										
											<path id="Path-45" fill-rule="evenodd" clip-rule="evenodd" fill="url(#Path-45_00000036957772261732421020000001111396696129221539_)" d="
											M19.86,40.32c0.91-3.6,0.17-5.65-2.21-6.15c-3.58-0.75-6.44-0.83-7.45,1.82c-1.28-0.26-1.38,2.72-0.29,8.95L19.86,40.32z"
											/>
										
											<linearGradient id="Path-44_00000124140445296885290650000000375568034908795310_" gradientUnits="userSpaceOnUse" x1="70.116" y1="301.6006" x2="70.116" y2="300.7156" gradientTransform="matrix(-12.3764 0 0 -16.7148 882.5282 5078.0679)">
											<stop  offset="0" style="stop-color:#FFBA5F"/>
											<stop  offset="1" style="stop-color:#FF9C77"/>
										</linearGradient>
										
											<path id="Path-44" fill-rule="evenodd" clip-rule="evenodd" fill="url(#Path-44_00000124140445296885290650000000375568034908795310_)" d="
											M20.14,39.46l-0.55,6.38c-0.11,1.27-1.17,2.25-2.45,2.25l0,0v1.06l0,0.05c0.08,1.29-0.9,2.39-2.18,2.47
											c-0.39,0.02-0.77-0.05-1.13-0.22l-4.17-1.96l0.24-4.77l1.28-2.37l-1.01-0.27c-0.54-0.14-0.91-0.63-0.91-1.19l0,0
											c0-0.57,0.34-1.09,0.87-1.31l0.09-0.04c0.54-0.23,1.17,0,1.45,0.52l0.56,1.07c-0.14-2.38,0.28-3.71,1.27-4
											c0.99-0.29,2.37-0.11,4.13,0.56c0.45-0.84,1.04-1.03,1.75-0.56C20.11,37.6,20.36,38.38,20.14,39.46z"/>
										<path id="Path-46" fill-rule="evenodd" clip-rule="evenodd" fill="#0D152A" d="M17.14,48.09
											c-1.77-0.08-3.22-0.4-4.37-0.96l4.37,2.83V48.09z"/>
										
											<path id="Oval_00000047751223181145265060000013011534105994319803_" fill-rule="evenodd" clip-rule="evenodd" fill="#18233D" d="
											M18.91,42.59c0.32,0.04,0.61-0.19,0.65-0.51c0.04-0.32-0.19-0.61-0.51-0.65c-0.32-0.04-0.61,0.19-0.65,0.51
											C18.37,42.26,18.59,42.55,18.91,42.59z"/>
										
											<path id="Oval_00000056418302045968003500000017231216644417623998_" fill-rule="evenodd" clip-rule="evenodd" fill="#18233D" d="
											M15.53,42.63c0.32,0.04,0.61-0.19,0.65-0.51c0.04-0.32-0.19-0.61-0.51-0.65c-0.32-0.04-0.61,0.19-0.65,0.51
											C14.98,42.3,15.21,42.59,15.53,42.63z"/>
										<path id="Path-16" fill="none" stroke="#18233D" stroke-width="0.7" stroke-linecap="round" d="M18.11,42.78
											c0.34,0.7,0.5,1.1,0.49,1.19c-0.01,0.09-0.16,0.12-0.43,0.08"/>
										<path id="Path-17" fill-rule="evenodd" clip-rule="evenodd" fill="#FFFFFF" d="M18.23,44.96l-1.57-0.19
											c0.19,0.48,0.47,0.75,0.84,0.79C17.88,45.6,18.12,45.4,18.23,44.96z"/>
										<path id="Path-5" fill="none" stroke="#18233D" stroke-width="1.08" stroke-linecap="round" d="M15.13,40.1
											c0.52-0.19,0.99-0.17,1.4,0.06"/>
										
											<path id="Path-5_00000105395589468415491200000009432149469493909437_" fill="none" stroke="#18233D" stroke-width="1.08" stroke-linecap="round" d="
											M18.7,40.05c0.28-0.2,0.64-0.2,1.07,0"/>
										<path id="Path-62" fill="none" stroke="#18233D" stroke-width="0.7" stroke-linecap="round" d="M14.71,41.43l-2.39-0.35"
											/>
										<path id="Path-47" fill="none" stroke="#18233D" stroke-width="0.7" stroke-linecap="round" d="M10.2,40.74l1.04,0.69"/>
										
											<path id="Oval_00000119836285793243880330000015635885304405519233_" fill="none" stroke="#18233D" stroke-width="0.7" stroke-linecap="round" d="
											M19.59,44.01c0.81,0,1.47-0.66,1.47-1.48c0-0.82-0.66-1.48-1.47-1.48c-0.81,0-1.47,0.66-1.47,1.48
											C18.12,43.34,18.78,44.01,19.59,44.01z"/>
										
											<path id="Oval_00000029016605516264318090000016253994740567540133_" fill="none" stroke="#18233D" stroke-width="0.7" stroke-linecap="round" d="
											M15.7,44.01c0.81,0,1.47-0.66,1.47-1.48c0-0.82-0.66-1.48-1.47-1.48c-0.81,0-1.47,0.66-1.47,1.48
											C14.23,43.34,14.89,44.01,15.7,44.01z"/>
										<path id="Path-63" fill="none" stroke="#18233D" stroke-width="0.7" stroke-linecap="round" d="M16.96,41.7
											c0.57-0.39,1.03-0.39,1.36,0"/>
									</g>
								</g>
							</g>
						</g>
					</g>
				</g>
				<g id="Group-2_00000068653014833651042000000011783263945668885903_" transform="translate(35.532642 180.6723)">
					<g id="Mask_00000052086964330764774490000003626193198079392941_" transform="translate(0.14156432 0.8980138)">
						<path id="path-41" fill-rule="evenodd" clip-rule="evenodd" fill="#FF7E7C" d="M19.56,64.35c13.45,0,24.35-10.93,24.35-24.42
							c0-13.49-10.9-24.42-24.35-24.42C6.11,15.5-4.79,26.44-4.79,39.93C-4.79,53.41,6.11,64.35,19.56,64.35z"/>
					</g>
					<g id="Clipped_00000149383809569131852470000003885805670968549310_" transform="translate(0.14156432 0.8980138)">
						
							<path id="path-41_00000050650918226746806600000016619448066149493644_" fill-rule="evenodd" clip-rule="evenodd" fill="#FFDDDD" d="
							M19.56,64.35c13.45,0,24.35-10.93,24.35-24.42c0-13.49-10.9-24.42-24.35-24.42C6.11,15.5-4.79,26.44-4.79,39.93
							C-4.79,53.41,6.11,64.35,19.56,64.35z"/>
						<g>
							<defs>
								<ellipse id="SVGID_00000112618338061818680230000014643947397079514554_" cx="19.56" cy="39.93" rx="24.35" ry="24.42"/>
							</defs>
							<clipPath id="SVGID_00000033367619897780438950000018067404034962505131_">
								<use xlink:href="#SVGID_00000112618338061818680230000014643947397079514554_"  overflow="visible"/>
							</clipPath>
							<g clip-path="url(#SVGID_00000033367619897780438950000018067404034962505131_)">
								<g id="Group_00000103266851140075174770000000830402191115463082_" transform="translate(9.397463 12.549793)">
									
										<linearGradient id="Path-9_00000058568002547363240650000003846387496751763073_" gradientUnits="userSpaceOnUse" x1="-43.8205" y1="133.4656" x2="-43.8205" y2="132.5806" gradientTransform="matrix(47.8637 0 0 -29.4696 2130.2625 3953.7864)">
										<stop  offset="0" style="stop-color:#FDD577"/>
										<stop  offset="1" style="stop-color:#F9AA42"/>
									</linearGradient>
									
										<path id="Path-9" fill-rule="evenodd" clip-rule="evenodd" fill="url(#Path-9_00000058568002547363240650000003846387496751763073_)" d="
										M11.67,35.89l16.6-4.28l21.14-11l4.61,10.22l-17.15,9.24c-3.33,1.79-6.9,3.11-10.59,3.9l-12.66,2.71L11.67,35.89z"/>
									
										<pattern  id="Path-9_00000183207435836687098000000006943029840161897104_" xlink:href="#pattern_1" patternTransform="matrix(1 0 0 -1 -46.0991 -16339.5752)">
									</pattern>
									
										<path id="Path-9_00000036935851618769824440000012834178680613494944_" fill-rule="evenodd" clip-rule="evenodd" fill="url(#Path-9_00000183207435836687098000000006943029840161897104_)" fill-opacity="0.2766" d="
										M11.67,35.89l16.6-4.28l21.14-11l4.61,10.22l-17.15,9.24c-3.33,1.79-6.9,3.11-10.59,3.9l-12.66,2.71L11.67,35.89z"/>
									
										<linearGradient id="Path-2_00000161626468906768145130000004302320045810758792_" gradientUnits="userSpaceOnUse" x1="-44.0407" y1="133.1539" x2="-44.0407" y2="132.2689" gradientTransform="matrix(16.7035 0 0 -17.99 737.1531 2409.4993)">
										<stop  offset="0" style="stop-color:#354970"/>
										<stop  offset="1" style="stop-color:#18233D"/>
									</linearGradient>
									
										<path id="Path-2" fill-rule="evenodd" clip-rule="evenodd" fill="url(#Path-2_00000161626468906768145130000004302320045810758792_)" d="
										M-3.1,29.98c-1.51-5.42-2.4-8.68-2.68-9.77c-0.42-1.64,0.65-2.74,2.1-2.19c1.58-1.8,7.75-4.68,10.28-3.8
										c2.53,0.89,3.39,4.84,0.48,6.71C5.14,22.19,1.75,25.2-3.1,29.98z"/>
									
										<path id="Path_00000008835640453731702060000016246759751670460572_" fill-rule="evenodd" clip-rule="evenodd" fill="#FFFFFF" d="
										M17.6,19.72l0.62,6.74c0.23,2.53-1.6,4.79-4.13,5.06l0,0l0.15,4.37l-8.14-3.45l1.66-2.64c0.52-0.83,0.75-1.81,0.66-2.78
										l0,0l-0.94,0.5c-0.63,0.33-1.41,0.22-1.92-0.28l0,0c-0.5-0.49-0.58-1.26-0.2-1.84l0.04-0.06c0.4-0.6,1.19-0.81,1.83-0.48
										l0.98,0.51l0,0c0.47-1.47,1.57-2.64,3.01-3.19L17.6,19.72z"/>
									<g id="Group-5" transform="translate(19.808952 8.106528)">
										
											<path id="Oval_00000103968892557896405130000016052064359019592854_" fill-rule="evenodd" clip-rule="evenodd" fill="#18233D" d="
											M-2.69,15.89c0.33,0,0.6-0.27,0.6-0.6c0-0.33-0.27-0.6-0.6-0.6c-0.33,0-0.6,0.27-0.6,0.6
											C-3.29,15.62-3.02,15.89-2.69,15.89z"/>
										
											<path id="Oval_00000171698040633586354800000012085887231381804192_" fill-rule="evenodd" clip-rule="evenodd" fill="#18233D" d="
											M-6.76,16.71c0.33,0,0.6-0.27,0.6-0.6c0-0.33-0.27-0.6-0.6-0.6c-0.33,0-0.6,0.27-0.6,0.6
											C-7.37,16.44-7.1,16.71-6.76,16.71z"/>
										
											<path id="Path-16_00000057116914564774621590000009533322641296095630_" fill="none" stroke="#18233D" stroke-width="0.8" stroke-linecap="round" d="
											M-4.32,16.1c0.54,0.85,0.82,1.34,0.82,1.46c0,0.12-0.18,0.18-0.55,0.18"/>
										
											<path id="Path-17_00000027570092454166821920000007051459532253649545_" fill-rule="evenodd" clip-rule="evenodd" fill="#FF7E7C" d="
											M-3.89,19.37h-2.06c0.32,0.59,0.72,0.89,1.21,0.89C-4.25,20.26-3.96,19.96-3.89,19.37z"/>
										
											<path id="Path-5_00000076565651504392398060000007874606552305398956_" fill="none" stroke="#18233D" stroke-width="1.2" stroke-linecap="round" d="
											M-8.08,14.54c0.64-0.33,1.25-0.38,1.82-0.15"/>
										
											<path id="Path-5_00000163782655306700703130000009490000778717931403_" fill="none" stroke="#18233D" stroke-width="1.2" stroke-linecap="round" d="
											M-3.48,13.91c0.33-0.3,0.79-0.36,1.38-0.17"/>
									</g>
									<path id="Path-18" fill="none" stroke="#18233D" stroke-width="0.8" stroke-linecap="round" d="M6.32,26.05l0.88,0.31"/>
									
										<linearGradient id="Path-3_00000029753760942987368700000011705490955106134405_" gradientUnits="userSpaceOnUse" x1="-43.8865" y1="133.5689" x2="-43.8865" y2="132.684" gradientTransform="matrix(26.7137 0 0 -42.0034 1178.3176 5624.4106)">
										<stop  offset="0" style="stop-color:#FDD577"/>
										<stop  offset="1" style="stop-color:#F9AA42"/>
									</linearGradient>
									
										<path id="Path-3" fill-rule="evenodd" clip-rule="evenodd" fill="url(#Path-3_00000029753760942987368700000011705490955106134405_)" d="
										M6.11,14.06c-1.67,0.17-2.91,1.61-3.75,4.32c-0.83,2.71-3.58,13.26-8.23,31.65l20.18,1.2l1.81-20.88
										c1.52-3.32,1.99-6.22,1.4-8.71c-0.59-2.49-3.09-4.47-7.5-5.94L6.11,14.06z"/>
									
										<pattern  id="Path-3_00000112632656382619474420000008484447559289054341_" xlink:href="#pattern_2" patternTransform="matrix(1 0 0 -1 -73.5732 -15612.1201)">
									</pattern>
									
										<path id="Path-3_00000105400948940810324880000001113014711825285017_" fill-rule="evenodd" clip-rule="evenodd" fill="url(#Path-3_00000112632656382619474420000008484447559289054341_)" fill-opacity="0.2766" d="
										M6.11,14.06c-1.67,0.17-2.91,1.61-3.75,4.32c-0.83,2.71-3.58,13.26-8.23,31.65l20.18,1.2l1.81-20.88
										c1.52-3.32,1.99-6.22,1.4-8.71c-0.59-2.49-3.09-4.47-7.5-5.94L6.11,14.06z"/>
									
										<path id="Path_00000039113793751542818950000008352688386801720458_" fill-rule="evenodd" clip-rule="evenodd" fill="#0D152A" d="
										M16.12,48.73l-1.81,20.88l-1.33-0.08c-4.91-0.29-8.71-4.41-8.62-9.34L4.7,40.82L16.12,48.73z"/>
									
										<linearGradient id="Path-4_00000179620715630227118600000015473049064537160606_" gradientUnits="userSpaceOnUse" x1="-43.8381" y1="133.6025" x2="-43.8381" y2="132.7176" gradientTransform="matrix(39.1477 0 0 -36.5864 1737.65 4924.5225)">
										<stop  offset="0" style="stop-color:#FDD577"/>
										<stop  offset="1" style="stop-color:#F9AA42"/>
									</linearGradient>
									
										<path id="Path-4" fill-rule="evenodd" clip-rule="evenodd" fill="url(#Path-4_00000179620715630227118600000015473049064537160606_)" d="
										M4.19,43.09l1.36,14.78c0.61,6.65,6.48,11.54,13.11,10.93c0.29-0.03,0.57-0.06,0.86-0.11l19.29-3.2l-3.23-11.37
										l-18.65,2.64L15.8,41.72c-0.23-3.12-2.95-5.46-6.06-5.22c-0.08,0.01-0.16,0.01-0.24,0.02l0,0
										C6.25,36.9,3.89,39.82,4.19,43.09z"/>
									
										<pattern  id="Path-4_00000165936474115373691020000002608847938025129110_" xlink:href="#pattern_3" patternTransform="matrix(1 0 0 -1 -54.5829 -15651.8877)">
									</pattern>
									
										<path id="Path-4_00000173845566688861957250000010672467827749323675_" fill-rule="evenodd" clip-rule="evenodd" fill="url(#Path-4_00000165936474115373691020000002608847938025129110_)" fill-opacity="0.2766" d="
										M4.19,43.09l1.36,14.78c0.61,6.65,6.48,11.54,13.11,10.93c0.29-0.03,0.57-0.06,0.86-0.11l19.29-3.2l-3.23-11.37
										l-18.65,2.64L15.8,41.72c-0.23-3.12-2.95-5.46-6.06-5.22c-0.08,0.01-0.16,0.01-0.24,0.02l0,0
										C6.25,36.9,3.89,39.82,4.19,43.09z"/>
									<path id="Path-10" fill-rule="evenodd" clip-rule="evenodd" fill="#0D152A" d="M14.1,31.52c-2.03,0.07-3.22-0.53-3.56-1.8
										c0.43,2.35,1.64,3.61,3.63,3.78L14.1,31.52z"/>
								</g>
							</g>
						</g>
					</g>
				</g>
				<g id="Group-2_00000011752438206773612610000015558554227965146765_" transform="translate(40.487396 99.49791)">
					<g id="Mask_00000054971269960082674950000014479110511355598479_" transform="translate(0.14156432 0.7130297)">
						<path id="path-56" fill-rule="evenodd" clip-rule="evenodd" fill="#FFFFFF" d="M14.69,65.08c11.08,0,20.05-9,20.05-20.11
							s-8.98-20.11-20.05-20.11c-11.08,0-20.05,9-20.05,20.11S3.62,65.08,14.69,65.08z"/>
					</g>
					<g id="Group-8-Clipped" transform="translate(0.14156432 0.7130297)">
						
							<path id="path-56_00000104687931172805734370000001769374765183585172_" fill-rule="evenodd" clip-rule="evenodd" fill="#DAEBDF" d="
							M14.69,65.08c11.08,0,20.05-9,20.05-20.11s-8.98-20.11-20.05-20.11c-11.08,0-20.05,9-20.05,20.11S3.62,65.08,14.69,65.08z"/>
						<g>
							<defs>
								<ellipse id="SVGID_00000000219041134742462590000018421552031930685580_" cx="14.69" cy="44.97" rx="20.05" ry="20.11"/>
							</defs>
							<clipPath id="SVGID_00000082332107305179692090000000473184447816820623_">
								<use xlink:href="#SVGID_00000000219041134742462590000018421552031930685580_"  overflow="visible"/>
							</clipPath>
							<g clip-path="url(#SVGID_00000082332107305179692090000000473184447816820623_)">
								<g id="Group-8" transform="translate(7.2178683 10.099729)">
									<g id="Group_00000083792916381094000370000016754868283420100494_" transform="matrix(-1 0 0 1 52.226143 0.16903299)">
										<g id="Group-1267" transform="translate(29.928907 17.68509)">
											<g id="Mask_00000142152166868694078560000012358911567443574929_">
												
													<linearGradient id="path-59_00000041986137430063562520000001679433380902351264_" gradientUnits="userSpaceOnUse" x1="68.2737" y1="199.2782" x2="68.307" y2="198.3193" gradientTransform="matrix(-21.6941 0 0 -32.7076 1499.0203 6537.1304)">
													<stop  offset="0" style="stop-color:#FF555D"/>
													<stop  offset="1" style="stop-color:#B45828"/>
												</linearGradient>
												
													<path id="path-59" fill-rule="evenodd" clip-rule="evenodd" fill="url(#path-59_00000041986137430063562520000001679433380902351264_)" d="
													M21.03,23.56l5.59,8.7c2.51,3.91,1.39,9.11-2.51,11.63c-0.18,0.11-0.36,0.22-0.54,0.32l-11.71,6.37l-3.11-7.61L20,36.51
													l-5.85-8.77c-1.19-1.79-0.71-4.2,1.07-5.39c0.05-0.03,0.1-0.06,0.15-0.09C17.3,21.08,19.81,21.66,21.03,23.56z"/>
											</g>
											<g id="Clipped_00000149375599861628926080000014969699493085160114_">
												<path id="path-59_00000177461807112624114350000016802325554564015766_" fill="none" d="M21.03,23.56l5.59,8.7
													c2.51,3.91,1.39,9.11-2.51,11.63c-0.18,0.11-0.36,0.22-0.54,0.32l-11.71,6.37l-3.11-7.61L20,36.51l-5.85-8.77
													c-1.19-1.79-0.71-4.2,1.07-5.39c0.05-0.03,0.1-0.06,0.15-0.09C17.3,21.08,19.81,21.66,21.03,23.56z"/>
												<g>
													<defs>
														<path id="SVGID_00000132778893610087529920000007184149254176422275_" d="M21.03,23.56l5.59,8.7
															c2.51,3.91,1.39,9.11-2.51,11.63c-0.18,0.11-0.36,0.22-0.54,0.32l-11.71,6.37l-3.11-7.61L20,36.51l-5.85-8.77
															c-1.19-1.79-0.71-4.2,1.07-5.39c0.05-0.03,0.1-0.06,0.15-0.09C17.3,21.08,19.81,21.66,21.03,23.56z"/>
													</defs>
													<clipPath id="SVGID_00000153673224454552264040000014123951933123775407_">
														<use xlink:href="#SVGID_00000132778893610087529920000007184149254176422275_"  overflow="visible"/>
													</clipPath>
													<g clip-path="url(#SVGID_00000153673224454552264040000014123951933123775407_)">
														<g id="Group_00000130620279383168389630000006161633590241709984_" transform="translate(-86.85372 -50.963486)">
															<path id="Fill-75" fill-rule="evenodd" clip-rule="evenodd" fill="#618978" d="M112.67,75.4
																c0.02-0.2,0.04-0.4,0.05-0.6c-0.36-0.04-0.53,0.23-0.5,0.84C112.38,75.56,112.52,75.48,112.67,75.4"/>
															<path id="Fill-356" fill-rule="evenodd" clip-rule="evenodd" fill="#99B0C0" d="M106.75,78.79
																c0.08-0.02,0.16-0.03,0.24-0.05c-0.02,0.09-0.04,0.18-0.06,0.27c0.09,0,0.18,0,0.26,0
																c-0.17-0.51-0.34-1.01-0.51-1.51c-0.11,0.02-0.22,0.04-0.33,0.07C106.48,77.97,106.62,78.38,106.75,78.79"/>
															<path id="Fill-442" fill-rule="evenodd" clip-rule="evenodd" fill="#DECCBC" d="M97.8,79.34
																c-0.17,0.05-0.34,0.09-0.51,0.14c0.19,0.36,0.41,0.45,0.67,0.28C97.91,79.62,97.86,79.48,97.8,79.34"/>
															<path id="Fill-454" fill-rule="evenodd" clip-rule="evenodd" fill="#294147" d="M111.22,87.26
																c0.33,0.45,0.66,0.9,0.95,1.34c0.77-1.27,1.79-1.99,0.85-3.2C112.43,86.02,111.82,86.64,111.22,87.26"/>
															<path id="Fill-500" fill-rule="evenodd" clip-rule="evenodd" fill="#DECCBC" d="M113.75,84.32l-0.02,0.03
																c1.01,0.14,1.91-0.03,2.69-0.49C115.67,83.1,114.78,83.25,113.75,84.32"/>
															<path id="Fill-518" fill-rule="evenodd" clip-rule="evenodd" fill="#000925" d="M97.12,73.62
																c0.11,0.17,0.23,0.33,0.34,0.5C97.47,73.77,97.35,73.6,97.12,73.62"/>
															<path id="Fill-534" fill-rule="evenodd" clip-rule="evenodd" fill="#000925" d="M99.76,86.45
																c-0.03,0.05-0.07,0.1-0.1,0.15c0.06,0.03,0.11,0.07,0.17,0.1c0.04-0.06,0.08-0.11,0.12-0.17
																C99.89,86.51,99.83,86.48,99.76,86.45"/>
															<path id="Fill-564" fill-rule="evenodd" clip-rule="evenodd" fill="#EBB568" d="M101.29,81.06
																c0.02,0.1,0.03,0.2,0.05,0.3c0-0.11,0-0.22-0.01-0.34L101.29,81.06z"/>
															<path id="Fill-658" fill-rule="evenodd" clip-rule="evenodd" fill="#000925" d="M107.4,74.27
																c-0.03,0.01-0.05,0.02-0.08,0.03c0.01,0.01,0.03,0.01,0.04,0.02C107.37,74.3,107.39,74.29,107.4,74.27"/>
															<path id="Fill-953" fill-rule="evenodd" clip-rule="evenodd" fill="#EBB568" d="M106.14,86.38
																c0.02,0.03,0.04,0.07,0.05,0.1c0.01-0.05,0.02-0.1,0.03-0.14C106.2,86.35,106.17,86.37,106.14,86.38"/>
															<path id="Fill-973" fill-rule="evenodd" clip-rule="evenodd" fill="#000925" d="M94.94,84.05
																c0.79,0.02,1.41-0.27,1.85-0.85C96.16,82.83,95.54,83.11,94.94,84.05"/>
															<path id="Fill-1005" fill-rule="evenodd" clip-rule="evenodd" fill="#000925" d="M104.31,83.38
																c0.29-0.39,0.58-0.78,0.86-1.18c-0.45,0.16-0.9,0.34-1.34,0.51C103.87,83.07,104.03,83.29,104.31,83.38"/>
															<path id="Fill-1075" fill-rule="evenodd" clip-rule="evenodd" fill="#99B0C0" d="M109.88,82.33
																c-0.53-0.86-1.32-0.85-2.35,0.04C108,83.23,109.08,82.84,109.88,82.33"/>
															<path id="Fill-1149" fill-rule="evenodd" clip-rule="evenodd" fill="#294147" d="M112.56,80.96
																c-0.7-0.41-1.09-0.36-1.17,0.13c0.38,0.09,0.76,0.18,1.12,0.27C112.53,81.23,112.55,81.1,112.56,80.96"/>
															<path id="Fill-1217" fill-rule="evenodd" clip-rule="evenodd" fill="#EBB568" d="M101.53,76.17
																c-0.07,0.06-0.14,0.12-0.21,0.18c0.11,0.03,0.22,0.07,0.33,0.1C101.61,76.36,101.57,76.27,101.53,76.17"/>
															<path id="Fill-1235" fill-rule="evenodd" clip-rule="evenodd" fill="#645C4B" d="M115.18,80.35
																c0.36-0.05,0.72-0.11,1.08-0.18c-0.14-0.61-0.28-1.23-0.42-1.84c-0.36,0.05-0.72,0.11-1.09,0.16
																C114.85,79.13,115,79.75,115.18,80.35"/>
														</g>
													</g>
												</g>
											</g>
										</g>
										<g id="Group-1267_00000049221812019154148620000010998397084062184853_" transform="translate(27.68168 16.577785)">
											<g id="Mask_00000078019661161079651580000003215915018510681483_">
												
													<linearGradient id="path-66_00000007414661503541017980000009281489809157282462_" gradientUnits="userSpaceOnUse" x1="70.4707" y1="200.3781" x2="70.4707" y2="199.4932" gradientTransform="matrix(-20.9524 0 0 -36.8112 1494.8195 7397.9351)">
													<stop  offset="0" style="stop-color:#FF555D"/>
													<stop  offset="1" style="stop-color:#FF8444"/>
												</linearGradient>
												
													<path id="path-66" fill-rule="evenodd" clip-rule="evenodd" fill="url(#path-66_00000007414661503541017980000009281489809157282462_)" d="
													M16.12,23.23l5.35-1.45l0,0c2.39,2.11,3.69,5.19,3.54,8.38l-0.3,6.27c-0.04,0.73,0.03,1.45,0.19,2.16l2.66,11.62
													l-17.17,4.15l1.01-16.5l0,0c-1.92-0.96-2.84-3.21-2.15-5.25l1.44-4.26C11.53,25.84,13.57,23.92,16.12,23.23z"/>
											</g>
											<g id="Clipped_00000075143963395145437930000005801205031160969372_">
												<path id="path-66_00000132082568372645498760000003767100888017378436_" fill="none" d="M16.12,23.23l5.35-1.45l0,0
													c2.39,2.11,3.69,5.19,3.54,8.38l-0.3,6.27c-0.04,0.73,0.03,1.45,0.19,2.16l2.66,11.62l-17.17,4.15l1.01-16.5l0,0
													c-1.92-0.96-2.84-3.21-2.15-5.25l1.44-4.26C11.53,25.84,13.57,23.92,16.12,23.23z"/>
												<g>
													<defs>
														<path id="SVGID_00000106825589710281557300000003710835438149720482_" d="M16.12,23.23l5.35-1.45l0,0
															c2.39,2.11,3.69,5.19,3.54,8.38l-0.3,6.27c-0.04,0.73,0.03,1.45,0.19,2.16l2.66,11.62l-17.17,4.15l1.01-16.5l0,0
															c-1.92-0.96-2.84-3.21-2.15-5.25l1.44-4.26C11.53,25.84,13.57,23.92,16.12,23.23z"/>
													</defs>
													<clipPath id="SVGID_00000066473197614557969920000010920409365276125113_">
														<use xlink:href="#SVGID_00000106825589710281557300000003710835438149720482_"  overflow="visible"/>
													</clipPath>
													<g clip-path="url(#SVGID_00000066473197614557969920000010920409365276125113_)">
														<g id="Group_00000098192410986760439590000014135813089407788718_" transform="translate(-71.900826 -49.09553)">
															<path id="Fill-145" fill-rule="evenodd" clip-rule="evenodd" fill="#99B0C0" d="M84.09,80.97
																c-0.24,0.32-0.47,0.65-0.68,0.98c0.92,0.39,0.58,0.12,1.34-1.18C84.54,80.84,84.32,80.91,84.09,80.97"/>
															<path id="Fill-288" fill-rule="evenodd" clip-rule="evenodd" fill="#294147" d="M83.58,76.79
																c-0.09-0.13-0.19-0.26-0.28-0.4c-0.08,0.21-0.15,0.43-0.22,0.64c0.15,0.07,0.3,0.13,0.45,0.2
																C83.54,77.09,83.56,76.94,83.58,76.79"/>
															<path id="Fill-296" fill-rule="evenodd" clip-rule="evenodd" fill="#DECCBC" d="M93.81,77.11
																c-0.19-0.37-0.41-0.72-0.67-1.05c0.07,0.55,0.12,1.11,0.02,1.61c0.21,0.02,0.43,0.04,0.63,0.08
																C93.8,77.53,93.81,77.32,93.81,77.11"/>
															
																<path id="Fill-442_00000157288444126546193930000012251276535271386778_" fill-rule="evenodd" clip-rule="evenodd" fill="#DECCBC" d="
																M96.34,79.26c-0.17,0.05-0.34,0.09-0.51,0.14c0.19,0.36,0.41,0.45,0.67,0.28C96.45,79.54,96.39,79.4,96.34,79.26"/>
															<path id="Fill-512" fill-rule="evenodd" clip-rule="evenodd" fill="#000925" d="M91.72,73.7
																c0.15-0.51,0.06-0.91-0.24-1.18C91.56,72.93,91.65,73.33,91.72,73.7"/>
															
																<path id="Fill-518_00000137091026211039328070000007556771672618571158_" fill-rule="evenodd" clip-rule="evenodd" fill="#000925" d="
																M95.66,73.54c0.11,0.17,0.23,0.33,0.34,0.5C96,73.68,95.89,73.51,95.66,73.54"/>
															
																<path id="Fill-534_00000067223350802123812480000012619998240022176684_" fill-rule="evenodd" clip-rule="evenodd" fill="#000925" d="
																M98.3,86.37c-0.03,0.05-0.07,0.1-0.1,0.15c0.06,0.03,0.11,0.07,0.17,0.1c0.04-0.06,0.08-0.11,0.12-0.17
																C98.43,86.42,98.36,86.39,98.3,86.37"/>
															<path id="Fill-538" fill-rule="evenodd" clip-rule="evenodd" fill="#DECCBC" d="M85.93,85.82
																c0.17-0.06,0.34-0.11,0.5-0.17c-0.03-0.11-0.06-0.22-0.09-0.33C86.2,85.48,86.06,85.65,85.93,85.82"/>
															<path id="Fill-790" fill-rule="evenodd" clip-rule="evenodd" fill="#294147" d="M92.3,80.18
																c-0.71-0.81-1.56-1.25-2.52-1.43c0.37,0.67,0.74,1.34,1.08,2.02C91.35,80.57,91.83,80.38,92.3,80.18"/>
															<path id="Fill-828" fill-rule="evenodd" clip-rule="evenodd" fill="#294147" d="M88.28,79.03
																c-0.36-1.7-0.36-1.33-2.18-1.02C86.25,79.19,86.97,79.53,88.28,79.03"/>
															<path id="Fill-852" fill-rule="evenodd" clip-rule="evenodd" fill="#294147" d="M87.1,72.76l0.08,0.77
																c0.25-0.28,0.5-0.56,0.76-0.84C87.66,72.72,87.38,72.75,87.1,72.76"/>
															<path id="Fill-931" fill-rule="evenodd" clip-rule="evenodd" fill="#EBB568" d="M96.63,72.11
																c0.8,0.19,1.18,0.02,1.88-0.4c-0.56-1.2-1.21-2.4-0.97-3.22c-0.71,0.01-1.42,0.03-2.14,0.04
																C95.14,69.82,95.54,71.02,96.63,72.11"/>
															
																<path id="Fill-973_00000127027687298771206110000014976724040399176366_" fill-rule="evenodd" clip-rule="evenodd" fill="#000925" d="
																M93.48,83.97c0.79,0.02,1.41-0.27,1.85-0.85C94.69,82.74,94.08,83.03,93.48,83.97"/>
															<path id="Fill-1069" fill-rule="evenodd" clip-rule="evenodd" fill="#B1897A" d="M81.9,85.75
																c0.25,0.64,0.49,1.28,0.73,1.92c0.24-0.44,0.5-0.86,0.78-1.27c-0.33-0.35-0.66-0.71-0.98-1.08
																C82.26,85.46,82.08,85.6,81.9,85.75"/>
															<path id="Fill-1109" fill-rule="evenodd" clip-rule="evenodd" fill="#EBB568" d="M89.78,84.09
																c-0.1-0.15-0.21-0.3-0.31-0.45c0,0.22,0.01,0.45,0.01,0.67C89.56,84.23,89.66,84.15,89.78,84.09"/>
														</g>
													</g>
												</g>
											</g>
										</g>
										
											<path id="Path_00000105424950856580063030000012164755932710669957_" fill-rule="evenodd" clip-rule="evenodd" fill="#0D152A" d="
											M38.42,65.29l0.28-4.65l6.78-15.25l-0.97,14.2C44.29,62.8,41.63,65.29,38.42,65.29L38.42,65.29z"/>
										<g id="Group-1267_00000180354177652112442670000005799393402489483921_" transform="translate(6.8064904 16.363344)">
											
												<g id="Mask_00000005970800573942103420000001156739194882163902_" transform="matrix(-0.9781476 -0.2079117 -0.2079117 0.9781476 33.2798 5.989714)">
												
													<linearGradient id="path-74_00000017502691062697414480000011403279207091474833_" gradientUnits="userSpaceOnUse" x1="-98.1622" y1="177.9786" x2="-98.1622" y2="177.0937" gradientTransform="matrix(26.3399 5.5515 5.5987 -26.1178 1589.605 5212.6714)">
													<stop  offset="0" style="stop-color:#FF555D"/>
													<stop  offset="1" style="stop-color:#FF8444"/>
												</linearGradient>
												
													<path id="path-74" fill-rule="evenodd" clip-rule="evenodd" fill="url(#path-74_00000017502691062697414480000011403279207091474833_)" d="
													M-11.43,23.9l0.85,9.96c0.47,5.46,5.26,9.51,10.71,9.05c0.3-0.03,0.59-0.06,0.89-0.12l11.36-2.03l-2.22-8.4l-12.82,1.95
													l-0.8-11.43c-0.15-2.12-1.98-3.71-4.09-3.57c-0.07,0.01-0.14,0.01-0.21,0.02l0,0C-10,19.63-11.62,21.64-11.43,23.9z"/>
											</g>
											<g id="Clipped_00000149372364794281030740000015809978167371405753_" transform="translate(2.9834418 2.8054802)">
												<path id="path-74_00000044179961508910448820000009101439601187750557_" fill="none" d="M11.46,26.31l0.85,9.96
													c0.47,5.46,5.26,9.51,10.71,9.05c0.3-0.03,0.59-0.06,0.89-0.12l11.36-2.03l-2.22-8.4l-12.82,1.95l-0.8-11.43
													c-0.15-2.12-1.98-3.71-4.09-3.57c-0.07,0.01-0.14,0.01-0.21,0.02l0,0C12.89,22.03,11.27,24.05,11.46,26.31z"/>
												<g>
													<defs>
														<path id="SVGID_00000179636145182928537250000017215279974147963022_" d="M11.46,26.31l0.85,9.96
															c0.47,5.46,5.26,9.51,10.71,9.05c0.3-0.03,0.59-0.06,0.89-0.12l11.36-2.03l-2.22-8.4l-12.82,1.95l-0.8-11.43
															c-0.15-2.12-1.98-3.71-4.09-3.57c-0.07,0.01-0.14,0.01-0.21,0.02l0,0C12.89,22.03,11.27,24.05,11.46,26.31z"/>
													</defs>
													<clipPath id="SVGID_00000057114068952606172830000015777210010224017843_">
														<use xlink:href="#SVGID_00000179636145182928537250000017215279974147963022_"  overflow="visible"/>
													</clipPath>
													<g clip-path="url(#SVGID_00000057114068952606172830000015777210010224017843_)">
														<g id="Group_00000152948518965160591240000016368201034939575720_" transform="translate(-54.00907 -51.686573)">
															<path id="Fill-113" fill-rule="evenodd" clip-rule="evenodd" fill="#000925" d="M79.94,83.27
																c0.05,0.03,0.09,0.07,0.14,0.1c0.03-0.05,0.06-0.11,0.09-0.16C80.09,83.24,80.01,83.25,79.94,83.27"/>
															
																<path id="Fill-145_00000031885920333425597920000011702459324347643034_" fill-rule="evenodd" clip-rule="evenodd" fill="#99B0C0" d="
																M84.09,80.97c-0.24,0.32-0.47,0.65-0.68,0.98c0.92,0.39,0.58,0.12,1.34-1.18C84.54,80.84,84.32,80.91,84.09,80.97"/>
															<path id="Fill-221" fill-rule="evenodd" clip-rule="evenodd" fill="#DECCBC" d="M76.49,86.07
																c0.01-0.06,0.02-0.12,0.03-0.17c-0.17,0.02-0.34,0.04-0.5,0.07C76.18,86,76.34,86.04,76.49,86.07"/>
															<path id="Fill-278" fill-rule="evenodd" clip-rule="evenodd" fill="#99B0C0" d="M75.05,77.74
																c0.05-0.09,0.09-0.18,0.14-0.27c-0.2-0.08-0.41-0.15-0.61-0.23c-0.08,0.16-0.16,0.31-0.23,0.47
																C74.58,77.72,74.81,77.73,75.05,77.74"/>
															
																<path id="Fill-288_00000007422602748199306910000007606350067018384831_" fill-rule="evenodd" clip-rule="evenodd" fill="#294147" d="
																M83.58,76.79c-0.09-0.13-0.19-0.26-0.28-0.4c-0.08,0.21-0.15,0.43-0.22,0.64c0.15,0.07,0.3,0.13,0.45,0.2
																C83.54,77.09,83.56,76.94,83.58,76.79"/>
															<path id="Fill-418" fill-rule="evenodd" clip-rule="evenodd" fill="#000925" d="M80.72,73.45
																c-0.17,0.03-0.34,0.05-0.5,0.06C80.5,73.67,80.67,73.65,80.72,73.45"/>
															
																<path id="Fill-538_00000058551146985606914370000013444678117832001959_" fill-rule="evenodd" clip-rule="evenodd" fill="#DECCBC" d="
																M85.93,85.82c0.17-0.06,0.34-0.11,0.5-0.17c-0.03-0.11-0.06-0.22-0.09-0.33C86.2,85.48,86.06,85.65,85.93,85.82"/>
															<path id="Fill-568" fill-rule="evenodd" clip-rule="evenodd" fill="#99B0C0" d="M70.82,80.3
																c0.04-0.45-0.09-0.78-0.35-1.05c-0.1,0.39-0.21,0.79-0.32,1.18C70.37,80.4,70.59,80.35,70.82,80.3"/>
															<path id="Fill-730" fill-rule="evenodd" clip-rule="evenodd" fill="#000925" d="M73.36,82.69
																c-0.02,0.06-0.04,0.13-0.06,0.19c0.03-0.06,0.06-0.13,0.08-0.19C73.37,82.69,73.37,82.69,73.36,82.69"/>
															
																<path id="Fill-828_00000039851088411295661290000008673364218029973651_" fill-rule="evenodd" clip-rule="evenodd" fill="#294147" d="
																M88.28,79.03c-0.36-1.7-0.36-1.33-2.18-1.02C86.25,79.19,86.97,79.53,88.28,79.03"/>
															<path id="Fill-836" fill-rule="evenodd" clip-rule="evenodd" fill="#EBB568" d="M75.7,79.55
																c-0.27,0.07-0.55,0.14-0.85,0.2c1.03,2.08,2.65,2.56,4.87,1.42C79.57,79.69,78.23,79.15,75.7,79.55"/>
															
																<path id="Fill-852_00000063621893338192279370000005326795450997110671_" fill-rule="evenodd" clip-rule="evenodd" fill="#294147" d="
																M87.1,72.76l0.08,0.77c0.25-0.28,0.5-0.56,0.76-0.84C87.66,72.72,87.38,72.75,87.1,72.76"/>
															<path id="Fill-912" fill-rule="evenodd" clip-rule="evenodd" fill="#EBB568" d="M71.64,87.14
																c0,0.02,0.01,0.03,0.01,0.05c0.01,0,0.02,0,0.03-0.01L71.64,87.14z"/>
															<path id="Fill-951" fill-rule="evenodd" clip-rule="evenodd" fill="#EBB568" d="M79.14,77.27
																c0.05,0.01,0.09,0.03,0.14,0.04c-0.03-0.05-0.06-0.1-0.1-0.16C79.17,77.2,79.16,77.23,79.14,77.27"/>
															
																<path id="Fill-1069_00000022520629697286534040000015893752027182119050_" fill-rule="evenodd" clip-rule="evenodd" fill="#B1897A" d="
																M81.9,85.75c0.25,0.64,0.49,1.28,0.73,1.92c0.24-0.44,0.5-0.86,0.78-1.27c-0.33-0.35-0.66-0.71-0.98-1.08
																C82.26,85.46,82.08,85.6,81.9,85.75"/>
															<path id="Fill-1079" fill-rule="evenodd" clip-rule="evenodd" fill="#618978" d="M76.36,73.07
																c-0.39-0.1-0.67,0.01-0.84,0.34c0.23,0.27,0.46,0.54,0.69,0.81C76.26,73.82,76.31,73.44,76.36,73.07"/>
															<path id="Fill-1095" fill-rule="evenodd" clip-rule="evenodd" fill="#645C4B" d="M70.83,74.71
																c-0.42,0.17-0.45,0.62-0.09,1.35c0.47-0.05,0.95-0.19,1.43-0.38C71.72,75.37,71.27,75.05,70.83,74.71"/>
														</g>
													</g>
												</g>
											</g>
										</g>
										<g id="Group-3" transform="translate(29.102098 0)">
											
												<linearGradient id="Path-19_00000089573575635324524450000001375335634539291571_" gradientUnits="userSpaceOnUse" x1="69.0198" y1="216.4561" x2="69.0198" y2="215.5711" gradientTransform="matrix(-19.343 0 0 -21.2982 1352.5797 4633.9419)">
												<stop  offset="0" style="stop-color:#354970"/>
												<stop  offset="1" style="stop-color:#18233D"/>
											</linearGradient>
											
												<path id="Path-19" fill-rule="evenodd" clip-rule="evenodd" fill="url(#Path-19_00000089573575635324524450000001375335634539291571_)" d="
												M10.9,28.56l-1.34-0.9c-0.57-0.38-0.75-1.14-0.42-1.74l0,0c0.33-0.61,1.07-0.86,1.7-0.59l0.75,0.32
												c2.39-1.91,4.51-2.32,6.35-1.23c2.76,1.64,2.94,4.82,4.36,7.58c1.42,2.76,5.13,5.91,3.29,8.87
												c-1.83,2.96-7.21,2.2-8.16-1.67c-0.64-2.58-0.61-4.68,0.08-6.29L10.9,28.56z"/>
											
												<linearGradient id="Path_00000057870791480165670220000006276695495458255797_" gradientUnits="userSpaceOnUse" x1="70.2663" y1="216.0424" x2="70.2663" y2="215.1574" gradientTransform="matrix(11.3797 0 0 -15.0399 -784.598 3276.4355)">
												<stop  offset="0" style="stop-color:#EBA3A3"/>
												<stop  offset="1" style="stop-color:#FF8A77"/>
											</linearGradient>
											
												<path id="Path_00000006675523001906910260000001880480144051326140_" fill-rule="evenodd" clip-rule="evenodd" fill="url(#Path_00000057870791480165670220000006276695495458255797_)" d="
												M10.47,27.18l-0.48,5.2c-0.18,1.94,1.23,3.67,3.17,3.88l0,0l-0.28,4.23l4.52-1.3l-0.25-2.49
												c-0.13-1.31-0.01-2.64,0.35-3.91l0,0l0.72,0.38c0.49,0.26,1.08,0.17,1.48-0.22l0,0c0.38-0.37,0.45-0.97,0.15-1.42
												l-0.03-0.05c-0.31-0.46-0.91-0.62-1.41-0.37l-0.75,0.39l0,0c-2.56-0.55-4.9-1.87-6.69-3.79L10.47,27.18z"/>
											
												<path id="Path-47_00000166650597260225248670000000657187140577816458_" fill="none" stroke="#18233D" stroke-width="0.7" stroke-linecap="round" d="
												M18.38,32.18l0.76-0.25"/>
											<path id="Path-21" fill-rule="evenodd" clip-rule="evenodd" fill="#0D152A" d="M13.16,36.26
												c1.12-0.01,2.01-0.33,2.68-0.97c-0.63,1.84-1.56,2.81-2.79,2.91L13.16,36.26z"/>
											<g id="Group-5_00000046341127144396868220000003118983276658440634_" transform="matrix(-1 0 0 1 7.783145 5.283167)">
												
													<path id="Oval_00000181072896603162238560000001833613883201912458_" fill-rule="evenodd" clip-rule="evenodd" fill="#18233D" d="
													M-3.25,26.13c0.27,0,0.5-0.22,0.5-0.5c0-0.27-0.22-0.5-0.5-0.5s-0.5,0.22-0.5,0.5C-3.75,25.91-3.53,26.13-3.25,26.13z"
													/>
												
													<path id="Oval_00000072968791409553417960000012270893699652895148_" fill-rule="evenodd" clip-rule="evenodd" fill="#18233D" d="
													M-6.27,26.47c0.27,0,0.5-0.22,0.5-0.5c0-0.27-0.22-0.5-0.5-0.5c-0.27,0-0.5,0.22-0.5,0.5
													C-6.77,26.25-6.55,26.47-6.27,26.47z"/>
												
													<path id="Path-16_00000110458422706217091610000002317072934379041433_" fill="none" stroke="#18233D" stroke-width="0.8" stroke-linecap="round" d="
													M-4.26,25.97c0.45,0.7,0.67,1.1,0.67,1.2c0,0.1-0.15,0.15-0.45,0.15"/>
												
													<path id="Path-17_00000016052017715770152290000009872995168492903083_" fill-rule="evenodd" clip-rule="evenodd" fill="#FFFFFF" d="
													M-4.26,28.33H-5.6C-5.39,28.78-5.13,29-4.81,29C-4.49,29-4.31,28.78-4.26,28.33z"/>
												
													<path id="Path-5_00000175293011596299200430000015326423024139304874_" fill="none" stroke="#18233D" stroke-width="1.2" stroke-linecap="round" d="
													M-7.05,24.99c0.46-0.24,0.9-0.28,1.31-0.11"/>
												
													<path id="Path-5_00000023986310864787016580000007598198560542378940_" fill="none" stroke="#18233D" stroke-width="1.2" stroke-linecap="round" d="
													M-3.74,24.53c0.24-0.22,0.57-0.26,0.99-0.12"/>
											</g>
										</g>
									</g>
								</g>
							</g>
						</g>
					</g>
				</g>
				<g id="Group-4" transform="translate(123.679886 205.13924)">
					<path id="Path-111" fill="none" stroke="#18233D" stroke-width="2" stroke-linecap="round" d="M-14.92,13.27l54.59-0.14"/>
					
						<path id="Path-111_00000033370928047131567620000014579578404902763711_" fill="none" stroke="#18233D" stroke-width="2" stroke-linecap="round" d="
						M-14.92,13.27l30.37-0.14"/>
				</g>
				<g id="Group-4_00000109723051331432927540000014693674499897050252_" transform="translate(123.679886 114.761986)">
					
						<path id="Path-111_00000096775722464324792510000004893979162252031619_" fill="none" stroke="#18233D" stroke-width="2" stroke-linecap="round" d="
						M-14.92,23.66l38.53-0.14"/>
					
						<path id="Path-111_00000163783169692043820120000005691326841596931732_" fill="none" stroke="#18233D" stroke-width="2" stroke-linecap="round" d="
						M-14.92,23.66l21.44-0.14"/>
				</g>
				<g id="Group-4_00000046328233423333993810000012836417618191779210_" transform="translate(123.679886 34.233)">
					
						<path id="Path-111_00000045592938212152528020000012243823806981674141_" fill="none" stroke="#18233D" stroke-width="2" stroke-linecap="round" d="
						M-14.92,32.93l38.53-0.14"/>
					
						<path id="Path-111_00000142146669582924615730000016666346525802117261_" fill="none" stroke="#18233D" stroke-width="2" stroke-linecap="round" d="
						M-14.92,32.93l27.13-0.14"/>
				</g>
				<path id="Path-113" fill="none" stroke="#E7F1FC" d="M0,185.22h193.12"/>
				<path id="Path-113_00000133510997720936343000000000843593165109671355_" fill="none" stroke="#E7F1FC" d="M0,114.1h193.12"/>
				<path id="Path-113_00000140003146360063813610000001339655963100562353_" fill="none" stroke="#FFFFFF" d="M15.79,96.84h171.28"
					/>
			</g>
		</g>
	</g>
</g>
</svg>
