<?xml version="1.0" encoding="utf-8"?>
<!-- Generator: Adobe Illustrator 26.3.1, SVG Export Plug-In . SVG Version: 6.00 Build 0)  -->
<svg version="1.1" id="Layer_1" xmlns="http://www.w3.org/2000/svg" xmlns:xlink="http://www.w3.org/1999/xlink" x="0px" y="0px"
	 viewBox="0 0 783 656" style="enable-background:new 0 0 783 656;" xml:space="preserve">
<style type="text/css">
	.st0{fill:#FFFFFF;stroke:#000000;stroke-width:5;}
	.st1{fill:#FFFFFF;filter:url(#Adobe_OpacityMaskFilter);stroke:#000000;stroke-width:8;}
	.st2{mask:url(#mask0_2069_157_00000034796269738587768710000005513913041110035336_);}
	.st3{fill:none;}
	.st4{fill:#FBF7F3;}
	.st5{fill:#FFFFFF;}
	.st6{fill:none;stroke:#000000;stroke-width:1.5;}
	.st7{fill:#FFEBEB;stroke:#000000;stroke-width:1.5;}
	.st8{fill:#D6FFF0;stroke:#000000;stroke-width:1.5;}
	.st9{fill:#FBF7F3;stroke:#000000;stroke-width:1.5;}
	.st10{fill:#D9D9D9;}
	.st11{fill:none;stroke:#FFFFFF;stroke-width:2;}
	.st12{fill:#FFFFFF;stroke:#000000;stroke-width:1.5;}
	.st13{fill:#FFE0AB;stroke:#000000;stroke-width:1.5;}
	.st14{fill:#95E4FF;stroke:#000000;stroke-width:1.5;}
	.st15{fill:#FFC96F;}
</style>
<path class="st0" d="M35,2.5h851c17.9,0,32.5,14.6,32.5,32.5v586c0,17.9-14.6,32.5-32.5,32.5H35c-17.9,0-32.5-14.6-32.5-32.5V35
	C2.5,17.1,17.1,2.5,35,2.5z"/>
<defs>
	<filter id="Adobe_OpacityMaskFilter" filterUnits="userSpaceOnUse" x="-71" y="-149" width="1275" height="940">
		<feColorMatrix  type="matrix" values="1 0 0 0 0  0 1 0 0 0  0 0 1 0 0  0 0 0 1 0"/>
	</filter>
</defs>
<mask maskUnits="userSpaceOnUse" x="-71" y="-149" width="1275" height="940" id="mask0_2069_157_00000034796269738587768710000005513913041110035336_">
	<path class="st1" d="M43.3,12.4h800.4c17.1,0,31,13.9,31,31v571.3c0,17.1-13.9,31-31,31H43.3c-17.1,0-31-13.9-31-31V43.4
		C12.3,26.3,26.2,12.4,43.3,12.4z"/>
</mask>
<g class="st2">
	<rect x="-71" y="-149" class="st3" width="1275" height="940"/>
	<rect x="16" y="85" class="st4" width="188" height="439"/>
	<rect x="240" y="99" class="st5" width="322" height="57"/>
	<rect x="240" y="8" class="st5" width="329" height="57"/>
	<rect x="445" y="151" class="st5" width="124" height="57"/>
	<rect x="227" y="221" class="st5" width="348" height="418"/>
	<rect x="41" y="8" class="st4" width="124" height="57"/>
	<rect x="634" y="436" class="st4" width="124" height="27"/>
</g>
<path class="st6" d="M250,226.8h302c5.1,0,9.2,4.1,9.2,9.2v260c0,5.1-4.1,9.2-9.2,9.2H250c-5.1,0-9.2-4.1-9.2-9.2V236
	C240.8,230.9,244.9,226.8,250,226.8z"/>
<path class="st7" d="M249,522.8h134c5.1,0,9.2,4.1,9.2,9.2v83c0,5.1-4.1,9.2-9.2,9.2H249c-5.1,0-9.2-4.1-9.2-9.2v-83
	C239.8,526.9,243.9,522.8,249,522.8z"/>
<path class="st8" d="M418,522.8h134c5.1,0,9.2,4.1,9.2,9.2v83c0,5.1-4.1,9.2-9.2,9.2H418c-5.1,0-9.2-4.1-9.2-9.2v-83
	C408.8,526.9,412.9,522.8,418,522.8z"/>
<path class="st9" d="M641,167.8h209c3.5,0,6.2,2.8,6.2,6.2v106c0,3.5-2.8,6.2-6.2,6.2H641c-3.5,0-6.2-2.8-6.2-6.2V174
	C634.8,170.5,637.5,167.8,641,167.8z"/>
<path class="st9" d="M641,54.7h209c3.5,0,6.2,2.8,6.2,6.2v86c0,3.5-2.8,6.2-6.2,6.2H641c-3.5,0-6.2-2.8-6.2-6.2V61
	C634.8,57.5,637.5,54.7,641,54.7z"/>
<path class="st9" d="M641,300.8h209c3.5,0,6.2,2.8,6.2,6.2v90c0,3.5-2.8,6.2-6.2,6.2H641c-3.5,0-6.2-2.8-6.2-6.2v-90
	C634.8,303.5,637.5,300.8,641,300.8z"/>
<path class="st6" d="M662,85h105"/>
<path class="st6" d="M662,116h53"/>
<path class="st6" d="M662,212h105"/>
<path class="st6" d="M662,243h53"/>
<path class="st6" d="M662,338h105"/>
<path class="st6" d="M662,369h53"/>
<path class="st10" d="M641,512h35c2.8,0,5,2.2,5,5v36c0,2.8-2.2,5-5,5h-35c-2.8,0-5-2.2-5-5v-36C636,514.2,638.2,512,641,512z"/>
<path class="st10" d="M642,588h34c2.8,0,5,2.2,5,5v35c0,2.8-2.2,5-5,5h-34c-2.8,0-5-2.2-5-5v-35C637,590.2,639.2,588,642,588z"/>
<path d="M239.5,34.3v-2.9H255v2.9h-6.2V51h-3.1V34.3H239.5z M260.6,37.4c1.9,0,3.6,0.7,5,2c1.4,1.3,2,3,2,4.9c0,2-0.7,3.6-2,5
	c-1.4,1.3-3,2-5,2c-2,0-3.6-0.7-5-2c-1.4-1.3-2.1-3-2.1-4.9s0.7-3.6,2.1-4.9S258.6,37.4,260.6,37.4z M257.7,41.3
	c-0.7,0.8-1.1,1.8-1.1,3s0.4,2.2,1.1,3c0.8,0.8,1.7,1.2,2.9,1.2c1.2,0,2.1-0.4,2.9-1.2s1.1-1.8,1.1-3s-0.4-2.2-1.1-3
	c-0.7-0.8-1.7-1.2-2.9-1.2S258.4,40.5,257.7,41.3z M277.3,40.3H274v5.9c0,1.6,0.8,2.2,2.3,2.2c0.3,0,0.6,0,1-0.1v2.5
	c-0.5,0.2-1,0.3-1.6,0.3c-2.9,0-4.6-1.6-4.6-4.5v-6.4h-2.5v-2.7h2.5v-4.1h3v4.1h3.3V40.3z M287.5,41.9c0-1.1-1-2-2.6-2
	c-1.5,0-2.7,0.7-3.3,2.1l-2.3-1.3c1-2.3,2.9-3.4,5.7-3.4c2.5,0,4.2,0.9,5,2.7c0.3,0.7,0.5,1.5,0.5,2.4V51h-2.9v-1.8
	c-0.8,1.4-2.1,2-3.9,2c-1.3,0-2.4-0.4-3.2-1.1s-1.3-1.7-1.3-2.8v-0.1c0-3.1,3.2-4.1,5.5-4.1h1.7C287.1,43.1,287.5,42.7,287.5,41.9z
	 M287.5,45.6v-0.4h-2.9c-0.6,0-1.2,0.2-1.8,0.5c-0.5,0.3-0.8,0.8-0.8,1.4c0,1.1,0.9,1.8,2.1,1.8C286.2,48.8,287.5,47.6,287.5,45.6z
	 M293.8,51V30.6h3V51H293.8z M318.6,45.2h-10.1c0,1,0.4,1.8,1.2,2.5c0.8,0.6,1.7,1,2.7,1c1.7,0,2.9-0.7,3.6-2.1l2.1,1.4
	c-1.1,2.1-3.3,3.2-5.7,3.2c-2,0-3.7-0.7-5-2c-1.3-1.3-2-3-2-5c0-1.9,0.6-3.5,1.9-4.9c1.3-1.4,2.9-2,4.8-2c2,0,3.6,0.6,4.8,1.9
	c1.1,1.3,1.7,2.9,1.7,5C318.6,44.7,318.6,45,318.6,45.2z M312.1,39.9c-1.8,0-3.2,1.2-3.5,3h7C315.5,41.1,314,39.9,312.1,39.9z
	 M321.2,51V30.6h3V51H321.2z M327.7,34.7c-0.8-0.8-0.8-2,0-2.8c0.8-0.8,2-0.8,2.8,0c0.8,0.8,0.8,2,0,2.8
	C329.7,35.5,328.5,35.5,327.7,34.7z M330.6,37.6V51h-3V37.6H330.6z M339.7,51.1c-1.9,0-3.5-0.7-4.7-2c-1.2-1.4-1.8-3-1.8-4.8
	c0-1.8,0.6-3.4,1.8-4.8c1.2-1.4,2.8-2.1,4.8-2.1c0.7,0,1.5,0.2,2.3,0.6c0.9,0.4,1.5,0.9,2,1.7v-2h2.9v13.2c0,2.1-0.7,3.8-1.9,5
	c-1.3,1.2-2.9,1.8-5,1.8c-3.2,0-5.5-1.3-6.7-4l2.5-1.4c0.9,1.9,2.3,2.8,4.2,2.8c2.3,0,4.1-1.4,4.1-4.1v-2.1c-0.5,0.8-1.1,1.3-2,1.7
	S340.4,51.1,339.7,51.1z M344.1,44.2c0-1.2-0.4-2.1-1.1-2.9c-0.7-0.8-1.7-1.2-2.9-1.2c-1.2,0-2.1,0.4-2.9,1.2
	c-0.7,0.8-1.1,1.8-1.1,2.9c0,1.2,0.4,2.2,1.1,3c0.8,0.8,1.7,1.2,2.9,1.2c1.2,0,2.1-0.4,2.9-1.2C343.7,46.4,344.1,45.4,344.1,44.2z
	 M350.6,34.7c-0.8-0.8-0.8-2,0-2.8c0.8-0.8,2-0.8,2.8,0c0.8,0.8,0.8,2,0,2.8C352.6,35.5,351.4,35.5,350.6,34.7z M353.5,37.6V51h-3
	V37.6H353.5z M370.9,44.3c0,1.9-0.6,3.5-1.9,4.9s-2.8,2-4.8,2c-0.8,0-1.6-0.2-2.4-0.6c-0.9-0.4-1.5-0.9-2-1.6v2H357V30.6h3v9
	c0.4-0.7,1-1.2,1.9-1.6c0.9-0.4,1.7-0.6,2.5-0.6c1.9,0,3.5,0.7,4.7,2.1C370.3,40.9,370.9,42.5,370.9,44.3z M361,41.3
	c-0.7,0.8-1.1,1.8-1.1,3s0.4,2.2,1.1,3c0.8,0.8,1.7,1.2,2.9,1.2c1.2,0,2.1-0.4,2.9-1.2c0.8-0.8,1.1-1.8,1.1-3s-0.4-2.2-1.1-3
	c-0.7-0.8-1.7-1.2-2.9-1.2C362.7,40.1,361.8,40.5,361,41.3z M373.5,51V30.6h3V51H373.5z M392.2,45.2h-10.1c0,1,0.4,1.8,1.2,2.5
	c0.8,0.6,1.7,1,2.7,1c1.7,0,2.9-0.7,3.6-2.1l2.1,1.4c-1.1,2.1-3.3,3.2-5.7,3.2c-2,0-3.6-0.7-5-2c-1.3-1.3-2-3-2-5
	c0-1.9,0.7-3.5,1.9-4.9c1.3-1.4,2.9-2,4.8-2c2,0,3.6,0.6,4.8,1.9c1.2,1.3,1.7,2.9,1.7,5C392.3,44.7,392.3,45,392.2,45.2z
	 M385.8,39.9c-1.8,0-3.2,1.2-3.5,3h7C389.2,41.1,387.7,39.9,385.8,39.9z M400.9,51V30.6h3V51H400.9z M419.7,45.2h-10.1
	c0,1,0.4,1.8,1.2,2.5c0.8,0.6,1.7,1,2.7,1c1.7,0,2.9-0.7,3.6-2.1l2.1,1.4c-1.1,2.1-3.3,3.2-5.7,3.2c-2,0-3.6-0.7-5-2
	c-1.3-1.3-2-3-2-5c0-1.9,0.7-3.5,1.9-4.9c1.3-1.4,2.9-2,4.8-2c2,0,3.6,0.6,4.8,1.9c1.2,1.3,1.7,2.9,1.7,5
	C419.7,44.7,419.7,45,419.7,45.2z M413.2,39.9c-1.8,0-3.2,1.2-3.5,3h7C416.6,41.1,415.1,39.9,413.2,39.9z M429.9,41.9
	c0-1.1-0.9-2-2.6-2c-1.5,0-2.6,0.7-3.3,2.1l-2.3-1.3c1.1-2.3,3-3.4,5.7-3.4c2.5,0,4.2,0.9,5,2.7c0.3,0.7,0.4,1.5,0.4,2.4V51h-2.9
	v-1.8c-0.8,1.4-2.1,2-3.9,2c-1.3,0-2.4-0.4-3.2-1.1s-1.3-1.7-1.3-2.8v-0.1c0-3.1,3.2-4.1,5.5-4.1h1.6
	C429.5,43.1,429.9,42.7,429.9,41.9z M429.9,45.6v-0.4H427c-0.6,0-1.2,0.2-1.8,0.5c-0.5,0.3-0.8,0.8-0.8,1.4c0,1.1,0.9,1.8,2.1,1.8
	C428.6,48.8,429.9,47.6,429.9,45.6z M435.2,44.3c0-1.8,0.6-3.4,1.8-4.8c1.2-1.4,2.9-2.1,4.8-2.1c0.7,0,1.5,0.2,2.4,0.5
	c0.9,0.3,1.5,0.9,2,1.6v-8.9h3V51h-2.9v-2.1c-0.5,0.8-1.1,1.4-2.1,1.7c-0.9,0.4-1.7,0.5-2.4,0.5c-1.9,0-3.4-0.7-4.7-2
	S435.2,46.1,435.2,44.3z M442.2,40.1c-1.2,0-2.1,0.4-2.9,1.2c-0.7,0.8-1.1,1.8-1.1,3s0.4,2.2,1.1,3c0.8,0.8,1.7,1.2,2.9,1.2
	s2.1-0.4,2.9-1.2c0.8-0.8,1.1-1.8,1.1-3s-0.4-2.2-1.1-3S443.4,40.1,442.2,40.1z M466,40.3h-3.3v5.9c0,1.6,0.8,2.2,2.3,2.2
	c0.3,0,0.6,0,1-0.1v2.5c-0.5,0.2-1,0.3-1.6,0.3c-2.9,0-4.6-1.6-4.6-4.5v-6.4h-2.4v-2.7h2.4v-4.1h3v4.1h3.3V40.3z M474.6,37.4
	c1.9,0,3.6,0.7,5,2c1.4,1.3,2,3,2,4.9c0,2-0.7,3.6-2,5c-1.4,1.3-3,2-5,2c-1.9,0-3.6-0.7-5-2c-1.4-1.3-2-3-2-4.9s0.7-3.6,2.1-4.9
	S472.6,37.4,474.6,37.4z M471.7,41.3c-0.7,0.8-1.1,1.8-1.1,3s0.4,2.2,1.1,3c0.8,0.8,1.7,1.2,2.9,1.2c1.2,0,2.2-0.4,2.9-1.2
	c0.7-0.8,1.1-1.8,1.1-3s-0.4-2.2-1.1-3c-0.7-0.8-1.7-1.2-2.9-1.2C473.4,40.1,472.4,40.5,471.7,41.3z M247.1,81.2c-2,0-3.6-0.7-4.9-2
	c-1.3-1.3-2-3-2-4.9c0-1.9,0.7-3.5,2-4.9c1.3-1.4,3-2.1,4.9-2.1c3,0,5.2,1.6,6,4l-2.6,1.2c-0.6-1.6-1.7-2.5-3.4-2.5
	c-1.1,0-2,0.4-2.8,1.2c-0.8,0.8-1.1,1.8-1.1,3c0,1.2,0.4,2.3,1.1,3.1c0.8,0.8,1.7,1.2,2.8,1.2c1.7,0,2.8-0.8,3.4-2.5l2.6,1.1
	c-0.4,1.1-1.1,2-2.1,2.8C250,80.8,248.7,81.2,247.1,81.2z M261.7,67.4c1.9,0,3.6,0.7,4.9,2c1.4,1.3,2.1,3,2.1,4.9c0,2-0.7,3.6-2.1,5
	c-1.3,1.3-3,2-5,2c-2,0-3.6-0.7-5-2c-1.4-1.3-2.1-3-2.1-4.9c0-2,0.7-3.6,2.1-4.9C258,68,259.7,67.4,261.7,67.4z M258.7,71.3
	c-0.7,0.8-1.1,1.8-1.1,2.9s0.4,2.2,1.1,3c0.8,0.8,1.7,1.2,2.9,1.2c1.2,0,2.1-0.4,2.9-1.2c0.7-0.8,1.1-1.8,1.1-3c0-1.2-0.4-2.2-1.1-3
	c-0.7-0.8-1.7-1.2-2.9-1.2C260.5,70.1,259.5,70.5,258.7,71.3z M283.2,81h-3v-7.5c0-2-1-3.3-2.9-3.3c-1.9,0-3.1,1.4-3.1,3.4V81h-3
	V67.6h2.9v1.8c1-1.4,2.4-2.1,4.1-2.1c3.3,0,5,2.2,5,5.4V81z M285,67.6h3.2l3.9,9.9l3.9-9.9h3.1L293.6,81h-3L285,67.6z M313,75.2
	h-10.1c0,1,0.4,1.8,1.2,2.5c0.8,0.7,1.7,1,2.7,1c1.7,0,2.9-0.7,3.6-2.1l2.1,1.4c-1.1,2.1-3.3,3.2-5.7,3.2c-2,0-3.6-0.7-5-2
	c-1.3-1.3-2-3-2-5c0-1.9,0.6-3.6,1.9-4.9s2.9-2,4.8-2c2,0,3.6,0.6,4.8,1.9s1.7,2.9,1.7,5C313,74.7,313,75,313,75.2z M306.5,69.9
	c-1.8,0-3.2,1.2-3.5,3h7C309.9,71.1,308.4,69.9,306.5,69.9z M322.9,67.6v3.1c-0.2-0.1-0.5-0.1-0.9-0.1c-2.3,0-3.5,1.3-3.5,3.7V81h-3
	V67.6h2.9v2.1c0.8-1.5,2-2.2,3.7-2.2C322.5,67.5,322.7,67.5,322.9,67.6z M332.2,70.3h-3.3v5.9c0,1.6,0.8,2.2,2.3,2.2
	c0.3,0,0.6,0,1-0.1v2.5c-0.5,0.2-1,0.3-1.6,0.3c-2.9,0-4.6-1.6-4.6-4.5v-6.4h-2.5v-2.7h2.5v-4.1h3v4.1h3.3V70.3z M334.3,78.9
	c0-1.2,1-2.2,2.2-2.2c1.2,0,2.2,1,2.2,2.2c0,1.2-1,2.2-2.2,2.2S334.3,80.1,334.3,78.9z"/>
<path d="M248.8,136.2c-2,0-3.9-0.8-5.4-2.1c-1.5-1.3-2.5-3.4-2.5-5.9c0-2.3,0.8-4.2,2.4-5.8c1.6-1.5,3.4-2.3,5.6-2.3
	c2,0,3.7,0.6,4.8,1.6c1.1,0.9,1.9,2,2.2,3.1l-2.2,1c-0.8-2-2.4-3.4-4.9-3.4c-1.4,0-2.7,0.5-3.7,1.6c-1.1,1.1-1.6,2.4-1.6,4.1
	c0,1.7,0.5,3.1,1.6,4.1c1.1,1.1,2.3,1.6,3.8,1.6c1.1,0,2.1-0.3,3-0.9c0.9-0.6,1.6-1.5,2-2.5l2.2,1c-0.4,1.1-1.1,2.2-2.3,3.1
	C252.6,135.5,250.8,136.2,248.8,136.2z M262.7,125.1c1.5,0,2.9,0.5,4,1.6s1.6,2.4,1.6,3.9c0,1.6-0.5,2.9-1.6,4
	c-1.1,1.1-2.4,1.6-4,1.6c-1.6,0-2.9-0.5-4-1.6s-1.6-2.4-1.6-3.9s0.6-2.9,1.7-3.9C259.8,125.6,261.1,125.1,262.7,125.1z M260.4,128.2
	c-0.6,0.6-0.9,1.4-0.9,2.4c0,0.9,0.3,1.7,0.9,2.4c0.6,0.7,1.4,1,2.3,1s1.7-0.3,2.3-1c0.6-0.7,0.9-1.5,0.9-2.4s-0.3-1.7-0.9-2.4
	c-0.6-0.7-1.4-1-2.3-1S261,127.6,260.4,128.2z M279.9,136h-2.4v-6c0-1.6-0.8-2.7-2.4-2.7c-1.5,0-2.5,1.1-2.5,2.7v5.9h-2.4v-10.7h2.3
	v1.4c0.8-1.1,1.9-1.7,3.3-1.7c2.6,0,4,1.8,4,4.3V136z M281.2,125.3h2.6l3.1,7.9l3.1-7.9h2.5l-4.5,10.7h-2.4L281.2,125.3z
	 M303.4,131.4h-8.1c0,0.8,0.3,1.5,1,2c0.6,0.5,1.3,0.8,2.2,0.8c1.3,0,2.3-0.6,2.9-1.7l1.7,1.1c-0.9,1.7-2.6,2.6-4.6,2.6
	c-1.6,0-2.9-0.5-4-1.6c-1.1-1.1-1.6-2.4-1.6-4c0-1.5,0.5-2.8,1.5-3.9c1-1.1,2.3-1.6,3.8-1.6c1.6,0,2.9,0.5,3.8,1.5
	c0.9,1,1.4,2.3,1.4,4C303.5,130.9,303.5,131.2,303.4,131.4z M298.3,127.1c-1.5,0-2.6,1-2.8,2.4h5.6
	C301,128.1,299.8,127.1,298.3,127.1z M311.3,125.3v2.4c-0.2,0-0.4-0.1-0.7-0.1c-1.8,0-2.8,1.1-2.8,2.9v5.4h-2.4v-10.7h2.3v1.7
	c0.7-1.2,1.6-1.8,2.9-1.8C310.9,125.2,311.1,125.2,311.3,125.3z M318.6,127.5H316v4.7c0,1.3,0.6,1.8,1.8,1.8c0.2,0,0.5,0,0.8-0.1v2
	c-0.4,0.1-0.8,0.2-1.3,0.2c-2.3,0-3.7-1.2-3.7-3.6v-5.1h-2v-2.1h2V122h2.4v3.3h2.6V127.5z M330.2,131.4h-8.1c0,0.8,0.3,1.5,1,2
	c0.6,0.5,1.3,0.8,2.2,0.8c1.3,0,2.3-0.6,2.9-1.7l1.7,1.1c-0.9,1.7-2.6,2.6-4.6,2.6c-1.6,0-2.9-0.5-4-1.6c-1.1-1.1-1.6-2.4-1.6-4
	c0-1.5,0.5-2.8,1.5-3.9c1-1.1,2.3-1.6,3.8-1.6c1.6,0,2.9,0.5,3.8,1.5c0.9,1,1.4,2.3,1.4,4C330.3,130.9,330.3,131.2,330.2,131.4z
	 M325.1,127.1c-1.5,0-2.6,1-2.8,2.4h5.6C327.8,128.1,326.6,127.1,325.1,127.1z M331.5,130.6c0-1.4,0.5-2.7,1.5-3.8
	c1-1.1,2.3-1.7,3.9-1.7c0.6,0,1.2,0.1,1.9,0.4c0.7,0.3,1.2,0.7,1.6,1.3v-7.1h2.4V136h-2.3v-1.7c-0.4,0.6-0.9,1.1-1.7,1.4
	c-0.7,0.3-1.4,0.4-1.9,0.4c-1.5,0-2.8-0.5-3.8-1.6C332,133.4,331.5,132.1,331.5,130.6z M337.1,127.3c-0.9,0-1.7,0.3-2.3,1
	c-0.6,0.7-0.9,1.5-0.9,2.4s0.3,1.7,0.9,2.4c0.6,0.6,1.4,1,2.3,1s1.7-0.3,2.3-1c0.6-0.7,0.9-1.5,0.9-2.4s-0.3-1.7-0.9-2.4
	C338.8,127.6,338,127.3,337.1,127.3z M350.1,136v-16.3h2.4V136H350.1z M365,131.4h-8.1c0,0.8,0.3,1.5,1,2c0.6,0.5,1.3,0.8,2.2,0.8
	c1.3,0,2.3-0.6,2.9-1.7l1.7,1.1c-0.9,1.7-2.6,2.6-4.6,2.6c-1.6,0-2.9-0.5-4-1.6c-1.1-1.1-1.6-2.4-1.6-4c0-1.5,0.5-2.8,1.5-3.9
	c1-1.1,2.3-1.6,3.8-1.6c1.6,0,2.9,0.5,3.8,1.5c0.9,1,1.4,2.3,1.4,4C365,130.9,365,131.2,365,131.4z M359.8,127.1
	c-1.5,0-2.6,1-2.8,2.4h5.6C362.5,128.1,361.4,127.1,359.8,127.1z M373.1,128.8c0-0.9-0.8-1.6-2.1-1.6c-1.2,0-2.1,0.6-2.7,1.7l-1.8-1
	c0.8-1.8,2.4-2.7,4.5-2.7c2,0,3.3,0.7,4,2.2c0.2,0.5,0.4,1.2,0.4,1.9v6.8h-2.3v-1.5c-0.7,1.1-1.7,1.6-3.1,1.6c-1,0-1.9-0.3-2.6-0.9
	c-0.7-0.6-1-1.3-1-2.3v-0.1c0-2.5,2.6-3.3,4.4-3.3h1.3C372.7,129.7,373.1,129.4,373.1,128.8z M373.1,131.7v-0.3h-2.3
	c-0.5,0-1,0.1-1.4,0.4c-0.4,0.3-0.6,0.6-0.6,1.1c0,0.9,0.7,1.5,1.7,1.5C372,134.3,373.1,133.3,373.1,131.7z M377.3,130.6
	c0-1.4,0.5-2.7,1.5-3.8c1-1.1,2.3-1.7,3.9-1.7c0.6,0,1.2,0.1,1.9,0.4c0.7,0.3,1.2,0.7,1.6,1.3v-7.1h2.4V136h-2.3v-1.7
	c-0.4,0.6-0.9,1.1-1.7,1.4c-0.7,0.3-1.4,0.4-1.9,0.4c-1.5,0-2.8-0.5-3.8-1.6C377.8,133.4,377.3,132.1,377.3,130.6z M382.9,127.3
	c-0.9,0-1.7,0.3-2.3,1c-0.6,0.7-0.9,1.5-0.9,2.4s0.3,1.7,0.9,2.4c0.6,0.6,1.4,1,2.3,1s1.7-0.3,2.3-1c0.6-0.7,0.9-1.5,0.9-2.4
	s-0.3-1.7-0.9-2.4C384.6,127.6,383.8,127.3,382.9,127.3z"/>
<path d="M263,262l6.4-15.7h2.9l6.3,15.7h-2.6l-1.4-3.7H267l-1.4,3.7H263z M270.8,248.7l-3,7.4h5.9L270.8,248.7z M289.3,262H287v-6
	c0-1.6-0.8-2.7-2.4-2.7c-1.5,0-2.5,1.1-2.5,2.7v5.9h-2.4v-10.7h2.3v1.4c0.8-1.1,1.9-1.7,3.3-1.7c2.6,0,4,1.8,4,4.3V262z M298,254.8
	c0-0.9-0.8-1.6-2.1-1.6c-1.2,0-2.1,0.6-2.7,1.7l-1.8-1c0.8-1.8,2.4-2.7,4.5-2.7c2,0,3.3,0.7,4,2.2c0.2,0.5,0.4,1.2,0.4,1.9v6.8H298
	v-1.5c-0.7,1.1-1.7,1.6-3.1,1.6c-1,0-1.9-0.3-2.6-0.9c-0.7-0.6-1-1.3-1-2.3v-0.1c0-2.5,2.6-3.3,4.4-3.3h1.3
	C297.7,255.7,298,255.4,298,254.8z M298,257.7v-0.3h-2.3c-0.5,0-1,0.1-1.4,0.4c-0.4,0.3-0.6,0.6-0.6,1.1c0,0.9,0.7,1.5,1.7,1.5
	C297,260.3,298,259.3,298,257.7z M302.9,262v-16.3h2.4V262H302.9z M309.4,251.3l3.3,7l3.1-7h2.6l-7.3,15.9h-2.5l2.9-6.5l-4.8-9.5
	H309.4z M322.8,262.2c-2.1,0-3.6-0.9-4.4-2.7l1.9-1c0.6,1.1,1.4,1.7,2.6,1.7c0.9,0,1.7-0.5,1.7-1.2c0-0.6-0.7-1.1-2.2-1.4
	c-1.2-0.2-2.1-0.7-2.7-1.3c-0.5-0.5-0.8-1.2-0.8-1.9c0-1,0.4-1.7,1.2-2.4c0.8-0.6,1.7-0.9,2.7-0.9c1.9,0,3.3,0.8,4,2.4l-1.8,1
	c-0.5-1-1.2-1.4-2.2-1.4c-0.7,0-1.5,0.5-1.5,1c0,0.7,0.6,1.1,2,1.4c2.4,0.5,3.7,1.7,3.7,3.4c0,1-0.4,1.8-1.1,2.4
	C325,261.9,324,262.2,322.8,262.2z M329,249c-0.6-0.6-0.6-1.6,0-2.2c0.6-0.6,1.6-0.6,2.2,0c0.6,0.6,0.6,1.6,0,2.2
	C330.6,249.6,329.6,249.6,329,249z M331.3,251.3V262h-2.4v-10.7H331.3z M337.5,262.2c-2.1,0-3.6-0.9-4.4-2.7l1.9-1
	c0.6,1.1,1.4,1.7,2.6,1.7c0.9,0,1.7-0.5,1.7-1.2c0-0.6-0.7-1.1-2.2-1.4c-1.2-0.2-2.1-0.7-2.7-1.3c-0.5-0.5-0.8-1.2-0.8-1.9
	c0-1,0.4-1.7,1.2-2.4c0.8-0.6,1.7-0.9,2.7-0.9c1.9,0,3.3,0.8,4,2.4l-1.8,1c-0.5-1-1.2-1.4-2.2-1.4c-0.7,0-1.5,0.5-1.5,1
	c0,0.7,0.6,1.1,2,1.4c2.4,0.5,3.7,1.7,3.7,3.4c0,1-0.4,1.8-1.1,2.4S338.7,262.2,337.5,262.2z"/>
<path d="M634.4,441v-2.1h11.2v2.1H641v12h-2.2v-12H634.4z M649.4,443.2c1.4,0,2.6,0.5,3.6,1.4s1.5,2.1,1.5,3.5
	c0,1.4-0.5,2.6-1.5,3.6c-1,1-2.2,1.4-3.6,1.4c-1.4,0-2.6-0.5-3.6-1.4c-1-1-1.5-2.1-1.5-3.5s0.5-2.6,1.5-3.5S648,443.2,649.4,443.2z
	 M647.3,446c-0.5,0.6-0.8,1.3-0.8,2.1c0,0.8,0.3,1.6,0.8,2.2c0.5,0.6,1.2,0.9,2.1,0.9c0.8,0,1.5-0.3,2.1-0.9
	c0.5-0.6,0.8-1.3,0.8-2.2s-0.3-1.6-0.8-2.2c-0.5-0.6-1.2-0.9-2.1-0.9C648.5,445.1,647.8,445.4,647.3,446z M666.2,448.2
	c0,1.4-0.5,2.5-1.4,3.5c-0.9,1-2,1.5-3.4,1.5c-0.5,0-1-0.1-1.7-0.4c-0.6-0.3-1.1-0.6-1.4-1.2v6.1h-2.1v-14.3h2.1v1.5
	c0.4-0.6,0.8-1,1.5-1.3s1.2-0.4,1.7-0.4c1.4,0,2.5,0.5,3.4,1.5C665.8,445.7,666.2,446.9,666.2,448.2z M659.1,446
	c-0.5,0.6-0.8,1.3-0.8,2.2s0.3,1.6,0.8,2.2c0.5,0.6,1.2,0.9,2.1,0.9s1.5-0.3,2.1-0.9c0.5-0.6,0.8-1.3,0.8-2.2s-0.3-1.6-0.8-2.2
	c-0.5-0.6-1.2-0.9-2.1-0.9S659.6,445.4,659.1,446z M668,441.3c-0.6-0.6-0.6-1.4,0-2c0.6-0.6,1.4-0.6,2,0c0.6,0.6,0.6,1.4,0,2
	C669.4,441.8,668.6,441.8,668,441.3z M670.1,443.4v9.6h-2.1v-9.6H670.1z M676.8,453.2c-1.4,0-2.6-0.5-3.6-1.4c-1-1-1.4-2.1-1.4-3.6
	c0-1.4,0.5-2.5,1.4-3.5c1-1,2.1-1.5,3.6-1.5c2.2,0,3.7,1.2,4.3,2.9l-1.8,0.8c-0.4-1.2-1.2-1.8-2.5-1.8c-0.8,0-1.5,0.3-2,0.8
	c-0.5,0.6-0.8,1.3-0.8,2.2c0,0.9,0.3,1.6,0.8,2.2c0.5,0.6,1.2,0.9,2,0.9c1.2,0,2-0.6,2.5-1.8l1.9,0.8c-0.3,0.8-0.8,1.5-1.5,2
	C678.9,452.9,678,453.2,676.8,453.2z"/>
<path d="M470.3,173.9c0,0.9-0.4,1.7-1.1,2.3c-0.7,0.6-1.7,0.9-2.8,0.9c-1.9,0-3.2-0.8-3.8-2.5l1.5-0.7c0.5,1.1,1.3,1.6,2.4,1.6
	c0.6,0,1.1-0.2,1.5-0.5c0.4-0.3,0.6-0.7,0.6-1.2c0-0.5-0.2-0.9-0.6-1.2c-0.4-0.3-0.9-0.5-1.5-0.5h-1.2v-1.6h1.1c0.6,0,1-0.2,1.4-0.5
	c0.4-0.3,0.6-0.7,0.6-1.2c0-0.9-0.7-1.6-1.9-1.6c-1,0-1.7,0.5-2.1,1.6l-1.5-0.7c0.5-1.5,1.8-2.5,3.7-2.5c1.1,0,2,0.3,2.7,0.9
	c0.7,0.6,1,1.3,1,2.1c0,1.1-0.5,2-1.7,2.5v0C469.7,171.8,470.3,172.7,470.3,173.9z M472.8,179.3l-0.8-0.7c0.6-0.4,1.1-1,1.4-1.7
	c-0.1,0.1-0.3,0.1-0.4,0.1c-0.6,0-1.1-0.5-1.1-1.1c0-0.7,0.5-1.2,1.3-1.2c0.7,0,1.3,0.7,1.3,1.6v0.1
	C474.5,177.4,473.8,178.5,472.8,179.3z M476,177v-1.5l3.9-3.3c0.7-0.6,1.3-1.1,1.5-1.5c0.3-0.4,0.4-0.8,0.4-1.3c0-1-0.7-1.8-2-1.8
	c-1.1,0-1.8,0.6-2.2,1.7l-1.5-0.6c0.2-0.8,0.7-1.4,1.3-1.9c0.7-0.5,1.5-0.7,2.4-0.7c1.1,0,2,0.3,2.7,0.9c0.7,0.6,1.1,1.4,1.1,2.4
	c0,0.8-0.2,1.5-0.6,2.1c-0.4,0.6-1.1,1.3-2.1,2.1l-2.5,2.1h5.3v1.6H476z M484.7,168.1l3.3-2h1.6v11h-1.7v-9.1l-2.5,1.5L484.7,168.1z
	 M499.3,173.9c0,0.9-0.4,1.7-1.1,2.3c-0.7,0.6-1.7,0.9-2.8,0.9c-1.9,0-3.2-0.8-3.8-2.5l1.5-0.7c0.5,1.1,1.3,1.6,2.4,1.6
	c0.6,0,1.1-0.2,1.5-0.5c0.4-0.3,0.6-0.7,0.6-1.2c0-0.5-0.2-0.9-0.6-1.2c-0.4-0.3-0.9-0.5-1.5-0.5h-1.2v-1.6h1.1c0.6,0,1-0.2,1.4-0.5
	c0.4-0.3,0.6-0.7,0.6-1.2c0-0.9-0.7-1.6-1.9-1.6c-1,0-1.7,0.5-2.1,1.6l-1.5-0.7c0.5-1.5,1.8-2.5,3.7-2.5c1.1,0,2,0.3,2.7,0.9
	c0.7,0.6,1,1.3,1,2.1c0,1.1-0.5,2-1.7,2.5v0C498.7,171.8,499.3,172.7,499.3,173.9z M500.8,171.5c0-1.6,0.4-2.9,1.3-4
	c0.9-1.1,2-1.6,3.3-1.6s2.5,0.5,3.3,1.6c0.9,1.1,1.3,2.4,1.3,4c0,1.6-0.4,3-1.3,4c-0.9,1.1-2,1.6-3.3,1.6s-2.5-0.5-3.3-1.6
	C501.3,174.5,500.8,173.1,500.8,171.5z M508.3,171.5c0-1.1-0.3-2.1-0.8-2.9s-1.2-1.2-2.1-1.2s-1.5,0.4-2,1.2
	c-0.5,0.8-0.8,1.7-0.8,2.9c0,1.1,0.3,2.1,0.8,2.9c0.5,0.8,1.2,1.2,2.1,1.2s1.5-0.4,2-1.2C508,173.6,508.3,172.6,508.3,171.5z
	 M515.6,169.5h1.1v4.4c0,1.4,0.7,2.3,2.1,2.3c0.6,0,1.2-0.2,1.6-0.7s0.6-1,0.6-1.7v-4.3h1.1v7.5H521v-1.4c-0.6,1-1.4,1.5-2.6,1.5
	c-1.8,0-2.8-1.2-2.8-3V169.5z M529.5,174.9c0,0.7-0.3,1.2-0.8,1.6c-0.5,0.4-1.1,0.6-1.9,0.6c-1.4,0-2.4-0.6-2.9-1.9l0.9-0.5
	c0.5,1,1.1,1.5,2,1.5c0.9,0,1.6-0.5,1.6-1.2c0-0.6-0.5-1-1.9-1.3c-1-0.2-1.5-0.5-1.9-0.9c-0.3-0.3-0.4-0.7-0.4-1.1
	c0-0.6,0.3-1.2,0.8-1.6c0.5-0.4,1.1-0.6,1.8-0.6c1.3,0,2.1,0.6,2.6,1.7l-0.9,0.5c-0.4-0.8-1-1.3-1.8-1.3c-0.4,0-0.8,0.1-1.1,0.4
	c-0.3,0.2-0.4,0.5-0.4,0.8c0,0.6,0.4,0.9,1.8,1.2c0.9,0.2,1.6,0.5,2,0.9C529.3,174,529.5,174.4,529.5,174.9z M538.1,173.6h-6
	c0,0.7,0.3,1.3,0.8,1.8c0.5,0.5,1.1,0.7,1.8,0.7c1,0,1.9-0.6,2.4-1.5l0.8,0.5c-0.6,1.2-1.8,1.9-3.2,1.9c-1.1,0-2-0.4-2.7-1.1
	c-0.7-0.8-1.1-1.7-1.1-2.8c0-1,0.3-1.9,1-2.7c0.7-0.8,1.6-1.1,2.6-1.1c1.1,0,2,0.4,2.6,1.1c0.6,0.7,0.9,1.6,0.9,2.8
	C538.1,173.4,538.1,173.5,538.1,173.6z M532,172.7h4.9c-0.2-1.4-1-2.3-2.4-2.3c-0.6,0-1.2,0.2-1.7,0.7
	C532.4,171.5,532.1,172,532,172.7z M540,169.5h1.1v1.5c0.5-1.1,1.5-1.6,2.4-1.6c0.2,0,0.3,0,0.4,0v1.2c-0.2,0-0.3,0-0.4,0
	c-0.8,0-1.4,0.3-1.8,0.8c-0.4,0.5-0.6,1.2-0.6,2v3.7H540V169.5z M462.4,189.5h1.4v-1.4c0-1.7,0.9-2.6,2.3-2.6c0.3,0,0.5,0,0.8,0.1
	v0.9c-0.2-0.1-0.5-0.1-0.8-0.1c-0.7,0-1.2,0.4-1.2,1.6v1.4h4.5v7.5h-1.1v-6.5h-3.4v6.5h-1.1v-6.5h-1.4V189.5z M468,186.9
	c0-0.5,0.4-0.8,0.8-0.8c0.5,0,0.8,0.4,0.8,0.8c0,0.4-0.4,0.8-0.8,0.8C468.4,187.7,468,187.3,468,186.9z M478.3,197h-1.1v-4.4
	c0-1.4-0.7-2.3-2.1-2.3c-0.6,0-1.2,0.2-1.6,0.7c-0.4,0.4-0.6,1-0.6,1.7v4.3h-1.1v-7.5h1.1v1.4c0.6-1,1.4-1.5,2.6-1.5
	c1.8,0,2.8,1.2,2.8,3V197z M480.2,193.2c0-1,0.3-1.9,1-2.7c0.7-0.8,1.5-1.2,2.5-1.2c1.2,0,2.1,0.6,2.9,1.7v-5.5h1.1V197h-1.1v-1.6
	c-0.7,1.1-1.7,1.7-2.9,1.7c-1,0-1.9-0.4-2.5-1.1C480.5,195.2,480.2,194.3,480.2,193.2z M483.9,196.1c0.8,0,1.4-0.3,1.9-0.9
	c0.5-0.6,0.8-1.3,0.8-2.1c0-0.8-0.3-1.4-0.8-2c-0.5-0.6-1.1-0.9-1.9-0.9c-0.8,0-1.4,0.3-1.9,0.8c-0.5,0.5-0.7,1.2-0.7,2.1
	c0,0.8,0.2,1.5,0.7,2C482.5,195.9,483.1,196.1,483.9,196.1z M496.9,186.5c-0.7,0-1.2,0.4-1.2,1.6v1.4h2v1h-2v6.5h-1.1v-6.5h-1.4v-1
	h1.4v-1.4c0-1.7,0.9-2.6,2.3-2.6c0.3,0,0.5,0,0.8,0.1v0.9C497.5,186.6,497.2,186.5,496.9,186.5z M502.2,197.1c-1.1,0-2-0.4-2.7-1.1
	c-0.7-0.7-1.1-1.7-1.1-2.7c0-1.1,0.4-2,1.1-2.8c0.7-0.7,1.7-1.1,2.8-1.1c1.1,0,2,0.4,2.7,1.1c0.7,0.7,1.1,1.6,1.1,2.7
	c0,1.1-0.4,2-1.1,2.8C504.2,196.7,503.3,197.1,502.2,197.1z M502.2,196.2c0.8,0,1.4-0.3,1.9-0.8c0.5-0.6,0.8-1.2,0.8-2
	c0-0.8-0.3-1.5-0.8-2.1s-1.2-0.9-2-0.9s-1.4,0.3-2,0.8c-0.5,0.6-0.8,1.2-0.8,2c0,0.8,0.3,1.5,0.8,2.1
	C500.7,195.9,501.4,196.2,502.2,196.2z M508,189.5h1.1v1.5c0.5-1.1,1.5-1.6,2.4-1.6c0.2,0,0.3,0,0.4,0v1.2c-0.2,0-0.3,0-0.4,0
	c-0.8,0-1.4,0.3-1.8,0.8c-0.4,0.5-0.6,1.2-0.6,2v3.7H508V189.5z M519.2,192.7h2.1v-0.5c0-1.2-0.6-1.8-1.9-1.8c-1,0-1.7,0.5-2.1,1.5
	l-0.9-0.5c0.6-1.3,1.6-1.9,3.1-1.9c1.4,0,2.3,0.5,2.7,1.5c0.2,0.4,0.2,0.8,0.2,1.2v4.8h-1.1v-1.3h0c-0.6,1-1.5,1.4-2.5,1.4
	c-0.7,0-1.4-0.2-1.8-0.6c-0.5-0.4-0.7-1-0.7-1.6v-0.1c0-0.7,0.3-1.3,0.9-1.6C517.7,192.9,518.4,192.7,519.2,192.7z M521.3,193.9
	v-0.3h-2.1c-0.9,0-1.8,0.3-1.8,1.3c0,0.8,0.7,1.3,1.6,1.3c0.7,0,1.2-0.2,1.7-0.6C521.1,195.1,521.3,194.5,521.3,193.9z M525.3,193.2
	c0,0.8,0.3,1.5,0.8,2.1c0.5,0.6,1.1,0.9,1.9,0.9c1.1,0,1.9-0.6,2.4-1.7l1,0.4c-0.5,1.3-1.6,2.2-3.3,2.2c-1.1,0-2-0.4-2.7-1.1
	c-0.7-0.7-1.1-1.7-1.1-2.8c0-1.1,0.4-2,1.1-2.7c0.7-0.7,1.7-1.1,2.7-1.1c1.7,0,2.9,0.9,3.3,2.2l-1,0.4c-0.3-0.9-1.1-1.6-2.3-1.6
	c-0.8,0-1.4,0.3-1.9,0.8C525.6,191.8,525.3,192.4,525.3,193.2z M535.7,197.1c-1.4,0-2.1-0.7-2.1-2v-4.6h-1.4v-1h1.4v-2.2h1.1v2.2
	h1.9v1h-1.9v4.5c0,0.7,0.4,1.1,1.2,1.1c0.3,0,0.5,0,0.7-0.1v0.9C536.3,197,536,197.1,535.7,197.1z M538.1,186.9
	c0-0.5,0.4-0.8,0.8-0.8c0.5,0,0.8,0.4,0.8,0.8c0,0.4-0.4,0.8-0.8,0.8C538.5,187.7,538.1,187.3,538.1,186.9z M539.5,189.5v7.5h-1.1
	v-7.5H539.5z M545.2,197.1c-1.1,0-2-0.4-2.7-1.1c-0.7-0.7-1.1-1.7-1.1-2.7c0-1.1,0.4-2,1.1-2.8c0.7-0.7,1.7-1.1,2.8-1.1
	c1.1,0,2,0.4,2.7,1.1c0.7,0.7,1.1,1.6,1.1,2.7c0,1.1-0.4,2-1.1,2.8C547.2,196.7,546.3,197.1,545.2,197.1z M545.3,196.2
	c0.8,0,1.4-0.3,1.9-0.8c0.5-0.6,0.8-1.2,0.8-2c0-0.8-0.3-1.5-0.8-2.1s-1.2-0.9-2-0.9c-0.8,0-1.4,0.3-2,0.8s-0.8,1.2-0.8,2
	c0,0.8,0.3,1.5,0.8,2.1S544.5,196.2,545.3,196.2z M557.5,197h-1.1v-4.4c0-1.4-0.7-2.3-2.1-2.3c-0.6,0-1.2,0.2-1.6,0.7
	c-0.4,0.4-0.6,1-0.6,1.7v4.3H551v-7.5h1.1v1.4c0.6-1,1.4-1.5,2.6-1.5c1.8,0,2.8,1.2,2.8,3V197z"/>
<circle cx="540.5" cy="56.5" r="24.5"/>
<path class="st11" d="M541,46v20"/>
<path class="st11" d="M531,56h20"/>
<circle class="st3" cx="108" cy="119" r="29"/>
<path d="M73.4,177.2c-1.8,0-3.2-1-4-2.9l1.7-1c0.5,1.3,1.2,1.9,2.2,1.9c1.3,0,2-0.9,2-2.1v-9.4h2.1v9.4c0,1.2-0.4,2.2-1.2,3
	C75.6,176.8,74.6,177.2,73.4,177.2z M84.1,167.7c1.3,0,2.4,0.4,3.4,1.3c0.9,0.9,1.4,2,1.4,3.3c0,1.3-0.5,2.5-1.4,3.4
	c-0.9,0.9-2,1.4-3.4,1.4c-1.3,0-2.5-0.5-3.4-1.4s-1.4-2-1.4-3.3s0.5-2.4,1.4-3.3C81.6,168.2,82.8,167.7,84.1,167.7z M82.1,170.4
	c-0.5,0.5-0.7,1.2-0.7,2c0,0.8,0.3,1.5,0.8,2.1c0.5,0.6,1.2,0.9,2,0.9c0.8,0,1.5-0.3,2-0.8c0.5-0.6,0.7-1.2,0.7-2s-0.3-1.5-0.8-2
	c-0.5-0.6-1.2-0.8-2-0.8C83.3,169.6,82.6,169.8,82.1,170.4z M98.6,177h-2v-5.1c0-1.4-0.7-2.3-2-2.3c-1.3,0-2.1,0.9-2.1,2.3v5h-2
	v-13.8h2v5.9c0.7-0.9,1.6-1.3,2.7-1.3c2.2,0,3.4,1.5,3.4,3.7V177z M108.9,177h-2v-5.1c0-1.4-0.7-2.3-2-2.3c-1.3,0-2.1,0.9-2.1,2.3v5
	h-2v-9.1h2v1.2c0.7-0.9,1.6-1.4,2.8-1.4c2.2,0,3.4,1.5,3.4,3.7V177z M126.6,170.4c0,1.6-0.6,3.2-1.7,4.5c-1.1,1.3-3,2.2-5.4,2.2
	h-4.2v-13.3h4.2c2,0,3.7,0.6,4.7,1.5C125.9,166.6,126.6,168.7,126.6,170.4z M124.4,170.4c0-1.1-0.4-2.2-1.2-3.1
	c-0.7-1-2.1-1.6-3.8-1.6h-2.1v9.4h2.1c1.7,0,3-0.6,3.8-1.5C124,172.6,124.4,171.5,124.4,170.4z M132.5,167.7c1.3,0,2.4,0.4,3.4,1.3
	s1.4,2,1.4,3.3c0,1.3-0.5,2.5-1.4,3.4c-0.9,0.9-2,1.4-3.4,1.4c-1.3,0-2.5-0.5-3.4-1.4c-0.9-0.9-1.4-2-1.4-3.3s0.5-2.4,1.4-3.3
	C130,168.2,131.1,167.7,132.5,167.7z M130.5,170.4c-0.5,0.5-0.7,1.2-0.7,2c0,0.8,0.3,1.5,0.8,2.1c0.5,0.6,1.2,0.9,2,0.9
	s1.5-0.3,2-0.8c0.5-0.6,0.7-1.2,0.7-2s-0.3-1.5-0.8-2c-0.5-0.6-1.2-0.8-2-0.8S131,169.8,130.5,170.4z M147.2,173.1h-6.9
	c0,0.7,0.3,1.2,0.8,1.7c0.5,0.4,1.1,0.7,1.8,0.7c1.1,0,2-0.5,2.4-1.4l1.5,1c-0.8,1.4-2.2,2.2-3.9,2.2c-1.3,0-2.5-0.4-3.4-1.3
	c-0.9-0.9-1.4-2-1.4-3.4c0-1.3,0.4-2.4,1.3-3.3s2-1.4,3.3-1.4c1.4,0,2.5,0.4,3.2,1.3c0.8,0.9,1.2,2,1.2,3.4
	C147.2,172.7,147.2,172.9,147.2,173.1z M142.8,169.5c-1.2,0-2.2,0.8-2.4,2.1h4.8C145.1,170.3,144.1,169.5,142.8,169.5z"/>
<path class="st12" d="M283,480.2v-55.5h39.8v55.5H283z"/>
<path class="st13" d="M349,480V344h40v136H349z"/>
<path class="st12" d="M415.8,480.2v-74h39.8v74H415.8z"/>
<path class="st14" d="M482,480V315h40v165H482z"/>
<path class="st6" d="M267,480h275"/>
<path class="st6" d="M259,403l105-111l68,59l91-89"/>
<circle class="st12" cx="362.5" cy="294.5" r="6.8"/>
<circle class="st12" cx="432.5" cy="347.5" r="6.8"/>
<path class="st6" d="M503,262h20v17"/>
<path d="M71.7,328v-13.3h2.1v5.6h6.6v-5.6h2.1V328h-2.1v-5.7h-6.6v5.7H71.7z M89.7,318.7c1.3,0,2.4,0.4,3.4,1.3s1.4,2,1.4,3.3
	c0,1.3-0.5,2.5-1.4,3.4c-0.9,0.9-2,1.4-3.4,1.4c-1.3,0-2.5-0.5-3.4-1.4c-0.9-0.9-1.4-2-1.4-3.3s0.5-2.4,1.4-3.3
	S88.4,318.7,89.7,318.7z M87.7,321.4c-0.5,0.5-0.7,1.2-0.7,2s0.3,1.5,0.8,2.1c0.5,0.6,1.2,0.8,2,0.8c0.8,0,1.5-0.3,2-0.8
	c0.5-0.6,0.7-1.2,0.7-2s-0.3-1.5-0.8-2c-0.5-0.6-1.2-0.8-2-0.8C88.9,320.6,88.2,320.8,87.7,321.4z M104.6,328h-2v-5.1
	c0-1.4-0.6-2.3-2-2.3c-1.2,0-2,0.9-2,2.3v5h-2v-9.1h2v1.2c0.7-1,1.6-1.4,2.7-1.4c1.3,0,2.2,0.5,2.8,1.5c0.9-1,1.8-1.5,3.2-1.5
	c2.2,0,3.3,1.5,3.3,3.7v5.6h-2v-5.1c0-1.4-0.6-2.2-1.9-2.2c-1.2,0-2,0.9-2,2.3V328z M121.5,324.1h-6.9c0,0.7,0.3,1.2,0.8,1.7
	c0.5,0.4,1.1,0.7,1.8,0.7c1.1,0,2-0.5,2.4-1.4l1.5,1c-0.8,1.4-2.2,2.2-3.9,2.2c-1.3,0-2.5-0.4-3.4-1.3c-0.9-0.9-1.4-2-1.4-3.4
	c0-1.3,0.4-2.4,1.3-3.3c0.9-0.9,2-1.4,3.3-1.4c1.4,0,2.5,0.4,3.2,1.3c0.8,0.9,1.2,2,1.2,3.4C121.5,323.7,121.5,323.9,121.5,324.1z
	 M117.1,320.5c-1.2,0-2.2,0.8-2.4,2.1h4.8C119.4,321.3,118.4,320.5,117.1,320.5z M70,364l5.4-13.3h2.5l5.4,13.3h-2.2l-1.2-3.1h-6.5
	l-1.2,3.1H70z M76.6,352.7l-2.5,6.3h5L76.6,352.7z M92.8,364h-2v-5.1c0-1.4-0.7-2.3-2-2.3c-1.3,0-2.1,0.9-2.1,2.3v5h-2v-9.1h2v1.2
	c0.7-0.9,1.6-1.4,2.8-1.4c2.2,0,3.4,1.5,3.4,3.7V364z M100.6,357.8c0-0.7-0.6-1.4-1.8-1.4c-1,0-1.8,0.5-2.3,1.4L95,357
	c0.7-1.5,2-2.3,3.9-2.3c1.7,0,2.8,0.6,3.4,1.9c0.2,0.5,0.3,1,0.3,1.6v5.8h-2v-1.2c-0.6,0.9-1.4,1.4-2.7,1.4c-0.9,0-1.6-0.3-2.2-0.7
	c-0.6-0.5-0.9-1.1-0.9-1.9v-0.1c0-2.1,2.2-2.8,3.8-2.8h1.1C100.3,358.6,100.6,358.4,100.6,357.8z M100.6,360.3V360h-2
	c-0.4,0-0.8,0.1-1.2,0.3c-0.4,0.2-0.5,0.5-0.5,0.9c0,0.7,0.6,1.2,1.4,1.2C99.7,362.5,100.6,361.7,100.6,360.3z M105.2,364v-13.8h2
	V364H105.2z M111.2,354.9l2.8,6l2.6-6h2.2l-6.2,13.5h-2.2l2.5-5.5l-4-8.1H111.2z M125.3,356.7h-2.2v4c0,1.1,0.5,1.5,1.6,1.5
	c0.2,0,0.4,0,0.6-0.1v1.7c-0.3,0.1-0.7,0.2-1.1,0.2c-2,0-3.1-1.1-3.1-3v-4.3h-1.7v-1.8h1.7v-2.8h2v2.8h2.2V356.7z M127.5,352.9
	c-0.5-0.5-0.5-1.3,0-1.9c0.5-0.5,1.3-0.5,1.9,0c0.5,0.5,0.5,1.3,0,1.9C128.8,353.4,128,353.4,127.5,352.9z M129.4,354.9v9.1h-2v-9.1
	H129.4z M136.3,364.2c-1.3,0-2.5-0.4-3.4-1.3s-1.4-2-1.4-3.4c0-1.3,0.5-2.4,1.4-3.3s2-1.4,3.4-1.4c2,0,3.5,1.1,4.1,2.7l-1.7,0.8
	c-0.4-1.1-1.2-1.7-2.3-1.7c-0.7,0-1.4,0.3-1.9,0.8c-0.5,0.5-0.8,1.2-0.8,2c0,0.9,0.3,1.5,0.8,2.1c0.5,0.5,1.2,0.8,1.9,0.8
	c1.1,0,1.9-0.6,2.3-1.7l1.8,0.8c-0.3,0.7-0.7,1.4-1.4,1.9S137.4,364.2,136.3,364.2z M71.4,388.9c-0.5-0.5-0.5-1.3,0-1.9
	c0.5-0.5,1.3-0.5,1.9,0c0.5,0.5,0.5,1.3,0,1.9C72.8,389.4,72,389.4,71.4,388.9z M73.4,390.9v9.1h-2v-9.1H73.4z M84.2,400h-2v-5.1
	c0-1.4-0.7-2.3-2-2.3c-1.3,0-2.1,0.9-2.1,2.3v5h-2v-9.1h2v1.2c0.7-0.9,1.6-1.4,2.8-1.4c2.2,0,3.4,1.5,3.4,3.7V400z M96.3,395.4
	c0,1.3-0.4,2.4-1.3,3.3c-0.8,0.9-1.9,1.4-3.2,1.4c-0.5,0-1.1-0.1-1.7-0.4s-1-0.6-1.3-1.1v1.4h-2v-13.8h2v6.1
	c0.3-0.5,0.7-0.9,1.3-1.1c0.6-0.3,1.2-0.4,1.7-0.4c1.3,0,2.4,0.5,3.2,1.4C95.9,393.1,96.3,394.2,96.3,395.4z M89.6,393.4
	c-0.5,0.6-0.7,1.2-0.7,2s0.3,1.5,0.7,2c0.5,0.5,1.2,0.8,2,0.8c0.8,0,1.5-0.3,2-0.8c0.5-0.6,0.8-1.2,0.8-2s-0.3-1.5-0.8-2
	c-0.5-0.6-1.2-0.8-2-0.8C90.8,392.6,90.1,392.8,89.6,393.4z M102.6,390.7c1.3,0,2.4,0.4,3.4,1.3c0.9,0.9,1.4,2,1.4,3.3
	c0,1.3-0.5,2.5-1.4,3.4c-0.9,0.9-2,1.4-3.4,1.4c-1.3,0-2.5-0.5-3.4-1.4c-0.9-0.9-1.4-2-1.4-3.3s0.5-2.4,1.4-3.3
	C100.1,391.2,101.3,390.7,102.6,390.7z M100.6,393.4c-0.5,0.5-0.7,1.2-0.7,2s0.3,1.5,0.8,2.1c0.5,0.6,1.2,0.8,2,0.8
	c0.8,0,1.5-0.3,2-0.8c0.5-0.6,0.7-1.2,0.7-2s-0.3-1.5-0.8-2c-0.5-0.6-1.2-0.8-2-0.8C101.8,392.6,101.1,392.8,100.6,393.4z
	 M107.9,400l3.5-4.6l-3.3-4.5h2.3l2.2,3l2.2-3h2.3l-3.3,4.5l3.4,4.6h-2.3l-2.3-3.2l-2.3,3.2H107.9z"/>
<path d="M295.3,548.7l5.7-3.5h2.8V564h-3v-15.6l-4.2,2.5L295.3,548.7z M306.8,564v-2.6l6.7-5.7c1.3-1.1,2.2-2,2.6-2.6
	c0.5-0.7,0.7-1.4,0.7-2.3c0-1.8-1.3-3.2-3.4-3.2c-1.8,0-3.1,1-3.8,3l-2.6-1.1c0.4-1.4,1.2-2.5,2.3-3.3c1.2-0.8,2.6-1.2,4.2-1.2
	c1.8,0,3.4,0.5,4.6,1.6c1.2,1,1.8,2.4,1.8,4.1c0,1.4-0.4,2.6-1.1,3.6c-0.7,1-1.9,2.2-3.5,3.5l-4.4,3.6h9v2.7H306.8z M322.9,564
	v-19.5h2.9v11.8h0l5-5h3.9l-5.8,5.8l6.1,7h-3.8l-5.4-6.3h-0.1v6.3H322.9z M274.8,594v-11.3h-4.2v-1.2h9.7v1.2h-4.2V594H274.8z
	 M284.2,594.1c-1.2,0-2.3-0.4-3.1-1.3c-0.8-0.8-1.3-1.9-1.3-3.1c0-1.3,0.4-2.3,1.3-3.2c0.8-0.8,1.9-1.3,3.2-1.3
	c1.2,0,2.3,0.4,3.1,1.3c0.8,0.8,1.3,1.9,1.3,3.1c0,1.3-0.4,2.3-1.3,3.2C286.5,593.7,285.4,594.1,284.2,594.1z M284.2,593
	c0.9,0,1.6-0.3,2.2-1c0.6-0.6,0.9-1.4,0.9-2.3s-0.3-1.7-0.9-2.4c-0.6-0.7-1.3-1-2.3-1c-0.9,0-1.6,0.3-2.2,1s-0.9,1.4-0.9,2.3
	s0.3,1.7,0.9,2.4C282.5,592.7,283.3,593,284.2,593z M293.8,594.1c-1.6,0-2.4-0.8-2.4-2.3v-5.2h-1.6v-1.1h1.6V583h1.2v2.5h2.2v1.1
	h-2.2v5.2c0,0.8,0.5,1.2,1.4,1.2c0.3,0,0.6,0,0.8-0.1v1C294.5,594,294.2,594.1,293.8,594.1z M299.7,589.1h2.4v-0.6
	c0-1.4-0.7-2.1-2.2-2.1c-1.1,0-1.9,0.6-2.4,1.7l-1-0.6c0.6-1.5,1.8-2.2,3.5-2.2c1.6,0,2.6,0.6,3.1,1.8c0.2,0.4,0.3,0.9,0.3,1.4v5.5
	h-1.2v-1.5h0c-0.7,1.1-1.7,1.6-2.9,1.6c-0.8,0-1.6-0.2-2.1-0.7c-0.5-0.5-0.8-1.1-0.8-1.8v-0.1c0-0.8,0.3-1.5,1-1.9
	C298,589.3,298.8,589.1,299.7,589.1z M302.1,590.4v-0.3h-2.4c-1,0-2.1,0.3-2.1,1.4c0,0.9,0.8,1.5,1.8,1.5c0.8,0,1.4-0.2,1.9-0.7
	C301.8,591.8,302.1,591.2,302.1,590.4z M307.3,581v13H306v-13H307.3z M316.2,581.5v11.3h5.9v1.2h-7.2v-12.5H316.2z M331.2,590.1
	h-6.9c0,0.8,0.4,1.5,0.9,2.1c0.6,0.6,1.3,0.8,2.1,0.8c1.2,0,2.2-0.7,2.7-1.7l0.9,0.6c-0.7,1.4-2.1,2.2-3.6,2.2
	c-1.2,0-2.3-0.4-3.1-1.3c-0.8-0.9-1.2-1.9-1.2-3.2c0-1.2,0.4-2.2,1.2-3.1c0.8-0.9,1.8-1.3,3-1.3c1.3,0,2.3,0.4,3,1.2
	c0.7,0.8,1.1,1.9,1.1,3.2C331.2,589.9,331.2,590,331.2,590.1z M324.3,589.1h5.6c-0.2-1.6-1.2-2.7-2.8-2.7c-0.7,0-1.4,0.3-1.9,0.8
	C324.8,587.7,324.4,588.3,324.3,589.1z M336.2,589.1h2.4v-0.6c0-1.4-0.7-2.1-2.2-2.1c-1.1,0-1.9,0.6-2.4,1.7l-1-0.6
	c0.6-1.5,1.8-2.2,3.5-2.2c1.6,0,2.6,0.6,3.1,1.8c0.2,0.4,0.3,0.9,0.3,1.4v5.5h-1.2v-1.5h0c-0.7,1.1-1.7,1.6-2.9,1.6
	c-0.8,0-1.6-0.2-2.1-0.7c-0.5-0.5-0.8-1.1-0.8-1.8v-0.1c0-0.8,0.3-1.5,1-1.9C334.5,589.3,335.3,589.1,336.2,589.1z M338.6,590.4
	v-0.3h-2.4c-1,0-2.1,0.3-2.1,1.4c0,0.9,0.8,1.5,1.8,1.5c0.8,0,1.4-0.2,1.9-0.7C338.3,591.8,338.6,591.2,338.6,590.4z M341.9,589.7
	c0-1.2,0.4-2.2,1.1-3.1c0.8-0.9,1.7-1.3,2.9-1.3c1.3,0,2.4,0.6,3.3,1.9V581h1.2v13h-1.2v-1.8c-0.8,1.3-1.9,2-3.3,2
	c-1.2,0-2.1-0.4-2.9-1.3C342.3,592,341.9,590.9,341.9,589.7z M346.1,593c0.9,0,1.6-0.3,2.2-1c0.6-0.7,0.9-1.4,0.9-2.4
	c0-0.9-0.3-1.6-0.9-2.3c-0.6-0.7-1.3-1-2.2-1c-0.9,0-1.6,0.3-2.2,1c-0.5,0.6-0.8,1.4-0.8,2.4c0,0.9,0.3,1.7,0.8,2.3
	C344.5,592.7,345.2,593,346.1,593z M358.9,591.6c0,0.8-0.3,1.4-0.9,1.9c-0.6,0.5-1.3,0.7-2.2,0.7c-1.6,0-2.7-0.7-3.3-2.2l1-0.6
	c0.5,1.1,1.3,1.7,2.3,1.7c1,0,1.8-0.5,1.8-1.4c0-0.7-0.6-1.1-2.1-1.5c-1.2-0.3-1.8-0.5-2.2-1.1c-0.3-0.4-0.5-0.8-0.5-1.3
	c0-0.7,0.3-1.3,0.9-1.8c0.6-0.5,1.3-0.7,2.1-0.7c1.4,0,2.4,0.7,3,2l-1,0.6c-0.4-1-1.1-1.4-2-1.4c-0.5,0-0.9,0.1-1.2,0.4
	c-0.3,0.3-0.5,0.6-0.5,0.9c0,0.7,0.4,1,2,1.3c1,0.2,1.8,0.6,2.2,1.1C358.7,590.6,358.9,591,358.9,591.6z"/>
<path d="M468.2,558.7c0,1.3-0.5,2.5-1.4,3.5c-1,1-2.3,1.6-3.9,1.8l0,2.4h-1.9l0-2.4c-2.8-0.3-4.9-1.8-5.9-4.4l2.5-1.3
	c0.6,1.7,1.8,2.7,3.4,3v-5.6c-1.8-0.6-3-1.2-3.9-2c-1-0.8-1.4-1.9-1.4-3.4c0-1.3,0.5-2.5,1.5-3.5c1-1,2.3-1.6,3.8-1.8l0-2.5h1.9
	l0,2.5c2.6,0.3,4.3,1.9,5.1,3.9l-2.4,1.3c-0.6-1.4-1.5-2.2-2.7-2.5v5.5c1.9,0.6,3.2,1.3,4.1,2.1
	C467.7,556.3,468.2,557.4,468.2,558.7z M458.6,550.2c0,1.2,0.8,1.9,2.3,2.5v-4.9C459.5,548,458.6,549,458.6,550.2z M462.7,556.4v5
	c1.4-0.3,2.4-1.2,2.4-2.5C465.1,557.8,464.4,557.1,462.7,556.4z M469.5,545.2h13.4v2.4l-8.6,16.4h-3.4l8.6-16.1h-10V545.2z
	 M483.9,567.9l-1.3-1.2c1.1-0.7,1.9-1.7,2.4-2.9c-0.2,0.1-0.5,0.1-0.7,0.1c-1,0-1.8-0.8-1.8-2c0-1.2,0.9-2.1,2.2-2.1
	c1.2,0,2.2,1.1,2.2,2.7v0.1C486.8,564.7,485.7,566.6,483.9,567.9z M486.4,548.7l5.7-3.5h2.8V564h-3v-15.6l-4.2,2.5L486.4,548.7z
	 M504.1,564.2c-2.9,0-5.2-1.4-6.4-4l2.5-1.4c0.8,1.8,2.1,2.7,3.9,2.7c1.1,0,1.9-0.3,2.7-0.9c0.7-0.6,1.1-1.5,1.1-2.5
	c0-2.2-1.6-3.5-3.7-3.5c-1.4,0-2.6,0.5-3.6,1.6l-2.5-1l1.4-9.9h10.5v2.7h-8.3l-0.7,5.4c1-0.8,2.3-1.3,3.7-1.3c1.8,0,3.4,0.6,4.5,1.7
	c1.1,1.1,1.7,2.6,1.7,4.3c0,1.9-0.7,3.4-2,4.5S506.1,564.2,504.1,564.2z M512.9,554.6c0-2.7,0.7-5,2.2-6.9c1.5-1.8,3.4-2.8,5.7-2.8
	s4.2,0.9,5.7,2.8c1.5,1.8,2.2,4.1,2.2,6.8c0,2.8-0.7,5.1-2.2,6.9c-1.5,1.8-3.4,2.8-5.7,2.8s-4.2-0.9-5.7-2.7
	C513.6,559.6,512.9,557.4,512.9,554.6z M525.6,554.6c0-1.9-0.5-3.6-1.3-4.9s-2.1-2-3.5-2s-2.6,0.7-3.5,2c-0.9,1.3-1.3,3-1.3,4.9
	c0,1.9,0.4,3.6,1.3,4.9s2.1,2,3.5,2c1.5,0,2.6-0.7,3.5-2C525.2,558.2,525.6,556.5,525.6,554.6z M451.8,594v-11.3h-4.2v-1.2h9.7v1.2
	h-4.2V594H451.8z M461.2,594.1c-1.2,0-2.3-0.4-3.1-1.3c-0.8-0.8-1.3-1.9-1.3-3.1c0-1.3,0.4-2.3,1.3-3.2c0.8-0.8,1.9-1.3,3.2-1.3
	c1.2,0,2.3,0.4,3.1,1.3c0.8,0.8,1.3,1.9,1.3,3.1c0,1.3-0.4,2.3-1.3,3.2C463.5,593.7,462.4,594.1,461.2,594.1z M461.2,593
	c0.9,0,1.6-0.3,2.2-1c0.6-0.6,0.9-1.4,0.9-2.3s-0.3-1.7-0.9-2.4c-0.6-0.7-1.3-1-2.3-1c-0.9,0-1.6,0.3-2.2,1s-0.9,1.4-0.9,2.3
	s0.3,1.7,0.9,2.4C459.5,592.7,460.3,593,461.2,593z M470.8,594.1c-1.6,0-2.4-0.8-2.4-2.3v-5.2h-1.6v-1.1h1.6V583h1.2v2.5h2.2v1.1
	h-2.2v5.2c0,0.8,0.5,1.2,1.4,1.2c0.3,0,0.6,0,0.8-0.1v1C471.5,594,471.2,594.1,470.8,594.1z M476.7,589.1h2.4v-0.6
	c0-1.4-0.7-2.1-2.2-2.1c-1.1,0-1.9,0.6-2.4,1.7l-1-0.6c0.6-1.5,1.8-2.2,3.5-2.2c1.6,0,2.6,0.6,3.1,1.8c0.2,0.4,0.3,0.9,0.3,1.4v5.5
	h-1.2v-1.5h0c-0.7,1.1-1.7,1.6-2.9,1.6c-0.8,0-1.6-0.2-2.1-0.7c-0.5-0.5-0.8-1.1-0.8-1.8v-0.1c0-0.8,0.3-1.5,1-1.9
	C475,589.3,475.8,589.1,476.7,589.1z M479,590.4v-0.3h-2.4c-1,0-2.1,0.3-2.1,1.4c0,0.9,0.8,1.5,1.8,1.5c0.8,0,1.4-0.2,1.9-0.7
	C478.8,591.8,479,591.2,479,590.4z M484.2,581v13H483v-13H484.2z M495.2,594.1c-2.1,0-3.6-1-4.3-3.1l1.1-0.6
	c0.6,1.6,1.6,2.4,3.2,2.4c0.8,0,1.4-0.2,1.9-0.6c0.5-0.4,0.8-0.9,0.8-1.6c0-1.3-1-2-2.9-2.5c-2.6-0.6-3.7-1.7-3.7-3.5
	c0-1,0.4-1.9,1.2-2.5c0.8-0.6,1.7-0.9,2.8-0.9c2,0,3.4,1,4,2.6l-1.1,0.6c-0.5-1.3-1.5-2-2.9-2c-0.7,0-1.3,0.2-1.8,0.6
	c-0.5,0.4-0.8,0.9-0.8,1.5c0,1.1,0.8,1.7,2.7,2.2c1.5,0.4,2.5,0.9,3.2,1.6c0.6,0.6,0.9,1.3,0.9,2.1c0,1-0.4,1.8-1.1,2.5
	C497.4,593.8,496.5,594.1,495.2,594.1z M510.1,589.7c0,1.2-0.4,2.2-1.1,3.1c-0.8,0.9-1.7,1.3-2.9,1.3c-1.4,0-2.5-0.6-3.3-1.9v6h-1.2
	v-12.8h1.2v1.9c0.8-1.3,2-2,3.3-2c1.2,0,2.1,0.4,2.9,1.3C509.7,587.5,510.1,588.5,510.1,589.7z M505.9,593c0.9,0,1.6-0.3,2.2-0.9
	c0.5-0.6,0.8-1.4,0.8-2.4c0-0.9-0.3-1.7-0.8-2.4c-0.5-0.7-1.3-1-2.2-1c-0.9,0-1.6,0.3-2.2,1c-0.6,0.7-0.9,1.4-0.9,2.3
	c0,0.9,0.3,1.7,0.9,2.4C504.2,592.7,505,593,505.9,593z M519.9,590.1H513c0,0.8,0.4,1.5,0.9,2.1s1.3,0.8,2.1,0.8
	c1.2,0,2.2-0.7,2.7-1.7l0.9,0.6c-0.7,1.4-2.1,2.2-3.6,2.2c-1.2,0-2.3-0.4-3.1-1.3c-0.8-0.9-1.2-1.9-1.2-3.2c0-1.2,0.4-2.2,1.2-3.1
	s1.8-1.3,3-1.3c1.3,0,2.3,0.4,3,1.2c0.7,0.8,1.1,1.9,1.1,3.2C519.9,589.9,519.9,590,519.9,590.1z M513,589.1h5.6
	c-0.2-1.6-1.2-2.7-2.8-2.7c-0.7,0-1.4,0.3-1.9,0.8C513.4,587.7,513.1,588.3,513,589.1z M529.5,594h-1.2v-5c0-1.6-0.8-2.6-2.4-2.6
	c-0.7,0-1.3,0.3-1.8,0.8c-0.5,0.5-0.7,1.2-0.7,1.9v4.9h-1.2v-8.5h1.2v1.6c0.7-1.2,1.6-1.7,2.9-1.7c2,0,3.2,1.4,3.2,3.4V594z
	 M535.1,594.1c-1.6,0-2.4-0.8-2.4-2.3v-5.2h-1.6v-1.1h1.6V583h1.2v2.5h2.2v1.1h-2.2v5.2c0,0.8,0.5,1.2,1.4,1.2c0.3,0,0.6,0,0.8-0.1
	v1C535.8,594,535.4,594.1,535.1,594.1z"/>
<g>
	<g>
		<circle class="st15" cx="118.6" cy="40" r="5.8"/>
		<g>
			<g>
				<path d="M86.5,49.6c-1.4,0-2.6-0.2-3.5-0.6s-1.5-1.1-1.9-2.1c-0.4-1-0.6-2.4-0.6-4.1c0-1.8,0.2-3.2,0.5-4.2c0.4-1,1-1.7,1.8-2.1
					c0.8-0.4,2-0.6,3.4-0.6c1.3,0,2.3,0.1,3.1,0.4c0.8,0.3,1.3,0.7,1.7,1.4c0.4,0.7,0.5,1.6,0.5,2.8c0,0.8-0.2,1.5-0.5,2
					c-0.3,0.5-0.8,0.9-1.4,1.1c-0.6,0.2-1.4,0.3-2.2,0.3h-3.9c0,0.8,0.1,1.5,0.3,2s0.5,0.8,1,1.1c0.5,0.2,1.3,0.3,2.2,0.3h4v1.8
					c-0.7,0.1-1.4,0.2-2.2,0.3C88.4,49.5,87.5,49.6,86.5,49.6z M83.6,42h3.6c0.6,0,1-0.1,1.3-0.3s0.4-0.6,0.4-1.2
					c0-0.6-0.1-1-0.2-1.4c-0.2-0.3-0.4-0.6-0.8-0.7c-0.4-0.1-0.9-0.2-1.5-0.2c-0.7,0-1.2,0.1-1.6,0.3s-0.7,0.6-0.9,1.2
					C83.7,40.2,83.6,41,83.6,42z"/>
				<path d="M98.4,49.5c-0.9,0-1.6-0.1-2.2-0.4c-0.6-0.3-1-0.8-1.3-1.4c-0.3-0.6-0.4-1.5-0.4-2.5V30.4h3.1v14.3
					c0,0.6,0.1,1.1,0.2,1.4c0.1,0.3,0.3,0.6,0.5,0.7s0.5,0.2,0.8,0.3l1.1,0.1v2.2H98.4z"/>
				<path d="M107.6,49.6c-1.4,0-2.6-0.2-3.5-0.6s-1.5-1.1-1.9-2.1c-0.4-1-0.6-2.4-0.6-4.1c0-1.8,0.2-3.2,0.5-4.2
					c0.4-1,1-1.7,1.8-2.1c0.8-0.4,2-0.6,3.4-0.6c1.3,0,2.3,0.1,3.1,0.4c0.8,0.3,1.3,0.7,1.7,1.4c0.4,0.7,0.5,1.6,0.5,2.8
					c0,0.8-0.2,1.5-0.5,2c-0.3,0.5-0.8,0.9-1.4,1.1c-0.6,0.2-1.4,0.3-2.2,0.3h-3.9c0,0.8,0.1,1.5,0.3,2s0.5,0.8,1,1.1
					c0.5,0.2,1.3,0.3,2.2,0.3h4v1.8c-0.7,0.1-1.4,0.2-2.2,0.3C109.5,49.5,108.6,49.6,107.6,49.6z M104.7,42h3.6c0.6,0,1-0.1,1.3-0.3
					s0.4-0.6,0.4-1.2c0-0.6-0.1-1-0.2-1.4c-0.2-0.3-0.4-0.6-0.8-0.7c-0.4-0.1-0.9-0.2-1.5-0.2c-0.7,0-1.2,0.1-1.6,0.3
					s-0.7,0.6-0.9,1.2C104.8,40.2,104.7,41,104.7,42z"/>
				<path d="M119,49.5l-4.7-13.4h3.2l3.3,10.5l3.4-10.5h3.1l-4.9,13.4H119z"/>
				<path d="M135,49.6c-1,0-2-0.1-2.7-0.3c-0.8-0.2-1.4-0.6-1.9-1.1c-0.5-0.5-0.8-1.2-1.1-2.1c-0.2-0.9-0.3-2-0.3-3.3
					c0-1.4,0.1-2.5,0.3-3.4c0.2-0.9,0.6-1.6,1.1-2.1c0.5-0.5,1.1-0.9,1.9-1s1.7-0.3,2.7-0.3c1.1,0,2,0.1,2.7,0.3s1.4,0.6,1.9,1.1
					c0.5,0.5,0.8,1.2,1.1,2.1c0.2,0.9,0.3,2,0.3,3.4c0,1.3-0.1,2.5-0.3,3.4s-0.6,1.6-1.1,2.1c-0.5,0.5-1.1,0.9-1.9,1.1
					C137,49.5,136.1,49.6,135,49.6z M135,47.1c0.5,0,1,0,1.3-0.1c0.4-0.1,0.7-0.3,0.9-0.6s0.4-0.7,0.5-1.3c0.1-0.6,0.2-1.4,0.2-2.4
					c0-1-0.1-1.7-0.2-2.3c-0.1-0.6-0.3-1-0.5-1.3s-0.5-0.5-0.9-0.6c-0.4-0.1-0.8-0.1-1.3-0.1c-0.5,0-0.9,0-1.3,0.1
					c-0.4,0.1-0.7,0.3-0.9,0.6c-0.2,0.3-0.4,0.7-0.5,1.3c-0.1,0.6-0.2,1.4-0.2,2.3c0,1,0.1,1.8,0.2,2.4c0.1,0.6,0.3,1,0.5,1.3
					c0.2,0.3,0.5,0.5,0.9,0.6C134,47.1,134.5,47.1,135,47.1z"/>
				<path d="M143.8,49.5v-19h3.1V41h1.7l3.3-4.9h3.2l-4.2,6.3l4.6,7.1h-3.2l-3.7-5.7h-1.6v5.7H143.8z"/>
			</g>
		</g>
	</g>
	<g>
		<circle class="st15" cx="65.7" cy="41.2" r="11.5"/>
		<g>
			<g>
				<path d="M64.3,48.9c-0.3,0-0.7,0-1.1-0.1s-0.8-0.2-1.2-0.4c-0.4-0.2-0.7-0.5-0.9-1c-0.2-0.4-0.4-1-0.4-1.8v-8.8
					c0-0.6,0.1-1.2,0.3-1.6c0.2-0.4,0.5-0.8,0.8-1c0.3-0.2,0.7-0.4,1.1-0.5c0.4-0.1,0.8-0.2,1.2-0.2c1,0,1.8,0,2.6,0
					c0.8,0,1.5,0.1,2.1,0.1c0.6,0,1.2,0.1,1.8,0.1v2.1h-5.8c-0.5,0-0.8,0.1-1.1,0.4c-0.3,0.2-0.4,0.6-0.4,1.1V40l6.3,0.1v2l-6.3,0.1
					V45c0,0.4,0.1,0.7,0.2,1c0.1,0.2,0.3,0.4,0.6,0.5c0.2,0.1,0.5,0.1,0.7,0.1h5.8v2.1c-0.6,0.1-1.3,0.1-2,0.1
					c-0.7,0-1.4,0.1-2.2,0.1C65.7,48.9,65,48.9,64.3,48.9z"/>
			</g>
		</g>
	</g>
</g>
</svg>
