<?xml version="1.0" encoding="utf-8"?>
<!-- Generator: Adobe Illustrator 26.3.1, SVG Export Plug-In . SVG Version: 6.00 Build 0)  -->
<svg version="1.1" id="Layer_1" xmlns="http://www.w3.org/2000/svg" xmlns:xlink="http://www.w3.org/1999/xlink" x="0px" y="0px"
	 viewBox="0 0 512 512" enable-background="new 0 0 512 512" xml:space="preserve">
<g id="Icon">
	<g id="Group-3" transform="translate(0 11.000001)">
		<path id="Clip-2" fill="none" d="M0,41.24h512v431.92H0V41.24z"/>
		<g>
			<defs>
				<rect id="SVGID_1_" y="41.24" width="512" height="431.92"/>
			</defs>
			<clipPath id="SVGID_00000178199426707307716900000011039746247199547303_">
				<use xlink:href="#SVGID_1_"  overflow="visible"/>
			</clipPath>
			<g clip-path="url(#SVGID_00000178199426707307716900000011039746247199547303_)">
				<path id="Fill-1" fill-rule="evenodd" clip-rule="evenodd" fill="#FFFFFF" d="M510.46,236.25
					c-16.37,123.86-114.69,279.17-252.35,226.27C143.09,418.32-23.53,348.73,2.77,233.21c27.69-121.62,144.45-12.98,240.96-148.81
					C315.71-16.91,532.32,70.81,510.46,236.25"/>
			</g>
		</g>
	</g>
	<path id="Fill-4" fill-rule="evenodd" clip-rule="evenodd" fill="#456DA7" d="M348.12,410.86c-5.46,30.13,7.67,48.93-9.34,57.02
		c-5.2,2.52-13.04,3.96-22.91,4.77c-6.87,0.54-14.71,0.81-23.26,0.81c-19.56,0-42.56-1.26-65.56-2.43l17.53-97.69
		c-0.09-1.53-0.26-3.06-0.35-4.5l-0.09-0.09c-19.13-17.18-37.45-34-51.72-49.29c-17.27-18.53-28.46-34.72-39.65-51l0.35-0.36
		l33.39-28.06c14.27,14.12,26.96,30.58,44.14,38.23c14.27,6.39,30.48,8.36,47.05,9.62c5.29-1.07,11.01-1.62,17.09-1.62
		c26.08,0,56.3,9.8,67.14,27.53c1.23,2.07,2.29,4.23,2.99,6.48C373.75,345.82,353.05,383.15,348.12,410.86"/>
	<path id="Fill-6" fill-rule="evenodd" clip-rule="evenodd" fill="#36619F" d="M346.78,414.02c-5.24,31.05,7.35,50.43-8.95,58.77
		c-4.98,2.6-12.5,4.08-21.96,4.92c-48.66-61.18-27.45-104.84-3.8-76.01c24.83,30.22,22.55-14.91,8.02-42.73
		c-10.93-20.93,9.08-10.45,22.05,1.98c10.69,10.24,13.18-30.35,20.78-40.26C371.36,347,351.51,385.47,346.78,414.02"/>
	<path id="Fill-8" fill-rule="evenodd" clip-rule="evenodd" fill="#36619F" d="M241.52,371.6c-19.02-17.39-37.24-34.4-51.43-49.88
		c-17.17-18.75-28.3-35.14-39.43-51.61l0.35-0.37c9.46,1.36,23.66,16.48,33.82,28.49c11.39,13.56,1.75,19.57,26.19,21.21
		C232.85,320.9,250.81,351.22,241.52,371.6"/>
	<path id="Fill-10" fill-rule="evenodd" clip-rule="evenodd" fill="#456DA7" d="M330.81,293.09c23.8,12.94,47.6,25.89,68.08,49.87
		c20.48,23.98,37.63,59,25.96,79.41c-11.67,20.41-52.17,26.2-92.66,31.99l-7.52-28.02c24.09-11.8,48.17-23.6,47.16-34.95
		c-1.02-11.35-27.14-22.26-38.15-38.57C322.65,336.52,326.73,314.8,330.81,293.09"/>
	<path id="Fill-12" fill-rule="evenodd" clip-rule="evenodd" fill="#F36C6C" d="M174.84,358.87L174.84,358.87
		c-1.84,0-3.37,0.8-4.26,2.22c-0.89,1.42-1.07,3.34-0.49,5.34l31.71,110.08c0.58,2.01,1.86,3.93,3.56,5.35
		c1.71,1.41,3.71,2.21,5.54,2.21l66.23,0c3.82,0,5.95-3.39,4.75-7.56l-31.7-110.08c-1.2-4.17-5.28-7.56-9.11-7.56h-33.11H174.84
		L174.84,358.87z"/>
	<path id="Fill-14" fill-rule="evenodd" clip-rule="evenodd" fill="#FFFFFF" d="M222.54,384.34c1.17,4.69-1.56,8.49-6.1,8.49
		c-4.54,0-9.17-3.8-10.34-8.49c-1.17-4.69,1.57-8.49,6.11-8.49C216.74,375.85,221.37,379.65,222.54,384.34"/>
	<path id="Fill-16" fill-rule="evenodd" clip-rule="evenodd" fill="#FFFFFF" d="M222.71,400.25c0.44,1.76-0.59,3.18-2.29,3.18
		c-1.7,0-3.44-1.42-3.88-3.18c-0.44-1.76,0.59-3.18,2.29-3.18C220.53,397.07,222.26,398.49,222.71,400.25"/>
	<path id="Fill-18" fill-rule="evenodd" clip-rule="evenodd" d="M271.67,479.83l-67.39,0c-2.14,0-4.39-0.87-6.34-2.46
		c-1.93-1.57-3.35-3.67-4.01-5.91l-32.26-109.92c-0.68-2.35-0.45-4.58,0.65-6.29c1.11-1.74,3.04-2.73,5.28-2.73h67.39
		c4.43,0,8.97,3.67,10.35,8.37l10.09,34.36l-2.18,0.66l-10.09-34.36c-1.06-3.64-4.8-6.72-8.17-6.72h-67.39
		c-1.48,0-2.68,0.6-3.38,1.68c-0.73,1.14-0.86,2.69-0.36,4.38l32.27,109.92c0.51,1.77,1.7,3.51,3.24,4.77
		c1.54,1.24,3.33,1.96,4.93,1.96l67.39,0c1.39,0,2.55-0.53,3.26-1.5c0.84-1.14,1.01-2.8,0.49-4.58l2.18-0.66
		c0.73,2.48,0.42,4.88-0.85,6.61C275.6,478.96,273.8,479.82,271.67,479.83"/>
	<path id="Fill-20" fill-rule="evenodd" clip-rule="evenodd" fill="#FFFFFF" d="M323.49,421.65l-45.67,14.96
		c-2.82-6.61-5.63-13.22-8.45-16.16c-1.58-1.65-3.17-2.16-4.76-2.16c-1.24,0-2.49,0.32-3.74,0.62l4.12,14.12
		c-5.86-4.47-11.71-8.94-16.13-8.94c-0.62,0-1.21,0.08-1.77,0.27c-4.55,1.52-6.96,9.66-3.67,18.58c3.29,8.91,12.3,18.61,28.91,19.79
		c1.21,0.08,2.45,0.12,3.73,0.12c16.39,0,38.86-6.78,61.32-13.57L323.49,421.65z"/>
	<path id="Fill-22" fill-rule="evenodd" clip-rule="evenodd" fill="#FFFFFF" d="M182.49,243.98l-58.21-69.72
		c-19.05,0.22-38.11,0.44-44.84,4.42c-6.73,3.98-1.15,11.71,5.58,15.3c4.3,2.29,9.06,2.91,14,2.91c2.79,0,5.64-0.2,8.48-0.39
		l42.48,73.26L182.49,243.98z"/>
	<path id="Fill-24" fill-rule="evenodd" clip-rule="evenodd" fill="#EAC97D" d="M50.83,100.6c-1.28,0.7-2.29,1.93-2.78,3.42
		l-17.99,53.92c-1.04,3.1,0.35,6.47,3.1,7.53c25.82,9.9,51.64,19.79,77.46,29.69c2.75,1.06,5.82-0.61,6.85-3.71l18-53.92
		c1.04-3.11-0.35-6.47-3.1-7.53l-38.74-14.84L54.9,100.3C53.58,99.8,52.11,99.91,50.83,100.6z"/>
	<path id="Path" d="M89.99,159.85c2.77-6.85-2.81-10.56-7.3-13.54c-4.72-3.13-7.53-5.25-5.95-9.17c1.29-3.19,5.91-4.34,10.3-2.57
		c2.89,1.17,5.1,3.41,5.76,5.84c0.26,0.96,1.26,1.53,2.22,1.27c0.96-0.26,1.53-1.26,1.27-2.22c-0.83-3.05-3.12-5.75-6.26-7.47
		l1.63-4.03c0.37-0.93-0.07-1.98-1-2.35s-1.98,0.07-2.35,1l-1.63,4.03c-5.71-1.54-11.44,0.56-13.29,5.14
		c-2.77,6.85,2.81,10.56,7.3,13.54c4.72,3.13,7.53,5.25,5.95,9.17c-1.29,3.19-5.91,4.34-10.3,2.57c-2.89-1.17-5.1-3.41-5.76-5.84
		c-0.26-0.96-1.25-1.53-2.22-1.27c-0.96,0.26-1.53,1.26-1.27,2.22c0.83,3.05,3.12,5.75,6.26,7.47l-1.63,4.03
		c-0.37,0.93,0.07,1.98,1,2.35c0.93,0.37,1.98-0.07,2.35-1l1.63-4.03C82.42,166.53,88.14,164.42,89.99,159.85L89.99,159.85z"/>
	<path id="Fill-28" fill-rule="evenodd" clip-rule="evenodd" d="M65.87,182.75l-36.26-14.12c-3.28-1.28-4.96-5.35-3.75-9.08
		l17.98-54.7c0.58-1.79,1.75-3.25,3.3-4.11c1.55-0.85,3.34-0.98,4.95-0.36l77.35,30.12l-0.77,2.14l-77.35-30.12
		c-1.03-0.42-2.17-0.32-3.18,0.24c-1.03,0.57-1.85,1.6-2.25,2.83l-17.97,54.7c-0.83,2.57,0.27,5.35,2.46,6.2l36.26,14.12
		L65.87,182.75z"/>
	<path id="Fill-36" fill-rule="evenodd" clip-rule="evenodd" fill="#FFFFFF" d="M135.81,178c0-7.87-0.01-15.74-3.91-19.67
		c-2.19-2.21-5.61-3.17-8.63-3.17c-2.36,0-4.47,0.58-5.57,1.62c-2.51,2.36,0.24,7.07,2.79,12.47c2.54,5.4,4.87,11.48,7.4,13.05
		c0.48,0.3,0.98,0.44,1.47,0.44C131.44,182.75,133.63,180.37,135.81,178"/>
	<path id="Fill-38" fill-rule="evenodd" clip-rule="evenodd" fill="#FFFFFF" d="M306.09,288.18c1.22-1.55,2.45-3.1,3.05-8.29
		c0.59-5.19,0.55-14.03,0.5-22.87l23.39,9.8c-3.04,4.84-6.09,9.68-6.77,14.2c-0.68,4.51,1,8.71,2.67,12.9
		c3.48,9.7,6.96,19.4,0.96,28.63c-4.99,7.71-16.57,15.1-25.29,15.1c-1.73,0-3.36-0.29-4.79-0.93c-8.64-3.86-10.45-20.37-8.27-30.56
		C293.74,295.96,299.91,292.07,306.09,288.18"/>
	<path id="Fill-40" fill-rule="evenodd" clip-rule="evenodd" fill="#FFFFFF" d="M309.41,235.18c-4.59,18.24-9.17,36.49-2.93,43.64
		c2.21,2.53,5.78,3.67,9.81,3.67c7.36,0,16.27-3.79,21.34-9.84c7.84-9.37,6.45-24.17,5.06-38.96L309.41,235.18z"/>
	<path id="Fill-42" fill-rule="evenodd" clip-rule="evenodd" d="M276.66,462.85c-1.28,0-2.54-0.04-3.75-0.13
		c-20.92-1.52-27.83-16.03-29.43-20.45c-2.03-5.54-2.11-11.32-0.21-15.48c1.04-2.29,2.65-3.9,4.52-4.53
		c4.2-1.38,9.93,2.19,15.96,6.76l-3.45-11.92l1.14-0.29c1.2-0.3,2.57-0.65,3.94-0.65c2.09,0,3.89,0.81,5.46,2.49
		c2.79,2.96,5.51,9.24,8.15,15.49l44.06-14.58l0.65,2.2l-45.93,15.21l-0.39-0.95c-2.68-6.36-5.45-12.94-8.1-15.75
		c-1.75-1.86-3.83-2.03-6.19-1.5l4.68,16.2l-2.67-2.05c-6.24-4.81-12.82-9.72-16.65-8.46c-1.28,0.43-2.42,1.61-3.19,3.32
		c-1.65,3.6-1.54,8.7,0.27,13.65c1.49,4.1,7.91,17.56,27.53,18.98c16.27,1.12,40.36-6.22,63.71-13.34l0.62,2.22
		C315.56,455.95,292.98,462.85,276.66,462.85"/>
	<path id="Fill-44" fill-rule="evenodd" clip-rule="evenodd" d="M150.91,269.75l-42.57-72.68c-10.43,0.93-17.06,0.28-22.62-2.7
		c-4.51-2.38-9.35-7.03-9.33-11.62l2.18,0.01c-0.02,3.02,3.49,7.15,8.15,9.61c5.28,2.83,11.75,3.38,22.09,2.4l0.68-0.07l0.36,0.61
		l42.93,73.29L150.91,269.75z"/>
	<path id="Fill-46" fill-rule="evenodd" clip-rule="evenodd" d="M189.24,242.16l-56.45-62.31v-0.41c0-7.62,0-15.5-3.49-19.26
		c-1.9-2.07-5.03-2.81-7.34-2.81c-1.99,0-3.69,0.47-4.42,1.23c-1.6,1.66,0.04,5.38,1.93,9.68l0.87,1.97
		c0.32,0.62,0.63,1.34,0.96,2.29l-2.2,0.68c-0.25-0.74-0.51-1.4-0.84-2.06l-0.89-2.03c-2.22-5.01-4.13-9.34-1.51-12.05
		c1.18-1.23,3.41-1.94,6.11-1.94c3.63,0,7.03,1.33,9.06,3.56c4,4.3,4.07,12.4,4.07,20.31l55.89,61.68L189.24,242.16z"/>
	<path id="Fill-48" fill-rule="evenodd" clip-rule="evenodd" d="M324.94,248.21c-4.04,3.6-8.09,7.2-14.01,7.2
		c-0.38,0-0.77-0.02-1.16-0.05c-6.57-0.5-15.41-5.34-18.11-13.57c-2.7-8.23,0.74-19.86,5.62-23.61c1.35-1.03,2.81-1.47,4.35-1.47
		c4.04,0,8.62,2.98,13.22,5.97c4.12-1.6,8.24-3.2,11.84-3.2c1.32,0,2.57,0.22,3.73,0.73c4.3,1.9,7.27,7.89,10.25,13.88
		c3.34,1.18,6.68,2.35,8.29,5.05c1.61,2.7,1.49,6.93,0.1,9.68c-1.4,2.76-4.08,4.05-6.75,5.34c2.81,2.68,5.62,5.36,4.82,9.41
		c-0.7,3.61-4.29,8.31-8.27,8.31c-0.47,0-0.95-0.07-1.43-0.21c-4.51-1.34-9.15-9.42-11.25-14.46
		C324.08,252.17,324.51,250.19,324.94,248.21"/>
	<path id="Fill-50" fill-rule="evenodd" clip-rule="evenodd" d="M330.09,294.43c3.42,9.36,7.03,19.09,1.17,28.09
		c-5.23,7.99-16.94,14.96-25.14,14.96c-1.8,0-3.15-0.36-4.51-0.91c-8.11-3.58-10-19.74-7.84-29.74c2.17-10.1,8.47-13.95,14.42-17.62
		l0.36-0.28c0.99-1.19,1.98-2.57,2.61-5.14c0.64,0.09,1.17,0.09,1.81,0.09c5.31,0,8.02-1.47,8.2-1.56l-1.08-2.02
		c0,0-3.15,1.65-9.46,1.19c-1.89-0.55-3.33-1.38-4.41-2.57c-5.77-6.61-1.44-24.23,2.98-41.49l31.36-1.38
		c1.36,13.86,2.53,27.9-4.96,36.71c-1.8,2.29-4.42,4.22-7.48,5.78l-0.45,0.27l-0.36,1.93C326.58,285.62,328.38,290.03,330.09,294.43
		L330.09,294.43z M329.64,280.3c3.15-1.65,5.68-3.67,7.66-6.06c8.29-9.72,6.76-24.87,5.32-39.46l-0.09-1.1l-35.15,1.56l-0.18,0.83
		c-4.6,18.08-9.37,36.81-2.61,44.33c1.08,1.38,2.52,2.29,4.42,2.94c-0.64,2.11-1.45,3.12-2.08,3.94c-6.12,3.76-12.98,8.08-15.32,19
		c-2.34,10.65-0.36,28.17,9.1,32.31c1.53,0.83,3.34,1.19,5.41,1.19c9.01,0,21.36-7.35,26.95-15.97c6.58-10,2.61-20.65-0.9-30.29
		c-1.71-4.22-3.25-8.17-2.71-12.39L329.64,280.3z"/>
	<path id="Fill-52" fill-rule="evenodd" clip-rule="evenodd" fill="#F750A2" d="M423.55,369.48l-1.27-1.28
		c1.74-1.69,3.42-3.39,5.06-5.08l1.3,1.24C426.99,366.06,425.3,367.77,423.55,369.48"/>
	<path id="Fill-54" fill-rule="evenodd" clip-rule="evenodd" fill="#F750A2" d="M267.51,30.78c-5.21-0.43-10.6-0.65-16.04-0.65
		l-1.6,0l-0.02-2.28l1.61,0c5.5,0,10.96,0.22,16.22,0.66L267.51,30.78z M214.71,33.35l-0.36-2.25c5.85-1.03,11.81-1.82,17.69-2.36
		l0.19,2.27C226.41,31.55,220.51,32.34,214.71,33.35L214.71,33.35z M302.1,37.45c-5.33-1.74-11.08-3.2-17.11-4.33l0.4-2.25
		c6.12,1.15,11.96,2.63,17.38,4.4L302.1,37.45z M180.52,42.34l-0.72-2.16c5.55-1.98,11.3-3.76,17.1-5.27l0.53,2.21
		C191.7,38.62,186.01,40.38,180.52,42.34L180.52,42.34z M332.72,54.45c-3.97-3.75-8.81-7.17-14.39-10.16l1.02-2.02
		c5.75,3.07,10.75,6.6,14.85,10.49L332.72,54.45z M148.44,57.44l-1.1-1.98c5.02-3.03,10.36-5.88,15.87-8.46l0.91,2.08
		C158.68,51.64,153.4,54.45,148.44,57.44L148.44,57.44z M120.36,79.3l-1.53-1.63c4.16-4.2,8.73-8.24,13.59-12.01l1.33,1.83
		C128.96,71.19,124.46,75.17,120.36,79.3L120.36,79.3z M334.29,88.86l-0.38-2.25c4.21-0.77,8.63-1.33,13.2-1.67
		c-0.46-5.2-1.76-10.42-3.86-15.56c-0.08-0.22-0.17-0.43-0.27-0.64l1.96-1.02c0.13,0.26,0.23,0.51,0.34,0.78
		c2.2,5.37,3.55,10.85,4.02,16.3c0.8-0.05,1.59-0.09,2.39-0.13l0.09,2.28C345.7,87.22,339.81,87.86,334.29,88.86L334.29,88.86z
		 M386.92,89.39c-5.77-1.04-11.66-1.78-17.51-2.19l0.15-2.28c5.93,0.41,11.9,1.16,17.74,2.21L386.92,89.39z M420.57,99.87
		c-5.05-2.4-10.6-4.53-16.48-6.34l0.62-2.18c5.98,1.84,11.63,4.01,16.77,6.45L420.57,99.87z M302.43,102.53l-1.47-1.71
		c4.05-3.69,9.31-6.84,15.61-9.36l0.8,2.13C311.31,96.01,306.28,99.01,302.43,102.53L302.43,102.53z M338.97,120.99l-1.78-1.35
		c3.55-4.95,6.23-10.31,7.94-15.92l2.11,0.7C345.45,110.26,342.67,115.84,338.97,120.99L338.97,120.99z M448.04,121.52
		c-3.12-4.51-7.27-8.75-12.32-12.59l1.31-1.84c5.25,3.98,9.56,8.39,12.81,13.09L448.04,121.52z M292.95,135.61
		c-1.47-2.68-2.22-6.1-2.22-10.14c0-2.6,0.31-5.49,0.92-8.6l2.16,0.45c-0.58,2.96-0.87,5.7-0.87,8.14c0,3.65,0.64,6.68,1.93,9.01
		L292.95,135.61z M309.69,141.9l-0.41-2.25c4.98-0.96,10.36-3.53,15.58-7.41l1.29,1.86C320.66,138.17,314.97,140.87,309.69,141.9
		L309.69,141.9z M400.15,147.09l-0.55-2.21c5.46-1.45,10.99-2.07,16.44-2.15c0.48,0,0.96,0.01,1.45,0.02l-0.07,2.28
		c-0.56-0.01-1.12-0.03-1.67-0.02C410.58,145.01,405.33,145.71,400.15,147.09L400.15,147.09z M455.78,156.06l-2.14-0.59
		c1.04-3.92,1.55-7.79,1.55-11.51c0-2.1-0.17-4.17-0.49-6.17l2.18-0.38c0.35,2.13,0.52,4.33,0.52,6.56
		C457.4,147.87,456.86,151.95,455.78,156.06L455.78,156.06z M450.05,156.2c-4.9-3.46-10.14-6.16-15.54-8.03l0.69-2.17
		c5.61,1.93,11.02,4.73,16.09,8.32L450.05,156.2z M370.62,164.48l-1.86-1.22c2.63-4.35,7.37-8.33,14.05-11.84l1,2.03
		C377.47,156.78,373.04,160.49,370.62,164.48L370.62,164.48z M473.19,182.92c-2.91-5.36-6.31-10.34-10.1-14.76l1.66-1.52
		c3.89,4.55,7.38,9.65,10.37,15.16L473.19,182.92z M436.4,186.92l-1.31-1.83c4.55-3.5,8.47-7.93,11.64-13.15l1.86,1.21
		C445.28,178.61,441.18,183.25,436.4,186.92L436.4,186.92z M384.61,192.55c-6.46-2.76-11.56-6.54-14.76-10.92l1.76-1.37
		c2.92,3.99,7.84,7.61,13.84,10.17L384.61,192.55z M406.1,196.86c-1.32,0-2.63-0.05-3.92-0.14l0.15-2.28
		c5.78,0.39,11.76-0.14,17.23-1.65l0.57,2.2C415.65,196.23,410.92,196.86,406.1,196.86L406.1,196.86z M484.43,217.14
		c-0.94-6.09-2.34-12.03-4.16-17.63l2.09-0.73c1.86,5.73,3.29,11.79,4.24,18.01L484.43,217.14z M486.95,253.71l-2.19-0.28
		c0.71-5.76,1.08-11.55,1.09-17.19v-0.99h2.2v0.99C488.05,241.98,487.68,247.86,486.95,253.71L486.95,253.71z M478.23,289.5
		l-2.07-0.8c2.09-5.74,3.86-11.59,5.3-17.39l2.13,0.57C482.14,277.76,480.34,283.69,478.23,289.5L478.23,289.5z M462.5,322.62
		l-1.88-1.19c3.08-5.24,5.95-10.62,8.51-16l1.98,1.01C468.52,311.87,465.62,317.32,462.5,322.62L462.5,322.62z M441.65,352.51
		l-1.69-1.47c3.83-4.72,7.49-9.56,10.88-14.41l1.79,1.34C449.2,342.86,445.51,347.75,441.65,352.51L441.65,352.51z"/>
	<path id="Fill-56" fill-rule="evenodd" clip-rule="evenodd" fill="#F750A2" d="M101.46,104.23l-1.73-1.78
		c1.5-3.76,3.09-7.44,4.74-10.95l1.63,1.99C104.49,96.94,102.93,100.55,101.46,104.23"/>
</g>
</svg>
