<?xml version="1.0" encoding="utf-8"?>
<!-- Generator: Adobe Illustrator 26.3.1, SVG Export Plug-In . SVG Version: 6.00 Build 0)  -->
<svg version="1.1" id="Layer_1" xmlns="http://www.w3.org/2000/svg" xmlns:xlink="http://www.w3.org/1999/xlink" x="0px" y="0px"
	 viewBox="0 0 512 512" enable-background="new 0 0 512 512" xml:space="preserve">
<g>
	<path fill-rule="evenodd" clip-rule="evenodd" fill="#FFFFFF" d="M349.63,178.94c-36.36-32.01-78.96-40.26-90.22-41.95
		c7.58-19.21,19.3-47.77,22.22-52c0.94-0.12,2.86-0.31,5.69-0.31c8.27,0,25.98,1.62,51.59,12.44
		c36.98,15.63,46.88,33.21,48.83,37.51L349.63,178.94z"/>
	<ellipse fill="#74ECF3" cx="28.49" cy="132.44" rx="28.49" ry="28.85"/>
	<path fill-rule="evenodd" clip-rule="evenodd" fill="#A0C6F4" d="M287.33,82.58c-4.5,0-6.81,0.45-6.81,0.45
		c-2.63,0.82-24.17,55.69-24.17,55.69s51.13,4.9,93.51,43.33l40.45-47.02c0,0-6.75-21.35-50.46-39.82
		C314.22,84.38,296.36,82.58,287.33,82.58z M287.33,86.79c8.09,0,25.44,1.59,50.67,12.25c33.46,14.14,44.27,29.95,47.12,35.29
		l-35.72,41.53c-21.5-18.38-44.66-28.53-60.69-33.87c-11.36-3.79-20.67-5.73-26.24-6.67c8.38-21.15,17.5-42.92,20.56-48.36
		C284.02,86.88,285.46,86.79,287.33,86.79z"/>
	<path fill-rule="evenodd" clip-rule="evenodd" fill="#2A1E17" d="M263.79,143.5c0,0,0.19,0.02,0.56,0.06
		c5.59,0.61,51.53,6.39,80.38,31.28c0.23,0.2,0.58,0.18,0.79-0.03c0.21-0.21,0.19-0.55-0.03-0.74
		c-31.19-26.86-81.54-31.6-81.59-31.61c-0.31-0.03-0.58,0.18-0.61,0.47C263.26,143.21,263.48,143.47,263.79,143.5"/>
	<path fill-rule="evenodd" clip-rule="evenodd" fill="#A0C6F4" d="M307.27,140.67l18.76-34.25l19.28,35.72L307.27,140.67z"/>
	<path fill-rule="evenodd" clip-rule="evenodd" fill="#2A1E17" d="M310.92,140.18l0.5,0.24l18.25-33.33l18.35,34l-37.08-1.43
		L310.92,140.18l0.5,0.24L310.92,140.18l-0.02,0.53l38.04,1.47c0.2,0.01,0.39-0.08,0.49-0.24s0.12-0.36,0.03-0.52l-19.28-35.72
		c-0.1-0.18-0.29-0.29-0.5-0.29c-0.21,0-0.4,0.11-0.5,0.29l-18.76,34.25c-0.09,0.16-0.08,0.35,0.01,0.51
		c0.1,0.16,0.27,0.25,0.46,0.26L310.92,140.18z"/>
	<path fill-rule="evenodd" clip-rule="evenodd" fill="#2A1E17" d="M293.26,81.02c0,0,0.21,0.02,0.63,0.06
		c6.26,0.65,57.74,7.15,90.41,43.63c0.2,0.22,0.55,0.25,0.79,0.06c0.24-0.19,0.27-0.52,0.07-0.74
		c-17.61-19.65-40.56-30.66-59.1-36.76c-18.54-6.1-32.67-7.3-32.7-7.3c-0.31-0.03-0.58,0.19-0.61,0.48
		C292.72,80.74,292.95,81,293.26,81.02z"/>
	<path fill-rule="evenodd" clip-rule="evenodd" fill="#2A1E17" d="M322.11,232.28c-3.1-2.14-5.13-3.57-5.13-3.57
		c0.86-1.07,14.42-14.65,22.28-25.58C339.26,203.12,323.38,233.15,322.11,232.28z"/>
	<path fill-rule="evenodd" clip-rule="evenodd" fill="#2A1E17" d="M129.4,133.62c0.41,0.64,0.78,1.09,1.23,1.39
		c0.46,0.31,0.99,0.42,1.53,0.42c1.02-0.01,2.22-0.31,4.3-0.46c0.2-0.01,0.4-0.02,0.6-0.02c2.02,0,4.45,0.7,6.59,1.99
		c2.15,1.29,4.02,3.15,5,5.43c1.03,2.37,1.4,3.78,1.39,4.55c0,0.43-0.09,0.64-0.21,0.81c-0.12,0.16-0.31,0.3-0.6,0.45
		c-0.05,0.03-0.3,0.12-0.62,0.2c-1.15,0.3-3.38,0.69-5.36,1.16c-0.99,0.24-1.92,0.51-2.66,0.82c-0.37,0.16-0.69,0.32-0.96,0.52
		c-0.26,0.2-0.5,0.45-0.58,0.8c-0.06,0.29,0.14,0.56,0.44,0.62c0.3,0.06,0.6-0.13,0.66-0.41l0.04-0.06
		c0.07-0.08,0.26-0.23,0.54-0.37c1-0.5,3.01-0.98,4.86-1.36c0.92-0.19,1.81-0.37,2.54-0.53c0.36-0.08,0.69-0.16,0.96-0.23
		c0.28-0.08,0.49-0.15,0.69-0.25c0.33-0.18,0.69-0.4,0.96-0.76c0.27-0.36,0.42-0.84,0.42-1.41c-0.01-1.05-0.43-2.52-1.47-4.95
		c-1.09-2.52-3.13-4.54-5.44-5.92c-2.31-1.38-4.91-2.15-7.2-2.16c-0.23,0-0.46,0.01-0.68,0.02c-2.15,0.16-3.45,0.46-4.22,0.45
		c-0.41,0-0.63-0.06-0.88-0.22c-0.25-0.17-0.55-0.5-0.92-1.08c-0.16-0.25-0.5-0.33-0.77-0.18
		C129.33,133.05,129.24,133.37,129.4,133.62z"/>
	<path fill-rule="evenodd" clip-rule="evenodd" fill="#F9865F" d="M242.98,389.93l-3.91-6.21l-13.87,21.72l3.64,2.63L242.98,389.93z
		"/>
	<path fill-rule="evenodd" clip-rule="evenodd" fill="#F9865F" d="M150.84,336.07c0,0-7.19-10.98-4.11-16.36l22.94,2.3
		L150.84,336.07z"/>
	<path fill-rule="evenodd" clip-rule="evenodd" d="M150.84,336.07l1.37,2.97l-4.24,15.52c-0.53,1.96,0.16,4.02,1.78,5.34
		l20.98-29.12c1.99-2.77,1.54-6.48-1.07-8.76l-4.69-4.09L150.84,336.07z"/>
	<path fill-rule="evenodd" clip-rule="evenodd" fill="#2A1E33" d="M139.62,151.79c6.57-0.15,14.89-0.54,13.23-5.23
		c-1.66-4.69-7.91-16.42-22.06-12.9c0,0-4.99,3.91,1.25,10.94C138.28,151.65,139.62,151.79,139.62,151.79z"/>
	<path fill-rule="evenodd" clip-rule="evenodd" fill="#7595EC" d="M172.86,322.28c0,0-11.21-31.09-1.73-44.74
		c7.83-11.27,33.41,7.06,36.92,9.53l18.31-31.04c0,0-4.23-5.56-14.6-11.01c-10.37-5.45-53.23-21.76-73.37,8.08
		c-7.44,11.03-7.56,58.35,6.72,76.49L172.86,322.28z"/>
	<path fill-rule="evenodd" clip-rule="evenodd" fill="#2A1E17" d="M173.4,322.11c0,0-0.08-0.23-0.23-0.68
		c-1.05-3.1-5.28-16.35-5.27-28.37c0-5.81,0.99-11.32,3.72-15.23c0.85-1.23,1.91-2.06,3.14-2.6c1.23-0.54,2.64-0.79,4.19-0.79
		c5.14-0.01,11.71,2.76,17.28,5.8c5.57,3.03,10.16,6.31,11.5,7.26c0.25,0.18,0.6,0.13,0.79-0.11c0.19-0.23,0.14-0.56-0.11-0.74
		c-1.35-0.95-5.98-4.25-11.61-7.32c-5.65-3.07-12.29-5.93-17.84-5.94c-1.67,0-3.25,0.27-4.67,0.89c-1.41,0.62-2.65,1.6-3.6,2.98
		c-2.91,4.2-3.9,9.89-3.9,15.81c0.01,13.99,5.56,29.36,5.57,29.38c0.1,0.27,0.42,0.42,0.71,0.33
		C173.34,322.69,173.5,322.39,173.4,322.11"/>
	<path fill-rule="evenodd" clip-rule="evenodd" fill="#7595EC" d="M226.36,256.03c-8.33,8.23-33.01,48.32-38.56,67.48
		c-7.42,25.63-4.63,46.89,36.17,88.51l19.72-26.98c0,0-13.87-19.77-11.28-38.42c3.74-26.97,24.18-53.12,34.52-69.7L226.36,256.03z"
		/>
	<path fill-rule="evenodd" clip-rule="evenodd" fill="#2A1E17" d="M229.5,259.51l32.81,24.18l9.8-14L229.5,259.51z"/>
	<path fill-rule="evenodd" clip-rule="evenodd" fill="#FF8A66" d="M417.95,234.09c5.12,1.03,9.02,2.86,11.7,5.49
		c2.68,2.63,1.46,4,0.49,4.8c-0.98,0.8-4.75-0.11-8.04-2.86C418.8,238.78,417.95,234.09,417.95,234.09z"/>
	<path fill-rule="evenodd" clip-rule="evenodd" fill="#F9865F" d="M316.99,228.71c0.86-1.07,14.42-14.65,22.28-25.58
		c0,0,23.74,24.98,26.32,25.79c0.96,0.3,6.78,0.23,14,0.16c12.22-0.12,28.45-0.23,32.05,1.45c5.72,2.69,9.15,4.03,10.58,7.79
		c1.43,3.76,1.99,6.22-1.43,6.45c-4,0.27-6.58-4.57-6.58-4.57s-3.27,1.86-11.73,4.84c0,0-30.42,11.09-50.76,5.73
		C346.17,249.29,316.99,228.71,316.99,228.71z"/>
	<path fill-rule="evenodd" clip-rule="evenodd" fill="#F9865F" d="M132.57,128.93c-2.61,0.93-4.2,2.05-2.69,4.41
		c1.51,2.36,2.18,1.42,6.55,1.1c4.37-0.32,10.58,2.68,12.76,7.72c2.18,5.04,1.51,5.83,0.34,6.46c-1.18,0.63-9.57,1.58-9.9,3.15
		c-0.34,1.58,3.4,6.23,11.12,5.91l1.85-0.32c0,0,16.24,14.89,18.59,17.1c2.35,2.21,19.62,13.2,29.14,15.43
		c7.23,1.7,21.88-0.49,30.69-2.1c4.28-0.78,7.17-1.43,7.17-1.43s-6.61-11.18-7.95-28.36c0,0-15.81,2.38-26.31,4.55
		c0,0-24.51-12.83-36.43-18.51c0,0-10.41-11.98-15.28-13.56C147.34,128.93,136.09,127.67,132.57,128.93z"/>
	<path fill-rule="evenodd" clip-rule="evenodd" fill="#2A1E17" d="M231,187.82c4.28-0.78,7.17-1.43,7.17-1.43s-7.99-9.46-9.33-26.64
		c0,0-3.61,3.66-2.49,13.39C227.76,185.36,231,187.82,231,187.82z"/>
	<path fill-rule="evenodd" clip-rule="evenodd" fill="#FFEAA0" d="M228.45,157.82c0,0,0.22,21,6.21,29.76l2.15-0.81
		c0,0-28.23,31.01-37.36,51.28c-1.49,3.32,58.62,39.37,67.5,38.87c0,0,29.29-41.97,39.3-54.42l10.77,7.83
		c0,0,21.11-20.08,22.25-27.21c0,0-20.39-23.3-37.08-30.13c-16.68-6.82-31.59-18.51-49.52-18.19
		C237.15,155.07,228.45,157.82,228.45,157.82z"/>
	<path fill-rule="evenodd" clip-rule="evenodd" fill="#2A1E17" d="M317.02,230.33l-10.77-7.83l1.72-4.39L317.02,230.33z"/>
	<path fill-rule="evenodd" clip-rule="evenodd" fill="#F9865F" d="M333.39,147.3c-1.89,5.5-7.33,21.43-13.4,23.4
		c-6.07,1.97-12.39-0.5-12.39-0.5l-6.47,3.11c-0.72,2.03-5.83,3.78-12.42,4.02c-4.88,0.18-7.85-5.71-6.41-9.97
		c0.66-1.96,3.14-11.6,3.14-11.6s5.23-18.09,10.05-21.82c4.81-3.73,9.34-7.43,22.19-2.56C337.37,138.85,333.39,147.3,333.39,147.3z"
		/>
	<path fill-rule="evenodd" clip-rule="evenodd" fill="#2A1E33" d="M294.37,148.09c-0.86,3.38-4.61,10.14-7.05,8.92
		c-2.45-1.22-3.31-4.33-1.58-10.28c1.73-5.95,3.17-19.47,8.06-21.9c4.89-2.43,7.05,0.41,7.05,0.41s-2.16-9.87,4.18-11.22
		c0,0,2.16-0.95,1.3,5.81c0,0,2.45-6.22,10.37-5.41c7.92,0.81,10.66,11.22,10.66,11.22s0.58-2.84,4.18-2.84c3.6,0,9.07,5,7.78,10.55
		c0,0,9.21-2.71,14.11,4.19c4.9,6.9,4.32,14.47-7.49,17.44c-12.35,3.11-12.24-10.41-14.11-12.17c-1.87-1.76-3.89-3.79-10.8-1.35
		c-6.91,2.43-14.11-4.73-14.11-4.73s-1.15,8.65-2.3,9.46c-1.15,0.81-3.46,1.89-2.88-2.16c0.58-4.06,1.3-3.65,0.87-4.73
		c-0.43-1.08-2.38-4.49-6.48-1.49C291.5,141.19,294.37,148.09,294.37,148.09z"/>
	<path fill-rule="evenodd" clip-rule="evenodd" fill="#2A1E33" d="M296.7,149.2c-1.77-1.39-3.15-3.5-3.14-5.77
		c0-1.08,0.3-2.2,1.03-3.35c1.53-2.42,3.69-3.38,5.15-3.37c0.73,0,1.25,0.23,1.51,0.54c0.64,0.77,1.07,1.88,1.07,3.25
		c0,0.9-0.18,1.91-0.61,3.01c-0.11,0.27,0.04,0.58,0.33,0.68c0.29,0.1,0.61-0.04,0.72-0.31c0.47-1.2,0.68-2.33,0.68-3.37
		c0-1.58-0.49-2.93-1.31-3.9c-0.54-0.64-1.42-0.94-2.39-0.94c-1.96,0.01-4.41,1.2-6.12,3.89c-0.83,1.3-1.19,2.63-1.19,3.89
		c0.01,2.68,1.58,5.03,3.54,6.58c0.24,0.19,0.59,0.16,0.79-0.06C296.96,149.72,296.93,149.38,296.7,149.2z"/>
	<path fill-rule="evenodd" clip-rule="evenodd" d="M228.83,408.07l1.38,2.96l-4.24,15.52c-0.53,1.95,0.16,4.02,1.78,5.34
		l20.98-29.12c1.99-2.77,1.54-6.48-1.07-8.76l-4.69-4.09L228.83,408.07z"/>
	<path fill-rule="evenodd" clip-rule="evenodd" fill="#2A1E33" d="M301.39,125.08c-0.01-0.03-0.43-1.3-1.48-2.76
		c-1.05-1.45-2.75-3.1-5.33-3.8c-0.3-0.08-0.61,0.08-0.69,0.36c-0.08,0.28,0.09,0.57,0.39,0.65c2.24,0.6,3.75,2.05,4.7,3.37
		c0.48,0.66,0.81,1.29,1.03,1.75c0.11,0.23,0.18,0.41,0.23,0.54l0.05,0.14l0.01,0.04c0.09,0.28,0.4,0.44,0.7,0.35
		C301.32,125.65,301.48,125.36,301.39,125.08z"/>
	<path fill-rule="evenodd" clip-rule="evenodd" fill="#2A1E17" d="M199.25,236.87l58.11-76.23c0.18-0.24,0.12-0.57-0.13-0.74
		c-0.25-0.17-0.6-0.12-0.78,0.12l-58.11,76.23c-0.18,0.24-0.12,0.57,0.13,0.74C198.72,237.16,199.07,237.11,199.25,236.87z"/>
	<path fill-rule="evenodd" clip-rule="evenodd" fill="#2A1E17" d="M280.42,165.35c-0.46,0.56-0.81,1.36-1.07,2.32
		c-0.26,0.96-0.42,2.09-0.42,3.27c0,2.05,0.47,4.29,1.79,6.11c1.31,1.82,3.49,3.19,6.69,3.42c0.81,0.06,1.59,0.09,2.35,0.09
		c8.46,0,13.74-3.4,13.8-3.44c0.26-0.16,0.32-0.49,0.14-0.73c-0.18-0.24-0.53-0.3-0.78-0.14l-0.05,0.03
		c-0.54,0.33-5.49,3.22-13.11,3.22c-0.73,0-1.49-0.03-2.27-0.08c-2.91-0.22-4.71-1.38-5.85-2.96c-1.14-1.58-1.6-3.62-1.59-5.52
		c0-1.09,0.15-2.14,0.39-3.01c0.23-0.87,0.57-1.57,0.88-1.94c0.19-0.23,0.14-0.56-0.1-0.74
		C280.96,165.08,280.61,165.12,280.42,165.35z"/>
	<path fill-rule="evenodd" clip-rule="evenodd" fill="#2A1E17" d="M151.76,130.83c0,0,0.41,0.51,1.05,1.33
		c0.96,1.23,2.41,3.14,3.72,5c1.31,1.86,2.48,3.72,2.83,4.71c0.1,0.28,0.42,0.43,0.71,0.33c0.29-0.09,0.45-0.39,0.36-0.67
		c-0.29-0.82-0.92-1.89-1.7-3.1c-2.33-3.6-6.07-8.24-6.08-8.25c-0.19-0.23-0.54-0.28-0.79-0.1
		C151.62,130.27,151.57,130.6,151.76,130.83z"/>
	<path fill-rule="evenodd" clip-rule="evenodd" fill="#2A1E17" d="M400.57,241.6c0.07,0.05,1.83,1.39,5.26,1.39
		c2.21,0,5.1-0.56,8.64-2.34c1.19-0.59,1.82-1.55,1.81-2.52c0-0.82-0.43-1.6-1.13-2.17c-0.7-0.57-1.68-0.92-2.83-0.92
		c-0.44,0-0.91,0.05-1.39,0.17c-0.96,0.23-1.97,0.31-2.96,0.31c-1.48,0-2.89-0.2-3.93-0.39c-0.52-0.1-0.94-0.2-1.23-0.27
		c-0.15-0.04-0.26-0.07-0.34-0.09l-0.11-0.03c-0.3-0.09-0.61,0.07-0.7,0.35c-0.09,0.28,0.07,0.57,0.37,0.66
		c0.03,0.01,2.78,0.83,5.95,0.83c1.06,0,2.16-0.09,3.23-0.34c0.4-0.09,0.77-0.14,1.12-0.14c0.9,0,1.61,0.28,2.1,0.67
		c0.49,0.39,0.74,0.9,0.74,1.37c-0.01,0.55-0.3,1.12-1.22,1.59c-3.4,1.71-6.1,2.21-8.11,2.21c-1.55,0-2.7-0.3-3.46-0.59
		c-0.38-0.15-0.66-0.29-0.84-0.4l-0.2-0.12l-0.04-0.03l-0.01-0.01l-0.1,0.12l0.1-0.12l0,0l-0.1,0.12l0.1-0.12
		c-0.24-0.19-0.59-0.15-0.79,0.07C400.3,241.09,400.33,241.42,400.57,241.6z"/>
	<path fill-rule="evenodd" clip-rule="evenodd" fill="#2A1E17" d="M419.05,234.9c0,0,0.06,0.07,0.17,0.19
		c0.39,0.44,1.37,1.6,2.24,2.93c0.88,1.32,1.62,2.85,1.6,3.86l0,0.09c-0.01,0.29,0.23,0.54,0.54,0.55c0.31,0.01,0.57-0.22,0.58-0.51
		l0-0.13c0-0.82-0.29-1.68-0.7-2.53c-1.22-2.55-3.57-5.11-3.58-5.13c-0.2-0.22-0.56-0.25-0.79-0.06
		C418.87,234.35,418.84,234.68,419.05,234.9z"/>
	<path fill-rule="evenodd" clip-rule="evenodd" fill="#2A1E17" d="M357.26,234.37l0.04-0.05c0.2-0.24,1.21-1.41,2.71-2.54
		c1.5-1.13,3.48-2.21,5.62-2.35c0.31-0.02,0.54-0.27,0.52-0.56c-0.02-0.29-0.29-0.51-0.6-0.49c-2.65,0.18-4.92,1.54-6.55,2.82
		c-1.63,1.29-2.61,2.52-2.63,2.54c-0.19,0.23-0.14,0.56,0.11,0.74C356.72,234.65,357.07,234.6,357.26,234.37z"/>
	<path fill-rule="evenodd" clip-rule="evenodd" fill="#2A1E17" d="M195,170.52l0.02-0.06c0.12-0.33,0.77-1.92,2.19-3.54
		c1.42-1.63,3.59-3.28,6.81-3.82c0.31-0.05,0.51-0.33,0.45-0.61c-0.06-0.29-0.35-0.48-0.65-0.43c-3.77,0.63-6.26,2.68-7.77,4.54
		c-1.52,1.87-2.1,3.56-2.11,3.6c-0.1,0.28,0.07,0.57,0.36,0.66C194.59,170.95,194.91,170.8,195,170.52z"/>
	<path fill-rule="evenodd" clip-rule="evenodd" fill="#2A1E17" d="M213.48,269.89l-8.59,15.43l0.5,0.24l-0.48-0.27
		c-0.01,0.01-5.2,8.26-10.39,19.98c-5.19,11.73-10.39,26.93-10.4,40.91c0,4.75,0.6,9.35,2.02,13.63c0.09,0.28,0.41,0.43,0.7,0.35
		c0.3-0.09,0.46-0.38,0.37-0.66c-1.37-4.16-1.97-8.66-1.97-13.32c0-13.74,5.15-28.85,10.31-40.5c2.58-5.83,5.16-10.8,7.1-14.3
		c0.97-1.75,1.77-3.14,2.34-4.09c0.28-0.48,0.5-0.84,0.65-1.09c0.15-0.25,0.23-0.37,0.23-0.37l8.61-15.46
		c0.14-0.26,0.04-0.58-0.24-0.71C213.97,269.53,213.63,269.63,213.48,269.89z"/>
	<path fill-rule="evenodd" clip-rule="evenodd" fill="#2A1E17" d="M239.56,322.05l27.87-44.87l-0.48-0.27l0.46,0.3
		c0,0,9.13-12.44,18.73-25.76c4.8-6.66,9.72-13.54,13.67-19.19c1.98-2.83,3.71-5.35,5.07-7.39c1.36-2.04,2.34-3.58,2.83-4.5
		l-0.5-0.23l0.49,0.25L320.6,198c0.15-0.26,0.05-0.58-0.23-0.71c-0.27-0.14-0.61-0.04-0.76,0.21l-12.89,22.4l-0.01,0.01
		c-0.45,0.84-1.43,2.39-2.78,4.41c-4.74,7.1-14.1,20.18-22.28,31.48c-4.09,5.65-7.88,10.86-10.65,14.65
		c-1.39,1.9-2.52,3.44-3.3,4.51c-0.78,1.07-1.22,1.66-1.22,1.66l-0.02,0.03l-27.87,44.87c-0.16,0.25-0.07,0.57,0.2,0.72
		C239.06,322.38,239.41,322.3,239.56,322.05z"/>
	<path fill-rule="evenodd" clip-rule="evenodd" fill="#2A1E17" d="M202.36,241.77c0,0,12.4,8.49,26.64,17.19
		c7.12,4.35,14.7,8.75,21.44,12.17c6.74,3.42,12.6,5.87,16.44,6.31c0.31,0.03,0.59-0.17,0.62-0.46c0.04-0.29-0.18-0.55-0.49-0.58
		c-3.51-0.38-9.36-2.79-16.04-6.19c-10.04-5.1-22.04-12.43-31.51-18.47c-4.74-3.02-8.85-5.73-11.78-7.67
		c-1.46-0.97-2.63-1.76-3.43-2.3c-0.8-0.54-1.23-0.84-1.23-0.84c-0.25-0.17-0.6-0.12-0.78,0.12
		C202.05,241.27,202.1,241.6,202.36,241.77z"/>
	<path fill-rule="evenodd" clip-rule="evenodd" fill="#2A1E17" d="M227.89,157.81v0.02c0,0.31,0.01,5.68,0.78,12.07
		c0.78,6.39,2.27,13.78,5.38,18.24c0.17,0.24,0.52,0.31,0.78,0.15c0.26-0.16,0.33-0.49,0.16-0.73c-2.91-4.14-4.45-11.46-5.21-17.78
		c-0.76-6.32-0.77-11.66-0.77-11.95v0c0-0.29-0.24-0.53-0.55-0.53C228.15,157.29,227.9,157.52,227.89,157.81z"/>
	<path fill-rule="evenodd" clip-rule="evenodd" fill="#2A1E17" d="M337.12,199.66c-0.35,2.04-1.9,4.81-4.04,7.74
		c-3.21,4.4-7.72,9.21-11.43,12.9c-1.86,1.85-3.51,3.42-4.7,4.52c-0.59,0.55-1.07,0.99-1.4,1.29c-0.33,0.3-0.51,0.46-0.51,0.46
		c-0.23,0.2-0.23,0.53-0.02,0.74c0.21,0.21,0.57,0.22,0.79,0.02c0.01-0.01,5.19-4.62,10.58-10.35c2.69-2.86,5.44-6,7.62-8.99
		c2.18-3,3.8-5.82,4.22-8.17c0.05-0.29-0.16-0.56-0.46-0.61C337.46,199.18,337.17,199.37,337.12,199.66z"/>
	<path fill-rule="evenodd" clip-rule="evenodd" fill="#2A1E17" d="M186.23,306.3c0,1.53-1.32,2.76-2.94,2.76
		c-1.63,0-2.94-1.24-2.94-2.76c0-1.53,1.32-2.76,2.94-2.76C184.92,303.53,186.23,304.77,186.23,306.3z"/>
	<path fill-rule="evenodd" clip-rule="evenodd" fill="#2A1E17" d="M459.42,365.69l0.56-0.08l-1.45-9.4l7.45,4.65l-3.73,0.76
		c-0.13,0.03-0.24,0.09-0.32,0.19l-2.95,3.55L459.42,365.69l0.56-0.08L459.42,365.69l0.44,0.32l2.83-3.4l4.83-0.99
		c0.22-0.04,0.39-0.21,0.43-0.42c0.04-0.21-0.05-0.42-0.24-0.54l-9.6-6c-0.19-0.11-0.42-0.12-0.61-0.01
		c-0.19,0.11-0.29,0.31-0.25,0.52l1.63,10.57c0.03,0.21,0.19,0.38,0.41,0.43c0.22,0.06,0.45-0.02,0.59-0.19L459.42,365.69z"/>
	<path fill-rule="evenodd" clip-rule="evenodd" fill="#2A1E17" d="M141.35,184.83c-2.59-2.14-5.44-3.29-8.17-3.29
		c-2.92-0.01-5.67,1.34-7.61,4.03c-1.94,2.68-3.13,6.68-3.13,12.07c0,10.35,4.38,25.89,16.53,47.34
		c12.16,21.45,32.12,48.81,63.34,82.76c21.09,22.93,40.68,38.95,57.73,49.25c17.05,10.29,31.53,14.87,42.46,14.88
		c5.54,0,10.17-1.18,13.72-3.43c3.55-2.24,5.99-5.55,7.16-9.7c1.52-5.4,2.17-10.31,2.17-14.74c0-10.28-3.51-17.92-7.72-22.98
		c-2.1-2.53-4.38-4.42-6.48-5.69c-2.11-1.26-4.03-1.92-5.53-1.92c-0.71,0-1.35,0.15-1.83,0.52c-0.49,0.37-0.75,0.97-0.75,1.62
		c0,0.77,0.31,1.65,0.93,2.69c0.62,1.04,1.57,2.24,2.89,3.62c6.75,7,16.96,12.4,29.24,16.07c12.28,3.66,26.66,5.59,41.77,5.59
		c23.51,0,48.83-4.66,70.88-14.71c10.93-4.99,18.03-10.6,22.4-16.37c4.37-5.77,5.99-11.69,5.99-17.23c0-7.08-2.62-13.52-5.45-18.34
		c-1.41-2.41-2.89-4.42-4.11-5.9c-0.61-0.74-1.17-1.35-1.63-1.82c-0.46-0.47-0.82-0.78-1.1-0.97c-0.25-0.17-0.6-0.11-0.78,0.13
		s-0.12,0.57,0.13,0.73c0.15,0.1,0.5,0.39,0.93,0.83c1.52,1.54,4.27,4.89,6.61,9.35c2.34,4.46,4.29,10.01,4.29,15.99
		c0,5.35-1.55,11.03-5.78,16.62c-4.23,5.59-11.17,11.1-21.98,16.03c-21.87,9.98-47.03,14.61-70.39,14.61
		c-15.02,0-29.28-1.91-41.43-5.54c-12.15-3.62-22.18-8.96-28.75-15.77c-1.29-1.33-2.18-2.48-2.75-3.43
		c-0.57-0.95-0.79-1.69-0.79-2.18c0.01-0.42,0.13-0.64,0.34-0.8c0.21-0.16,0.58-0.29,1.12-0.28c1.15-0.01,2.94,0.56,4.93,1.76
		c5.97,3.59,13.69,12.71,13.69,27.78c0,4.33-0.64,9.15-2.13,14.47c-1.11,3.93-3.38,6.99-6.7,9.1c-3.32,2.1-7.72,3.25-13.09,3.25
		c-10.59,0-24.92-4.48-41.85-14.71c-16.93-10.22-36.45-26.18-57.48-49.05c-31.18-33.91-51.09-61.21-63.2-82.57
		c-12.11-21.35-16.41-36.77-16.4-46.85c0-5.24,1.16-9.03,2.93-11.47c1.78-2.44,4.12-3.56,6.68-3.57c2.39,0,5,1.01,7.43,3.02
		c0.23,0.19,0.59,0.17,0.79-0.05C141.61,185.36,141.59,185.02,141.35,184.83z"/>
	<path fill-rule="evenodd" clip-rule="evenodd" fill="#2A1E17" d="M452.43,348.11c0,1.53-1.32,2.76-2.94,2.76
		c-1.63,0-2.94-1.24-2.94-2.76c0-1.53,1.32-2.76,2.94-2.76C451.11,345.34,452.43,346.58,452.43,348.11z"/>
	<path fill-rule="evenodd" clip-rule="evenodd" fill="#2A1E17" d="M406.94,371.12l87.24-46.17c0.27-0.14,0.37-0.46,0.21-0.72
		c-0.15-0.25-0.49-0.34-0.76-0.2l-87.24,46.17c-0.27,0.14-0.37,0.46-0.21,0.72C406.33,371.18,406.67,371.27,406.94,371.12z"/>
	<path fill-rule="evenodd" clip-rule="evenodd" fill="#2A1E17" d="M145.74,187.46c0,1.53-1.32,2.76-2.94,2.76
		c-1.63,0-2.94-1.24-2.94-2.76c0-1.53,1.32-2.76,2.94-2.76C144.42,184.69,145.74,185.93,145.74,187.46z"/>
	<path fill-rule="evenodd" clip-rule="evenodd" fill="#FF6D66" d="M224.15,130.4c0,3.28-2.83,5.93-6.31,5.93
		c-3.49,0-6.31-2.65-6.31-5.93c0-3.27,2.83-5.93,6.31-5.93C221.33,124.47,224.15,127.13,224.15,130.4z"/>
	<path fill-rule="evenodd" clip-rule="evenodd" fill="#A0C6F4" d="M103.27,85.18c-1.53,0-2.78,1.17-2.78,2.61
		c0,1.44,1.24,2.61,2.78,2.61c1.53,0,2.78-1.17,2.78-2.61C106.04,86.34,104.8,85.18,103.27,85.18z"/>
	<path fill-rule="evenodd" clip-rule="evenodd" fill="#FAD8B0" d="M477.96,406.3c0,1.44-1.24,2.61-2.78,2.61
		c-1.53,0-2.78-1.17-2.78-2.61c0-1.44,1.24-2.61,2.78-2.61C476.72,403.69,477.96,404.86,477.96,406.3z"/>
	<path fill-rule="evenodd" clip-rule="evenodd" fill="#2A1E33" d="M425.59,288.59l-29.84-13.15c-2.41-1.06-2.37-4.29,0.07-5.3
		l55.51-22.94c0.79-0.32,1.68-0.33,2.47-0.01l38.13,15.37L425.59,288.59z"/>
	<path fill-rule="evenodd" clip-rule="evenodd" fill="#C6CBCB" d="M423.75,245.37c0.08,11.6,1.85,43.22,1.85,43.22l66.34-26.03
		l-1.49-44c-0.09-2.7-3.08-4.44-5.7-3.32l-57.12,24.44C425.25,240.7,423.73,242.92,423.75,245.37z"/>
	<path fill-rule="evenodd" clip-rule="evenodd" fill="#2A1E17" d="M425.81,289.07l66.34-26.02c0.21-0.08,0.35-0.29,0.34-0.5
		l-1.49-44l0-0.03c-0.01-0.04-0.09-1-0.67-2.01c-0.29-0.5-0.71-1.03-1.33-1.42c-0.61-0.4-1.42-0.66-2.4-0.66
		c-0.6,0-1.27,0.1-2.02,0.31c-0.3,0.08-0.46,0.38-0.38,0.66c0.09,0.28,0.4,0.44,0.7,0.35c0.66-0.19,1.22-0.26,1.7-0.26
		c0.78,0,1.33,0.19,1.76,0.47c0.65,0.41,1.04,1.07,1.26,1.65c0.11,0.28,0.18,0.55,0.21,0.73l0.04,0.21l0.01,0.05l0,0.01l0.56-0.05
		l-0.56,0.02l1.47,43.64l-65.99,25.88c-0.29,0.11-0.42,0.42-0.3,0.69C425.2,289.06,425.52,289.18,425.81,289.07z"/>
	<path fill-rule="evenodd" clip-rule="evenodd" fill="#2A1E17" d="M458.22,257.16l4.48-9.94c0.12-0.27-0.01-0.58-0.3-0.69
		c-0.29-0.11-0.62,0.01-0.74,0.28l-4.48,9.94c-0.12,0.27,0.01,0.58,0.3,0.69C457.77,257.56,458.1,257.43,458.22,257.16z"/>
	<path fill-rule="evenodd" clip-rule="evenodd" fill="#2A1E17" d="M462.7,257.16l4.48-9.94c0.12-0.27-0.01-0.58-0.3-0.69
		c-0.28-0.11-0.61,0.01-0.73,0.28l-4.48,9.94c-0.12,0.27,0.01,0.58,0.3,0.69C462.25,257.56,462.58,257.43,462.7,257.16z"/>
	<path fill-rule="evenodd" clip-rule="evenodd" fill="#FF6D66" d="M118.01,362.8c0,1.44-1.24,2.61-2.78,2.61
		c-1.53,0-2.77-1.17-2.77-2.61c0-1.44,1.24-2.61,2.77-2.61C116.77,360.19,118.01,361.36,118.01,362.8z"/>
	<path fill-rule="evenodd" clip-rule="evenodd" fill="#FF6D66" d="M353.12,375.71c0,2-1.73,3.62-3.86,3.62
		c-2.13,0-3.86-1.62-3.86-3.62c0-2,1.73-3.62,3.86-3.62C351.39,372.09,353.12,373.71,353.12,375.71z"/>
	<path fill-rule="evenodd" clip-rule="evenodd" fill="#FFF7DC" d="M144,401.45c4.52,2.03,17.66,7.17,35.05,7.06
		c0.95-0.01,1.69,0.79,1.57,1.67l-2.42,18.05c-0.09,0.64-0.6,1.16-1.28,1.28c-4.91,0.86-24.71,3.42-39.52-8.38
		c-0.46-0.37-0.65-0.96-0.49-1.51l4.89-17.21C142.05,401.51,143.1,401.05,144,401.45z"/>
	<path fill-rule="evenodd" clip-rule="evenodd" fill="#2A1E17" d="M145.28,407.06c0,0,2.14,2.83,4.67,5.87
		c1.27,1.52,2.63,3.09,3.87,4.39c1.25,1.3,2.35,2.33,3.24,2.8c0.37,0.2,0.8,0.26,1.26,0.26c1.31-0.01,3.06-0.52,5.05-1.26
		c5.93-2.22,13.76-6.61,13.77-6.61c0.27-0.15,0.35-0.47,0.2-0.72c-0.16-0.25-0.5-0.33-0.77-0.18c0,0-0.21,0.12-0.6,0.33
		c-1.36,0.74-4.82,2.6-8.44,4.27c-1.81,0.83-3.65,1.62-5.28,2.19c-1.63,0.58-3.05,0.93-3.93,0.92c-0.35,0-0.59-0.06-0.71-0.12
		c-0.64-0.33-1.75-1.32-2.96-2.59c-1.83-1.91-3.95-4.45-5.61-6.52c-0.83-1.03-1.55-1.94-2.05-2.6c-0.51-0.65-0.81-1.05-0.81-1.05
		c-0.18-0.24-0.53-0.29-0.78-0.12C145.16,406.49,145.1,406.82,145.28,407.06"/>
	<path fill-rule="evenodd" clip-rule="evenodd" fill="#2A1E17" d="M165.01,418.45l8.99,8.68c0.22,0.21,0.57,0.21,0.79,0.01
		c0.22-0.2,0.23-0.54,0.01-0.75l-8.99-8.68c-0.22-0.21-0.57-0.21-0.79-0.01C164.8,417.91,164.79,418.24,165.01,418.45z"/>
	<path fill-rule="evenodd" clip-rule="evenodd" fill="#2A1E17" d="M152.78,415.9l-10.51,2.68c-0.3,0.08-0.48,0.37-0.39,0.65
		c0.08,0.28,0.39,0.45,0.69,0.37l10.51-2.68c0.3-0.08,0.48-0.37,0.4-0.65C153.38,415.99,153.08,415.83,152.78,415.9z"/>
	<path fill-rule="evenodd" clip-rule="evenodd" fill="#FFE1C0" d="M409.19,197.36h10.04v-9.43h-10.04V197.36z"/>
	<path fill-rule="evenodd" clip-rule="evenodd" fill="#A0C6F4" d="M410.55,315.14l5.97,9.71h-11.94L410.55,315.14z"/>
	<path fill-rule="evenodd" clip-rule="evenodd" fill="#2A1E17" d="M169.2,100.06l0.56,0.02l0.78-22.04V78l0-0.24
		c0-0.86,0.2-1.33,0.46-1.62c0.27-0.29,0.67-0.48,1.26-0.6c3.85-0.8,12.43-2.59,23.25-2.59c7.05,0,15.05,0.76,23.31,3.05
		c1.1,0.31,1.62,0.69,1.88,1.04c0.26,0.36,0.32,0.76,0.33,1.26c0,0.16-0.01,0.33-0.01,0.5v0l-0.75,21.01
		c-0.02,0.53-0.29,0.99-0.75,1.35c-0.46,0.35-1.1,0.58-1.82,0.58c-0.16,0-0.32-0.01-0.48-0.03c-5.6-0.77-12.96-1.05-20.59-1.06
		c-0.84,0-1.68,0-2.52,0.01c-8.81,0.07-16.66,0.68-22.19,1.68c-0.19,0.04-0.37,0.05-0.52,0.05c-0.62-0.01-0.94-0.21-1.21-0.56
		c-0.26-0.36-0.42-0.93-0.41-1.59l0-0.16v0L169.2,100.06l-0.56-0.02l0,0.2c0,0.8,0.17,1.57,0.61,2.18c0.43,0.62,1.21,1.04,2.14,1.03
		c0.23,0,0.48-0.02,0.74-0.07c5.42-0.98,13.23-1.59,21.99-1.66c0.84-0.01,1.67-0.01,2.51-0.01c7.6,0,14.93,0.29,20.43,1.05
		c0.22,0.03,0.43,0.04,0.64,0.04c0.96,0,1.86-0.3,2.53-0.81c0.67-0.51,1.13-1.27,1.16-2.13l0.75-21.01v0
		c0.01-0.17,0.01-0.35,0.01-0.53c0-0.57-0.07-1.24-0.52-1.86c-0.46-0.62-1.24-1.11-2.48-1.45c-8.38-2.33-16.49-3.1-23.62-3.1
		c-10.95,0-19.63,1.81-23.49,2.62c-0.7,0.15-1.38,0.4-1.87,0.95c-0.49,0.54-0.73,1.31-0.73,2.31l0,0.28l0.56-0.02L169.41,78
		l-0.78,22.04v0L169.2,100.06z"/>
	<path fill-rule="evenodd" clip-rule="evenodd" fill="#2A1E17" d="M176.29,96.84l0.43,0.34l11.88-13.06l13.15,12.19l0.39-0.38
		l0.17-0.5c-1.24-0.37-3.25-0.49-5.71-0.49c-7.98,0-20.37,1.37-20.38,1.37L176.29,96.84l0.43,0.34L176.29,96.84l0.06,0.52
		c0,0,0.77-0.09,2.05-0.21c3.85-0.38,12.3-1.15,18.19-1.15c2.4,0,4.4,0.14,5.37,0.44c0.25,0.08,0.52-0.02,0.65-0.23
		c0.14-0.21,0.1-0.48-0.09-0.65l-13.58-12.59c-0.11-0.1-0.26-0.16-0.42-0.15s-0.3,0.07-0.4,0.18L175.86,96.5
		c-0.15,0.17-0.18,0.4-0.07,0.59c0.11,0.19,0.33,0.3,0.56,0.28L176.29,96.84z"/>
	<path fill-rule="evenodd" clip-rule="evenodd" fill="#2A1E17" d="M196.43,90.01l9.59-7.21l7.79,5.22l0.28,7.93l-11.92-0.54
		c-0.31-0.01-0.57,0.21-0.59,0.5c-0.01,0.29,0.22,0.54,0.53,0.55l12.53,0.56c0.16,0.01,0.31-0.05,0.42-0.15
		c0.11-0.1,0.17-0.25,0.17-0.39l-0.32-8.76c-0.01-0.16-0.09-0.32-0.23-0.41l-8.36-5.6c-0.2-0.14-0.48-0.13-0.68,0.02l-9.92,7.45
		c-0.24,0.18-0.28,0.51-0.09,0.74C195.84,90.15,196.19,90.19,196.43,90.01z"/>
	<path fill-rule="evenodd" clip-rule="evenodd" fill="#2A1E17" d="M181.63,82.01l-0.56,0.06l0.01,0.13c0,0.33-0.15,0.63-0.44,0.88
		c-0.29,0.25-0.71,0.42-1.21,0.45l-0.13,0c-0.51,0-0.98-0.16-1.32-0.41c-0.35-0.25-0.56-0.58-0.6-0.93l-0.01-0.13
		c0-0.33,0.15-0.64,0.44-0.88c0.29-0.25,0.71-0.42,1.21-0.45l0.13,0c0.51,0,0.98,0.16,1.32,0.41c0.35,0.25,0.56,0.58,0.6,0.93
		L181.63,82.01l0.56-0.06c-0.08-0.67-0.48-1.25-1.03-1.64c-0.55-0.4-1.25-0.63-2.01-0.63l-0.19,0.01c-0.74,0.04-1.41,0.3-1.9,0.72
		c-0.49,0.42-0.81,1.01-0.8,1.66l0.01,0.25c0.08,0.67,0.48,1.25,1.03,1.64c0.55,0.4,1.25,0.63,2.01,0.63l0.19,0
		c0.75-0.04,1.41-0.3,1.9-0.72c0.49-0.42,0.8-1.01,0.8-1.66l-0.02-0.25L181.63,82.01z"/>
	<path fill-rule="evenodd" clip-rule="evenodd" fill="#2A1E17" d="M406.44,386.4l-0.49,0.25l8.23,14.27l0.02,0.03
		c0.34,0.49,0.44,0.84,0.44,1.09c0,0.32-0.15,0.56-0.53,0.9c-3.51,3.06-14.14,12.32-29.69,15.93c-0.36,0.08-0.65,0.12-0.88,0.12
		c-0.49-0.01-0.7-0.12-0.91-0.29c-0.2-0.17-0.37-0.45-0.55-0.77l-7.84-13.61c-0.1-0.17-0.14-0.35-0.14-0.54
		c-0.01-0.56,0.45-1.23,1.25-1.53c4.29-1.63,9.73-4.39,15.12-7.41c5.57-3.12,10.32-6.26,13.45-8.83c0.33-0.27,0.58-0.34,0.78-0.34
		c0.2,0,0.4,0.07,0.62,0.24c0.22,0.17,0.44,0.43,0.63,0.76L406.44,386.4l0.49-0.25c-0.24-0.41-0.54-0.79-0.91-1.07
		c-0.37-0.28-0.82-0.48-1.33-0.48c-0.52,0-1.05,0.21-1.52,0.6c-3.05,2.51-7.76,5.62-13.29,8.72c-5.36,3-10.77,5.75-14.96,7.34
		c-1.18,0.45-1.95,1.45-1.96,2.51c0,0.35,0.09,0.71,0.28,1.04l7.84,13.61c0.18,0.31,0.39,0.71,0.77,1.04
		c0.38,0.34,0.96,0.58,1.67,0.57c0.34,0,0.72-0.05,1.15-0.15c15.86-3.68,26.64-13.1,30.19-16.18c0.48-0.41,0.89-0.96,0.89-1.67
		c0-0.52-0.21-1.06-0.61-1.65l-0.47,0.28l0.49-0.25l-8.23-14.27L406.44,386.4z"/>
	<path fill-rule="evenodd" clip-rule="evenodd" fill="#2A1E17" d="M403.21,390.92l-0.55-0.09l-2.35,12.29l-13.02-3.11l-0.14,0.51
		l0.12,0.52c1.03-0.22,2.47-0.92,4.17-1.87c5.06-2.83,12.1-7.82,12.11-7.82L403.21,390.92l-0.55-0.09L403.21,390.92l-0.34-0.42
		c0,0-0.78,0.55-2.01,1.39c-1.84,1.26-4.68,3.17-7.39,4.83c-1.35,0.83-2.67,1.59-3.81,2.18c-1.13,0.59-2.1,0.99-2.65,1.1
		c-0.25,0.05-0.44,0.26-0.44,0.51c0,0.24,0.17,0.46,0.42,0.52l13.61,3.25c0.15,0.04,0.31,0.01,0.44-0.07
		c0.13-0.08,0.22-0.21,0.25-0.35l2.45-12.85c0.04-0.21-0.06-0.43-0.26-0.54c-0.2-0.11-0.45-0.1-0.63,0.03L403.21,390.92z"/>
	<path fill-rule="evenodd" clip-rule="evenodd" fill="#2A1E17" d="M392.99,402.25l-3.2,7.83l-6.83-0.58l-3.19-4.75l7.64-3.75
		c0.27-0.13,0.38-0.45,0.24-0.71c-0.14-0.26-0.48-0.36-0.76-0.22l-8.18,4.02c-0.14,0.07-0.24,0.19-0.28,0.33
		c-0.04,0.14-0.02,0.29,0.07,0.42l3.67,5.45c0.09,0.14,0.25,0.23,0.42,0.24l7.53,0.64c0.25,0.02,0.48-0.12,0.57-0.34l3.35-8.2
		c0.11-0.27-0.03-0.58-0.32-0.68C393.42,401.84,393.1,401.97,392.99,402.25z"/>
	<path fill-rule="evenodd" clip-rule="evenodd" fill="#2A1E17" d="M405.69,402.21l0.45-0.32c-0.1-0.13-0.14-0.26-0.15-0.42
		c0-0.29,0.18-0.64,0.57-0.88c0.26-0.16,0.55-0.24,0.82-0.24c0.36,0,0.65,0.13,0.81,0.34c0.1,0.13,0.14,0.26,0.15,0.42
		c0,0.29-0.18,0.64-0.57,0.88c-0.26,0.16-0.55,0.24-0.82,0.23c-0.36,0-0.65-0.13-0.81-0.34l-0.9,0.63c0.41,0.51,1.06,0.76,1.71,0.76
		c0.49,0,0.99-0.13,1.44-0.41c0.67-0.42,1.07-1.08,1.07-1.76c0-0.36-0.12-0.74-0.37-1.05c-0.41-0.51-1.06-0.76-1.71-0.76
		c-0.49,0-0.99,0.14-1.43,0.41c-0.67,0.42-1.07,1.08-1.08,1.76c0,0.37,0.12,0.74,0.37,1.05L405.69,402.21z"/>
	<path fill-rule="evenodd" clip-rule="evenodd" fill="#FFFFFF" d="M366.38,142.77l33.44,24.03c0.73,0.53,1.78,0.39,2.33-0.31
		l5.05-6.43c0.53-0.67,0.39-1.61-0.3-2.13l-32.97-24.77c-0.74-0.55-1.82-0.42-2.37,0.3l-5.52,7.16
		C365.52,141.31,365.67,142.26,366.38,142.77z"/>
	<path fill-rule="evenodd" clip-rule="evenodd" fill="#2A1E17" d="M366.38,142.77l-0.34,0.42l33.44,24.03
		c0.4,0.29,0.88,0.43,1.34,0.43c0.68,0,1.35-0.29,1.78-0.84l5.05-6.43c0.29-0.37,0.43-0.81,0.43-1.23c0-0.61-0.29-1.21-0.83-1.62
		l-32.97-24.77c-0.41-0.31-0.9-0.46-1.38-0.46c-0.68,0-1.36,0.3-1.79,0.86l-5.52,7.16c-0.28,0.37-0.42,0.79-0.42,1.22
		c0,0.62,0.3,1.24,0.87,1.65L366.38,142.77l0.34-0.42c-0.28-0.2-0.43-0.5-0.43-0.81c0-0.21,0.07-0.42,0.21-0.6l5.52-7.16
		c0.21-0.28,0.55-0.42,0.88-0.42c0.24,0,0.48,0.07,0.68,0.22l32.97,24.77c0.27,0.2,0.41,0.5,0.41,0.8c0,0.21-0.07,0.42-0.21,0.61
		l-5.05,6.43c-0.22,0.27-0.54,0.42-0.88,0.42c-0.23,0-0.46-0.07-0.66-0.21l-33.44-24.03L366.38,142.77z"/>
	<path fill-rule="evenodd" clip-rule="evenodd" fill="#FF6D66" d="M368.85,141.69l8.11,5.34l4.79-5.36l-8.11-6.35L368.85,141.69z"/>
	<path fill-rule="evenodd" clip-rule="evenodd" fill="#FAD8B0" d="M380.01,149.12l8.12,6.05l4.35-5.03l-8.17-6.23L380.01,149.12z"/>
	<path fill-rule="evenodd" clip-rule="evenodd" fill="#A0C6F4" d="M390.87,157.49l8.11,5.34l3.86-4.66l-7.68-6.04L390.87,157.49z"/>
	<path fill-rule="evenodd" clip-rule="evenodd" fill="#FFFFFF" d="M433.1,109.17l7.62,60.13c0.17,1.32,1.45,2.25,2.85,2.07
		l12.9-1.66c1.35-0.17,2.31-1.31,2.17-2.58l-6.25-60.43c-0.14-1.35-1.45-2.32-2.88-2.12l-14.27,1.96
		C433.89,106.72,432.93,107.89,433.1,109.17z"/>
	<path fill-rule="evenodd" clip-rule="evenodd" fill="#2A1E17" d="M433.1,109.17l-0.56,0.06l7.62,60.13
		c0.19,1.48,1.52,2.56,3.07,2.56c0.14,0,0.28-0.01,0.42-0.03l12.9-1.66c1.54-0.2,2.67-1.44,2.67-2.87l-0.01-0.28l-6.25-60.43
		c-0.16-1.51-1.51-2.62-3.07-2.62c-0.15,0-0.3,0.01-0.45,0.03l-14.27,1.96c-1.53,0.21-2.64,1.45-2.64,2.87
		c0,0.11,0.01,0.23,0.02,0.35v0L433.1,109.17l0.56-0.06l-0.01-0.22c0-0.9,0.71-1.69,1.68-1.83l14.27-1.96l0.29-0.02
		c0.99,0,1.86,0.71,1.96,1.67l6.25,60.43l0.01,0.18c0,0.91-0.72,1.7-1.7,1.83l-12.9,1.66l-0.27,0.02c-0.98,0-1.83-0.69-1.95-1.63
		l-7.62-60.13v0L433.1,109.17z"/>
	<path fill-rule="evenodd" clip-rule="evenodd" fill="#FF6D66" d="M436.99,110.57l2.41,14.06l11.38-0.79l-1.24-15.14L436.99,110.57z
		"/>
	<path fill-rule="evenodd" clip-rule="evenodd" fill="#91BA83" d="M440.23,130.01l1.6,14.83l10.52-0.88l-1.45-15.08L440.23,130.01z"
		/>
	<path fill-rule="evenodd" clip-rule="evenodd" fill="#FAD8B0" d="M442.03,150.13l2.42,14.06l9.57-1l-1.15-14.36L442.03,150.13z"/>
	<path fill-rule="evenodd" clip-rule="evenodd" fill="#FFFFFF" d="M416.46,121.97l21.1,58.24c0.36,1,1.53,1.53,2.59,1.17l13.22-4.47
		c1.02-0.34,1.56-1.38,1.24-2.35l-19.81-58.82c-0.35-1.03-1.54-1.58-2.62-1.2l-14.5,5.04C416.65,119.94,416.11,121,416.46,121.97z"
		/>
	<path fill-rule="evenodd" clip-rule="evenodd" fill="#2A1E17" d="M416.46,121.97l-0.53,0.17l21.1,58.24
		c0.36,1.01,1.37,1.64,2.44,1.64c0.29,0,0.58-0.05,0.87-0.14l13.22-4.47c1.05-0.35,1.7-1.28,1.7-2.27c0-0.24-0.04-0.49-0.12-0.73
		l-19.82-58.82c-0.35-1.03-1.36-1.69-2.45-1.69c-0.3,0-0.6,0.05-0.89,0.15l-14.5,5.04c-1.04,0.36-1.68,1.28-1.68,2.27
		c0,0.26,0.05,0.52,0.14,0.78v0L416.46,121.97l0.53-0.17c-0.05-0.15-0.08-0.29-0.08-0.44c0-0.55,0.36-1.07,0.95-1.28l14.5-5.04
		c0.17-0.06,0.34-0.09,0.5-0.09c0.61,0,1.19,0.37,1.38,0.95l19.81,58.82c0.05,0.14,0.07,0.27,0.07,0.41c0,0.56-0.37,1.08-0.96,1.28
		l-13.22,4.47c-0.16,0.06-0.33,0.08-0.49,0.08c-0.6,0-1.17-0.36-1.37-0.92l-21.1-58.24v0L416.46,121.97z"/>
	<path fill-rule="evenodd" clip-rule="evenodd" fill="#A0C6F4" d="M420.75,123.03l5.48,13.29l10.95-3l-4.57-14.57L420.75,123.03z"/>
	<path fill-rule="evenodd" clip-rule="evenodd" fill="#F9865F" d="M428.22,141.41l4.85,14.19l10.1-2.92l-4.76-14.46L428.22,141.41z"
		/>
	<path fill-rule="evenodd" clip-rule="evenodd" fill="#FAD8B0" d="M434.44,160.74l5.48,13.29l9.14-2.84l-4.3-13.82L434.44,160.74z"
		/>
	<path fill-rule="evenodd" clip-rule="evenodd" fill="#7595EC" d="M257.44,220.63H150.88c-3.4,0-6.15-2.59-6.15-5.78v-13.53
		c0-3.19,2.76-5.78,6.15-5.78h106.55c3.4,0,6.15,2.59,6.15,5.78v13.53C263.59,218.04,260.84,220.63,257.44,220.63z"/>
	<path fill-rule="evenodd" clip-rule="evenodd" fill="#FFFFFF" d="M217.52,206.74h-58.09c-1.12,0-2.03-0.85-2.03-1.91
		c0-1.05,0.91-1.91,2.03-1.91h58.09c1.12,0,2.03,0.85,2.03,1.91C219.55,205.89,218.64,206.74,217.52,206.74z"/>
	<path fill-rule="evenodd" clip-rule="evenodd" fill="#2A1E17" d="M157.97,212.22h98.75c0.31,0,0.56-0.24,0.56-0.53
		c0-0.29-0.25-0.53-0.56-0.53h-98.75c-0.31,0-0.56,0.24-0.56,0.53C157.41,211.98,157.66,212.22,157.97,212.22z"/>
	<path fill-rule="evenodd" clip-rule="evenodd" fill="#91BA83" d="M109.13,150.07l-1.68-1.73l-5.57,4.77l1.68,1.73
		c0.71,0.73,1.91,0.78,2.69,0.11l2.75-2.36C109.79,151.93,109.84,150.79,109.13,150.07z"/>
	<path fill-rule="evenodd" clip-rule="evenodd" fill="#2A1E17" d="M99.43,138.88l-0.41,0.36l7.92,8.15c0.1,0.1,0.14,0.22,0.14,0.34
		c0,0.14-0.06,0.27-0.17,0.37l-5.48,4.7c-0.1,0.09-0.23,0.13-0.36,0.13c-0.15,0-0.29-0.05-0.4-0.17l-7.92-8.15
		c-0.1-0.1-0.14-0.22-0.14-0.34c0-0.14,0.06-0.27,0.17-0.37l5.48-4.7c0.1-0.09,0.23-0.13,0.36-0.13c0.15,0,0.29,0.05,0.4,0.16
		L99.43,138.88l0.41-0.36c-0.33-0.34-0.78-0.51-1.23-0.51c-0.4,0-0.8,0.14-1.12,0.41l-5.48,4.7c-0.36,0.31-0.54,0.73-0.54,1.15
		c0,0.37,0.14,0.75,0.43,1.05l7.92,8.15c0.33,0.34,0.78,0.51,1.23,0.51c0.4,0,0.8-0.14,1.12-0.41l5.48-4.7
		c0.36-0.31,0.54-0.73,0.54-1.15c0-0.37-0.14-0.75-0.43-1.05l-7.92-8.15L99.43,138.88z"/>
	<path fill-rule="evenodd" clip-rule="evenodd" fill="#FF6D66" d="M74.09,190.52h9.96v-8.54h-9.96V190.52z"/>
	<path fill-rule="evenodd" clip-rule="evenodd" fill="#2A1E17" d="M73.53,176.49v4.97h-5.39c-0.31,0-0.56,0.24-0.56,0.53
		c0,0.29,0.25,0.53,0.56,0.53h5.95c0.15,0,0.29-0.06,0.4-0.15c0.1-0.1,0.16-0.23,0.16-0.37v-5.49c0-0.29-0.25-0.53-0.56-0.53
		C73.78,175.96,73.53,176.2,73.53,176.49z"/>
	<path fill-rule="evenodd" clip-rule="evenodd" fill="#FAD8B0" d="M402.08,94.12h9.96v-8.54h-9.96V94.12z"/>
	<path fill-rule="evenodd" clip-rule="evenodd" fill="#2A1E17" d="M401.52,80.09v4.97h-5.39c-0.31,0-0.56,0.24-0.56,0.53
		c0,0.29,0.25,0.53,0.56,0.53h5.95c0.15,0,0.29-0.06,0.4-0.15c0.1-0.1,0.16-0.23,0.16-0.37v-5.49c0-0.29-0.25-0.53-0.56-0.53
		C401.77,79.57,401.52,79.8,401.52,80.09z"/>
	<path fill-rule="evenodd" clip-rule="evenodd" fill="#2A1E17" d="M132.85,137.86c-18.8-7.32-36.83-10.75-52.6-10.75
		c-16.17,0-29.97,3.61-39.76,10.4c-9.79,6.79-15.54,16.78-15.53,29.35c0,15.04,8.15,33.72,27.11,55.25
		c18.96,21.53,48.75,45.93,92.15,72.36c15.48,9.42,39,12.67,39.04,12.68c0.31,0.04,0.59-0.16,0.64-0.44
		c0.04-0.29-0.17-0.56-0.47-0.6c0,0-0.36-0.05-1.03-0.16c-4.67-0.74-24.3-4.28-37.56-12.37c-43.33-26.39-73.03-50.72-91.89-72.14
		c-18.86-21.42-26.86-39.91-26.85-54.58c0.01-12.27,5.54-21.89,15.07-28.51c9.53-6.62,23.1-10.2,39.09-10.2
		c15.59,0,33.48,3.4,52.17,10.68c0.29,0.11,0.61-0.02,0.73-0.28C133.27,138.28,133.13,137.98,132.85,137.86z"/>
	<path fill-rule="evenodd" clip-rule="evenodd" fill="#2A1E17" d="M40.65,141.05c0,1.53-1.32,2.76-2.94,2.76
		c-1.63,0-2.94-1.24-2.94-2.76c0-1.53,1.32-2.76,2.94-2.76C39.33,138.29,40.65,139.53,40.65,141.05z"/>
	<path fill-rule="evenodd" clip-rule="evenodd" fill="#2A1E17" d="M18.98,125.88l0.39,0.38l2.92-2.63l6.85,3.68l3.28,9.5
		l-10.02-3.94l-2.9-7.18L18.98,125.88l0.39,0.38L18.98,125.88l-0.52,0.19l2.98,7.39c0.05,0.13,0.17,0.24,0.31,0.3l11.37,4.47
		c0.2,0.08,0.43,0.04,0.6-0.1c0.16-0.14,0.22-0.35,0.15-0.55l-3.72-10.78c-0.04-0.12-0.13-0.23-0.25-0.3l-7.4-3.98
		c-0.22-0.12-0.49-0.09-0.67,0.08l-3.22,2.9c-0.16,0.15-0.22,0.37-0.14,0.57L18.98,125.88z"/>
	<path fill-rule="evenodd" clip-rule="evenodd" fill="#2A1E17" d="M22.2,122.98l-0.39-0.38l-2.78,2.51l-1.09-1.24l2.31-2.08
		l1.54,1.55L22.2,122.98l-0.39-0.38L22.2,122.98l0.41-0.36l-1.93-1.94c-0.1-0.1-0.24-0.16-0.39-0.17c-0.15,0-0.3,0.05-0.4,0.15
		l-3.09,2.78c-0.21,0.19-0.23,0.5-0.04,0.72l1.8,2.06c0.1,0.11,0.24,0.18,0.4,0.19c0.16,0.01,0.31-0.04,0.42-0.15l3.22-2.9
		c0.22-0.2,0.23-0.53,0.02-0.74L22.2,122.98z"/>
	<path fill-rule="evenodd" clip-rule="evenodd" fill="#2A1E17" d="M33.74,137.39l-7.39-7.62c-0.21-0.21-0.56-0.23-0.79-0.03
		c-0.23,0.19-0.25,0.53-0.04,0.74l7.39,7.62c0.21,0.22,0.56,0.23,0.79,0.03C33.93,137.94,33.95,137.6,33.74,137.39z"/>
	<path fill-rule="evenodd" clip-rule="evenodd" fill="#FFFFFF" d="M51.21,331.22l8.02,38.82c0.18,0.85,1.06,1.4,1.96,1.22l8.32-1.66
		c0.87-0.17,1.43-0.96,1.28-1.78l-7.15-39.08c-0.16-0.87-1.07-1.44-1.99-1.25l-9.19,1.92C51.6,329.59,51.04,330.39,51.21,331.22z"/>
	<path fill-rule="evenodd" clip-rule="evenodd" fill="#2A1E17" d="M51.21,331.22l-0.55,0.1l8.02,38.82c0.21,1,1.13,1.68,2.17,1.68
		c0.15,0,0.31-0.01,0.46-0.05l8.32-1.66c1.04-0.21,1.75-1.07,1.75-2.03c0-0.12-0.01-0.24-0.03-0.35l-7.15-39.08
		c-0.19-1.02-1.12-1.73-2.18-1.73c-0.16,0-0.32,0.02-0.48,0.05l-9.19,1.92c-1.03,0.22-1.73,1.07-1.73,2.03
		c0,0.13,0.01,0.26,0.04,0.4L51.21,331.22l0.55-0.1l-0.02-0.2c0-0.47,0.35-0.9,0.86-1l9.19-1.92l0.24-0.03
		c0.52,0,0.98,0.35,1.07,0.85l7.15,39.08l0.02,0.18c0,0.47-0.35,0.9-0.86,1l-8.32,1.66l-0.23,0.02c-0.51,0-0.97-0.34-1.07-0.83
		l-8.02-38.82L51.21,331.22z"/>
	<path fill-rule="evenodd" clip-rule="evenodd" fill="#FF6D66" d="M53.82,331.95l2.29,9.05l7.37-1.03l-1.58-9.81L53.82,331.95z"/>
	<path fill-rule="evenodd" clip-rule="evenodd" fill="#FAD8B0" d="M56.92,344.47l1.8,9.59l6.81-1.05l-1.71-9.75L56.92,344.47z"/>
	<path fill-rule="evenodd" clip-rule="evenodd" fill="#A0C6F4" d="M59.12,357.49l2.29,9.05l6.18-1.08l-1.48-9.3L59.12,357.49z"/>
	<path fill-rule="evenodd" clip-rule="evenodd" fill="#2A1E17" d="M280.93,428.5l0.14,0.51l33.4-8.4l0.92,2.45l-33.15,8.08
		l-0.77-2.78L280.93,428.5l0.14,0.51L280.93,428.5l-0.54,0.13l0.91,3.28c0.08,0.28,0.38,0.45,0.68,0.38l34.28-8.36
		c0.15-0.04,0.28-0.13,0.35-0.26c0.07-0.13,0.09-0.28,0.03-0.42l-1.29-3.45c-0.1-0.26-0.39-0.4-0.67-0.33l-33.9,8.52
		c-0.3,0.08-0.48,0.36-0.4,0.64L280.93,428.5z"/>
	<path fill-rule="evenodd" clip-rule="evenodd" fill="#2A1E17" d="M275.69,424.21l0.98,2.89c0.09,0.28,0.41,0.43,0.7,0.34
		c0.3-0.09,0.46-0.38,0.36-0.66l-0.98-2.89c-0.09-0.28-0.41-0.43-0.7-0.34C275.76,423.64,275.6,423.93,275.69,424.21z"/>
	<path fill-rule="evenodd" clip-rule="evenodd" fill="#2A1E17" d="M275.45,426.43l2.86-0.92c0.29-0.09,0.45-0.39,0.35-0.67
		c-0.1-0.27-0.42-0.42-0.71-0.33l-2.86,0.92c-0.29,0.09-0.45,0.39-0.35,0.67C274.84,426.38,275.16,426.53,275.45,426.43z"/>
	<path fill-rule="evenodd" clip-rule="evenodd" fill="#2A1E17" d="M274.04,435.25l1.85,5.45c0.09,0.28,0.41,0.43,0.7,0.34
		c0.3-0.09,0.46-0.38,0.36-0.66l-1.85-5.45c-0.09-0.28-0.41-0.43-0.7-0.34C274.11,434.67,273.95,434.97,274.04,435.25z"/>
	<path fill-rule="evenodd" clip-rule="evenodd" fill="#2A1E17" d="M273.18,439.05l5.09-1.52c0.3-0.09,0.46-0.38,0.36-0.66
		c-0.09-0.28-0.41-0.43-0.7-0.34l-5.09,1.52c-0.3,0.09-0.46,0.38-0.36,0.66C272.57,438.98,272.88,439.14,273.18,439.05z"/>
	<path fill-rule="evenodd" clip-rule="evenodd" fill="#2A1E17" d="M266.3,426.25l2.41,7.22c0.09,0.28,0.41,0.43,0.7,0.35
		c0.3-0.09,0.46-0.38,0.37-0.66l-2.41-7.22c-0.09-0.28-0.41-0.43-0.7-0.35C266.37,425.67,266.2,425.97,266.3,426.25z"/>
	<path fill-rule="evenodd" clip-rule="evenodd" fill="#2A1E17" d="M264.61,431.09l7.14-2.14c0.3-0.09,0.46-0.38,0.36-0.66
		c-0.09-0.28-0.41-0.43-0.7-0.34l-7.14,2.14c-0.3,0.09-0.46,0.39-0.36,0.66C264,431.02,264.32,431.18,264.61,431.09z"/>
	<path fill-rule="evenodd" clip-rule="evenodd" fill="#2A1E17" d="M33.73,82.66l0.15-0.32l-21.14-8.96l0.63-1.64l20.86,9.02
		l-0.86,1.75L33.73,82.66l0.15-0.32L33.73,82.66l0.34,0.15l1.01-2.07c0.09-0.18,0-0.39-0.18-0.47l-21.58-9.33l-0.3-0.01l-0.21,0.21
		l-0.89,2.31c-0.07,0.17,0.02,0.37,0.2,0.44l21.45,9.09c0.19,0.08,0.41,0,0.5-0.17L33.73,82.66z"/>
	<path fill-rule="evenodd" clip-rule="evenodd" fill="#2A1E17" d="M34.51,86.98l0.8-1.89c0.08-0.18-0.02-0.39-0.21-0.46
		c-0.19-0.07-0.41,0.02-0.49,0.2l-0.8,1.89c-0.08,0.18,0.02,0.39,0.21,0.46C34.21,87.25,34.43,87.16,34.51,86.98z"/>
	<path fill-rule="evenodd" clip-rule="evenodd" fill="#2A1E17" d="M35.64,85.92l-1.9-0.66c-0.2-0.07-0.41,0.03-0.48,0.21
		c-0.07,0.18,0.03,0.39,0.22,0.45l1.9,0.66c0.19,0.07,0.41-0.03,0.48-0.21C35.93,86.19,35.83,85.98,35.64,85.92z"/>
	<path fill-rule="evenodd" clip-rule="evenodd" fill="#2A1E17" d="M40.36,81.9l1.51-3.57c0.08-0.18-0.02-0.39-0.21-0.46
		c-0.19-0.07-0.41,0.02-0.49,0.2l-1.51,3.57c-0.08,0.18,0.02,0.39,0.21,0.46C40.06,82.17,40.28,82.08,40.36,81.9z"/>
	<path fill-rule="evenodd" clip-rule="evenodd" fill="#2A1E17" d="M42.52,80.27l-3.33-1.24c-0.19-0.07-0.41,0.02-0.49,0.2
		c-0.08,0.18,0.02,0.39,0.21,0.46l3.33,1.24c0.19,0.07,0.41-0.02,0.49-0.2C42.81,80.55,42.72,80.35,42.52,80.27z"/>
	<path fill-rule="evenodd" clip-rule="evenodd" fill="#2A1E17" d="M40.31,89.66l2.02-4.71c0.08-0.18-0.02-0.39-0.21-0.46
		c-0.19-0.07-0.41,0.01-0.49,0.2l-2.02,4.71c-0.08,0.18,0.02,0.39,0.21,0.46C40.01,89.93,40.23,89.85,40.31,89.66z"/>
	<path fill-rule="evenodd" clip-rule="evenodd" fill="#2A1E17" d="M43.37,87.82l-4.67-1.74c-0.19-0.07-0.41,0.02-0.49,0.2
		s0.02,0.39,0.21,0.46l4.67,1.74c0.19,0.07,0.41-0.02,0.49-0.2C43.66,88.1,43.57,87.9,43.37,87.82z"/>
	<path fill-rule="evenodd" clip-rule="evenodd" fill="#FAD8B0" d="M113.91,252.8c-15.12-10.23-29.98-26.11-23.46-42.43
		c0,0,10.43-6.53,26.94,1.63c16.51,8.16,16.51,8.16,16.51,8.16L113.91,252.8z"/>
	<path fill-rule="evenodd" clip-rule="evenodd" fill="#FFFFFF" d="M107.05,320.91c-6.8-3.02-35.86-17.22-41.02-41.49
		c-4.47-20.97,12.61-49.24,21.16-61.73c-0.55,16.58,17.18,30.61,25.73,36.39c8.66,5.86,15.04,8.72,23.83,11.82L107.05,320.91z"/>
	<path fill-rule="evenodd" clip-rule="evenodd" fill="#FAD8B0" d="M90.44,210.37c0,0-32.15,40.8-26.07,69.36
		c6.08,28.56,43.45,43.25,43.45,43.25l31.28-57.94c-9.78-3.37-16.13-6.11-25.2-12.24C98.78,242.58,83.93,226.69,90.44,210.37z
		 M85.89,222.62c1.85,11.02,10.81,22.44,26.05,32.74c8.23,5.56,14.42,8.47,22.46,11.39l-28.11,52.06c-8.56-4-33.9-17.56-38.62-39.71
		C63.75,260.7,77.05,236.28,85.89,222.62z"/>
	<path fill-rule="evenodd" clip-rule="evenodd" fill="#2A1E17" d="M81.43,234.13c0.01,0.04,0.48,4.19,3.17,9.46
		c2.69,5.27,7.6,11.66,16.45,16.11c0.27,0.14,0.61,0.04,0.76-0.22c0.15-0.26,0.04-0.58-0.23-0.71c-8.6-4.33-13.35-10.52-15.97-15.64
		c-1.31-2.56-2.07-4.85-2.51-6.5c-0.22-0.82-0.36-1.48-0.44-1.94c-0.04-0.23-0.07-0.4-0.09-0.52c-0.02-0.12-0.02-0.17-0.02-0.17
		c-0.03-0.29-0.31-0.5-0.62-0.47C81.62,233.58,81.4,233.84,81.43,234.13z"/>
	<path fill-rule="evenodd" clip-rule="evenodd" fill="#2A1E17" d="M110.4,265.57l17.45,8.78c0.27,0.14,0.61,0.04,0.76-0.22
		c0.15-0.26,0.04-0.58-0.23-0.71l-17.45-8.78c-0.27-0.14-0.61-0.04-0.76,0.22C110.02,265.11,110.13,265.43,110.4,265.57z"/>
	<path fill-rule="evenodd" clip-rule="evenodd" fill="#2A1E17" d="M83.97,257.71c0.03,0.07,5.73,11.9,23.97,19.58
		c0.28,0.12,0.62,0,0.74-0.27c0.13-0.27,0-0.58-0.28-0.7c-8.96-3.77-14.82-8.55-18.43-12.38c-1.81-1.91-3.06-3.59-3.85-4.79
		c-0.4-0.6-0.68-1.07-0.86-1.4c-0.09-0.16-0.16-0.29-0.2-0.37l-0.05-0.09l-0.01-0.03c-0.13-0.26-0.46-0.38-0.74-0.26
		C83.97,257.13,83.84,257.44,83.97,257.71z"/>
	<path fill-rule="evenodd" clip-rule="evenodd" fill="#2A1E17" d="M69.58,259.27c0,0.03,0.16,3.14,1.43,6.8
		c1.27,3.65,3.66,7.89,8.23,10.04c0.28,0.13,0.61,0.02,0.75-0.24c0.14-0.26,0.03-0.58-0.25-0.71c-4.16-1.95-6.44-5.9-7.66-9.42
		c-0.61-1.76-0.96-3.39-1.15-4.59c-0.1-0.6-0.15-1.08-0.19-1.42c-0.02-0.17-0.03-0.3-0.03-0.38l-0.01-0.13
		c-0.01-0.29-0.28-0.52-0.59-0.5C69.81,258.73,69.57,258.98,69.58,259.27z"/>
	<path fill-rule="evenodd" clip-rule="evenodd" fill="#2A1E17" d="M89.53,216.47c0,0.02-0.02,0.23-0.02,0.64
		c-0.01,3.17,1.36,17.83,24.03,36.1c0.24,0.19,0.59,0.16,0.79-0.06c0.2-0.22,0.18-0.55-0.06-0.74
		c-22.45-18.11-23.63-32.4-23.64-35.3c0-0.18,0-0.32,0.01-0.41l0.01-0.1l0-0.02c0.03-0.29-0.2-0.55-0.51-0.57
		C89.84,215.96,89.56,216.18,89.53,216.47z"/>
	<path fill-rule="evenodd" clip-rule="evenodd" fill="#2A1E17" d="M99.49,219.97l0.01,0c0.04,0,0.14-0.01,0.32-0.01
		c1.61,0,8.97,0.41,19.24,7.52c0.25,0.17,0.6,0.12,0.78-0.11c0.18-0.23,0.13-0.56-0.12-0.74c-10.46-7.24-18.09-7.72-19.91-7.72
		c-0.26,0-0.4,0.01-0.41,0.01c-0.31,0.02-0.54,0.28-0.52,0.57C98.91,219.77,99.18,219.99,99.49,219.97"/>
	<path fill-rule="evenodd" clip-rule="evenodd" fill="#2A1E17" d="M60.77,269.81c-0.04,0.64-0.08,1.42-0.08,2.32
		c0,5.1,1.05,14.05,7.17,23.82c6.12,9.77,17.32,20.34,37.52,28.69c0.28,0.12,0.61,0,0.74-0.27c0.13-0.27,0-0.58-0.29-0.69
		c-20.03-8.29-31.01-18.7-37.01-28.26c-6-9.57-7.02-18.31-7.02-23.28c0-0.87,0.03-1.63,0.07-2.25c0.02-0.29-0.22-0.54-0.53-0.56
		C61.06,269.3,60.79,269.52,60.77,269.81z"/>
	<path fill-rule="evenodd" clip-rule="evenodd" fill="#91BA83" d="M340.82,254.06L322.25,289c0,0,12.59,4.35,2.75,17.91
		c0,0,23.27,9.06,38.5-14.48C378.73,268.89,340.82,254.06,340.82,254.06z"/>
	<path fill-rule="evenodd" clip-rule="evenodd" fill="#FFFFFF" d="M298.33,360.83c-9.39,0-19.31-3.6-29.49-10.71l34.73-54.02
		l20.66,12.21l0.13,0.05c0.19,0.08,4.79,1.84,11.28,1.84h0c5.22,0,11.8-1.15,18.22-5.41l-25.39,40.78
		C328.41,345.65,317.48,360.83,298.33,360.83L298.33,360.83z"/>
	<path fill-rule="evenodd" clip-rule="evenodd" fill="#96BD89" d="M363.5,292.43c-8.6,13.3-19.77,16.19-27.87,16.19
		c-6.23,0-10.64-1.71-10.64-1.71l-21.99-13l-36.4,56.62c12.19,8.82,22.82,11.89,31.72,11.89c20.34,0,31.59-16.04,31.59-16.04
		L363.5,292.43z M304.12,298.29l19.08,11.28l0.24,0.14l0.26,0.1c0.21,0.08,5.1,1.96,11.92,1.96c3.98,0,8.72-0.63,13.59-2.67
		l-22.15,35.59c-0.72,0.99-11.01,14.56-28.74,14.56c-8.65,0-17.81-3.21-27.25-9.55L304.12,298.29z"/>
	<path fill-rule="evenodd" clip-rule="evenodd" fill="#2A1E17" d="M322.07,289.49l0.07,0.02c0.35,0.13,2.04,0.78,3.61,2.08
		c1.57,1.31,3.01,3.21,3.01,5.92c0,2.32-1.06,5.31-4.19,9.06c-0.19,0.23-0.15,0.56,0.1,0.74c0.24,0.18,0.6,0.14,0.79-0.09
		c3.22-3.87,4.43-7.08,4.43-9.71c0-3.29-1.89-5.58-3.73-6.99c-1.85-1.42-3.66-2.02-3.7-2.03c-0.29-0.1-0.61,0.05-0.72,0.32
		C321.62,289.1,321.77,289.4,322.07,289.49z"/>
	<path fill-rule="evenodd" clip-rule="evenodd" fill="#2A1E17" d="M302.2,293.08c0.01,0.01,4.71,4.05,10.73,8.1
		c3.01,2.02,6.35,4.05,9.62,5.58c3.27,1.53,6.46,2.57,9.23,2.57l0.11,0c5.26-0.06,11.01-0.67,16.37-2.77
		c5.36-2.09,10.35-5.69,14.02-11.64c0.16-0.25,0.06-0.57-0.2-0.72c-0.27-0.15-0.61-0.06-0.77,0.19c-3.55,5.75-8.3,9.17-13.48,11.19
		c-5.17,2.02-10.77,2.63-15.95,2.68l-0.1,0c-2.46,0-5.54-0.97-8.72-2.46c-4.78-2.24-9.82-5.62-13.65-8.44
		c-1.91-1.41-3.53-2.68-4.66-3.6c-0.57-0.46-1.01-0.83-1.32-1.08c-0.31-0.25-0.47-0.39-0.47-0.39c-0.23-0.2-0.58-0.18-0.79,0.03
		C301.96,292.55,301.98,292.88,302.2,293.08z"/>
	<path fill-rule="evenodd" clip-rule="evenodd" fill="#2A1E17" d="M304.52,314.07c0.05,0.03,9.71,8.13,21.9,8.15
		c1.96,0,3.98-0.21,6.03-0.7c0.3-0.07,0.48-0.36,0.4-0.64c-0.08-0.28-0.38-0.45-0.68-0.38c-1.96,0.47-3.88,0.67-5.75,0.67
		c-5.82,0-11.13-1.96-14.97-3.94c-1.92-0.99-3.47-1.98-4.54-2.72c-0.54-0.37-0.95-0.68-1.23-0.89c-0.14-0.11-0.25-0.19-0.32-0.25
		l-0.1-0.08c-0.23-0.19-0.59-0.17-0.79,0.04C304.27,313.54,304.29,313.88,304.52,314.07z"/>
	<path fill-rule="evenodd" clip-rule="evenodd" fill="#2A1E17" d="M318.16,330.23c0.06,0.04,3.29,2.31,8.45,2.31
		c2.44,0,5.3-0.51,8.43-2c0.28-0.13,0.39-0.45,0.25-0.71c-0.14-0.26-0.48-0.36-0.75-0.23c-2.97,1.41-5.65,1.89-7.92,1.89
		c-2.4,0-4.36-0.53-5.71-1.06c-0.68-0.26-1.2-0.53-1.55-0.72c-0.18-0.1-0.31-0.18-0.4-0.23l-0.1-0.06l-0.03-0.02
		c-0.25-0.17-0.6-0.13-0.79,0.11C317.86,329.72,317.91,330.05,318.16,330.23z"/>
	<path fill-rule="evenodd" clip-rule="evenodd" fill="#2A1E17" d="M286.85,336.83c0.05,0.04,9.03,8.42,24.15,8.43
		c4.98,0,10.62-0.91,16.81-3.34c0.29-0.11,0.42-0.42,0.3-0.69c-0.12-0.27-0.45-0.4-0.73-0.28c-6.05,2.37-11.54,3.25-16.38,3.25
		c-7.33,0-13.18-2.04-17.19-4.08c-2.01-1.02-3.55-2.04-4.6-2.8c-0.52-0.38-0.92-0.7-1.18-0.92c-0.13-0.11-0.23-0.19-0.29-0.25
		l-0.09-0.08c-0.22-0.21-0.57-0.2-0.79,0C286.63,336.29,286.63,336.63,286.85,336.83z"/>
	<path fill-rule="evenodd" clip-rule="evenodd" fill="#2A1E17" d="M295.45,322.61c0.01,0,1.61,1.08,3.72,2.33
		c2.12,1.25,4.73,2.68,6.81,3.4c0.29,0.1,0.61-0.04,0.72-0.31c0.11-0.27-0.04-0.58-0.34-0.68c-1.92-0.66-4.51-2.06-6.59-3.3
		c-1.04-0.62-1.96-1.19-2.62-1.62c-0.66-0.42-1.05-0.69-1.05-0.69c-0.25-0.17-0.6-0.11-0.78,0.12
		C295.14,322.11,295.2,322.44,295.45,322.61z"/>
	<path fill-rule="evenodd" clip-rule="evenodd" fill="#2A1E17" d="M343.83,264.7l0.03,0.01c0.37,0.12,3.88,1.33,7.48,4.6
		c3.6,3.28,7.31,8.6,8.13,17.06c0.03,0.29,0.3,0.5,0.61,0.48c0.31-0.03,0.54-0.28,0.51-0.57c-0.87-8.99-4.95-14.66-8.83-18.05
		c-3.88-3.39-7.53-4.51-7.58-4.53c-0.29-0.09-0.61,0.06-0.71,0.34C343.38,264.31,343.54,264.61,343.83,264.7z"/>
	<path fill-rule="evenodd" clip-rule="evenodd" fill="#2A1E17" d="M350.73,286.39l0.02,0.02c0.18,0.27,1.83,2.91,1.83,6.6
		c-0.01,3.33-1.3,7.54-6.3,11.85c-0.23,0.2-0.24,0.53-0.04,0.74c0.21,0.21,0.56,0.23,0.79,0.03c5.21-4.47,6.67-9.03,6.66-12.62
		c0-4.26-1.99-7.15-2.02-7.2c-0.17-0.24-0.52-0.31-0.78-0.16C350.63,285.82,350.56,286.15,350.73,286.39z"/>
	<path fill-rule="evenodd" clip-rule="evenodd" fill="#2A1E17" d="M267.57,353.6c0.05,0.02,14.4,11.62,31.78,11.63
		c10.16,0.01,21.34-4.03,31.04-16.62c0.18-0.24,0.13-0.56-0.13-0.74c-0.25-0.17-0.6-0.12-0.78,0.12
		c-9.54,12.35-20.29,16.17-30.13,16.18c-8.42,0-16.2-2.84-21.86-5.69c-2.83-1.43-5.14-2.85-6.73-3.92c-0.8-0.53-1.41-0.98-1.83-1.29
		c-0.21-0.16-0.37-0.28-0.47-0.36c-0.11-0.08-0.16-0.12-0.16-0.12c-0.23-0.19-0.59-0.16-0.79,0.06S267.34,353.41,267.57,353.6"/>
	<path fill-rule="evenodd" clip-rule="evenodd" fill="#FF6D66" d="M8.6,243.68h8.38c0.31,0,0.56-0.24,0.56-0.53
		c0-0.29-0.25-0.53-0.56-0.53H8.6c-0.31,0-0.56,0.24-0.56,0.53C8.04,243.44,8.29,243.68,8.6,243.68z"/>
	<path fill-rule="evenodd" clip-rule="evenodd" fill="#FF6D66" d="M475.19,149.08h8.38c0.31,0,0.56-0.24,0.56-0.53
		c0-0.29-0.25-0.53-0.56-0.53h-8.38c-0.31,0-0.56,0.23-0.56,0.53C474.63,148.84,474.88,149.08,475.19,149.08z"/>
	<path fill-rule="evenodd" clip-rule="evenodd" fill="#FAD8B0" d="M250.57,95.11h8.38v-1.05h-8.38V95.11z"/>
	<path fill-rule="evenodd" clip-rule="evenodd" fill="#FAD8B0" d="M491.08,189.86l8.24,1.39l0.2-1.04l-8.24-1.39"/>
	<path fill-rule="evenodd" clip-rule="evenodd" fill="#A0C6F4" d="M162.16,386.13h8.38c0.31,0,0.56-0.24,0.56-0.53
		c0-0.29-0.25-0.53-0.56-0.53h-8.38c-0.31,0-0.56,0.24-0.56,0.53C161.6,385.89,161.85,386.13,162.16,386.13z"/>
	<path fill-rule="evenodd" clip-rule="evenodd" fill="#91BA83" d="M512,287.56c0,1.44-1.24,2.61-2.77,2.61
		c-1.53,0-2.78-1.17-2.78-2.61c0-1.44,1.24-2.61,2.78-2.61C510.76,284.95,512,286.12,512,287.56z"/>
</g>
</svg>
