<?xml version="1.0" encoding="UTF-8"?>
<svg xmlns="http://www.w3.org/2000/svg" xmlns:xlink="http://www.w3.org/1999/xlink" width="138px" height="38px" viewBox="0 0 135 38" version="1.1">
<g id="surface1">
<path style=" stroke:none;fill-rule:nonzero;fill:rgb(100%,78.823529%,43.529412%);fill-opacity:1;" d="M 93.835938 16.3125 C 93.835938 20.570312 90.402344 24.019531 86.164062 24.019531 C 81.929688 24.019531 78.496094 20.570312 78.496094 16.3125 C 78.496094 12.054688 81.929688 8.605469 86.164062 8.605469 C 90.402344 8.605469 93.835938 12.054688 93.835938 16.3125 Z M 93.835938 16.3125 "/>
<path style=" stroke:none;fill-rule:nonzero;fill:rgb(0%,0%,0%);fill-opacity:1;" d="M 43.6875 29.050781 C 41.777344 29.050781 40.246094 28.78125 39.113281 28.253906 C 37.980469 27.730469 37.171875 26.808594 36.648438 25.488281 C 36.144531 24.167969 35.890625 22.339844 35.890625 20.003906 C 35.890625 17.617188 36.125 15.769531 36.613281 14.449219 C 37.097656 13.128906 37.890625 12.207031 39.023438 11.679688 C 40.140625 11.15625 41.671875 10.882812 43.578125 10.882812 C 45.269531 10.882812 46.636719 11.066406 47.644531 11.390625 C 48.671875 11.734375 49.410156 12.351562 49.894531 13.21875 C 50.363281 14.085938 50.597656 15.316406 50.597656 16.910156 C 50.597656 18.03125 50.382812 18.9375 49.933594 19.605469 C 49.5 20.277344 48.851562 20.765625 48.042969 21.054688 C 47.230469 21.34375 46.242188 21.488281 45.125 21.488281 L 39.960938 21.488281 C 39.996094 22.59375 40.15625 23.480469 40.410156 24.128906 C 40.660156 24.78125 41.128906 25.25 41.796875 25.542969 C 42.460938 25.832031 43.453125 25.976562 44.746094 25.976562 L 50.09375 25.976562 L 50.09375 28.402344 C 49.195312 28.582031 48.238281 28.726562 47.230469 28.871094 C 46.222656 29.015625 45.054688 29.050781 43.6875 29.050781 Z M 39.925781 19.007812 L 44.746094 19.007812 C 45.523438 19.007812 46.078125 18.863281 46.441406 18.558594 C 46.800781 18.25 46.980469 17.707031 46.980469 16.910156 C 46.980469 16.132812 46.871094 15.535156 46.65625 15.082031 C 46.441406 14.648438 46.078125 14.324219 45.574219 14.140625 C 45.070312 13.960938 44.40625 13.851562 43.597656 13.851562 C 42.679688 13.851562 41.941406 13.996094 41.417969 14.285156 C 40.894531 14.574219 40.519531 15.082031 40.285156 15.824219 C 40.050781 16.566406 39.925781 17.632812 39.925781 19.007812 Z M 39.925781 19.007812 "/>
<path style=" stroke:none;fill-rule:nonzero;fill:rgb(0%,0%,0%);fill-opacity:1;" d="M 59.507812 28.960938 C 58.339844 28.960938 57.367188 28.761719 56.59375 28.363281 C 55.816406 27.964844 55.222656 27.351562 54.847656 26.5 C 54.46875 25.667969 54.269531 24.546875 54.269531 23.152344 L 54.269531 3.574219 L 58.355469 3.574219 L 58.355469 22.59375 C 58.355469 23.386719 58.445312 24.003906 58.609375 24.457031 C 58.769531 24.90625 59.003906 25.214844 59.308594 25.398438 C 59.617188 25.578125 59.992188 25.703125 60.425781 25.777344 L 61.921875 25.976562 L 61.921875 28.960938 Z M 59.507812 28.960938 "/>
<path style=" stroke:none;fill-rule:nonzero;fill:rgb(0%,0%,0%);fill-opacity:1;" d="M 71.585938 29.050781 C 69.679688 29.050781 68.148438 28.78125 67.015625 28.253906 C 65.878906 27.730469 65.070312 26.808594 64.546875 25.488281 C 64.042969 24.167969 63.792969 22.339844 63.792969 20.003906 C 63.792969 17.617188 64.027344 15.769531 64.511719 14.449219 C 64.996094 13.128906 65.789062 12.207031 66.925781 11.679688 C 68.039062 11.15625 69.570312 10.882812 71.476562 10.882812 C 73.171875 10.882812 74.539062 11.066406 75.5625 11.390625 C 76.589844 11.734375 77.328125 12.351562 77.8125 13.21875 C 78.28125 14.085938 78.515625 15.316406 78.515625 16.910156 C 78.515625 18.03125 78.300781 18.9375 77.851562 19.605469 C 77.417969 20.277344 76.769531 20.765625 75.960938 21.054688 C 75.132812 21.34375 74.160156 21.488281 73.042969 21.488281 L 67.859375 21.488281 C 67.894531 22.59375 68.058594 23.480469 68.308594 24.128906 C 68.5625 24.78125 69.03125 25.25 69.695312 25.542969 C 70.363281 25.832031 71.351562 25.976562 72.648438 25.976562 L 77.992188 25.976562 L 77.992188 28.402344 C 77.09375 28.582031 76.140625 28.726562 75.132812 28.871094 C 74.125 29.015625 72.953125 29.050781 71.585938 29.050781 Z M 67.824219 19.007812 L 72.648438 19.007812 C 73.421875 19.007812 73.980469 18.863281 74.359375 18.558594 C 74.71875 18.25 74.898438 17.707031 74.898438 16.910156 C 74.898438 16.132812 74.789062 15.535156 74.574219 15.082031 C 74.359375 14.648438 73.996094 14.324219 73.476562 14.140625 C 72.972656 13.960938 72.304688 13.851562 71.496094 13.851562 C 70.578125 13.851562 69.839844 13.996094 69.316406 14.285156 C 68.796875 14.574219 68.417969 15.082031 68.183594 15.824219 C 67.933594 16.566406 67.824219 17.632812 67.824219 19.007812 Z M 67.824219 19.007812 "/>
<path style=" stroke:none;fill-rule:nonzero;fill:rgb(0%,0%,0%);fill-opacity:1;" d="M 86.722656 28.890625 L 80.550781 11.101562 L 84.742188 11.101562 L 89.171875 25.070312 L 93.691406 11.101562 L 97.847656 11.101562 L 91.402344 28.890625 Z M 86.722656 28.890625 "/>
<path style=" stroke:none;fill-rule:nonzero;fill:rgb(0%,0%,0%);fill-opacity:1;" d="M 107.820312 29.050781 C 106.433594 29.050781 105.226562 28.90625 104.21875 28.617188 C 103.210938 28.328125 102.382812 27.839844 101.734375 27.152344 C 101.089844 26.464844 100.621094 25.542969 100.3125 24.367188 C 100.007812 23.1875 99.847656 21.722656 99.847656 19.949219 C 99.847656 18.121094 99.988281 16.601562 100.3125 15.425781 C 100.621094 14.25 101.105469 13.308594 101.753906 12.640625 C 102.402344 11.96875 103.230469 11.5 104.238281 11.246094 C 105.246094 10.992188 106.433594 10.867188 107.800781 10.867188 C 109.207031 10.867188 110.410156 11.011719 111.4375 11.28125 C 112.464844 11.554688 113.273438 12.023438 113.921875 12.695312 C 114.570312 13.363281 115.039062 14.285156 115.34375 15.460938 C 115.648438 16.636719 115.8125 18.140625 115.8125 19.949219 C 115.8125 21.742188 115.667969 23.226562 115.363281 24.417969 C 115.054688 25.597656 114.605469 26.535156 113.957031 27.207031 C 113.308594 27.875 112.5 28.363281 111.472656 28.636719 C 110.464844 28.90625 109.261719 29.050781 107.820312 29.050781 Z M 107.820312 25.777344 C 108.503906 25.777344 109.078125 25.722656 109.566406 25.597656 C 110.050781 25.46875 110.449219 25.214844 110.773438 24.835938 C 111.097656 24.457031 111.328125 23.859375 111.472656 23.082031 C 111.617188 22.300781 111.707031 21.253906 111.707031 19.949219 C 111.707031 18.664062 111.636719 17.632812 111.472656 16.855469 C 111.3125 16.078125 111.078125 15.5 110.773438 15.117188 C 110.449219 14.738281 110.050781 14.484375 109.566406 14.359375 C 109.078125 14.230469 108.503906 14.175781 107.820312 14.175781 C 107.152344 14.175781 106.597656 14.230469 106.109375 14.359375 C 105.625 14.484375 105.226562 14.738281 104.921875 15.117188 C 104.617188 15.5 104.382812 16.097656 104.21875 16.855469 C 104.058594 17.617188 103.96875 18.664062 103.96875 19.949219 C 103.96875 21.253906 104.058594 22.300781 104.21875 23.082031 C 104.382812 23.859375 104.617188 24.457031 104.921875 24.835938 C 105.226562 25.214844 105.625 25.46875 106.109375 25.597656 C 106.597656 25.703125 107.152344 25.777344 107.820312 25.777344 Z M 107.820312 25.777344 "/>
<path style=" stroke:none;fill-rule:nonzero;fill:rgb(0%,0%,0%);fill-opacity:1;" d="M 119.449219 28.890625 L 119.449219 3.574219 L 123.535156 3.574219 L 123.535156 17.617188 L 125.785156 17.617188 L 130.210938 11.121094 L 134.40625 11.121094 L 128.789062 19.480469 L 134.855469 28.90625 L 130.660156 28.90625 L 125.710938 21.308594 L 123.535156 21.308594 L 123.535156 28.90625 L 119.449219 28.90625 Z M 119.449219 28.890625 "/>
<path style=" stroke:none;fill-rule:nonzero;fill:rgb(100%,78.823529%,43.529412%);fill-opacity:1;" d="M 31.355469 17.90625 C 31.355469 26.359375 24.539062 33.214844 16.128906 33.214844 C 7.71875 33.214844 0.898438 26.359375 0.898438 17.90625 C 0.898438 9.449219 7.71875 2.597656 16.128906 2.597656 C 24.539062 2.597656 31.355469 9.449219 31.355469 17.90625 Z M 31.355469 17.90625 "/>
<path style=" stroke:none;fill-rule:nonzero;fill:rgb(0%,0%,0%);fill-opacity:1;" d="M 14.328125 28.109375 C 13.894531 28.109375 13.410156 28.074219 12.871094 27.984375 C 12.328125 27.894531 11.824219 27.710938 11.320312 27.441406 C 10.816406 27.171875 10.421875 26.734375 10.117188 26.15625 C 9.808594 25.597656 9.648438 24.816406 9.648438 23.824219 L 9.648438 12.132812 C 9.648438 11.265625 9.773438 10.558594 10.027344 9.980469 C 10.277344 9.402344 10.621094 8.949219 11.050781 8.605469 C 11.484375 8.277344 11.953125 8.042969 12.472656 7.898438 C 12.996094 7.753906 13.5 7.699219 14.023438 7.699219 C 15.300781 7.699219 16.453125 7.71875 17.460938 7.753906 C 18.484375 7.789062 19.421875 7.828125 20.269531 7.863281 C 21.113281 7.898438 21.90625 7.953125 22.625 8.007812 L 22.625 10.828125 L 15.011719 10.828125 C 14.398438 10.828125 13.894531 10.992188 13.554688 11.300781 C 13.210938 11.609375 13.015625 12.097656 13.015625 12.75 L 13.015625 16.347656 L 21.402344 16.546875 L 21.402344 19.207031 L 13.015625 19.40625 L 13.015625 22.898438 C 13.015625 23.441406 13.105469 23.875 13.300781 24.167969 C 13.5 24.457031 13.734375 24.65625 14.039062 24.761719 C 14.347656 24.871094 14.652344 24.925781 14.976562 24.925781 L 22.625 24.925781 L 22.625 27.75 C 21.816406 27.820312 20.953125 27.875 19.996094 27.929688 C 19.042969 27.964844 18.089844 28.003906 17.117188 28.039062 C 16.144531 28.074219 15.210938 28.09375 14.328125 28.109375 Z M 14.328125 28.109375 "/>
</g>
</svg>
