<?xml version="1.0" encoding="UTF-8"?>
<svg xmlns="http://www.w3.org/2000/svg" xmlns:xlink="http://www.w3.org/1999/xlink" width="138px" height="35px" viewBox="0 0 134 35" version="1.1">
<defs>
<filter id="alpha" filterUnits="objectBoundingBox" x="0%" y="0%" width="100%" height="100%">
  <feColorMatrix type="matrix" in="SourceGraphic" values="0 0 0 0 1 0 0 0 0 1 0 0 0 0 1 0 0 0 1 0"/>
</filter>
<mask id="mask0">
  <g filter="url(#alpha)">
<rect x="0" y="0" width="134" height="35" style="fill:rgb(0%,0%,0%);fill-opacity:0.301961;stroke:none;"/>
  </g>
</mask>
<clipPath id="clip1">
  <rect x="0" y="0" width="134" height="35"/>
</clipPath>
<g id="surface5" clip-path="url(#clip1)">
<path style=" stroke:none;fill-rule:nonzero;fill:rgb(13.333333%,12.156863%,12.54902%);fill-opacity:1;" d="M 21.070312 7.097656 C 21.945312 6.027344 22.914062 5.347656 23.886719 5.445312 C 24.859375 5.640625 25.441406 6.515625 25.34375 7.390625 L 25.34375 7.484375 L 25.730469 7 C 25.925781 6.804688 26.121094 6.515625 26.21875 6.222656 C 26.605469 5.347656 26.316406 4.375 25.539062 3.890625 C 25.34375 3.792969 25.246094 3.792969 25.050781 3.695312 C 23.59375 3.597656 22.234375 5.054688 21.070312 7.097656 Z M 21.070312 7.097656 "/>
</g>
<mask id="mask1">
  <g filter="url(#alpha)">
<rect x="0" y="0" width="134" height="35" style="fill:rgb(0%,0%,0%);fill-opacity:0.6;stroke:none;"/>
  </g>
</mask>
<clipPath id="clip2">
  <rect x="0" y="0" width="134" height="35"/>
</clipPath>
<g id="surface8" clip-path="url(#clip2)">
<path style=" stroke:none;fill-rule:nonzero;fill:rgb(100%,100%,100%);fill-opacity:1;" d="M 2.136719 12.054688 C 2.234375 12.25 2.234375 12.445312 2.332031 12.640625 Z M 2.136719 12.054688 "/>
</g>
<mask id="mask2">
  <g filter="url(#alpha)">
<rect x="0" y="0" width="134" height="35" style="fill:rgb(0%,0%,0%);fill-opacity:0.301961;stroke:none;"/>
  </g>
</mask>
<clipPath id="clip3">
  <rect x="0" y="0" width="134" height="35"/>
</clipPath>
<g id="surface11" clip-path="url(#clip3)">
<path style=" stroke:none;fill-rule:nonzero;fill:rgb(13.333333%,12.156863%,12.54902%);fill-opacity:1;" d="M 3.882812 5.25 C 6.796875 2.820312 12.332031 5.054688 13.496094 11.082031 C 13.984375 12.929688 13.789062 14.972656 12.914062 16.722656 C 14.273438 15.652344 15.050781 13.515625 14.46875 9.917969 C 13.109375 3.207031 6.3125 1.265625 3.882812 5.25 Z M 3.882812 5.25 "/>
</g>
<clipPath id="clip4">
  <path d="M 11 21 L 15 21 L 15 26 L 11 26 Z M 11 21 "/>
</clipPath>
<clipPath id="clip5">
  <path d="M 9.613281 20.515625 C 9.613281 23.527344 9.128906 26.832031 12.136719 26.832031 C 15.148438 26.832031 15.535156 24.984375 15.535156 21.972656 Z M 9.613281 20.515625 "/>
</clipPath>
<clipPath id="clip6">
  <path d="M 13 22 L 15 22 L 15 24 L 13 24 Z M 13 22 "/>
</clipPath>
<clipPath id="clip7">
  <path d="M 9.613281 20.515625 C 9.613281 23.527344 9.128906 26.832031 12.136719 26.832031 C 15.148438 26.832031 15.535156 24.984375 15.535156 21.972656 Z M 9.613281 20.515625 "/>
</clipPath>
<clipPath id="clip8">
  <path d="M 11 20 L 16 20 L 16 26 L 11 26 Z M 11 20 "/>
</clipPath>
<clipPath id="clip9">
  <path d="M 9.613281 20.515625 C 9.613281 23.527344 9.128906 26.832031 12.136719 26.832031 C 15.148438 26.832031 15.535156 24.984375 15.535156 21.972656 Z M 9.613281 20.515625 "/>
</clipPath>
<clipPath id="clip10">
  <path d="M 12 20 L 16 20 L 16 25 L 12 25 Z M 12 20 "/>
</clipPath>
<clipPath id="clip11">
  <path d="M 9.613281 20.515625 C 9.613281 23.527344 9.128906 26.832031 12.136719 26.832031 C 15.148438 26.832031 15.535156 24.984375 15.535156 21.972656 Z M 9.613281 20.515625 "/>
</clipPath>
<clipPath id="clip12">
  <path d="M 15.050781 23.332031 C 15.050781 21.992188 14.269531 20.902344 13.304688 20.902344 C 12.335938 20.902344 11.554688 21.992188 11.554688 23.332031 C 11.554688 24.675781 12.335938 25.765625 13.304688 25.765625 C 14.269531 25.765625 15.050781 24.675781 15.050781 23.332031 Z M 15.050781 23.332031 "/>
</clipPath>
<clipPath id="clip13">
  <path d="M 13 22 L 15 22 L 15 24 L 13 24 Z M 13 22 "/>
</clipPath>
<clipPath id="clip14">
  <path d="M 9.613281 20.515625 C 9.613281 23.527344 9.128906 26.832031 12.136719 26.832031 C 15.148438 26.832031 15.535156 24.984375 15.535156 21.972656 Z M 9.613281 20.515625 "/>
</clipPath>
<clipPath id="clip15">
  <path d="M 15.050781 23.332031 C 15.050781 21.992188 14.269531 20.902344 13.304688 20.902344 C 12.335938 20.902344 11.554688 21.992188 11.554688 23.332031 C 11.554688 24.675781 12.335938 25.765625 13.304688 25.765625 C 14.269531 25.765625 15.050781 24.675781 15.050781 23.332031 Z M 15.050781 23.332031 "/>
</clipPath>
<clipPath id="clip16">
  <path d="M 19 20 L 23 20 L 23 25 L 19 25 Z M 19 20 "/>
</clipPath>
<clipPath id="clip17">
  <path d="M 23.789062 20.417969 L 18.835938 21.679688 C 18.835938 24.207031 19.128906 25.765625 21.652344 25.765625 C 24.179688 25.765625 23.789062 22.945312 23.789062 20.417969 Z M 23.789062 20.417969 "/>
</clipPath>
<clipPath id="clip18">
  <path d="M 19 20 L 24 20 L 24 25 L 19 25 Z M 19 20 "/>
</clipPath>
<clipPath id="clip19">
  <path d="M 23.789062 20.417969 L 18.835938 21.679688 C 18.835938 24.207031 19.128906 25.765625 21.652344 25.765625 C 24.179688 25.765625 23.789062 22.945312 23.789062 20.417969 Z M 23.789062 20.417969 "/>
</clipPath>
<clipPath id="clip20">
  <path d="M 21 21 L 23 21 L 23 23 L 21 23 Z M 21 21 "/>
</clipPath>
<clipPath id="clip21">
  <path d="M 23.789062 20.417969 L 18.835938 21.679688 C 18.835938 24.207031 19.128906 25.765625 21.652344 25.765625 C 24.179688 25.765625 23.789062 22.945312 23.789062 20.417969 Z M 23.789062 20.417969 "/>
</clipPath>
<clipPath id="clip22">
  <path d="M 19 20 L 24 20 L 24 25 L 19 25 Z M 19 20 "/>
</clipPath>
<clipPath id="clip23">
  <path d="M 23.789062 20.417969 L 18.835938 21.679688 C 18.835938 24.207031 19.128906 25.765625 21.652344 25.765625 C 24.179688 25.765625 23.789062 22.945312 23.789062 20.417969 Z M 23.789062 20.417969 "/>
</clipPath>
<clipPath id="clip24">
  <path d="M 20 20 L 24 20 L 24 24 L 20 24 Z M 20 20 "/>
</clipPath>
<clipPath id="clip25">
  <path d="M 23.789062 20.417969 L 18.835938 21.679688 C 18.835938 24.207031 19.128906 25.765625 21.652344 25.765625 C 24.179688 25.765625 23.789062 22.945312 23.789062 20.417969 Z M 23.789062 20.417969 "/>
</clipPath>
<clipPath id="clip26">
  <path d="M 23.109375 22.359375 C 23.109375 21.019531 22.328125 19.929688 21.363281 19.929688 C 20.398438 19.929688 19.613281 21.019531 19.613281 22.359375 C 19.613281 23.703125 20.398438 24.792969 21.363281 24.792969 C 22.328125 24.792969 23.109375 23.703125 23.109375 22.359375 Z M 23.109375 22.359375 "/>
</clipPath>
<clipPath id="clip27">
  <path d="M 21 21 L 23 21 L 23 22 L 21 22 Z M 21 21 "/>
</clipPath>
<clipPath id="clip28">
  <path d="M 23.789062 20.417969 L 18.835938 21.679688 C 18.835938 24.207031 19.128906 25.765625 21.652344 25.765625 C 24.179688 25.765625 23.789062 22.945312 23.789062 20.417969 Z M 23.789062 20.417969 "/>
</clipPath>
<clipPath id="clip29">
  <path d="M 23.109375 22.359375 C 23.109375 21.019531 22.328125 19.929688 21.363281 19.929688 C 20.398438 19.929688 19.613281 21.019531 19.613281 22.359375 C 19.613281 23.703125 20.398438 24.792969 21.363281 24.792969 C 22.328125 24.792969 23.109375 23.703125 23.109375 22.359375 Z M 23.109375 22.359375 "/>
</clipPath>
</defs>
<g id="surface1">
<path style=" stroke:none;fill-rule:nonzero;fill:rgb(13.333333%,12.156863%,12.54902%);fill-opacity:1;" d="M 34.859375 12.929688 L 40.003906 12.929688 L 40.003906 21.292969 L 42.917969 21.292969 L 42.433594 25.859375 L 34.957031 25.859375 Z M 34.859375 12.929688 "/>
<path style=" stroke:none;fill-rule:nonzero;fill:rgb(13.333333%,12.156863%,12.54902%);fill-opacity:1;" d="M 48.84375 14.292969 C 52.433594 14.292969 54.667969 16.722656 54.667969 20.222656 C 54.667969 24.015625 52.433594 26.152344 48.84375 26.152344 C 45.25 26.152344 43.015625 23.722656 43.015625 20.222656 C 43.015625 16.429688 45.347656 14.292969 48.84375 14.292969 Z M 48.84375 21.679688 C 49.523438 21.679688 49.8125 21.195312 49.8125 20.222656 C 49.8125 19.25 49.617188 18.765625 48.84375 18.765625 C 48.066406 18.765625 47.871094 19.25 47.871094 20.222656 C 47.871094 21.195312 48.257812 21.679688 48.84375 21.679688 Z M 48.84375 21.679688 "/>
<path style=" stroke:none;fill-rule:nonzero;fill:rgb(13.333333%,12.156863%,12.54902%);fill-opacity:1;" d="M 64.378906 25.277344 C 63.601562 28 61.5625 28.777344 59.230469 28.875 C 57.871094 28.875 56.511719 28.777344 55.152344 28.484375 L 55.640625 24.304688 C 58.261719 24.5 59.039062 24.5 61.367188 24.5 L 61.464844 23.917969 L 57 23.917969 L 54.472656 14.582031 L 59.816406 14.582031 L 60.300781 21.484375 L 60.882812 21.484375 L 61.269531 14.582031 L 66.613281 14.582031 Z M 64.378906 25.277344 "/>
<path style=" stroke:none;fill-rule:nonzero;fill:rgb(13.333333%,12.156863%,12.54902%);fill-opacity:1;" d="M 72.339844 26.152344 C 68.652344 26.25 66.804688 25.179688 66.804688 22.75 C 66.804688 20.804688 68.359375 19.832031 70.882812 19.640625 C 71.953125 19.640625 73.117188 19.734375 74.183594 19.929688 L 74.183594 19.347656 C 73.3125 19.054688 72.339844 18.957031 71.371094 18.957031 C 70.300781 18.957031 69.136719 19.152344 68.066406 19.445312 L 67.195312 15.457031 C 69.039062 14.679688 70.980469 14.390625 73.019531 14.390625 C 75.835938 14.390625 77.972656 16.042969 77.972656 18.082031 L 77.972656 26.054688 L 73.601562 26.054688 L 74.089844 23.332031 L 73.601562 23.332031 C 73.117188 24.304688 72.730469 25.179688 72.339844 26.152344 Z M 73.117188 21.679688 C 73.117188 21.292969 73.019531 20.804688 72.535156 20.804688 C 72.050781 20.804688 71.855469 21.195312 71.855469 21.679688 C 71.855469 22.167969 72.050781 22.652344 72.535156 22.652344 C 73.019531 22.652344 73.117188 22.265625 73.117188 21.777344 Z M 73.117188 21.679688 "/>
<path style=" stroke:none;fill-rule:nonzero;fill:rgb(13.333333%,12.156863%,12.54902%);fill-opacity:1;" d="M 78.945312 11.765625 L 84.089844 11.765625 L 84.089844 25.957031 L 78.945312 25.957031 Z M 78.945312 11.765625 "/>
<path style=" stroke:none;fill-rule:nonzero;fill:rgb(13.333333%,12.156863%,12.54902%);fill-opacity:1;" d="M 90.691406 14.292969 C 93.703125 14.097656 96.324219 16.332031 96.519531 19.25 L 91.664062 19.640625 C 91.566406 19.054688 91.371094 18.765625 90.789062 18.765625 C 90.207031 18.765625 89.820312 19.25 89.820312 20.222656 C 89.820312 21.195312 90.109375 21.679688 90.789062 21.679688 C 91.46875 21.679688 91.761719 21.195312 91.664062 20.515625 L 96.617188 20.222656 C 96.714844 24.015625 94.578125 26.152344 90.789062 26.152344 C 87.78125 26.347656 85.15625 24.015625 84.964844 20.902344 C 84.964844 20.707031 84.964844 20.417969 84.964844 20.222656 C 84.964844 16.429688 87.195312 14.292969 90.691406 14.292969 Z M 90.691406 14.292969 "/>
<path style=" stroke:none;fill-rule:nonzero;fill:rgb(13.333333%,12.156863%,12.54902%);fill-opacity:1;" d="M 97.199219 14.582031 L 102.34375 14.582031 L 101.664062 19.054688 L 102.152344 19.054688 L 103.414062 14.292969 C 104.480469 14.292969 105.550781 14.484375 106.519531 15.070312 L 106.8125 20.027344 L 102.34375 20.609375 L 102.34375 25.957031 L 97.199219 25.957031 C 97.199219 25.957031 97.199219 14.582031 97.199219 14.582031 Z M 97.199219 14.582031 "/>
<path style=" stroke:none;fill-rule:nonzero;fill:rgb(13.333333%,12.156863%,12.54902%);fill-opacity:1;" d="M 112.445312 26.152344 C 108.753906 26.25 106.910156 25.179688 106.910156 22.75 C 106.910156 20.804688 108.460938 19.832031 110.988281 19.640625 C 112.054688 19.640625 113.21875 19.734375 114.289062 19.929688 L 114.289062 19.347656 C 113.414062 19.054688 112.445312 18.957031 111.472656 18.957031 C 110.40625 18.957031 109.238281 19.152344 108.171875 19.445312 L 107.296875 15.457031 C 109.140625 14.777344 111.085938 14.390625 113.125 14.390625 C 115.9375 14.390625 118.171875 16.042969 118.171875 18.082031 L 118.171875 26.054688 L 113.804688 26.054688 L 114.289062 23.332031 L 113.804688 23.332031 C 113.21875 24.304688 112.832031 25.179688 112.445312 26.152344 Z M 113.21875 21.679688 C 113.21875 21.292969 113.125 20.804688 112.636719 20.804688 C 112.152344 20.804688 111.957031 21.195312 111.957031 21.679688 C 111.957031 22.167969 112.152344 22.652344 112.636719 22.652344 C 113.125 22.652344 113.21875 22.265625 113.21875 21.777344 Z M 113.21875 21.679688 "/>
<path style=" stroke:none;fill-rule:nonzero;fill:rgb(13.333333%,12.156863%,12.54902%);fill-opacity:1;" d="M 118.269531 17.304688 L 119.046875 17.304688 L 119.046875 15.359375 C 119.144531 13.320312 120.890625 11.667969 122.929688 11.667969 C 124.386719 11.667969 125.84375 12.054688 127.203125 12.734375 L 126.328125 16.917969 C 125.359375 16.625 124.386719 16.527344 123.414062 16.527344 C 122.734375 16.527344 122.054688 16.527344 121.375 16.722656 L 121.375 17.402344 L 125.84375 17.402344 L 125.84375 18.375 L 124.09375 18.375 L 124.09375 26.054688 L 118.949219 26.054688 L 118.949219 18.277344 L 118.171875 18.277344 Z M 118.269531 17.304688 "/>
<path style=" stroke:none;fill-rule:nonzero;fill:rgb(13.333333%,12.156863%,12.54902%);fill-opacity:1;" d="M 130.308594 26.152344 C 128.949219 26.152344 127.785156 25.179688 127.6875 23.722656 L 127.6875 18.179688 L 126.910156 18.179688 L 126.910156 17.207031 L 127.6875 17.207031 L 127.6875 13.222656 L 133.222656 13.222656 C 133.804688 14.582031 132.835938 16.625 131.667969 16.722656 L 131.667969 17.304688 L 134 17.304688 L 134 18.277344 L 132.835938 18.277344 L 132.835938 21.875 L 134 21.875 L 134 25.859375 C 132.738281 26.054688 131.574219 26.152344 130.308594 26.152344 Z M 130.308594 26.152344 "/>
<path style=" stroke:none;fill-rule:nonzero;fill:rgb(99.607843%,64.313725%,14.509804%);fill-opacity:1;" d="M 14.757812 13.125 C 16.703125 4.667969 23.304688 -3.015625 27.769531 2.722656 C 28.546875 3.695312 28.839844 5.054688 28.644531 6.222656 C 28.449219 7.292969 27.769531 8.265625 26.800781 8.945312 C 24.761719 10.695312 22.820312 12.734375 21.167969 14.875 Z M 14.757812 13.125 "/>
<path style=" stroke:none;fill-rule:nonzero;fill:rgb(100%,81.568627%,20.392157%);fill-opacity:1;" d="M 14.757812 13.125 L 16.605469 13.320312 C 17.964844 7.195312 21.847656 1.359375 25.636719 0.972656 C 21.460938 -0.679688 16.410156 5.929688 14.757812 13.125 Z M 14.757812 13.125 "/>
<path style=" stroke:none;fill-rule:nonzero;fill:rgb(100%,100%,100%);fill-opacity:1;" d="M 18.546875 13.027344 C 20.101562 8.070312 22.429688 3.5 24.953125 3.695312 C 25.925781 3.890625 26.507812 4.765625 26.316406 5.640625 C 26.316406 5.832031 26.21875 6.027344 26.121094 6.125 C 26.023438 6.417969 25.828125 6.609375 25.636719 6.902344 L 19.613281 13.222656 Z M 18.546875 13.027344 "/>
<use xlink:href="#surface5" mask="url(#mask0)"/>
<path style=" stroke:none;fill-rule:nonzero;fill:rgb(13.333333%,12.156863%,12.54902%);fill-opacity:1;" d="M 19.710938 13.609375 C 19.808594 13.609375 19.90625 13.609375 19.90625 13.515625 L 25.925781 7.195312 C 26.121094 6.902344 26.316406 6.707031 26.507812 6.417969 C 26.800781 5.832031 26.800781 5.152344 26.507812 4.570312 C 26.21875 3.984375 25.636719 3.597656 25.050781 3.5 C 23.789062 3.402344 22.527344 4.277344 21.167969 6.320312 C 19.90625 8.457031 18.933594 10.695312 18.253906 13.027344 C 18.15625 13.222656 18.253906 13.417969 18.449219 13.417969 C 18.644531 13.515625 18.742188 13.417969 18.835938 13.222656 C 20.78125 7.292969 23.011719 3.984375 24.953125 4.179688 C 25.34375 4.277344 25.730469 4.472656 25.925781 4.957031 C 26.121094 5.347656 26.121094 5.832031 25.925781 6.222656 C 25.828125 6.515625 25.636719 6.707031 25.441406 6.902344 L 19.421875 13.125 C 19.324219 13.222656 19.324219 13.417969 19.421875 13.609375 C 19.421875 13.609375 19.515625 13.707031 19.710938 13.609375 Z M 19.710938 13.609375 "/>
<path style=" stroke:none;fill-rule:nonzero;fill:rgb(13.333333%,12.156863%,12.54902%);fill-opacity:1;" d="M 21.363281 15.359375 L 13.886719 13.417969 L 13.984375 12.929688 C 15.535156 6.609375 19.324219 1.167969 23.011719 0.292969 C 24.273438 0 26.21875 0.0976562 27.964844 2.332031 C 28.839844 3.402344 29.226562 4.859375 28.9375 6.320312 C 28.644531 7.582031 27.964844 8.652344 26.898438 9.332031 C 25.34375 10.695312 23.886719 12.25 22.625 14 C 22.332031 14.390625 21.945312 14.777344 21.652344 15.167969 Z M 15.050781 12.734375 L 20.972656 14.292969 L 21.75 13.320312 C 23.011719 11.570312 24.566406 9.917969 26.21875 8.457031 C 27.089844 7.875 27.675781 7 27.867188 6.027344 C 28.0625 4.957031 27.867188 3.792969 27.1875 2.917969 C 26.023438 1.457031 24.664062 0.875 23.207031 1.265625 C 20.003906 1.945312 16.507812 7 15.050781 12.734375 Z M 15.050781 12.734375 "/>
<use xlink:href="#surface8" mask="url(#mask1)"/>
<path style=" stroke:none;fill-rule:nonzero;fill:rgb(99.607843%,64.313725%,14.509804%);fill-opacity:1;" d="M 24.953125 19.929688 C 23.011719 15.167969 18.449219 11.859375 13.304688 11.570312 C 10.390625 11.472656 7.574219 12.347656 5.242188 14.195312 C 3.882812 15.265625 2.71875 16.625 1.84375 18.179688 C 1.359375 21.484375 2.039062 24.792969 3.785156 27.609375 C 5.921875 31.207031 9.808594 32.277344 11.554688 32.765625 C 13.984375 33.347656 16.507812 33.445312 18.933594 32.957031 C 21.363281 31.984375 23.304688 30.234375 24.664062 28 C 25.925781 25.472656 26.023438 22.554688 24.953125 19.929688 Z M 24.953125 19.929688 "/>
<path style=" stroke:none;fill-rule:nonzero;fill:rgb(100%,81.568627%,20.392157%);fill-opacity:1;" d="M 3.882812 27.609375 C 2.136719 24.792969 1.457031 21.390625 1.941406 18.179688 C 1.457031 19.054688 0.972656 20.027344 0.777344 21 C 0.582031 21.679688 0.582031 22.265625 0.484375 22.945312 C 0.292969 29.945312 6.503906 34.222656 11.167969 34.320312 C 13.789062 34.417969 16.507812 33.929688 18.933594 32.957031 C 16.507812 33.445312 13.984375 33.445312 11.554688 32.765625 C 9.90625 32.277344 6.019531 31.207031 3.882812 27.609375 Z M 3.882812 27.609375 "/>
<path style=" stroke:none;fill-rule:nonzero;fill:rgb(13.333333%,12.156863%,12.54902%);fill-opacity:1;" d="M 11.847656 34.804688 L 11.167969 34.804688 C 6.410156 34.609375 -0.195312 30.234375 0 22.847656 C 0 22.167969 0.0976562 21.484375 0.292969 20.804688 C 0.972656 18.082031 2.71875 15.554688 5.050781 13.804688 C 7.476562 11.957031 10.390625 10.984375 13.398438 11.082031 C 18.742188 11.375 23.5 14.777344 25.441406 19.734375 C 26.605469 22.457031 26.410156 25.570312 25.050781 28.292969 C 22.429688 33.152344 16.410156 34.804688 11.847656 34.804688 Z M 12.816406 12.054688 C 10.195312 12.054688 7.671875 12.929688 5.535156 14.582031 C 3.398438 16.234375 1.84375 18.472656 1.164062 21.097656 C 1.066406 21.679688 0.972656 22.265625 0.972656 22.847656 C 0.777344 29.652344 6.894531 33.542969 11.167969 33.734375 C 15.4375 33.929688 21.652344 32.472656 24.273438 27.707031 C 25.539062 25.277344 25.636719 22.554688 24.566406 20.027344 C 22.722656 15.359375 18.351562 12.25 13.398438 11.957031 Z M 12.816406 12.054688 "/>
<path style=" stroke:none;fill-rule:nonzero;fill:rgb(100%,81.568627%,20.392157%);fill-opacity:1;" d="M 15.246094 14 C 15.050781 14.582031 15.925781 15.167969 17.089844 15.554688 C 18.253906 16.042969 19.226562 16.140625 19.324219 15.554688 C 19.421875 14.972656 18.742188 14.097656 17.574219 13.609375 C 16.410156 13.125 15.4375 13.320312 15.246094 14 Z M 15.246094 14 "/>
<path style=" stroke:none;fill-rule:nonzero;fill:rgb(99.607843%,64.313725%,14.509804%);fill-opacity:1;" d="M 3.011719 10.984375 C 3.011719 12.347656 3.203125 13.804688 3.398438 15.167969 L 3.496094 15.554688 C 4.464844 14.972656 5.4375 14.390625 6.410156 13.902344 C 8.15625 17.984375 12.625 18.667969 14.175781 15.070312 C 14.757812 13.417969 14.855469 11.667969 14.46875 10.015625 C 12.914062 2.140625 4.078125 0.777344 3.105469 7.582031 C 2.914062 8.75 2.914062 9.917969 3.011719 10.984375 Z M 3.011719 10.984375 "/>
<path style=" stroke:none;fill-rule:nonzero;fill:rgb(13.333333%,12.156863%,12.54902%);fill-opacity:1;" d="M 10.875 17.890625 C 8.835938 17.792969 6.992188 16.429688 6.214844 14.484375 C 5.339844 14.875 4.5625 15.359375 3.785156 15.945312 L 3.300781 16.234375 L 3.105469 15.265625 C 2.914062 13.902344 2.816406 12.445312 2.71875 11.082031 C 2.621094 9.917969 2.71875 8.652344 2.816406 7.484375 C 3.203125 4.667969 5.050781 2.820312 7.671875 2.820312 L 7.769531 2.820312 C 10.679688 2.820312 14.078125 5.25 14.953125 10.015625 C 15.34375 11.765625 15.246094 13.609375 14.566406 15.359375 C 13.984375 16.820312 12.527344 17.890625 10.875 17.890625 Z M 6.699219 13.804688 C 7.28125 15.652344 8.933594 16.917969 10.777344 17.109375 C 12.039062 17.109375 13.207031 16.234375 13.59375 15.070312 C 14.175781 13.515625 14.273438 11.859375 13.886719 10.207031 C 13.109375 5.929688 10.097656 3.695312 7.476562 3.695312 C 5.339844 3.695312 3.882812 5.152344 3.496094 7.582031 C 3.398438 8.75 3.300781 9.917969 3.398438 10.984375 C 3.398438 12.25 3.59375 13.515625 3.691406 14.875 C 4.464844 14.390625 5.242188 13.902344 6.117188 13.515625 L 6.3125 13.902344 Z M 6.699219 13.804688 "/>
<use xlink:href="#surface11" mask="url(#mask2)"/>
<path style=" stroke:none;fill-rule:nonzero;fill:rgb(100%,81.568627%,20.392157%);fill-opacity:1;" d="M 3.011719 10.984375 C 3.011719 12.347656 3.203125 13.804688 3.398438 15.167969 L 3.496094 15.554688 C 4.464844 14.972656 5.4375 14.390625 6.410156 13.902344 C 8.15625 17.984375 12.625 18.667969 14.175781 15.070312 L 13.984375 15.265625 C 12.332031 17.207031 9.226562 14.484375 8.933594 10.984375 C 8.738281 9.429688 8.058594 7.875 6.992188 6.707031 C 6.503906 6.222656 5.824219 6.027344 5.144531 6.222656 C 3.011719 6.804688 3.011719 11.082031 3.011719 10.984375 Z M 3.011719 10.984375 "/>
<path style=" stroke:none;fill-rule:nonzero;fill:rgb(13.333333%,12.156863%,12.54902%);fill-opacity:1;" d="M 9.128906 17.5 C 7.769531 16.820312 6.796875 15.75 6.117188 14.484375 C 5.242188 14.972656 4.464844 15.457031 3.691406 15.945312 C 3.59375 16.042969 3.398438 16.042969 3.300781 15.945312 C 3.203125 15.945312 3.105469 15.75 3.011719 15.652344 L 2.914062 15.265625 C 2.523438 12.734375 2.425781 10.109375 2.621094 7.484375 C 3.011719 4.667969 4.855469 2.820312 7.476562 2.820312 L 7.574219 2.820312 C 10.488281 2.820312 13.886719 5.25 14.757812 10.015625 C 15.535156 14.484375 14.078125 16.429688 13.109375 17.109375 C 12.429688 17.597656 11.652344 17.890625 10.777344 17.890625 C 10.292969 17.792969 9.710938 17.695312 9.128906 17.5 Z M 7.476562 3.597656 C 5.339844 3.597656 3.882812 5.152344 3.496094 7.582031 C 3.300781 10.015625 3.398438 12.445312 3.785156 14.875 C 4.464844 14.484375 5.144531 14 5.921875 13.707031 C 5.632812 12.929688 5.4375 12.054688 5.4375 11.277344 C 5.4375 11.082031 5.632812 10.890625 5.824219 10.792969 C 6.019531 10.695312 6.214844 10.984375 6.3125 11.179688 C 6.601562 14.292969 8.253906 16.042969 9.613281 16.722656 C 10.679688 17.207031 11.847656 17.109375 12.816406 16.429688 C 14.175781 15.359375 14.664062 13.027344 14.175781 10.109375 C 13.207031 5.832031 10.195312 3.597656 7.476562 3.597656 Z M 7.476562 3.597656 "/>
<path style=" stroke:none;fill-rule:evenodd;fill:rgb(13.333333%,12.156863%,12.54902%);fill-opacity:1;" d="M 15.828125 30.625 C 16.023438 30.917969 17.089844 30.332031 17.089844 30.332031 Z M 15.828125 30.625 "/>
<path style=" stroke:none;fill-rule:evenodd;fill:rgb(13.333333%,12.156863%,12.54902%);fill-opacity:1;" d="M 15.050781 30.140625 C 16.117188 30.625 19.515625 28.582031 19.515625 28.582031 Z M 15.050781 30.140625 "/>
<path style=" stroke:none;fill-rule:nonzero;fill:rgb(13.333333%,12.156863%,12.54902%);fill-opacity:1;" d="M 18.351562 19.25 C 18.351562 19.347656 18.351562 19.542969 18.449219 19.640625 C 18.449219 19.734375 18.546875 19.734375 18.546875 19.832031 C 18.546875 19.929688 18.644531 19.929688 18.644531 20.027344 C 18.742188 20.125 18.835938 20.222656 19.03125 20.222656 C 19.128906 20.222656 19.324219 20.222656 19.421875 20.222656 C 19.710938 20.125 19.90625 20.027344 20.101562 19.734375 L 20.683594 19.152344 C 20.875 18.957031 21.070312 18.765625 21.265625 18.667969 C 21.460938 18.472656 21.652344 18.375 21.847656 18.277344 C 22.042969 18.179688 22.332031 18.179688 22.527344 18.179688 C 22.722656 18.277344 23.011719 18.375 23.207031 18.472656 M 23.207031 18.570312 C 23.109375 18.277344 22.914062 17.984375 22.625 17.792969 C 22.332031 17.597656 21.945312 17.597656 21.652344 17.597656 L 21.460938 17.695312 L 21.070312 17.890625 L 20.875 17.984375 C 20.78125 18.082031 20.683594 18.179688 20.488281 18.277344 L 19.90625 18.859375 C 19.808594 18.957031 19.710938 19.054688 19.613281 19.152344 L 19.515625 19.25 L 19.421875 19.25 C 19.421875 19.25 19.421875 19.347656 19.324219 19.347656 C 19.324219 19.347656 19.324219 19.445312 19.226562 19.445312 L 19.128906 19.542969 L 19.03125 19.542969 C 18.933594 19.542969 18.644531 19.445312 18.546875 19.152344 Z M 23.207031 18.570312 "/>
<path style=" stroke:none;fill-rule:nonzero;fill:rgb(13.333333%,12.156863%,12.54902%);fill-opacity:1;" d="M 16.3125 19.734375 C 16.3125 19.832031 16.214844 19.929688 16.214844 20.027344 L 16.117188 20.125 L 16.023438 20.222656 C 15.925781 20.320312 15.828125 20.417969 15.730469 20.515625 L 15.535156 20.515625 C 15.4375 20.417969 15.34375 20.417969 15.246094 20.320312 L 15.34375 20.320312 C 15.050781 20.027344 14.664062 19.734375 14.371094 19.445312 C 13.984375 19.152344 13.691406 18.957031 13.304688 18.765625 L 12.625 18.472656 L 12.332031 18.375 L 12.136719 18.277344 L 11.945312 18.179688 C 11.75 18.082031 11.457031 18.082031 11.265625 17.984375 C 11.167969 17.984375 11.070312 17.984375 10.875 17.984375 L 10.679688 17.984375 L 10.875 17.984375 C 10.972656 17.984375 11.070312 18.082031 11.167969 18.082031 C 11.359375 18.179688 11.554688 18.277344 11.75 18.375 C 12.136719 18.570312 12.429688 18.859375 12.816406 19.152344 L 13.886719 19.929688 L 14.953125 20.707031 C 15.148438 20.804688 15.34375 20.902344 15.535156 20.902344 C 15.730469 20.902344 15.925781 20.804688 16.117188 20.609375 C 16.214844 20.417969 16.3125 20.222656 16.410156 20.027344 C 16.410156 19.832031 16.507812 19.640625 16.507812 19.347656 Z M 16.3125 19.734375 "/>
<path style=" stroke:none;fill-rule:evenodd;fill:rgb(13.333333%,12.156863%,12.54902%);fill-opacity:1;" d="M 8.546875 19.734375 C 8.546875 23.429688 7.960938 27.609375 11.652344 27.609375 C 15.34375 27.609375 15.828125 25.277344 15.828125 21.679688 C 15.828125 21.582031 8.546875 19.734375 8.546875 19.734375 Z M 8.546875 19.734375 "/>
<path style=" stroke:none;fill-rule:nonzero;fill:rgb(100%,100%,100%);fill-opacity:1;" d="M 9.613281 20.515625 C 9.613281 23.527344 9.128906 26.832031 12.136719 26.832031 C 15.148438 26.832031 15.535156 24.984375 15.535156 21.972656 Z M 9.613281 20.515625 "/>
<g clip-path="url(#clip4)" clip-rule="nonzero">
<g clip-path="url(#clip5)" clip-rule="nonzero">
<path style=" stroke:none;fill-rule:nonzero;fill:rgb(99.215686%,50.980392%,13.333333%);fill-opacity:1;" d="M 14.855469 23.429688 C 14.855469 22.140625 14.117188 21.097656 13.207031 21.097656 C 12.292969 21.097656 11.554688 22.140625 11.554688 23.429688 C 11.554688 24.71875 12.292969 25.765625 13.207031 25.765625 C 14.117188 25.765625 14.855469 24.71875 14.855469 23.429688 Z M 14.855469 23.429688 "/>
<path style=" stroke:none;fill-rule:nonzero;fill:rgb(13.333333%,12.156863%,12.54902%);fill-opacity:1;" d="M 14.953125 23.234375 C 14.953125 22.054688 14.257812 21.097656 13.398438 21.097656 C 12.542969 21.097656 11.847656 22.054688 11.847656 23.234375 C 11.847656 24.417969 12.542969 25.375 13.398438 25.375 C 14.257812 25.375 14.953125 24.417969 14.953125 23.234375 Z M 14.953125 23.234375 "/>
</g>
</g>
<g clip-path="url(#clip6)" clip-rule="nonzero">
<g clip-path="url(#clip7)" clip-rule="nonzero">
<path style=" stroke:none;fill-rule:nonzero;fill:rgb(100%,100%,100%);fill-opacity:1;" d="M 14.46875 22.847656 C 14.46875 23.0625 14.292969 23.234375 14.078125 23.234375 C 13.863281 23.234375 13.691406 23.0625 13.691406 22.847656 C 13.691406 22.632812 13.863281 22.457031 14.078125 22.457031 C 14.292969 22.457031 14.46875 22.632812 14.46875 22.847656 Z M 14.46875 22.847656 "/>
</g>
</g>
<g clip-path="url(#clip8)" clip-rule="nonzero">
<g clip-path="url(#clip9)" clip-rule="nonzero">
<path style=" stroke:none;fill-rule:nonzero;fill:rgb(99.215686%,50.980392%,13.333333%);fill-opacity:1;" d="M 15.050781 23.332031 C 15.050781 21.992188 14.269531 20.902344 13.304688 20.902344 C 12.335938 20.902344 11.554688 21.992188 11.554688 23.332031 C 11.554688 24.675781 12.335938 25.765625 13.304688 25.765625 C 14.269531 25.765625 15.050781 24.675781 15.050781 23.332031 Z M 15.050781 23.332031 "/>
</g>
</g>
<g clip-path="url(#clip10)" clip-rule="nonzero">
<g clip-path="url(#clip11)" clip-rule="nonzero">
<g clip-path="url(#clip12)" clip-rule="nonzero">
<path style=" stroke:none;fill-rule:nonzero;fill:rgb(13.333333%,12.156863%,12.54902%);fill-opacity:1;" d="M 15.34375 22.75 C 15.34375 21.570312 14.691406 20.609375 13.886719 20.609375 C 13.082031 20.609375 12.429688 21.570312 12.429688 22.75 C 12.429688 23.929688 13.082031 24.890625 13.886719 24.890625 C 14.691406 24.890625 15.34375 23.929688 15.34375 22.75 Z M 15.34375 22.75 "/>
</g>
</g>
</g>
<g clip-path="url(#clip13)" clip-rule="nonzero">
<g clip-path="url(#clip14)" clip-rule="nonzero">
<g clip-path="url(#clip15)" clip-rule="nonzero">
<path style=" stroke:none;fill-rule:nonzero;fill:rgb(100%,100%,100%);fill-opacity:1;" d="M 14.566406 22.652344 C 14.566406 22.867188 14.390625 23.042969 14.175781 23.042969 C 13.960938 23.042969 13.789062 22.867188 13.789062 22.652344 C 13.789062 22.4375 13.960938 22.265625 14.175781 22.265625 C 14.390625 22.265625 14.566406 22.4375 14.566406 22.652344 Z M 14.566406 22.652344 "/>
</g>
</g>
</g>
<path style=" stroke:none;fill-rule:evenodd;fill:rgb(13.333333%,12.156863%,12.54902%);fill-opacity:1;" d="M 24.371094 19.734375 L 18.253906 21.292969 C 18.253906 24.402344 18.644531 26.347656 21.75 26.347656 C 24.859375 26.347656 24.371094 22.847656 24.371094 19.734375 Z M 24.371094 19.734375 "/>
<path style=" stroke:none;fill-rule:nonzero;fill:rgb(100%,100%,100%);fill-opacity:1;" d="M 23.789062 20.417969 L 18.835938 21.679688 C 18.835938 24.207031 19.128906 25.765625 21.652344 25.765625 C 24.179688 25.765625 23.789062 22.945312 23.789062 20.417969 Z M 23.789062 20.417969 "/>
<g clip-path="url(#clip16)" clip-rule="nonzero">
<g clip-path="url(#clip17)" clip-rule="nonzero">
<path style=" stroke:none;fill-rule:nonzero;fill:rgb(99.215686%,50.980392%,13.333333%);fill-opacity:1;" d="M 22.914062 22.457031 C 22.914062 21.167969 22.175781 20.125 21.265625 20.125 C 20.355469 20.125 19.613281 21.167969 19.613281 22.457031 C 19.613281 23.746094 20.355469 24.792969 21.265625 24.792969 C 22.175781 24.792969 22.914062 23.746094 22.914062 22.457031 Z M 22.914062 22.457031 "/>
</g>
</g>
<g clip-path="url(#clip18)" clip-rule="nonzero">
<g clip-path="url(#clip19)" clip-rule="nonzero">
<path style=" stroke:none;fill-rule:nonzero;fill:rgb(13.333333%,12.156863%,12.54902%);fill-opacity:1;" d="M 23.011719 22.265625 C 23.011719 21.082031 22.316406 20.125 21.460938 20.125 C 20.601562 20.125 19.90625 21.082031 19.90625 22.265625 C 19.90625 23.445312 20.601562 24.402344 21.460938 24.402344 C 22.316406 24.402344 23.011719 23.445312 23.011719 22.265625 Z M 23.011719 22.265625 "/>
</g>
</g>
<g clip-path="url(#clip20)" clip-rule="nonzero">
<g clip-path="url(#clip21)" clip-rule="nonzero">
<path style=" stroke:none;fill-rule:nonzero;fill:rgb(100%,100%,100%);fill-opacity:1;" d="M 22.527344 21.875 C 22.527344 22.089844 22.355469 22.265625 22.140625 22.265625 C 21.925781 22.265625 21.75 22.089844 21.75 21.875 C 21.75 21.660156 21.925781 21.484375 22.140625 21.484375 C 22.355469 21.484375 22.527344 21.660156 22.527344 21.875 Z M 22.527344 21.875 "/>
</g>
</g>
<g clip-path="url(#clip22)" clip-rule="nonzero">
<g clip-path="url(#clip23)" clip-rule="nonzero">
<path style=" stroke:none;fill-rule:nonzero;fill:rgb(99.215686%,50.980392%,13.333333%);fill-opacity:1;" d="M 23.109375 22.359375 C 23.109375 21.019531 22.328125 19.929688 21.363281 19.929688 C 20.398438 19.929688 19.613281 21.019531 19.613281 22.359375 C 19.613281 23.703125 20.398438 24.792969 21.363281 24.792969 C 22.328125 24.792969 23.109375 23.703125 23.109375 22.359375 Z M 23.109375 22.359375 "/>
</g>
</g>
<g clip-path="url(#clip24)" clip-rule="nonzero">
<g clip-path="url(#clip25)" clip-rule="nonzero">
<g clip-path="url(#clip26)" clip-rule="nonzero">
<path style=" stroke:none;fill-rule:nonzero;fill:rgb(13.333333%,12.156863%,12.54902%);fill-opacity:1;" d="M 23.402344 21.777344 C 23.402344 20.597656 22.75 19.640625 21.945312 19.640625 C 21.140625 19.640625 20.488281 20.597656 20.488281 21.777344 C 20.488281 22.960938 21.140625 23.917969 21.945312 23.917969 C 22.75 23.917969 23.402344 22.960938 23.402344 21.777344 Z M 23.402344 21.777344 "/>
</g>
</g>
</g>
<g clip-path="url(#clip27)" clip-rule="nonzero">
<g clip-path="url(#clip28)" clip-rule="nonzero">
<g clip-path="url(#clip29)" clip-rule="nonzero">
<path style=" stroke:none;fill-rule:nonzero;fill:rgb(100%,100%,100%);fill-opacity:1;" d="M 22.625 21.484375 C 22.625 21.699219 22.449219 21.875 22.234375 21.875 C 22.023438 21.875 21.847656 21.699219 21.847656 21.484375 C 21.847656 21.269531 22.023438 21.097656 22.234375 21.097656 C 22.449219 21.097656 22.625 21.269531 22.625 21.484375 Z M 22.625 21.484375 "/>
</g>
</g>
</g>
<path style=" stroke:none;fill-rule:evenodd;fill:rgb(100%,100%,100%);fill-opacity:1;" d="M 24.664062 19.542969 C 24.761719 19.347656 24.953125 19.152344 25.050781 18.957031 C 24.859375 19.152344 24.566406 19.25 24.371094 19.25 C 24.179688 19.25 23.984375 19.152344 23.886719 18.957031 C 23.984375 19.152344 24.082031 19.25 24.082031 19.445312 C 23.984375 19.640625 23.886719 19.929688 23.691406 20.027344 C 23.886719 19.929688 24.082031 19.832031 24.273438 19.734375 C 24.46875 19.832031 24.761719 19.929688 24.953125 20.125 C 24.953125 20.222656 24.566406 19.734375 24.664062 19.542969 Z M 24.664062 19.542969 "/>
</g>
</svg>
