<?xml version="1.0" encoding="UTF-8"?>
<svg xmlns="http://www.w3.org/2000/svg" xmlns:xlink="http://www.w3.org/1999/xlink" width="100px" height="px" viewBox="0 0 99 42" version="1.1">
<g id="surface1">
<path style=" stroke:none;fill-rule:nonzero;fill:rgb(4.705882%,47.843137%,33.72549%);fill-opacity:1;" d="M 0.0390625 24.027344 C 0.0898438 23.707031 0.152344 23.398438 0.1875 23.070312 C 0.394531 21.074219 1.554688 19.789062 3.203125 18.8125 C 5.578125 17.460938 8.070312 16.335938 10.652344 15.449219 C 15.894531 13.570312 21.265625 12.070312 26.726562 10.960938 C 28.015625 10.691406 29.320312 10.476562 30.613281 10.238281 L 30.464844 11.453125 C 30.332031 11.457031 30.199219 11.46875 30.070312 11.488281 C 27.324219 12.074219 24.558594 12.605469 21.828125 13.269531 C 17.363281 14.328125 12.976562 15.710938 8.710938 17.40625 C 6.847656 18.125 5.050781 19.011719 3.351562 20.0625 C 2.304688 20.722656 1.542969 21.570312 1.355469 22.828125 C 1.242188 23.5 1.179688 24.179688 1.164062 24.859375 C 1.140625 29.125 1.144531 33.386719 1.140625 37.644531 C 1.140625 37.804688 1.140625 37.957031 1.140625 38.109375 C 1.234375 39.660156 2.019531 40.554688 3.554688 40.765625 C 4.1875 40.832031 4.828125 40.863281 5.46875 40.847656 L 93.566406 40.847656 C 94.082031 40.847656 94.613281 40.847656 95.113281 40.808594 C 96.671875 40.738281 97.558594 39.96875 97.800781 38.4375 C 97.859375 38.03125 97.886719 37.617188 97.878906 37.203125 L 97.878906 26.535156 C 97.878906 25.570312 97.832031 24.597656 97.78125 23.628906 C 97.769531 22.195312 97.015625 20.871094 95.785156 20.136719 C 95.574219 20.007812 95.363281 19.867188 95.152344 19.742188 C 93.296875 18.667969 91.351562 17.757812 89.339844 17.019531 C 85.359375 15.519531 81.292969 14.257812 77.164062 13.246094 C 74.265625 12.515625 71.351562 11.871094 68.402344 11.402344 C 68.355469 11.007812 68.3125 10.617188 68.269531 10.222656 C 70.390625 10.644531 72.523438 11 74.628906 11.472656 C 79.675781 12.582031 84.636719 14.050781 89.476562 15.863281 C 91.617188 16.632812 93.6875 17.59375 95.660156 18.726562 C 96.007812 18.933594 96.316406 19.144531 96.640625 19.375 C 97.957031 20.257812 98.777344 21.710938 98.859375 23.296875 C 98.882812 23.566406 98.9375 23.828125 98.976562 24.097656 L 98.976562 38.414062 C 98.949219 38.484375 98.929688 38.558594 98.910156 38.632812 C 98.65625 40.199219 97.882812 41.363281 96.292969 41.777344 C 95.667969 41.898438 95.039062 41.976562 94.402344 42 C 94.15625 42 93.90625 42 93.660156 42 L 5.367188 42 C 5.121094 42 4.871094 42 4.628906 42 C 4.238281 41.976562 3.847656 41.964844 3.460938 41.925781 C 1.886719 41.824219 0.570312 40.695312 0.230469 39.15625 C 0.167969 38.925781 0.109375 38.691406 0.0507812 38.457031 Z M 0.0390625 24.027344 "/>
<path style=" stroke:none;fill-rule:nonzero;fill:rgb(86.27451%,18.431373%,15.686275%);fill-opacity:1;" d="M 68.257812 10.214844 C 68.304688 10.609375 68.347656 11 68.390625 11.394531 L 68.671875 13.964844 C 68.394531 13.894531 68.152344 13.839844 67.914062 13.769531 C 65.59375 13.101562 63.296875 12.335938 60.824219 12.375 C 60.632812 12.335938 60.445312 12.265625 60.277344 12.164062 C 60.335938 11.96875 60.421875 11.78125 60.53125 11.605469 C 60.710938 11.425781 60.902344 11.261719 61.109375 11.113281 L 61.363281 10.902344 C 61.011719 10.824219 60.746094 10.746094 60.46875 10.695312 C 57.421875 10.222656 54.34375 9.957031 51.261719 9.902344 C 48.640625 9.820312 46.015625 9.902344 43.402344 10.148438 C 41.726562 10.3125 40.046875 10.515625 38.367188 10.714844 C 38.066406 10.769531 37.769531 10.839844 37.476562 10.925781 C 37.730469 11.121094 37.929688 11.273438 38.109375 11.410156 C 38.253906 11.539062 38.386719 11.683594 38.503906 11.839844 C 38.679688 12.085938 38.605469 12.261719 38.316406 12.351562 C 38.226562 12.371094 38.132812 12.386719 38.039062 12.386719 C 37.257812 12.398438 36.472656 12.457031 35.699219 12.558594 C 34.550781 12.769531 33.417969 13.101562 32.28125 13.402344 C 31.582031 13.578125 30.886719 13.785156 30.167969 13.992188 C 30.265625 13.105469 30.355469 12.28125 30.445312 11.457031 L 30.59375 10.246094 C 30.800781 9.046875 30.800781 9.046875 29.980469 8.167969 C 29.308594 7.445312 28.628906 6.722656 27.886719 5.953125 C 29.96875 5.339844 32.09375 4.867188 34.238281 4.539062 C 34.1875 4.28125 34.132812 4.011719 34.078125 3.75 L 33.890625 2.839844 C 33.804688 2.488281 33.859375 2.292969 34.238281 2.140625 C 34.894531 1.867188 35.5625 1.632812 36.246094 1.441406 C 38.480469 0.875 40.761719 0.496094 43.0625 0.3125 C 44.320312 0.199219 45.582031 0.140625 46.855469 0.0546875 C 46.910156 0.0429688 46.964844 0.0234375 47.015625 0 L 51.902344 0 C 52.375 0.0429688 52.851562 0.0898438 53.324219 0.121094 C 56.433594 0.277344 59.519531 0.757812 62.53125 1.558594 C 63.152344 1.746094 63.757812 1.980469 64.34375 2.253906 C 64.878906 2.492188 64.933594 2.664062 64.835938 3.230469 C 64.761719 3.667969 64.679688 4.097656 64.605469 4.535156 L 64.605469 4.539062 C 66.730469 4.851562 68.832031 5.320312 70.890625 5.9375 C 70.703125 6.144531 70.558594 6.332031 70.402344 6.496094 C 69.679688 7.265625 68.960938 8.03125 68.238281 8.796875 C 68.109375 8.902344 68.054688 9.070312 68.09375 9.230469 C 68.167969 9.554688 68.222656 9.886719 68.257812 10.214844 Z M 62.324219 10.496094 C 62.347656 10.453125 62.367188 10.40625 62.378906 10.355469 C 62.882812 7.988281 63.390625 5.625 63.902344 3.261719 C 63.960938 3.097656 63.878906 2.914062 63.714844 2.851562 C 63.417969 2.707031 63.113281 2.582031 62.804688 2.480469 C 61.085938 1.996094 59.335938 1.636719 57.570312 1.40625 C 55.246094 1.039062 52.902344 0.84375 50.550781 0.816406 C 48.621094 0.816406 46.695312 0.882812 44.769531 0.984375 C 42.304688 1.109375 39.851562 1.449219 37.441406 1.992188 C 36.707031 2.191406 35.980469 2.421875 35.265625 2.691406 C 34.992188 2.785156 34.917969 2.980469 34.976562 3.304688 C 35.324219 4.851562 35.652344 6.40625 35.988281 7.957031 C 36.175781 8.835938 36.367188 9.71875 36.5625 10.605469 C 36.773438 10.523438 36.945312 10.441406 37.128906 10.378906 C 37.316406 10.320312 37.503906 10.273438 37.699219 10.234375 C 40.359375 9.710938 43.058594 9.40625 45.769531 9.328125 C 48.113281 9.246094 50.46875 9.265625 52.820312 9.300781 C 55.253906 9.347656 57.679688 9.5625 60.085938 9.933594 C 60.855469 9.980469 61.609375 10.167969 62.308594 10.496094 Z M 31.097656 12.917969 C 32.894531 12.570312 34.589844 11.871094 36.417969 11.734375 C 36.132812 11.511719 35.824219 11.4375 35.734375 11.035156 C 35.355469 9.234375 34.921875 7.441406 34.511719 5.644531 C 34.417969 5.222656 34.410156 5.214844 33.972656 5.296875 C 32.964844 5.488281 31.960938 5.703125 30.953125 5.9375 C 30.417969 6.050781 29.90625 6.199219 29.320312 6.339844 C 30.046875 7.113281 30.738281 7.832031 31.414062 8.570312 C 31.503906 8.675781 31.550781 8.808594 31.546875 8.945312 C 31.511719 9.429688 31.449219 9.910156 31.394531 10.390625 Z M 67.742188 13.019531 C 67.585938 11.699219 67.4375 10.410156 67.277344 9.125 C 67.242188 8.929688 67.308594 8.734375 67.453125 8.601562 C 67.914062 8.140625 68.363281 7.652344 68.816406 7.171875 C 69.042969 6.933594 69.261719 6.691406 69.515625 6.421875 C 67.804688 6.003906 66.152344 5.523438 64.441406 5.34375 C 64.402344 5.453125 64.378906 5.519531 64.359375 5.585938 C 63.972656 7.332031 63.570312 9.050781 63.203125 10.78125 C 63.105469 11.214844 63.019531 11.621094 62.539062 11.785156 L 62.539062 11.851562 C 64.3125 11.980469 65.972656 12.671875 67.742188 13.035156 Z M 67.742188 13.019531 "/>
<path style=" stroke:none;fill-rule:nonzero;fill:rgb(100%,100%,100%);fill-opacity:1;" d="M 30.464844 11.453125 C 30.375 12.277344 30.285156 13.105469 30.1875 13.988281 C 30.921875 13.777344 31.609375 13.566406 32.304688 13.398438 C 33.441406 13.101562 34.570312 12.765625 35.71875 12.554688 C 36.496094 12.449219 37.277344 12.394531 38.058594 12.382812 C 38.152344 12.378906 38.246094 12.367188 38.335938 12.347656 C 38.625 12.261719 38.683594 12.085938 38.523438 11.835938 C 38.410156 11.679688 38.277344 11.535156 38.128906 11.40625 C 37.953125 11.25 37.757812 11.117188 37.5 10.921875 C 37.789062 10.835938 38.089844 10.765625 38.386719 10.710938 C 40.066406 10.511719 41.746094 10.3125 43.425781 10.144531 C 46.035156 9.902344 48.65625 9.824219 51.277344 9.914062 C 54.359375 9.972656 57.433594 10.238281 60.480469 10.707031 C 60.757812 10.753906 61.035156 10.832031 61.371094 10.917969 C 61.285156 10.984375 61.199219 11.054688 61.121094 11.128906 C 60.910156 11.273438 60.710938 11.441406 60.53125 11.625 C 60.421875 11.800781 60.335938 11.988281 60.277344 12.183594 C 60.445312 12.285156 60.628906 12.359375 60.824219 12.394531 C 63.292969 12.347656 65.59375 13.113281 67.914062 13.792969 C 68.152344 13.863281 68.394531 13.914062 68.671875 13.988281 L 68.398438 11.402344 C 71.347656 11.867188 74.261719 12.515625 77.15625 13.242188 C 81.300781 14.257812 85.378906 15.519531 89.371094 17.023438 C 91.378906 17.765625 93.324219 18.675781 95.179688 19.746094 C 95.386719 19.871094 95.601562 20.011719 95.808594 20.140625 C 97.039062 20.875 97.792969 22.199219 97.804688 23.632812 C 97.859375 24.597656 97.898438 25.570312 97.90625 26.539062 C 97.90625 30.089844 97.90625 33.640625 97.90625 37.191406 C 97.914062 37.605469 97.886719 38.015625 97.828125 38.425781 C 97.574219 39.960938 96.695312 40.734375 95.140625 40.796875 C 94.625 40.820312 94.09375 40.832031 93.59375 40.832031 L 5.484375 40.832031 C 4.84375 40.847656 4.203125 40.820312 3.566406 40.753906 C 2.035156 40.542969 1.246094 39.648438 1.15625 38.101562 C 1.15625 37.945312 1.15625 37.792969 1.15625 37.636719 C 1.15625 33.375 1.164062 29.109375 1.175781 24.847656 C 1.191406 24.164062 1.257812 23.488281 1.367188 22.816406 C 1.558594 21.558594 2.328125 20.722656 3.363281 20.046875 C 5.066406 19.003906 6.859375 18.117188 8.726562 17.402344 C 12.988281 15.707031 17.367188 14.328125 21.828125 13.269531 C 24.558594 12.609375 27.324219 12.078125 30.070312 11.492188 C 30.199219 11.46875 30.332031 11.453125 30.464844 11.453125 Z M 53.347656 26.289062 L 53.3125 26.289062 L 53.3125 30.476562 C 53.3125 32.011719 53.570312 33.472656 54.445312 34.777344 C 56.464844 37.769531 60.554688 37.605469 62.328125 34.464844 C 62.917969 33.417969 63.230469 32.234375 63.238281 31.03125 C 63.289062 27.847656 63.3125 24.660156 63.308594 21.46875 C 63.316406 20.421875 63.082031 19.390625 62.632812 18.445312 C 61.863281 16.648438 60.046875 15.53125 58.09375 15.652344 C 56 15.6875 54.699219 16.800781 53.90625 18.632812 C 53.53125 19.542969 53.34375 20.519531 53.351562 21.5 C 53.351562 23.109375 53.351562 24.699219 53.351562 26.296875 Z M 74.371094 36.660156 L 74.371094 17.90625 C 74.390625 17.742188 74.328125 17.671875 74.164062 17.644531 C 73.5625 17.558594 72.960938 17.449219 72.363281 17.351562 L 70.792969 17.121094 L 70.792969 24.414062 L 68.171875 24.414062 L 68.171875 16.796875 L 64.476562 16.289062 L 64.476562 36.660156 L 68.171875 36.660156 L 68.171875 29.167969 L 70.792969 29.167969 L 70.792969 36.660156 Z M 38.046875 16.035156 L 33.21875 16.535156 C 32.261719 23.257812 31.308594 29.949219 30.355469 36.660156 L 34.195312 36.660156 C 34.261719 35.851562 34.332031 35.0625 34.402344 34.277344 L 36.953125 34.277344 C 37.042969 35.085938 37.132812 35.878906 37.21875 36.667969 L 41.164062 36.667969 C 40.117188 29.789062 39.070312 22.933594 38.023438 16.039062 Z M 81.746094 19.203125 L 81.746094 27.898438 C 81.710938 27.828125 81.679688 27.765625 81.652344 27.699219 C 80.753906 24.757812 79.863281 21.824219 78.976562 18.894531 C 78.910156 18.664062 78.816406 18.542969 78.578125 18.515625 C 78.335938 18.488281 78.074219 18.414062 77.820312 18.359375 L 75.59375 17.886719 C 75.554688 24.171875 75.511719 30.429688 75.472656 36.65625 L 78.785156 36.65625 L 78.785156 27.582031 C 78.855469 27.671875 78.90625 27.769531 78.933594 27.875 C 79.804688 30.746094 80.671875 33.617188 81.535156 36.492188 C 81.5625 36.628906 81.695312 36.722656 81.835938 36.699219 L 84.644531 36.699219 L 84.644531 19.941406 Z M 25.75 30.050781 L 25.972656 30.03125 C 28.277344 29.792969 29.914062 28.632812 30.683594 26.425781 C 31.34375 24.5 31.386719 22.414062 30.8125 20.457031 C 30.144531 18.070312 28.4375 17.019531 26 17.453125 C 24.835938 17.664062 23.675781 17.914062 22.511719 18.132812 C 22.269531 18.175781 22.160156 18.238281 22.160156 18.515625 C 22.175781 24.464844 22.1875 30.40625 22.1875 36.351562 L 22.1875 36.660156 L 25.75 36.660156 Z M 21.527344 36.703125 C 20.492188 30.808594 19.457031 24.929688 18.425781 19.058594 C 18.316406 19.058594 18.242188 19.082031 18.175781 19.097656 C 17.128906 19.371094 16.082031 19.65625 15.011719 19.914062 C 14.816406 19.9375 14.667969 20.09375 14.660156 20.289062 C 14.414062 21.929688 14.164062 23.570312 13.902344 25.210938 C 13.480469 27.800781 13.058594 30.394531 12.625 32.980469 C 12.417969 34.21875 12.207031 35.453125 12 36.699219 L 15.453125 36.699219 L 15.664062 34.695312 L 17.691406 34.695312 C 17.78125 35.367188 17.863281 36.027344 17.953125 36.695312 Z M 48.472656 15.582031 L 48.472656 32.226562 C 48.484375 32.554688 48.230469 32.828125 47.90625 32.839844 L 47.875 32.839844 C 47.539062 32.871094 47.242188 32.621094 47.214844 32.285156 C 47.210938 32.265625 47.210938 32.246094 47.214844 32.222656 L 47.214844 30.128906 L 43.816406 30.128906 C 43.816406 31.109375 43.757812 32.0625 43.816406 33.003906 C 43.984375 35.375 45.726562 36.90625 48.089844 36.847656 C 50.324219 36.765625 51.578125 35.734375 51.964844 33.527344 C 52.125 32.605469 52.203125 31.667969 52.203125 30.734375 C 52.234375 25.789062 52.226562 20.84375 52.234375 15.902344 L 52.234375 15.578125 Z M 86.890625 31.726562 C 86.890625 32.148438 86.855469 32.570312 86.890625 32.972656 C 87.015625 34.25 87.457031 35.378906 88.527344 36.175781 C 89.40625 36.796875 90.496094 37.039062 91.554688 36.851562 C 94.328125 36.5 95.363281 34.273438 95.070312 32.214844 C 94.921875 31.367188 94.519531 30.582031 93.914062 29.96875 C 93.117188 29.089844 92.269531 28.257812 91.472656 27.386719 C 91.175781 27.058594 90.902344 26.710938 90.660156 26.339844 C 90.457031 26.066406 90.421875 25.703125 90.566406 25.394531 C 90.660156 25.207031 90.816406 25.058594 91.007812 24.976562 C 91.242188 24.886719 91.5 24.976562 91.636719 25.183594 C 91.738281 25.328125 91.808594 25.488281 91.84375 25.660156 C 91.910156 25.96875 91.9375 26.292969 91.988281 26.601562 L 95.074219 26.601562 C 95.066406 25.679688 94.878906 24.765625 94.523438 23.914062 C 94.101562 22.941406 93.273438 22.207031 92.261719 21.90625 C 91.878906 21.785156 91.484375 21.699219 91.089844 21.640625 C 89.46875 21.410156 88.042969 22.113281 87.421875 23.40625 C 87.078125 24.199219 86.96875 25.074219 87.109375 25.929688 C 87.296875 27.320312 87.949219 28.609375 88.960938 29.585938 C 89.640625 30.285156 90.359375 30.929688 91.054688 31.621094 C 91.304688 31.867188 91.507812 32.15625 91.660156 32.472656 C 91.808594 32.867188 91.625 33.308594 91.238281 33.480469 C 90.855469 33.652344 90.402344 33.492188 90.207031 33.117188 C 90.121094 32.953125 90.0625 32.777344 90.035156 32.597656 C 89.992188 32.308594 89.980469 32.011719 89.957031 31.722656 Z M 7.800781 31.773438 C 7.816406 31.757812 7.832031 31.746094 7.851562 31.738281 C 8.074219 31.703125 8.300781 31.679688 8.523438 31.640625 C 10.230469 31.339844 11.546875 30.503906 12.199219 28.847656 C 12.417969 28.269531 12.558594 27.667969 12.621094 27.050781 C 12.789062 25.878906 12.671875 24.679688 12.269531 23.5625 C 11.796875 22.335938 10.820312 21.722656 9.519531 21.898438 C 8.835938 22.007812 8.160156 22.179688 7.503906 22.40625 C 6.457031 22.753906 5.410156 23.140625 4.363281 23.507812 L 4.363281 36.730469 L 7.78125 36.730469 Z M 86.667969 23.90625 C 86.945312 22.859375 87.214844 21.8125 87.488281 20.765625 L 85.640625 20.210938 C 85.511719 21.382812 85.394531 22.503906 85.261719 23.652344 Z M 86.667969 23.90625 "/>
<path style=" stroke:none;fill-rule:nonzero;fill:rgb(5.098039%,47.843137%,33.333333%);fill-opacity:1;" d="M 62.308594 10.496094 C 61.613281 10.171875 60.867188 9.976562 60.105469 9.917969 C 57.699219 9.546875 55.273438 9.335938 52.839844 9.292969 C 50.492188 9.253906 48.136719 9.230469 45.785156 9.316406 C 43.082031 9.394531 40.386719 9.695312 37.730469 10.222656 C 37.535156 10.257812 37.347656 10.308594 37.160156 10.367188 C 36.980469 10.429688 36.8125 10.507812 36.59375 10.59375 C 36.402344 9.707031 36.210938 8.824219 36.019531 7.941406 C 35.671875 6.394531 35.363281 4.839844 35.011719 3.292969 C 34.9375 2.972656 35.011719 2.773438 35.300781 2.679688 C 36.011719 2.410156 36.738281 2.179688 37.472656 1.984375 C 39.882812 1.4375 42.335938 1.097656 44.800781 0.972656 C 46.726562 0.871094 48.640625 0.800781 50.582031 0.804688 C 52.921875 0.832031 55.257812 1.03125 57.570312 1.398438 C 59.339844 1.628906 61.089844 1.984375 62.804688 2.46875 C 63.117188 2.574219 63.421875 2.699219 63.71875 2.84375 C 63.796875 2.871094 63.863281 2.933594 63.898438 3.011719 C 63.933594 3.089844 63.933594 3.179688 63.902344 3.261719 C 63.386719 5.625 62.871094 7.988281 62.363281 10.355469 C 62.351562 10.40625 62.332031 10.453125 62.308594 10.496094 Z M 59.066406 8.3125 C 58.882812 6.492188 58.714844 4.714844 58.527344 2.917969 L 57.378906 2.769531 C 56.730469 4.472656 56.089844 6.148438 55.441406 7.847656 L 56.574219 7.992188 L 56.785156 7.371094 L 57.832031 7.515625 L 57.878906 8.164062 Z M 39.9375 2.996094 C 40.148438 4.785156 40.371094 6.523438 40.585938 8.273438 L 41.71875 8.132812 C 41.632812 7.417969 41.550781 6.734375 41.46875 6.066406 C 41.839844 5.988281 42.203125 5.890625 42.558594 5.765625 C 43.21875 5.507812 43.601562 4.816406 43.46875 4.121094 C 43.417969 3.390625 42.804688 2.832031 42.074219 2.84375 C 41.378906 2.832031 40.683594 2.9375 39.9375 2.996094 Z M 52.582031 6.71875 L 52.75 6.417969 C 53.339844 5.449219 53.917969 4.476562 54.523438 3.519531 C 54.699219 3.199219 54.769531 2.835938 54.734375 2.472656 L 51.546875 2.304688 C 51.527344 2.625 51.511719 2.917969 51.488281 3.238281 L 53.359375 3.34375 C 53.289062 3.460938 53.242188 3.554688 53.1875 3.632812 C 52.613281 4.574219 52.054688 5.523438 51.445312 6.449219 C 51.246094 6.792969 51.171875 7.191406 51.230469 7.582031 L 54.53125 7.746094 C 54.53125 7.417969 54.5625 7.125 54.582031 6.8125 Z M 50.050781 2.359375 L 46.890625 2.359375 L 46.890625 3.296875 L 48.734375 3.296875 C 48.675781 3.414062 48.632812 3.503906 48.589844 3.59375 C 48.078125 4.554688 47.585938 5.53125 47.046875 6.480469 C 46.871094 6.828125 46.808594 7.222656 46.871094 7.605469 L 50.167969 7.605469 L 50.167969 6.675781 L 48.199219 6.675781 C 48.253906 6.558594 48.296875 6.464844 48.34375 6.375 C 48.851562 5.410156 49.351562 4.441406 49.878906 3.484375 C 50.074219 3.140625 50.140625 2.738281 50.066406 2.351562 Z M 44.238281 2.515625 C 44.34375 4.304688 44.445312 6.046875 44.550781 7.796875 L 45.691406 7.722656 C 45.589844 5.960938 45.484375 4.230469 45.390625 2.460938 Z M 44.238281 2.515625 "/>
<path style=" stroke:none;fill-rule:nonzero;fill:rgb(5.882353%,47.45098%,32.941176%);fill-opacity:1;" d="M 31.097656 12.917969 L 31.394531 10.363281 C 31.449219 9.882812 31.511719 9.402344 31.546875 8.917969 C 31.550781 8.78125 31.5 8.648438 31.414062 8.542969 C 30.734375 7.804688 30.042969 7.085938 29.320312 6.3125 C 29.882812 6.171875 30.414062 6.023438 30.945312 5.90625 C 31.953125 5.6875 32.957031 5.476562 33.96875 5.277344 C 34.402344 5.191406 34.410156 5.207031 34.503906 5.628906 C 34.921875 7.421875 35.34375 9.21875 35.730469 11.019531 C 35.816406 11.429688 36.128906 11.5 36.425781 11.71875 C 34.589844 11.871094 32.894531 12.570312 31.097656 12.917969 Z M 31.097656 12.917969 "/>
<path style=" stroke:none;fill-rule:nonzero;fill:rgb(5.882353%,47.45098%,32.941176%);fill-opacity:1;" d="M 67.742188 13.035156 C 65.964844 12.683594 64.308594 11.988281 62.507812 11.851562 L 62.507812 11.785156 C 62.988281 11.621094 63.074219 11.214844 63.171875 10.78125 C 63.554688 9.035156 63.953125 7.328125 64.351562 5.601562 C 64.351562 5.535156 64.394531 5.46875 64.433594 5.359375 C 66.148438 5.539062 67.789062 6.023438 69.507812 6.433594 C 69.253906 6.707031 69.03125 6.949219 68.808594 7.1875 C 68.355469 7.667969 67.910156 8.152344 67.445312 8.617188 C 67.300781 8.75 67.234375 8.945312 67.269531 9.136719 C 67.445312 10.421875 67.589844 11.714844 67.742188 13.035156 Z M 67.742188 13.035156 "/>
<path style=" stroke:none;fill-rule:nonzero;fill:rgb(87.058824%,18.039216%,15.686275%);fill-opacity:1;" d="M 53.339844 26.289062 L 53.339844 21.492188 C 53.332031 20.507812 53.527344 19.53125 53.910156 18.625 C 54.703125 16.789062 56.054688 15.683594 58.097656 15.640625 C 60.050781 15.515625 61.867188 16.636719 62.636719 18.433594 C 63.085938 19.378906 63.320312 20.414062 63.3125 21.460938 C 63.3125 24.648438 63.289062 27.835938 63.242188 31.023438 C 63.234375 32.226562 62.921875 33.40625 62.332031 34.453125 C 60.558594 37.597656 56.46875 37.757812 54.449219 34.765625 C 53.574219 33.464844 53.3125 32 53.316406 30.46875 L 53.316406 26.277344 Z M 57.378906 26.289062 L 57.378906 31.707031 C 57.351562 32.03125 57.496094 32.347656 57.757812 32.539062 C 58.023438 32.730469 58.367188 32.769531 58.667969 32.640625 C 59.066406 32.496094 59.238281 32.191406 59.238281 31.617188 L 59.238281 20.90625 C 59.242188 20.789062 59.234375 20.675781 59.21875 20.558594 C 59.171875 20.210938 58.914062 19.933594 58.570312 19.859375 C 58.273438 19.761719 57.945312 19.820312 57.703125 20.019531 C 57.460938 20.214844 57.335938 20.523438 57.371094 20.835938 C 57.375 22.660156 57.378906 24.476562 57.378906 26.289062 Z M 57.378906 26.289062 "/>
<path style=" stroke:none;fill-rule:nonzero;fill:rgb(87.058824%,18.039216%,15.686275%);fill-opacity:1;" d="M 74.371094 36.660156 L 70.808594 36.660156 L 70.808594 29.167969 L 68.183594 29.167969 L 68.183594 36.660156 L 64.492188 36.660156 L 64.492188 16.292969 L 68.183594 16.796875 L 68.183594 24.40625 L 70.792969 24.40625 L 70.792969 17.109375 L 72.363281 17.34375 C 72.960938 17.4375 73.558594 17.550781 74.160156 17.632812 C 74.332031 17.65625 74.394531 17.726562 74.371094 17.890625 Z M 74.371094 36.660156 "/>
<path style=" stroke:none;fill-rule:nonzero;fill:rgb(87.058824%,18.039216%,15.686275%);fill-opacity:1;" d="M 38.039062 16.035156 C 39.085938 22.925781 40.132812 29.78125 41.179688 36.660156 L 37.230469 36.660156 C 37.140625 35.871094 37.054688 35.078125 36.964844 34.269531 L 34.410156 34.269531 C 34.339844 35.054688 34.269531 35.84375 34.199219 36.65625 L 30.339844 36.65625 C 31.292969 29.949219 32.246094 23.265625 33.207031 16.535156 Z M 36.699219 30.515625 C 36.351562 28.019531 36.03125 25.566406 35.703125 23.109375 L 35.636719 23.109375 C 35.355469 25.554688 35.082031 28.035156 34.792969 30.507812 Z M 36.699219 30.515625 "/>
<path style=" stroke:none;fill-rule:nonzero;fill:rgb(87.058824%,17.647059%,15.686275%);fill-opacity:1;" d="M 81.738281 19.203125 L 84.644531 19.949219 L 84.644531 36.6875 L 81.835938 36.6875 C 81.695312 36.710938 81.5625 36.617188 81.535156 36.476562 C 80.671875 33.609375 79.804688 30.742188 78.933594 27.867188 C 78.90625 27.757812 78.855469 27.660156 78.785156 27.574219 L 78.785156 36.652344 L 75.472656 36.652344 C 75.507812 30.402344 75.546875 24.144531 75.585938 17.878906 L 77.8125 18.355469 C 78.0625 18.40625 78.316406 18.480469 78.570312 18.511719 C 78.824219 18.542969 78.902344 18.664062 78.96875 18.890625 C 79.855469 21.828125 80.746094 24.765625 81.644531 27.695312 C 81.671875 27.761719 81.703125 27.828125 81.738281 27.890625 Z M 81.738281 19.203125 "/>
<path style=" stroke:none;fill-rule:nonzero;fill:rgb(87.058824%,17.647059%,15.686275%);fill-opacity:1;" d="M 25.75 30.050781 L 25.75 36.660156 L 22.214844 36.660156 L 22.214844 36.351562 C 22.214844 30.40625 22.203125 24.460938 22.183594 18.515625 C 22.183594 18.238281 22.28125 18.167969 22.535156 18.132812 C 23.695312 17.921875 24.855469 17.660156 26.023438 17.453125 C 28.46875 17.019531 30.171875 18.070312 30.835938 20.457031 C 31.414062 22.414062 31.367188 24.5 30.707031 26.425781 C 29.925781 28.648438 28.304688 29.785156 25.980469 30.027344 Z M 25.75 26.128906 C 26.699219 26.15625 27.347656 25.722656 27.550781 24.902344 C 27.730469 24.179688 27.753906 23.429688 27.617188 22.699219 C 27.410156 21.671875 26.753906 21.28125 25.75 21.585938 Z M 25.75 26.128906 "/>
<path style=" stroke:none;fill-rule:nonzero;fill:rgb(87.058824%,18.039216%,15.686275%);fill-opacity:1;" d="M 21.527344 36.703125 L 17.945312 36.703125 C 17.859375 36.03125 17.773438 35.375 17.683594 34.707031 L 15.65625 34.707031 L 15.445312 36.707031 L 12.003906 36.707031 L 12.628906 32.988281 C 13.0625 30.398438 13.484375 27.808594 13.902344 25.21875 C 14.167969 23.578125 14.417969 21.941406 14.664062 20.300781 C 14.667969 20.101562 14.816406 19.9375 15.015625 19.914062 C 16.0625 19.65625 17.125 19.375 18.183594 19.097656 C 18.25 19.082031 18.320312 19.082031 18.429688 19.0625 C 19.464844 24.945312 20.496094 30.824219 21.527344 36.703125 Z M 17.339844 31.5625 L 16.617188 25.707031 L 16.519531 25.707031 C 16.328125 27.65625 16.140625 29.609375 15.953125 31.5625 Z M 17.339844 31.5625 "/>
<path style=" stroke:none;fill-rule:nonzero;fill:rgb(87.058824%,18.039216%,15.686275%);fill-opacity:1;" d="M 48.472656 15.582031 L 52.234375 15.582031 L 52.234375 15.90625 C 52.234375 20.847656 52.222656 25.789062 52.207031 30.734375 C 52.207031 31.671875 52.125 32.605469 51.964844 33.53125 C 51.570312 35.738281 50.324219 36.773438 48.089844 36.851562 C 45.726562 36.929688 43.984375 35.398438 43.816406 33.007812 C 43.75 32.066406 43.816406 31.121094 43.816406 30.132812 L 47.207031 30.132812 L 47.207031 32.226562 C 47.203125 32.390625 47.265625 32.546875 47.378906 32.664062 C 47.492188 32.78125 47.648438 32.847656 47.8125 32.847656 L 47.847656 32.847656 C 48.175781 32.855469 48.449219 32.59375 48.453125 32.265625 C 48.453125 32.257812 48.453125 32.246094 48.453125 32.238281 L 48.453125 15.582031 Z M 48.472656 15.582031 "/>
<path style=" stroke:none;fill-rule:nonzero;fill:rgb(87.058824%,18.039216%,15.686275%);fill-opacity:1;" d="M 86.894531 31.726562 L 89.972656 31.726562 C 89.992188 32.019531 90.003906 32.3125 90.042969 32.605469 C 90.074219 32.785156 90.132812 32.960938 90.21875 33.125 C 90.398438 33.527344 90.871094 33.703125 91.269531 33.523438 C 91.671875 33.34375 91.851562 32.871094 91.671875 32.472656 C 91.507812 32.152344 91.296875 31.859375 91.039062 31.609375 C 90.359375 30.910156 89.644531 30.265625 88.960938 29.574219 C 87.949219 28.601562 87.296875 27.3125 87.109375 25.917969 C 86.96875 25.066406 87.078125 24.1875 87.421875 23.398438 C 88.042969 22.097656 89.46875 21.398438 91.089844 21.628906 C 91.484375 21.683594 91.878906 21.773438 92.261719 21.894531 C 93.277344 22.195312 94.105469 22.929688 94.523438 23.902344 C 94.878906 24.753906 95.066406 25.667969 95.074219 26.589844 L 91.988281 26.589844 C 91.9375 26.273438 91.910156 25.964844 91.84375 25.648438 C 91.808594 25.476562 91.738281 25.316406 91.636719 25.175781 C 91.5 24.964844 91.242188 24.878906 91.007812 24.964844 C 90.816406 25.050781 90.660156 25.195312 90.566406 25.382812 C 90.421875 25.691406 90.457031 26.054688 90.660156 26.328125 C 90.902344 26.699219 91.175781 27.050781 91.472656 27.378906 C 92.273438 28.246094 93.117188 29.082031 93.914062 29.957031 C 94.523438 30.570312 94.925781 31.355469 95.078125 32.207031 C 95.371094 34.261719 94.335938 36.496094 91.5625 36.839844 C 90.503906 37.027344 89.414062 36.785156 88.535156 36.164062 C 87.464844 35.371094 87.023438 34.238281 86.898438 32.960938 C 86.867188 32.566406 86.894531 32.152344 86.894531 31.726562 Z M 86.894531 31.726562 "/>
<path style=" stroke:none;fill-rule:nonzero;fill:rgb(87.058824%,18.039216%,15.686275%);fill-opacity:1;" d="M 7.804688 31.773438 L 7.804688 36.730469 L 4.382812 36.730469 L 4.382812 23.519531 C 5.429688 23.171875 6.476562 22.761719 7.523438 22.417969 C 8.183594 22.191406 8.863281 22.023438 9.550781 21.914062 C 10.851562 21.734375 11.828125 22.347656 12.300781 23.574219 C 12.703125 24.691406 12.820312 25.890625 12.652344 27.066406 C 12.589844 27.679688 12.449219 28.285156 12.234375 28.859375 C 11.578125 30.527344 10.261719 31.363281 8.554688 31.65625 C 8.332031 31.691406 8.109375 31.71875 7.882812 31.753906 C 7.855469 31.75 7.828125 31.757812 7.804688 31.773438 Z M 7.777344 25.523438 L 7.777344 28.980469 C 8.707031 28.832031 9.101562 28.574219 9.285156 27.84375 C 9.410156 27.367188 9.453125 26.867188 9.414062 26.375 C 9.335938 25.488281 8.925781 25.226562 8.066406 25.453125 Z M 7.777344 25.523438 "/>
<path style=" stroke:none;fill-rule:nonzero;fill:rgb(87.45098%,18.823529%,16.470588%);fill-opacity:1;" d="M 86.660156 23.914062 L 85.261719 23.664062 C 85.394531 22.511719 85.511719 21.394531 85.640625 20.21875 L 87.488281 20.773438 C 87.195312 21.824219 86.933594 22.855469 86.660156 23.914062 Z M 86.660156 23.914062 "/>
<path style=" stroke:none;fill-rule:nonzero;fill:rgb(98.823529%,99.215686%,99.215686%);fill-opacity:1;" d="M 59.066406 8.3125 L 57.882812 8.164062 L 57.832031 7.515625 L 56.785156 7.371094 L 56.574219 7.992188 L 55.441406 7.847656 C 56.089844 6.148438 56.730469 4.472656 57.382812 2.769531 L 58.53125 2.917969 C 58.710938 4.714844 58.882812 6.492188 59.066406 8.3125 Z M 57.816406 6.632812 C 57.785156 5.96875 57.753906 5.335938 57.722656 4.699219 L 57.648438 4.699219 L 57.058594 6.53125 Z M 57.816406 6.632812 "/>
<path style=" stroke:none;fill-rule:nonzero;fill:rgb(98.823529%,99.215686%,99.215686%);fill-opacity:1;" d="M 39.9375 2.996094 C 40.679688 2.941406 41.378906 2.832031 42.074219 2.84375 C 42.863281 2.84375 43.332031 3.34375 43.46875 4.121094 C 43.601562 4.816406 43.21875 5.507812 42.558594 5.765625 C 42.203125 5.890625 41.839844 5.988281 41.46875 6.066406 C 41.550781 6.726562 41.632812 7.417969 41.71875 8.132812 L 40.585938 8.273438 C 40.371094 6.523438 40.171875 4.785156 39.9375 2.996094 Z M 41.332031 5.089844 C 41.714844 5.074219 42.074219 5.089844 42.265625 4.699219 C 42.402344 4.457031 42.367188 4.152344 42.183594 3.945312 C 41.902344 3.632812 41.542969 3.789062 41.171875 3.796875 Z M 41.332031 5.089844 "/>
<path style=" stroke:none;fill-rule:nonzero;fill:rgb(98.039216%,99.215686%,98.823529%);fill-opacity:1;" d="M 52.582031 6.71875 L 54.585938 6.824219 C 54.566406 7.140625 54.554688 7.433594 54.535156 7.757812 L 51.234375 7.597656 C 51.183594 7.207031 51.257812 6.808594 51.445312 6.460938 C 52.042969 5.539062 52.601562 4.589844 53.1875 3.644531 C 53.242188 3.5625 53.292969 3.472656 53.359375 3.355469 L 51.488281 3.253906 C 51.511719 2.933594 51.53125 2.640625 51.550781 2.320312 L 54.746094 2.480469 C 54.773438 2.839844 54.699219 3.203125 54.535156 3.527344 C 53.925781 4.480469 53.347656 5.453125 52.757812 6.425781 C 52.691406 6.515625 52.632812 6.613281 52.582031 6.71875 Z M 52.582031 6.71875 "/>
<path style=" stroke:none;fill-rule:nonzero;fill:rgb(98.823529%,99.215686%,99.215686%);fill-opacity:1;" d="M 50.050781 2.351562 C 50.125 2.734375 50.058594 3.132812 49.867188 3.472656 C 49.335938 4.429688 48.835938 5.402344 48.332031 6.363281 C 48.28125 6.453125 48.238281 6.546875 48.183594 6.664062 L 50.167969 6.664062 L 50.167969 7.59375 L 46.871094 7.59375 C 46.808594 7.210938 46.871094 6.816406 47.046875 6.46875 C 47.585938 5.519531 48.09375 4.546875 48.589844 3.582031 C 48.632812 3.496094 48.675781 3.402344 48.734375 3.285156 L 46.890625 3.285156 L 46.890625 2.351562 Z M 50.050781 2.351562 "/>
<path style=" stroke:none;fill-rule:nonzero;fill:rgb(98.039216%,99.215686%,98.823529%);fill-opacity:1;" d="M 44.238281 2.503906 L 45.40625 2.445312 C 45.507812 4.191406 45.617188 5.9375 45.710938 7.707031 L 44.570312 7.777344 C 44.445312 6.035156 44.359375 4.292969 44.238281 2.503906 Z M 44.238281 2.503906 "/>
<path style=" stroke:none;fill-rule:nonzero;fill:rgb(100%,98.823529%,98.823529%);fill-opacity:1;" d="M 57.378906 26.289062 L 57.378906 20.84375 C 57.34375 20.535156 57.472656 20.226562 57.714844 20.03125 C 57.953125 19.835938 58.28125 19.773438 58.578125 19.871094 C 58.921875 19.941406 59.179688 20.222656 59.230469 20.570312 C 59.238281 20.683594 59.238281 20.800781 59.230469 20.917969 L 59.230469 31.621094 C 59.230469 32.195312 59.054688 32.496094 58.65625 32.640625 C 58.355469 32.773438 58.007812 32.738281 57.742188 32.546875 C 57.472656 32.355469 57.328125 32.035156 57.359375 31.707031 C 57.371094 29.902344 57.378906 28.097656 57.378906 26.289062 Z M 57.378906 26.289062 "/>
<path style=" stroke:none;fill-rule:nonzero;fill:rgb(99.215686%,98.039216%,98.431373%);fill-opacity:1;" d="M 36.699219 30.515625 L 34.808594 30.515625 C 35.085938 28.039062 35.363281 25.574219 35.648438 23.113281 L 35.71875 23.113281 C 36.039062 25.566406 36.367188 28.019531 36.699219 30.515625 Z M 36.699219 30.515625 "/>
<path style=" stroke:none;fill-rule:nonzero;fill:rgb(99.215686%,97.647059%,97.647059%);fill-opacity:1;" d="M 25.765625 26.128906 L 25.765625 21.59375 C 26.765625 21.289062 27.429688 21.679688 27.632812 22.707031 C 27.769531 23.4375 27.746094 24.1875 27.5625 24.910156 C 27.359375 25.722656 26.714844 26.15625 25.765625 26.128906 Z M 25.765625 26.128906 "/>
<path style=" stroke:none;fill-rule:nonzero;fill:rgb(99.215686%,97.647059%,97.647059%);fill-opacity:1;" d="M 17.351562 31.5625 L 15.957031 31.5625 C 16.144531 29.605469 16.332031 27.65625 16.519531 25.707031 L 16.617188 25.707031 Z M 17.351562 31.5625 "/>
<path style=" stroke:none;fill-rule:nonzero;fill:rgb(100%,98.823529%,98.823529%);fill-opacity:1;" d="M 7.777344 25.53125 L 8.046875 25.449219 C 8.925781 25.222656 9.335938 25.449219 9.414062 26.371094 C 9.453125 26.867188 9.410156 27.363281 9.285156 27.839844 C 9.101562 28.574219 8.707031 28.832031 7.777344 28.976562 Z M 7.777344 25.53125 "/>
<path style=" stroke:none;fill-rule:nonzero;fill:rgb(7.45098%,49.803922%,35.686275%);fill-opacity:1;" d="M 57.816406 6.632812 L 57.058594 6.535156 C 57.269531 5.914062 57.457031 5.308594 57.652344 4.699219 L 57.726562 4.699219 C 57.753906 5.347656 57.785156 5.984375 57.816406 6.632812 Z M 57.816406 6.632812 "/>
<path style=" stroke:none;fill-rule:nonzero;fill:rgb(7.058824%,49.019608%,34.901961%);fill-opacity:1;" d="M 41.351562 5.089844 L 41.191406 3.796875 C 41.5625 3.796875 41.921875 3.628906 42.199219 3.945312 C 42.386719 4.152344 42.417969 4.457031 42.28125 4.699219 C 42.089844 5.078125 41.734375 5.074219 41.351562 5.089844 Z M 41.351562 5.089844 "/>
</g>
</svg>
