<svg xmlns="http://www.w3.org/2000/svg" xmlns:xlink="http://www.w3.org/1999/xlink" viewBox="0 0 283.46 283.46"><defs><radialGradient id="radial-gradient" cx="775.58" cy="-193.56" r="0.32" gradientTransform="translate(-179421.08 477544.97) rotate(-55.38) scale(637.99)" gradientUnits="userSpaceOnUse"><stop offset="0" stop-color="#b13589"/><stop offset="0.79" stop-color="#c62f94"/><stop offset="1" stop-color="#8a3ac8"/></radialGradient><radialGradient id="radial-gradient-2" cx="776.19" cy="-193.83" r="0.32" gradientTransform="translate(-84905.59 444093.74) rotate(-65.14) scale(564.86)" gradientUnits="userSpaceOnUse"><stop offset="0" stop-color="#e0e8b7"/><stop offset="0.44" stop-color="#fb8a2e"/><stop offset="0.71" stop-color="#e2425c"/><stop offset="1" stop-color="#e2425c" stop-opacity="0"/></radialGradient><radialGradient id="radial-gradient-3" cx="774.76" cy="-194.1" r="0.32" gradientTransform="matrix(962.5, -137.5, 29.41, 205.87, -739981.83, 146524.99)" gradientUnits="userSpaceOnUse"><stop offset="0.16" stop-color="#406adc"/><stop offset="0.47" stop-color="#6a45be"/><stop offset="1" stop-color="#6a45be" stop-opacity="0"/></radialGradient></defs><g id="Layer_2" data-name="Layer 2"><g id="Layer_1-2" data-name="Layer 1"><rect width="283.46" height="283.46" rx="56.69" fill="#bd1fff" opacity="0.2" style="isolation:isolate"/><rect x="28.34" y="28.34" width="226.77" height="226.77" rx="48.59" fill="url(#radial-gradient)"/><rect x="28.34" y="28.34" width="226.77" height="226.77" rx="48.59" fill="url(#radial-gradient-2)"/><rect x="28.34" y="28.34" width="226.77" height="226.77" rx="48.59" fill="url(#radial-gradient-3)"/><path d="M153.88,141.77a12.15,12.15,0,1,1-12.15-12.19,12.15,12.15,0,0,1,12.15,12.19Z" fill="#fff"/><path d="M141.72,182.23a40.5,40.5,0,1,0-40.49-40.51h0A40.51,40.51,0,0,0,141.72,182.23Zm0-16.2a24.3,24.3,0,1,0-24.29-24.31h0A24.31,24.31,0,0,0,141.72,166Z" fill="#fff" fill-rule="evenodd"/><path d="M60.74,138.5c0-27.21,0-40.82,5.3-51.21A48.62,48.62,0,0,1,87.28,66c10.39-5.3,24-5.3,51.21-5.3H145c27.22,0,40.83,0,51.22,5.3a48.73,48.73,0,0,1,21.25,21.24c5.28,10.39,5.28,24,5.28,51.21V145c0,27.22,0,40.83-5.28,51.22a48.7,48.7,0,0,1-21.25,21.25c-10.39,5.28-24,5.28-51.22,5.28h-6.48c-27.2,0-40.82,0-51.2-5.28A48.67,48.67,0,0,1,66,196.19c-5.3-10.39-5.3-24-5.3-51.22ZM138.5,76.94H145c13.89,0,23.31,0,30.61.61,7.1.59,10.72,1.63,13.27,2.92A32.42,32.42,0,0,1,203,94.63c1.29,2.53,2.36,6.16,2.93,13.27.59,7.29.6,16.72.6,30.59V145c0,13.89,0,23.31-.6,30.61-.58,7.1-1.64,10.72-2.93,13.27A32.26,32.26,0,0,1,188.84,203c-2.54,1.29-6.17,2.36-13.27,2.93-7.29.59-16.72.6-30.6.6h-6.48c-13.87,0-23.3,0-30.59-.6-7.11-.58-10.74-1.64-13.27-2.93a32.41,32.41,0,0,1-14.16-14.14c-1.29-2.54-2.34-6.17-2.92-13.28-.6-7.28-.61-16.72-.61-30.6V138.5c0-13.87,0-23.3.61-30.59.58-7.11,1.63-10.73,2.92-13.27A32.48,32.48,0,0,1,94.63,80.47c2.53-1.29,6.16-2.33,13.27-2.92C115.19,77,124.62,76.94,138.5,76.94Z" fill="#fff" fill-rule="evenodd"/></g></g></svg>