<svg xmlns="http://www.w3.org/2000/svg" xmlns:xlink="http://www.w3.org/1999/xlink" viewBox="0 0 283.46 283.46"><defs><linearGradient id="linear-gradient" x1="521.74" y1="38.19" x2="521.74" y2="32.69" gradientTransform="translate(-20727.91 -1271.86) scale(40 39.78)" gradientUnits="userSpaceOnUse"><stop offset="0" stop-color="#0062e0"/><stop offset="1" stop-color="#19afff"/></linearGradient></defs><g id="Layer_2" data-name="Layer 2"><g id="Layer_1-2" data-name="Layer 1"><rect width="283.46" height="283.46" rx="56.69" fill="#4a6dff" opacity="0.2"/><path d="M123,254c-53.85-9.63-94.67-56.12-94.67-112.25,0-62.36,51-113.38,113.38-113.38s113.39,51,113.39,113.38c0,56.13-40.82,102.62-94.68,112.25l-6.24-5.1H129.26Z" fill="url(#linear-gradient)"/><path d="M186,173.48l5.11-31.75H161V119.62c0-9.07,3.4-15.87,17-15.87h14.74V74.83a186.1,186.1,0,0,0-24.95-2.26c-26.08,0-44.22,15.87-44.22,44.22v24.94H95.24v31.75h28.35v79.94a103.81,103.81,0,0,0,37.42,0V173.48Z" fill="#fff"/></g></g></svg>