<?xml version="1.0" encoding="UTF-8"?>
<svg xmlns="http://www.w3.org/2000/svg" xmlns:xlink="http://www.w3.org/1999/xlink" width="100px" height="px" viewBox="0 0 101 23" version="1.1">
<g id="surface1">
<path style=" stroke:none;fill-rule:nonzero;fill:rgb(0%,0%,0%);fill-opacity:1;" d="M 22.527344 3.96875 L 10.925781 15.089844 L 18.9375 16.738281 L 17.511719 22.023438 L 0 18.167969 L 11.3125 6.855469 L 3.507812 5.640625 L 4.632812 0.0664062 Z M 22.527344 3.96875 "/>
<path style=" stroke:none;fill-rule:nonzero;fill:rgb(0%,0%,0%);fill-opacity:1;" d="M 37.628906 13.027344 C 37.628906 14.496094 37.363281 17.46875 36.828125 21.941406 L 31.949219 21.28125 L 32.066406 19.40625 L 29.300781 19.488281 L 29.429688 21.234375 L 24.492188 21.859375 C 24 17.339844 23.753906 14.328125 23.753906 12.820312 C 23.753906 10.777344 24.390625 9.148438 25.660156 7.890625 C 26.933594 6.628906 28.570312 6.03125 30.621094 6.03125 C 32.492188 5.972656 34.300781 6.691406 35.632812 8.015625 C 36.953125 9.335938 37.675781 11.148438 37.628906 13.027344 Z M 32.359375 13.648438 C 32.382812 13.109375 32.238281 12.574219 31.949219 12.117188 C 31.679688 11.652344 31.179688 11.367188 30.644531 11.375 C 30.160156 11.359375 29.707031 11.601562 29.457031 12.015625 C 29.175781 12.441406 29.023438 12.9375 29.023438 13.449219 C 29.023438 14.6875 29.0625 15.78125 29.128906 16.773438 L 32.265625 16.710938 C 32.34375 15.855469 32.359375 14.824219 32.359375 13.648438 Z M 32.359375 13.648438 "/>
<path style=" stroke:none;fill-rule:nonzero;fill:rgb(0%,0%,0%);fill-opacity:1;" d="M 55.996094 5.824219 L 53.613281 21.160156 L 47.9375 20.394531 L 44.433594 12.097656 C 44.207031 14 44.074219 15.328125 44.003906 16.101562 C 43.859375 17.609375 43.777344 18.929688 43.738281 20.105469 L 38.59375 19.242188 C 38.679688 16.773438 38.890625 14.316406 39.226562 11.871094 C 39.582031 9.335938 39.9375 6.609375 40.378906 3.679688 L 46.503906 4.214844 L 49.84375 13.214844 L 51.238281 5.0625 Z M 55.996094 5.824219 "/>
<path style=" stroke:none;fill-rule:nonzero;fill:rgb(0%,0%,0%);fill-opacity:1;" d="M 61.875 11.355469 C 61.640625 13.597656 61.523438 15.847656 61.515625 18.105469 C 61.515625 20.105469 61.554688 21.671875 61.617188 22.8125 L 56.738281 22.933594 C 56.617188 21.449219 56.558594 19.796875 56.558594 18.003906 C 56.558594 16.210938 56.65625 13.933594 56.863281 11.210938 Z M 61.875 11.355469 "/>
<path style=" stroke:none;fill-rule:nonzero;fill:rgb(0%,0%,0%);fill-opacity:1;" d="M 80.691406 13.957031 C 80.957031 16.390625 81.101562 18.746094 81.160156 21.011719 L 76.773438 21.671875 C 76.753906 20.105469 76.609375 17.609375 76.324219 14.183594 L 73.207031 22.191406 L 68.476562 14.90625 C 68.679688 16.558594 69.050781 19.03125 69.601562 22.332031 L 65.175781 22.5 C 64.746094 20.269531 64.394531 17.9375 64.136719 15.496094 C 63.875 13.050781 63.621094 10.472656 63.355469 7.652344 L 68.480469 6.96875 L 72.292969 13.449219 L 74.652344 6.414062 L 79.8125 6.132812 C 80.136719 8.941406 80.445312 11.546875 80.691406 13.957031 Z M 80.691406 13.957031 "/>
<path style=" stroke:none;fill-rule:nonzero;fill:rgb(0%,0%,0%);fill-opacity:1;" d="M 101 10.832031 C 101.027344 13.230469 100.078125 15.539062 98.378906 17.21875 C 94.738281 20.882812 88.835938 20.882812 85.195312 17.21875 C 81.699219 13.71875 81.679688 8.027344 85.152344 4.503906 L 85.210938 4.441406 C 88.867188 0.835938 94.714844 0.835938 98.371094 4.441406 C 100.089844 6.113281 101.039062 8.425781 101 10.832031 Z M 101 10.832031 "/>
<path style=" stroke:none;fill-rule:nonzero;fill:rgb(100%,100%,100%);fill-opacity:1;" d="M 86.261719 14.039062 C 86.019531 13.601562 85.808594 13.148438 85.628906 12.679688 C 85.605469 12.574219 85.605469 12.46875 85.628906 12.367188 C 85.628906 12.082031 85.648438 11.800781 85.6875 11.519531 C 85.71875 11.242188 85.832031 10.984375 86.015625 10.777344 L 86.015625 10.613281 L 86.117188 10.59375 L 86.136719 10.695312 C 86.335938 10.589844 86.550781 10.519531 86.773438 10.488281 L 87.484375 10.386719 C 87.8125 10.441406 88.128906 10.5625 88.40625 10.746094 L 89.207031 11.21875 L 89.207031 11.300781 C 89.207031 11.34375 89.25 11.363281 89.308594 11.34375 C 89.332031 11.332031 89.359375 11.335938 89.382812 11.347656 C 89.40625 11.359375 89.425781 11.378906 89.429688 11.40625 C 89.488281 11.488281 89.558594 11.566406 89.636719 11.632812 C 89.738281 11.714844 89.8125 11.832031 89.839844 11.960938 L 89.921875 11.941406 L 90.046875 12.25 C 90.066406 12.351562 90.027344 12.457031 89.945312 12.515625 C 89.945312 12.933594 89.824219 13.179688 89.554688 13.261719 C 89.59375 13.324219 89.578125 13.347656 89.511719 13.363281 C 89.449219 13.382812 89.414062 13.40625 89.429688 13.445312 C 89.367188 13.558594 89.285156 13.65625 89.183594 13.738281 C 89.070312 13.824219 89 13.953125 88.980469 14.097656 C 88.855469 14.125 88.75 14.199219 88.675781 14.304688 C 88.59375 14.421875 88.457031 14.484375 88.320312 14.46875 C 88.15625 14.613281 87.765625 14.671875 87.1875 14.65625 C 86.835938 14.527344 86.519531 14.316406 86.261719 14.039062 Z M 86.261719 10.347656 C 86.15625 10.363281 86.050781 10.324219 85.976562 10.242188 C 86 10.054688 86.015625 9.882812 86.058594 9.664062 C 86.082031 9.484375 86.160156 9.316406 86.285156 9.1875 C 86.410156 9.082031 86.578125 9.046875 86.738281 9.085938 C 86.851562 9.210938 86.921875 9.371094 86.941406 9.539062 C 86.960938 9.722656 87.003906 9.902344 87.066406 10.078125 L 87.164062 10.054688 L 87.1875 10.117188 C 87.125 10.117188 87.105469 10.160156 87.082031 10.222656 L 86.582031 10.160156 C 86.457031 10.167969 86.34375 10.238281 86.273438 10.347656 Z M 91.324219 18.1875 C 90.925781 18.222656 90.519531 18.160156 90.148438 18.007812 C 89.824219 17.902344 89.546875 17.683594 89.371094 17.390625 C 89.308594 17.214844 89.207031 17.058594 89.078125 16.929688 C 88.953125 16.792969 88.855469 16.632812 88.792969 16.457031 L 88.769531 16.394531 L 88.792969 16.394531 C 88.769531 16.394531 88.75 16.351562 88.730469 16.269531 C 88.714844 16.1875 88.730469 16.125 88.792969 16.105469 C 88.796875 15.9375 88.824219 15.769531 88.875 15.609375 C 89.082031 15.242188 89.371094 14.921875 89.714844 14.679688 C 90.0625 14.4375 90.296875 14.070312 90.371094 13.652344 C 90.433594 13.507812 90.515625 13.382812 90.597656 13.21875 C 90.660156 13.074219 90.777344 12.964844 90.921875 12.910156 L 90.882812 12.742188 C 90.949219 12.765625 91.019531 12.765625 91.085938 12.742188 C 91.234375 12.707031 91.378906 12.65625 91.519531 12.597656 C 91.652344 12.550781 91.78125 12.496094 91.90625 12.429688 C 92.175781 12.414062 92.523438 12.414062 92.953125 12.390625 L 92.910156 12.414062 C 93.046875 12.386719 93.1875 12.441406 93.269531 12.558594 C 93.34375 12.664062 93.464844 12.726562 93.597656 12.722656 C 93.683594 12.785156 93.765625 12.855469 93.839844 12.929688 C 93.917969 13.003906 93.964844 13.109375 93.960938 13.21875 C 94.050781 13.328125 94.15625 13.425781 94.273438 13.507812 C 94.339844 13.601562 94.398438 13.695312 94.453125 13.792969 C 94.515625 13.890625 94.609375 13.957031 94.722656 13.980469 C 94.851562 14.269531 95.085938 14.496094 95.378906 14.621094 C 95.40625 14.691406 95.46875 14.746094 95.542969 14.761719 C 95.644531 14.804688 95.707031 14.847656 95.707031 14.890625 C 95.839844 14.945312 95.949219 15.046875 96.015625 15.179688 C 96.234375 15.488281 96.226562 15.90625 95.992188 16.210938 C 95.910156 16.40625 95.808594 16.589844 95.6875 16.765625 C 95.601562 16.804688 95.53125 16.871094 95.480469 16.953125 C 95.417969 17.042969 95.332031 17.113281 95.234375 17.160156 C 94.699219 17.324219 94.394531 17.40625 94.289062 17.425781 C 94.003906 17.527344 93.734375 17.675781 93.492188 17.859375 C 93.371094 17.921875 93.238281 17.964844 93.105469 17.984375 C 92.726562 18.007812 92.347656 17.984375 91.976562 17.925781 Z M 87.800781 8.773438 C 87.78125 8.652344 87.746094 8.53125 87.699219 8.417969 C 87.675781 7.300781 88.191406 6.394531 89.257812 5.671875 C 89.550781 5.496094 89.925781 5.535156 90.179688 5.773438 L 90.179688 5.898438 C 90.179688 5.9375 90.238281 5.980469 90.320312 6 C 90.402344 6.023438 90.445312 6.085938 90.445312 6.167969 C 90.527344 6.386719 90.648438 6.589844 90.800781 6.761719 C 90.863281 6.875 90.90625 6.996094 90.921875 7.121094 C 90.945312 7.324219 91.027344 7.449219 91.109375 7.480469 L 91.003906 7.5625 C 91.066406 7.921875 91.128906 8.242188 91.191406 8.574219 C 91.289062 8.867188 91.234375 9.191406 91.046875 9.4375 C 91.027344 9.460938 91.003906 9.5 91.027344 9.605469 C 91.046875 9.707031 91.003906 9.730469 90.945312 9.730469 C 90.816406 9.96875 90.578125 10.128906 90.3125 10.164062 C 89.789062 10.277344 89.242188 10.152344 88.8125 9.828125 C 88.4375 9.515625 88.097656 9.152344 87.808594 8.753906 Z M 88.824219 5.289062 C 88.78125 5.3125 88.726562 5.3125 88.679688 5.292969 C 88.632812 5.273438 88.59375 5.234375 88.578125 5.1875 C 88.550781 5.089844 88.53125 4.996094 88.519531 4.894531 L 88.765625 4.152344 C 88.835938 3.898438 89.054688 3.71875 89.316406 3.699219 C 89.398438 3.734375 89.476562 3.785156 89.542969 3.84375 C 89.617188 3.902344 89.648438 4 89.625 4.09375 C 89.699219 4.390625 89.753906 4.695312 89.789062 5 C 89.828125 5.019531 89.828125 5.121094 89.769531 5.289062 C 89.644531 5.285156 89.523438 5.25 89.414062 5.1875 C 89.304688 5.125 89.183594 5.089844 89.054688 5.082031 C 88.957031 5.109375 88.878906 5.1875 88.851562 5.289062 Z M 92.414062 9.59375 C 92.148438 9.183594 91.976562 8.714844 91.921875 8.230469 C 91.785156 7.632812 91.828125 7.007812 92.042969 6.4375 C 92.167969 6.167969 92.269531 5.941406 92.371094 5.691406 C 92.535156 5.425781 92.804688 5.238281 93.109375 5.175781 C 93.292969 5.175781 93.46875 5.199219 93.640625 5.214844 C 93.808594 5.234375 93.960938 5.316406 94.066406 5.449219 C 94.105469 5.503906 94.164062 5.546875 94.230469 5.570312 C 94.3125 5.605469 94.359375 5.691406 94.355469 5.777344 C 94.441406 5.871094 94.523438 5.964844 94.601562 6.066406 C 94.6875 6.167969 94.738281 6.292969 94.742188 6.425781 L 94.847656 6.402344 C 94.90625 6.570312 94.949219 6.710938 95.011719 6.878906 C 95.078125 7.039062 95.109375 7.21875 95.09375 7.394531 C 95.074219 7.601562 95.089844 7.808594 95.132812 8.015625 C 95.050781 8.015625 95.011719 8.03125 95.011719 8.097656 L 95.03125 8.242188 C 95.050781 8.300781 95.03125 8.34375 94.988281 8.363281 C 94.886719 8.695312 94.675781 8.984375 94.394531 9.1875 C 94.085938 9.4375 93.714844 9.601562 93.324219 9.664062 C 93.023438 9.730469 92.707031 9.699219 92.421875 9.582031 Z M 92.769531 4.328125 C 92.617188 4.472656 92.433594 4.582031 92.234375 4.636719 C 92.195312 4.410156 92.125 4.1875 92.027344 3.976562 C 91.925781 3.777344 91.847656 3.5625 91.804688 3.339844 C 91.785156 3.242188 91.777344 3.144531 91.78125 3.046875 C 91.847656 2.988281 91.925781 2.949219 92.011719 2.925781 C 92.128906 2.929688 92.242188 2.964844 92.339844 3.03125 C 92.433594 3.085938 92.523438 3.15625 92.605469 3.234375 L 92.6875 3.359375 L 92.785156 3.339844 L 93.113281 3.75 C 93.253906 3.898438 93.332031 4.085938 93.34375 4.285156 L 93.441406 4.269531 L 93.464844 4.351562 C 93.445312 4.339844 93.421875 4.339844 93.402344 4.347656 C 93.382812 4.355469 93.367188 4.371094 93.359375 4.390625 L 93.359375 4.410156 C 93.355469 4.449219 93.363281 4.484375 93.382812 4.515625 C 93.183594 4.433594 92.980469 4.371094 92.769531 4.328125 Z M 95.40625 12.984375 C 94.871094 13.027344 94.421875 12.695312 94.050781 11.972656 C 94.050781 11.207031 94.257812 10.734375 94.648438 10.570312 C 94.796875 10.359375 94.976562 10.171875 95.179688 10.011719 C 95.410156 9.964844 95.605469 9.8125 95.710938 9.601562 C 95.898438 9.554688 96.074219 9.46875 96.226562 9.351562 C 96.367188 9.246094 96.527344 9.167969 96.695312 9.121094 C 96.816406 9.113281 96.933594 9.121094 97.050781 9.144531 C 97.171875 9.1875 97.316406 9.226562 97.441406 9.269531 C 97.558594 9.292969 97.652344 9.382812 97.6875 9.496094 C 97.851562 9.535156 97.976562 9.683594 98.074219 9.949219 C 98.132812 10.125 98.199219 10.296875 98.28125 10.464844 C 98.398438 11.078125 98.425781 11.703125 98.363281 12.324219 C 98.289062 12.449219 98.226562 12.578125 98.179688 12.714844 C 98.109375 12.867188 97.996094 12.992188 97.851562 13.074219 C 97.871094 13.132812 97.828125 13.199219 97.730469 13.238281 C 97.648438 13.261719 97.570312 13.296875 97.5 13.34375 C 97.148438 13.34375 96.796875 13.296875 96.457031 13.199219 C 96.101562 13.117188 95.746094 13.035156 95.386719 12.992188 Z M 97.246094 8.773438 C 97.15625 8.675781 97.019531 8.636719 96.890625 8.671875 C 96.75 8.695312 96.605469 8.707031 96.460938 8.710938 L 96.378906 8.546875 C 96.398438 8.4375 96.398438 8.324219 96.378906 8.214844 C 96.363281 8.164062 96.378906 8.109375 96.417969 8.070312 C 96.355469 7.742188 96.398438 7.554688 96.5625 7.472656 C 96.703125 7.496094 96.839844 7.53125 96.972656 7.578125 C 96.953125 7.660156 96.992188 7.703125 97.074219 7.703125 C 97.15625 7.824219 97.257812 7.949219 97.339844 8.0625 C 97.425781 8.164062 97.484375 8.289062 97.503906 8.417969 C 97.519531 8.515625 97.511719 8.613281 97.488281 8.707031 Z M 97.246094 8.773438 "/>
<path style=" stroke:none;fill-rule:nonzero;fill:rgb(0%,0%,0%);fill-opacity:1;" d="M 57.671875 7.242188 C 57.59375 7.121094 57.535156 6.988281 57.492188 6.847656 L 57.492188 6.765625 C 57.488281 6.683594 57.492188 6.601562 57.507812 6.519531 C 57.511719 6.433594 57.550781 6.351562 57.613281 6.292969 L 57.613281 6.253906 L 57.632812 6.253906 C 57.6875 6.214844 57.753906 6.195312 57.820312 6.191406 C 57.886719 6.183594 57.953125 6.167969 58.023438 6.152344 C 58.113281 6.171875 58.207031 6.207031 58.289062 6.253906 C 58.367188 6.296875 58.441406 6.347656 58.511719 6.398438 L 58.511719 6.417969 C 58.511719 6.429688 58.523438 6.4375 58.535156 6.4375 C 58.554688 6.4375 58.554688 6.4375 58.574219 6.460938 L 58.636719 6.523438 C 58.65625 6.542969 58.675781 6.582031 58.699219 6.605469 L 58.71875 6.605469 L 58.757812 6.707031 C 58.761719 6.738281 58.753906 6.765625 58.738281 6.789062 C 58.738281 6.914062 58.699219 6.976562 58.617188 6.996094 C 58.636719 7.015625 58.617188 7.015625 58.59375 7.039062 C 58.574219 7.058594 58.574219 7.039062 58.574219 7.058594 C 58.558594 7.097656 58.527344 7.125 58.492188 7.140625 C 58.453125 7.160156 58.429688 7.199219 58.429688 7.242188 C 58.390625 7.242188 58.371094 7.265625 58.347656 7.308594 C 58.328125 7.347656 58.289062 7.371094 58.246094 7.367188 C 58.144531 7.421875 58.027344 7.4375 57.917969 7.40625 C 57.824219 7.371094 57.742188 7.316406 57.671875 7.242188 Z M 57.671875 6.167969 C 57.632812 6.167969 57.613281 6.167969 57.589844 6.144531 C 57.570312 6.125 57.613281 6.039062 57.613281 5.980469 C 57.609375 5.925781 57.632812 5.875 57.671875 5.835938 C 57.714844 5.816406 57.753906 5.792969 57.796875 5.816406 C 57.832031 5.847656 57.855469 5.890625 57.859375 5.9375 C 57.863281 5.996094 57.875 6.050781 57.902344 6.101562 L 57.917969 6.101562 L 57.917969 6.125 C 57.902344 6.125 57.902344 6.144531 57.902344 6.144531 C 57.796875 6.144531 57.738281 6.144531 57.753906 6.125 C 57.722656 6.132812 57.695312 6.132812 57.671875 6.167969 Z M 59.148438 8.445312 C 59.027344 8.464844 58.90625 8.449219 58.792969 8.40625 C 58.691406 8.378906 58.609375 8.3125 58.5625 8.21875 C 58.546875 8.167969 58.519531 8.117188 58.480469 8.074219 C 58.445312 8.035156 58.414062 7.984375 58.398438 7.933594 L 58.398438 7.910156 L 58.382812 7.867188 C 58.382812 7.867188 58.382812 7.828125 58.398438 7.828125 C 58.417969 7.828125 58.421875 7.722656 58.421875 7.683594 C 58.480469 7.574219 58.5625 7.484375 58.667969 7.414062 C 58.769531 7.34375 58.835938 7.230469 58.851562 7.101562 L 58.914062 6.980469 C 58.9375 6.941406 58.972656 6.914062 59.015625 6.898438 L 58.996094 6.835938 L 59.054688 6.835938 C 59.097656 6.816406 59.136719 6.816406 59.179688 6.792969 C 59.222656 6.773438 59.261719 6.773438 59.300781 6.753906 C 59.339844 6.738281 59.484375 6.734375 59.609375 6.734375 C 59.648438 6.734375 59.683594 6.75 59.710938 6.773438 C 59.71875 6.792969 59.734375 6.808594 59.753906 6.816406 C 59.773438 6.824219 59.792969 6.824219 59.8125 6.816406 L 59.875 6.878906 C 59.898438 6.898438 59.910156 6.929688 59.917969 6.960938 C 59.9375 7.003906 59.976562 7.019531 60 7.042969 C 60.019531 7.0625 60.042969 7.101562 60.058594 7.125 C 60.082031 7.148438 60.109375 7.171875 60.140625 7.183594 C 60.179688 7.265625 60.246094 7.332031 60.328125 7.371094 C 60.328125 7.394531 60.347656 7.394531 60.371094 7.414062 C 60.390625 7.4375 60.410156 7.433594 60.410156 7.453125 C 60.445312 7.472656 60.472656 7.5 60.492188 7.539062 C 60.550781 7.632812 60.550781 7.753906 60.492188 7.847656 C 60.46875 7.910156 60.429688 7.949219 60.410156 8.015625 C 60.386719 8.078125 60.371094 8.03125 60.347656 8.074219 L 60.289062 8.136719 C 60.125 8.179688 60.042969 8.21875 60.019531 8.21875 C 59.929688 8.242188 59.847656 8.285156 59.773438 8.34375 C 59.730469 8.363281 59.691406 8.363281 59.648438 8.382812 C 59.542969 8.40625 59.429688 8.40625 59.324219 8.382812 Z M 58.125 5.722656 C 58.121094 5.6875 58.113281 5.652344 58.105469 5.617188 C 58.097656 5.285156 58.273438 4.980469 58.554688 4.8125 C 58.640625 4.765625 58.746094 4.773438 58.820312 4.835938 L 58.820312 4.875 C 58.820312 4.894531 58.839844 4.894531 58.863281 4.917969 C 58.882812 4.941406 58.902344 4.9375 58.902344 4.957031 C 58.925781 5.019531 58.960938 5.074219 59.003906 5.121094 C 59.027344 5.164062 59.046875 5.1875 59.046875 5.226562 C 59.046875 5.265625 59.066406 5.332031 59.109375 5.332031 L 59.085938 5.351562 L 59.148438 5.640625 C 59.164062 5.722656 59.152344 5.8125 59.109375 5.886719 C 59.105469 5.902344 59.097656 5.917969 59.085938 5.929688 C 59.085938 5.949219 59.085938 5.96875 59.066406 5.96875 C 59.03125 6.039062 58.960938 6.085938 58.882812 6.09375 C 58.726562 6.132812 58.558594 6.09375 58.429688 5.992188 C 58.308594 5.929688 58.203125 5.835938 58.125 5.722656 Z M 58.410156 4.6875 C 58.390625 4.710938 58.347656 4.6875 58.347656 4.671875 C 58.347656 4.648438 58.328125 4.605469 58.328125 4.585938 C 58.347656 4.503906 58.371094 4.441406 58.390625 4.359375 C 58.410156 4.28125 58.480469 4.230469 58.554688 4.234375 C 58.554688 4.257812 58.59375 4.257812 58.617188 4.277344 C 58.632812 4.292969 58.640625 4.316406 58.636719 4.339844 C 58.660156 4.425781 58.671875 4.515625 58.675781 4.605469 C 58.699219 4.628906 58.675781 4.648438 58.675781 4.6875 C 58.640625 4.691406 58.605469 4.6875 58.574219 4.671875 C 58.535156 4.648438 58.511719 4.628906 58.472656 4.628906 Z M 59.457031 5.949219 C 59.378906 5.832031 59.328125 5.695312 59.3125 5.554688 C 59.277344 5.382812 59.289062 5.203125 59.355469 5.039062 C 59.394531 4.957031 59.414062 4.894531 59.457031 4.8125 C 59.503906 4.730469 59.589844 4.675781 59.683594 4.671875 L 59.847656 4.6875 C 59.894531 4.691406 59.9375 4.714844 59.972656 4.753906 C 59.988281 4.753906 59.988281 4.792969 60.011719 4.792969 C 60.03125 4.792969 60.050781 4.835938 60.050781 4.851562 C 60.070312 4.882812 60.089844 4.910156 60.113281 4.9375 C 60.136719 4.964844 60.152344 5 60.152344 5.039062 L 60.175781 5.039062 C 60.191406 5.089844 60.207031 5.136719 60.214844 5.1875 C 60.230469 5.234375 60.238281 5.28125 60.234375 5.332031 C 60.230469 5.394531 60.238281 5.457031 60.253906 5.515625 C 60.234375 5.515625 60.214844 5.515625 60.214844 5.535156 L 60.214844 5.578125 C 60.214844 5.601562 60.214844 5.601562 60.195312 5.617188 C 60.164062 5.71875 60.097656 5.808594 60.011719 5.863281 C 59.917969 5.933594 59.816406 5.984375 59.703125 6.011719 C 59.621094 6 59.539062 5.976562 59.457031 5.949219 Z M 59.578125 4.421875 C 59.535156 4.46875 59.476562 4.5 59.414062 4.503906 C 59.414062 4.4375 59.390625 4.375 59.355469 4.320312 L 59.292969 4.132812 L 59.292969 4.050781 C 59.3125 4.023438 59.34375 4.007812 59.375 4.011719 C 59.410156 4 59.441406 4 59.476562 4.011719 C 59.496094 4.03125 59.539062 4.054688 59.558594 4.074219 C 59.574219 4.097656 59.578125 4.074219 59.578125 4.113281 L 59.601562 4.113281 L 59.703125 4.238281 C 59.746094 4.285156 59.765625 4.34375 59.765625 4.40625 L 59.785156 4.40625 C 59.765625 4.40625 59.765625 4.40625 59.765625 4.425781 L 59.765625 4.449219 C 59.707031 4.417969 59.640625 4.410156 59.578125 4.421875 Z M 60.335938 6.933594 C 60.175781 6.957031 60.050781 6.851562 59.929688 6.648438 C 59.929688 6.421875 59.988281 6.289062 60.113281 6.234375 C 60.15625 6.167969 60.210938 6.113281 60.277344 6.070312 C 60.34375 6.046875 60.402344 6.003906 60.441406 5.945312 C 60.496094 5.929688 60.546875 5.902344 60.582031 5.863281 C 60.621094 5.820312 60.671875 5.800781 60.726562 5.800781 L 60.828125 5.800781 L 60.953125 5.84375 C 60.992188 5.84375 61.015625 5.882812 61.035156 5.90625 C 61.085938 5.933594 61.128906 5.976562 61.15625 6.027344 C 61.179688 6.070312 61.199219 6.128906 61.21875 6.171875 C 61.257812 6.347656 61.265625 6.53125 61.238281 6.707031 L 61.179688 6.832031 C 61.15625 6.878906 61.121094 6.914062 61.074219 6.933594 C 61.074219 6.957031 61.074219 6.976562 61.054688 6.976562 C 61.039062 6.996094 61.015625 7.003906 60.992188 7 C 60.890625 6.996094 60.789062 6.980469 60.6875 6.957031 C 60.5 6.960938 60.398438 6.9375 60.335938 6.9375 Z M 60.890625 5.695312 C 60.859375 5.675781 60.820312 5.675781 60.789062 5.695312 C 60.75 5.707031 60.707031 5.707031 60.664062 5.695312 L 60.644531 5.65625 L 60.644531 5.554688 C 60.644531 5.535156 60.644531 5.535156 60.664062 5.515625 C 60.644531 5.414062 60.664062 5.371094 60.707031 5.351562 C 60.75 5.335938 60.789062 5.351562 60.828125 5.351562 C 60.867188 5.351562 60.828125 5.375 60.851562 5.394531 L 60.871094 5.394531 C 60.871094 5.433594 60.933594 5.457031 60.953125 5.5 C 60.976562 5.542969 60.992188 5.558594 60.992188 5.601562 L 60.992188 5.683594 Z M 60.890625 5.695312 "/>
<path style=" stroke:none;fill-rule:nonzero;fill:rgb(0%,0%,0%);fill-opacity:1;" d="M 22.914062 5.472656 C 22.835938 5.355469 22.773438 5.226562 22.730469 5.089844 L 22.730469 5.007812 C 22.730469 4.925781 22.738281 4.84375 22.75 4.761719 C 22.753906 4.671875 22.789062 4.589844 22.855469 4.53125 L 22.855469 4.492188 L 22.855469 4.53125 C 22.910156 4.492188 22.972656 4.472656 23.039062 4.46875 L 23.246094 4.449219 C 23.339844 4.460938 23.429688 4.496094 23.507812 4.550781 C 23.589844 4.59375 23.671875 4.65625 23.738281 4.695312 L 23.738281 4.71875 C 23.742188 4.722656 23.75 4.726562 23.757812 4.726562 C 23.765625 4.726562 23.773438 4.722656 23.777344 4.71875 C 23.796875 4.71875 23.796875 4.71875 23.820312 4.738281 L 23.878906 4.800781 C 23.902344 4.820312 23.917969 4.859375 23.941406 4.882812 L 23.960938 4.882812 C 23.984375 4.902344 23.984375 4.941406 24 4.984375 C 24.007812 5.011719 24.007812 5.042969 24 5.070312 C 24.015625 5.164062 23.964844 5.253906 23.875 5.292969 C 23.898438 5.316406 23.875 5.316406 23.875 5.316406 L 23.855469 5.335938 C 23.839844 5.367188 23.820312 5.398438 23.792969 5.421875 C 23.757812 5.441406 23.734375 5.480469 23.734375 5.523438 C 23.691406 5.523438 23.671875 5.542969 23.652344 5.585938 C 23.632812 5.625 23.589844 5.648438 23.546875 5.644531 C 23.449219 5.699219 23.332031 5.714844 23.222656 5.6875 C 23.109375 5.632812 23.003906 5.5625 22.914062 5.472656 Z M 22.914062 4.378906 C 22.871094 4.378906 22.855469 4.378906 22.832031 4.359375 C 22.8125 4.335938 22.855469 4.257812 22.855469 4.191406 C 22.851562 4.136719 22.875 4.085938 22.914062 4.050781 C 22.949219 4.023438 22.992188 4.015625 23.035156 4.027344 C 23.074219 4.058594 23.097656 4.105469 23.101562 4.152344 C 23.101562 4.210938 23.117188 4.265625 23.140625 4.320312 L 23.160156 4.320312 L 23.160156 4.339844 C 23.140625 4.339844 23.140625 4.339844 23.140625 4.359375 C 23.089844 4.359375 23.042969 4.355469 22.996094 4.339844 C 22.964844 4.34375 22.9375 4.359375 22.914062 4.378906 Z M 24.390625 6.671875 C 24.269531 6.6875 24.144531 6.675781 24.03125 6.628906 C 23.933594 6.601562 23.855469 6.535156 23.808594 6.441406 C 23.789062 6.390625 23.761719 6.34375 23.726562 6.300781 C 23.6875 6.257812 23.660156 6.210938 23.644531 6.15625 L 23.644531 6.132812 C 23.632812 6.125 23.625 6.109375 23.625 6.09375 C 23.625 6.074219 23.625 6.050781 23.644531 6.050781 C 23.644531 5.992188 23.667969 5.949219 23.667969 5.910156 C 23.722656 5.800781 23.808594 5.707031 23.910156 5.640625 C 24.011719 5.566406 24.078125 5.453125 24.09375 5.332031 L 24.15625 5.203125 C 24.175781 5.164062 24.210938 5.132812 24.257812 5.121094 L 24.257812 5.0625 L 24.316406 5.0625 C 24.359375 5.039062 24.398438 5.039062 24.4375 5.019531 C 24.480469 4.996094 24.519531 5 24.5625 4.980469 L 24.871094 4.980469 C 24.910156 4.980469 24.945312 4.992188 24.972656 5.019531 C 24.980469 5.039062 24.996094 5.054688 25.015625 5.0625 C 25.035156 5.070312 25.058594 5.070312 25.078125 5.0625 C 25.097656 5.089844 25.128906 5.109375 25.160156 5.121094 C 25.179688 5.144531 25.195312 5.175781 25.199219 5.203125 C 25.21875 5.25 25.261719 5.269531 25.28125 5.289062 C 25.296875 5.304688 25.324219 5.351562 25.34375 5.371094 C 25.367188 5.398438 25.394531 5.417969 25.425781 5.433594 C 25.464844 5.515625 25.527344 5.582031 25.609375 5.617188 C 25.609375 5.640625 25.628906 5.640625 25.652344 5.660156 C 25.671875 5.683594 25.691406 5.683594 25.691406 5.699219 C 25.726562 5.714844 25.757812 5.746094 25.773438 5.78125 C 25.835938 5.875 25.835938 6 25.773438 6.09375 C 25.773438 6.15625 25.710938 6.195312 25.691406 6.261719 C 25.691406 6.261719 25.652344 6.261719 25.628906 6.320312 C 25.605469 6.347656 25.578125 6.367188 25.546875 6.382812 C 25.457031 6.398438 25.367188 6.425781 25.28125 6.464844 C 25.195312 6.484375 25.117188 6.527344 25.054688 6.589844 C 25.015625 6.609375 24.972656 6.609375 24.929688 6.628906 C 24.820312 6.632812 24.710938 6.625 24.601562 6.609375 Z M 23.363281 3.925781 C 23.363281 3.894531 23.363281 3.859375 23.363281 3.824219 C 23.359375 3.492188 23.53125 3.1875 23.8125 3.019531 C 23.894531 2.96875 23.996094 2.96875 24.078125 3.019531 L 24.078125 3.082031 C 24.078125 3.101562 24.101562 3.101562 24.117188 3.101562 C 24.140625 3.101562 24.160156 3.121094 24.160156 3.140625 C 24.1875 3.207031 24.222656 3.269531 24.265625 3.328125 C 24.265625 3.367188 24.304688 3.390625 24.304688 3.433594 C 24.304688 3.476562 24.324219 3.53125 24.363281 3.53125 L 24.363281 3.554688 C 24.363281 3.660156 24.402344 3.761719 24.425781 3.84375 C 24.457031 3.929688 24.4375 4.023438 24.382812 4.09375 C 24.378906 4.105469 24.378906 4.121094 24.382812 4.132812 C 24.382812 4.152344 24.382812 4.175781 24.359375 4.175781 C 24.324219 4.242188 24.253906 4.289062 24.175781 4.296875 C 24.019531 4.335938 23.851562 4.296875 23.726562 4.191406 C 23.597656 4.140625 23.488281 4.046875 23.417969 3.925781 Z M 23.671875 2.914062 C 23.664062 2.925781 23.648438 2.929688 23.636719 2.921875 C 23.621094 2.917969 23.613281 2.90625 23.609375 2.894531 C 23.613281 2.867188 23.605469 2.835938 23.589844 2.8125 L 23.671875 2.578125 C 23.6875 2.5 23.757812 2.449219 23.835938 2.453125 L 23.898438 2.496094 C 23.917969 2.496094 23.9375 2.535156 23.917969 2.558594 C 23.941406 2.644531 23.953125 2.734375 23.957031 2.828125 C 23.980469 2.847656 23.957031 2.867188 23.957031 2.910156 C 23.929688 2.914062 23.898438 2.90625 23.871094 2.894531 C 23.84375 2.871094 23.808594 2.859375 23.773438 2.855469 C 23.75 2.847656 23.730469 2.851562 23.710938 2.863281 C 23.691406 2.875 23.675781 2.894531 23.671875 2.914062 Z M 24.71875 4.175781 C 24.640625 4.058594 24.589844 3.921875 24.574219 3.78125 C 24.535156 3.609375 24.550781 3.429688 24.613281 3.265625 C 24.65625 3.183594 24.675781 3.121094 24.71875 3.039062 C 24.757812 2.949219 24.84375 2.894531 24.941406 2.894531 L 25.105469 2.894531 C 25.15625 2.902344 25.203125 2.933594 25.230469 2.976562 L 25.269531 3.019531 C 25.289062 3.019531 25.3125 3.058594 25.3125 3.082031 C 25.3125 3.101562 25.351562 3.140625 25.371094 3.164062 C 25.398438 3.191406 25.414062 3.230469 25.414062 3.265625 C 25.433594 3.3125 25.445312 3.363281 25.457031 3.410156 C 25.476562 3.457031 25.484375 3.503906 25.480469 3.554688 C 25.472656 3.617188 25.472656 3.679688 25.480469 3.742188 C 25.480469 3.742188 25.441406 3.742188 25.441406 3.761719 L 25.441406 3.800781 C 25.441406 3.824219 25.441406 3.824219 25.417969 3.84375 C 25.382812 3.933594 25.328125 4.011719 25.253906 4.070312 C 25.164062 4.140625 25.058594 4.1875 24.949219 4.214844 C 24.859375 4.210938 24.769531 4.195312 24.683594 4.175781 Z M 24.820312 2.625 C 24.777344 2.671875 24.71875 2.703125 24.65625 2.707031 L 24.585938 2.519531 L 24.523438 2.339844 L 24.523438 2.253906 C 24.546875 2.230469 24.582031 2.21875 24.613281 2.21875 C 24.65625 2.21875 24.675781 2.242188 24.71875 2.261719 C 24.746094 2.277344 24.773438 2.300781 24.800781 2.324219 C 24.808594 2.335938 24.816406 2.347656 24.820312 2.363281 L 24.925781 2.488281 C 24.964844 2.53125 24.988281 2.59375 24.988281 2.652344 L 24.988281 2.675781 C 24.988281 2.675781 24.988281 2.675781 24.988281 2.695312 L 24.988281 2.714844 Z M 25.597656 5.164062 C 25.433594 5.1875 25.3125 5.082031 25.210938 4.875 C 25.210938 4.648438 25.269531 4.515625 25.371094 4.460938 C 25.417969 4.398438 25.472656 4.34375 25.535156 4.296875 C 25.601562 4.277344 25.660156 4.234375 25.699219 4.175781 C 25.75 4.15625 25.796875 4.136719 25.84375 4.109375 C 25.882812 4.070312 25.933594 4.046875 25.988281 4.050781 L 26.089844 4.050781 L 26.214844 4.09375 C 26.246094 4.105469 26.273438 4.128906 26.296875 4.152344 C 26.34375 4.183594 26.386719 4.226562 26.417969 4.277344 C 26.433594 4.328125 26.457031 4.375 26.480469 4.421875 C 26.515625 4.597656 26.523438 4.78125 26.5 4.957031 L 26.4375 5.089844 C 26.414062 5.132812 26.378906 5.171875 26.335938 5.195312 C 26.335938 5.210938 26.335938 5.234375 26.335938 5.234375 L 26.269531 5.253906 C 26.167969 5.25 26.066406 5.238281 25.964844 5.210938 C 25.847656 5.191406 25.726562 5.179688 25.609375 5.171875 Z M 26.132812 3.925781 C 26.105469 3.898438 26.0625 3.890625 26.027344 3.90625 C 25.992188 3.921875 25.949219 3.929688 25.90625 3.925781 L 25.886719 3.882812 L 25.886719 3.78125 C 25.886719 3.78125 25.886719 3.742188 25.90625 3.742188 C 25.882812 3.675781 25.898438 3.605469 25.945312 3.554688 C 25.988281 3.554688 26.027344 3.574219 26.070312 3.574219 C 26.113281 3.574219 26.070312 3.617188 26.070312 3.617188 C 26.09375 3.652344 26.121094 3.6875 26.152344 3.71875 C 26.175781 3.761719 26.195312 3.78125 26.195312 3.824219 L 26.195312 3.90625 Z M 26.132812 3.925781 "/>
</g>
</svg>
