<?xml version="1.0" encoding="UTF-8"?>
<svg xmlns="http://www.w3.org/2000/svg" xmlns:xlink="http://www.w3.org/1999/xlink" width="100px" height="px" viewBox="0 0 100 99" version="1.1">
<g id="surface1">
<path style=" stroke:none;fill-rule:nonzero;fill:rgb(34.509804%,23.529412%,14.509804%);fill-opacity:1;" d="M 50.246094 0.113281 C 76.734375 -1.363281 99.957031 22.78125 99.988281 49.117188 C 100.058594 74.179688 78.183594 98.90625 50.082031 98.972656 C 23.304688 99.039062 -0.078125 75.488281 -0.015625 49.25 C 0.0664062 21.199219 25.046875 -1.519531 50.246094 0.113281 M 52.09375 7.738281 C 30.375 7.144531 14.113281 22.460938 10.027344 39.199219 C 4.859375 60.441406 16.078125 81.28125 36.691406 88.941406 C 55.414062 95.886719 78.011719 87.847656 87.699219 70.894531 C 89.183594 68.304688 89.070312 66.292969 85.933594 65.734375 C 83.867188 65.355469 83.082031 67.566406 82.027344 69.039062 C 75.054688 78.890625 65.769531 84.789062 53.425781 85.511719 C 38.308594 86.417969 24.695312 78.539062 17.941406 64.796875 C 11.851562 52.398438 14.210938 35.871094 23.585938 25.464844 C 33.390625 14.628906 48.988281 10.390625 62.367188 15.054688 C 64.4375 15.753906 66.460938 16.304688 67.425781 13.867188 C 68.554688 10.921875 65.945312 10.183594 63.964844 9.558594 C 59.851562 8.265625 55.648438 7.257812 52.09375 7.75 M 34.21875 26.847656 C 31.457031 28.164062 31.1875 30.421875 32.066406 33.035156 C 36.792969 47.039062 41.550781 61.039062 46.335938 75.035156 C 46.742188 76.171875 47.039062 77.835938 48.851562 77.445312 C 50.226562 77.132812 51.011719 76.015625 51.324219 74.609375 C 51.675781 72.914062 51.117188 71.351562 50.582031 69.808594 C 49.253906 66.097656 47.996094 62.34375 46.558594 58.683594 C 45.410156 55.757812 45.566406 54.058594 49.164062 52.828125 C 58.539062 49.617188 67.714844 45.90625 77 42.398438 C 80.550781 41.058594 84.144531 39.789062 87.632812 38.332031 C 89.394531 37.597656 90.9375 36.414062 90.011719 34.179688 C 89.089844 31.945312 87.113281 32.390625 85.316406 32.839844 C 84.53125 33.039062 83.785156 33.488281 83.023438 33.753906 C 71.085938 38.132812 59.101562 42.398438 47.25 46.957031 C 43.949219 48.230469 42.53125 47.738281 41.566406 44.277344 C 40.21875 39.371094 38.390625 34.605469 36.6875 29.800781 C 36.238281 28.597656 35.980469 27.167969 34.214844 26.855469 "/>
<path style=" stroke:none;fill-rule:nonzero;fill:rgb(91.372549%,88.627451%,82.352941%);fill-opacity:1;" d="M 52.09375 7.738281 C 55.664062 7.246094 59.851562 8.253906 63.964844 9.527344 C 65.964844 10.148438 68.550781 10.890625 67.402344 13.835938 C 66.457031 16.289062 64.410156 15.757812 62.34375 15.023438 C 48.964844 10.363281 33.363281 14.582031 23.5625 25.464844 C 14.183594 35.871094 11.824219 52.398438 17.917969 64.796875 C 24.664062 78.535156 38.289062 86.417969 53.417969 85.523438 C 65.765625 84.789062 75.046875 78.890625 82.015625 69.050781 C 83.046875 67.578125 83.859375 65.367188 85.925781 65.746094 C 89.054688 66.300781 89.167969 68.289062 87.691406 70.90625 C 78 87.878906 55.40625 95.921875 36.679688 88.953125 C 16.078125 81.304688 4.832031 60.464844 10.003906 39.199219 C 14.113281 22.460938 30.375 7.144531 52.09375 7.738281 "/>
<path style=" stroke:none;fill-rule:nonzero;fill:rgb(91.372549%,88.627451%,82.352941%);fill-opacity:1;" d="M 34.21875 26.847656 C 35.984375 27.160156 36.222656 28.601562 36.652344 29.75 C 38.359375 34.550781 40.179688 39.332031 41.53125 44.226562 C 42.496094 47.6875 43.910156 48.179688 47.214844 46.90625 C 59.085938 42.351562 71.070312 38.082031 82.984375 33.703125 C 83.75 33.414062 84.46875 32.96875 85.277344 32.789062 C 87.078125 32.363281 89.03125 31.914062 89.976562 34.128906 C 90.921875 36.339844 89.347656 37.570312 87.597656 38.285156 C 84.085938 39.734375 80.511719 41.007812 76.960938 42.351562 C 67.699219 45.855469 58.503906 49.585938 49.128906 52.78125 C 45.53125 54.007812 45.371094 55.707031 46.519531 58.628906 C 47.957031 62.296875 49.21875 66.046875 50.542969 69.753906 C 51.082031 71.296875 51.644531 72.859375 51.285156 74.558594 C 50.996094 75.957031 50.207031 77.082031 48.835938 77.394531 C 47.015625 77.820312 46.699219 76.144531 46.316406 74.980469 C 41.527344 60.996094 36.765625 46.992188 32.035156 32.972656 C 31.183594 30.445312 31.453125 28.164062 34.21875 26.847656 "/>
</g>
</svg>
