<?xml version="1.0" encoding="UTF-8"?>
<svg xmlns="http://www.w3.org/2000/svg" xmlns:xlink="http://www.w3.org/1999/xlink" width="100px" height="px" viewBox="0 0 100 98" version="1.1">
<g id="surface1">
<path style=" stroke:none;fill-rule:nonzero;fill:rgb(92.941176%,10.980392%,14.117647%);fill-opacity:1;" d="M 100 14.144531 C 100 21.910156 93.707031 28.207031 85.949219 28.203125 C 78.191406 28.203125 71.902344 21.902344 71.90625 14.136719 C 71.90625 6.367188 78.199219 0.0742188 85.957031 0.0742188 C 91.640625 0.0664062 96.769531 3.496094 98.9375 8.757812 C 99.636719 10.464844 99.996094 12.296875 99.996094 14.144531 Z M 100 14.144531 "/>
<path style=" stroke:none;fill-rule:evenodd;fill:rgb(92.941176%,10.980392%,14.117647%);fill-opacity:1;" d="M 53.894531 22.800781 C 72.382812 30.492188 82.027344 50.972656 76.195312 70.148438 C 70.363281 89.324219 50.953125 100.945312 31.320312 97.015625 C 11.6875 93.082031 -1.765625 74.882812 0.214844 54.9375 C 2.195312 34.988281 18.964844 19.800781 38.984375 19.816406 C 44.101562 19.824219 49.167969 20.839844 53.894531 22.800781 Z M 58.710938 50.703125 C 54.519531 40.539062 43.308594 35.214844 32.792969 38.398438 C 22.277344 41.578125 15.890625 52.230469 18.023438 63.015625 C 20.160156 73.804688 30.121094 81.210938 41.050781 80.140625 C 51.984375 79.070312 60.320312 69.867188 60.324219 58.871094 C 60.324219 56.0625 59.769531 53.285156 58.699219 50.691406 Z M 58.710938 50.703125 "/>
</g>
</svg>
