<svg xmlns="http://www.w3.org/2000/svg" xmlns:xlink="http://www.w3.org/1999/xlink" viewBox="0 0 764 764"><defs><linearGradient id="linear-gradient" x1="410.63" y1="392.52" x2="407.29" y2="294.03" gradientTransform="matrix(1, 0, 0, -1, 0, 706.86)" gradientUnits="userSpaceOnUse"><stop offset="0" stop-color="#707070"/><stop offset="1" stop-color="#b1b1b1"/></linearGradient><clipPath id="clip-path"><path d="M366.68,411.74c0,29.38-4.88,62.34,24.77,62.34s33-18.12,33-47.5C424.47,426.4,366.68,411.45,366.68,411.74Z" fill="none"/></clipPath><clipPath id="clip-path-2"><ellipse cx="402.41" cy="439.35" rx="17.06" ry="23.82" fill="none"/></clipPath><clipPath id="clip-path-3"><path d="M505.69,410.56c0-.24-48.71,12.39-48.71,12.53,0,24.8,2.87,40.09,27.85,40.09S505.69,435.36,505.69,410.56Z" fill="none"/></clipPath><clipPath id="clip-path-4"><ellipse cx="481.54" cy="430.1" rx="17.06" ry="23.82" fill="none"/></clipPath></defs><g id="Layer_2" data-name="Layer 2"><g id="Layer_1-2" data-name="Layer 1"><rect width="764" height="764" fill="#e9e9e9"/><g id="Layer_2-2" data-name="Layer 2"><g id="Final"><path d="M417.43,338.82C436.14,255.61,501.11,180,545.54,236.28a42.79,42.79,0,0,1,8.31,34.79c-1.84,8.87-6.83,18.56-18.3,26.31-17.2,12.47-39,38.87-54.92,58.44Z" fill="#b1b1b1"/><path d="M417.43,338.79,435.58,341c13.66-60.57,51.82-117.08,88.71-121.58-41.71-16.4-90.93,48.77-106.83,119.42Z" fill="#cdcdcd"/><path d="M454.17,338.5c15.85-48.63,38.58-93.77,63.53-91.25,10.81,1.09,17.41,13.86,12.29,24.35a35.31,35.31,0,0,1-5,7.42L465.52,341l-11.32-2.48Z" fill="#fff"/><g opacity="0.3"><path d="M478.77,280c8.69-10.64,18-16.73,27.54-15.79,9.32.95,15.49,10.56,13.78,19.9L525,279a33.14,33.14,0,0,0,5-7.42c5.12-10.49-1.48-23.26-12.29-24.35-13.93-1.39-27.2,12.06-38.93,32.72Z" fill="#202020"/></g><path d="M465.49,344.23a2.81,2.81,0,0,0,2-.89L527,281.42a.56.56,0,0,0,.09-.12,37.3,37.3,0,0,0,5.49-8.13,21.15,21.15,0,0,0-.09-18.59A18.51,18.51,0,0,0,517.9,244c-12.65-1.27-25.39,8.1-37.86,27.82-9.91,15.67-19.84,38.34-28.7,65.56a3.35,3.35,0,0,0,1.8,4.17,2.89,2.89,0,0,0,3.78-2C476,281,498,248.55,517.37,250.5a12.49,12.49,0,0,1,9.87,7.15,14.08,14.08,0,0,1,.06,12.45,31,31,0,0,1-4.52,6.65L463.4,338.64a3.42,3.42,0,0,0-.09,4.58,2.81,2.81,0,0,0,2.15,1Z" fill="#202020"/><path d="M482.43,361.23,409.1,342.31l1-4.55c14.13-62.85,52-116.41,88.12-124.62,12.59-2.87,31.24-1.69,48.47,20.15A47.78,47.78,0,0,1,556,272.05c-2.48,12.06-9.31,21.9-20.33,29.32-13.27,9.64-28.5,28.82-41.92,45.76-3.22,4.05-6.35,8-9.34,11.7Zm-61.84-25.9,58.24,15.05c2.39-3,4.84-6.06,7.33-9.22,13.8-17.41,29.47-37.19,43.95-47.68,9-6.06,14.45-13.9,16.41-23.38a38.15,38.15,0,0,0-7.36-30.83c-11.33-14.37-24.39-20-38.79-16.74-31.36,7.13-65.85,56.2-79.78,112.77Z" fill="#202020"/><g opacity="0.6"><path d="M293.34,328.44c.62,1.87,1.33,3.67,2.07,5.41L294,328.06C293.81,328.18,293.58,328.33,293.34,328.44Z" fill="#fff"/></g><path d="M517.72,405.53c-19-50.22-69.25-80-114.36-82A120.25,120.25,0,0,0,324,349.2,130.13,130.13,0,0,0,290.33,388c-2.69,14.63-4.14,53.79,19.3,93.05C330.94,516.77,369,527,386.1,531.52a158,158,0,0,0,72.36,1.86C481.6,523.45,502,507.72,514.53,485c13-23.53,13.45-52.38,3.19-79.51Z" fill="url(#linear-gradient)"/><path d="M309.63,481.06c-23.44-39.26-22-78.42-19.3-93.05a110.74,110.74,0,0,0-11.09,28.11,92.86,92.86,0,0,0-2.51,18.77c-2.28,68.51,59.32,110.37,105,112.14,24.8,1,52.35-3.13,76.77-13.62a158.8,158.8,0,0,1-72.36-1.86C369,527,330.94,516.77,309.63,481.09Z" fill="#cdcdcd"/><path d="M388.4,552c-2.33,0-4.64-.06-6.88-.12-46.35-1.8-112-44.54-109.61-117.11h0A101,101,0,0,1,274.54,415c6.36-26.45,22.85-51.16,46.5-69.61a125.59,125.59,0,0,1,82.5-26.66c42.33,1.86,97.51,29.29,118.65,85.1,11,29.17,9.78,59.62-3.49,83.56C492.16,535.33,433.48,552,388.34,552Zm9.82-223.7A116.17,116.17,0,0,0,327,353c-21.93,17.08-37.21,39.9-43.07,64.23A90,90,0,0,0,281.55,435h0c-2.22,66.42,57.9,105.53,100.32,107.16,43.13,1.65,102.63-12.92,128.44-59.48,11.88-21.43,12.94-48.95,2.89-75.46-19.6-51.73-70.79-77.15-110.08-78.89-1.62-.06-3.28-.12-4.9-.12Z" fill="#202020"/><path d="M422.19,347.42c-1.63,6.06,6.95,11.41,18.12,15.7s20.75,5.85,22.35-.21-6.15-14.45-17.33-18.74-21.54-2.84-23.17,3.22Z" fill="#cdcdcd"/><path d="M301.23,318.51a404.83,404.83,0,0,0,3.64,40.79l.95,3.76s17-11.26,28.49-16.11v-.06c16.94,40.14,61.07,47,76.06,11.73,5-11.85,6.77-28.46,3.1-50.16-14.28-77-101.36-91.1-111.32-24.24C302.15,284.22,300.47,296.43,301.23,318.51Z" fill="#b1b1b1"/><path d="M378.56,385.61h0c-18.5,0-36.3-12.92-46.26-33.19a251.9,251.9,0,0,0-24.18,14.1l-4.85,3.22-2.48-9.84a408.22,408.22,0,0,1-3.66-41.21h0c-.77-22.17.88-34.49.94-35,4.2-28.14,22.38-45.87,47.44-46.32h.92c29,0,62.49,24,71.09,70.41,3.61,21.17,2.45,38.81-3.37,52.53-6.83,16.11-19.8,25.36-35.59,25.36Zm-40.47-40.32c8.22,19.45,24.1,32,40.44,32h0c12.3,0,22.53-7.42,28-20.34,5.12-12.06,6.09-28.58,2.84-47.86-7.74-41.88-37.39-63.58-62.93-63.58h-.8c-21.07.39-35.79,15.05-39.4,39.26,0,.08-1.63,12.17-.89,33.55h0c.45,12.23,1.54,25,3.28,38,6-3.78,16.2-9.9,24.09-13.21l1.45,3.45Z" fill="#202020"/><g opacity="0.3"><path d="M309.72,262.08c28.85-23.64,83.09-1.65,94,57.7,4.23,24.89,1.33,43.07-5.52,55.07,13.12-10.05,21.07-31.68,15.19-66.36C401.06,241.54,333.66,222.15,309.72,262.08Z" fill="#202020"/></g><path d="M301.23,318.51a404.83,404.83,0,0,0,3.64,40.79l.95,3.76s17-11.26,28.49-16.11v-.06c16.94,40.14,61.07,47,76.06,11.73a19.73,19.73,0,0,0-2.31,2.34c-15.87,18.77-47.09-7.51-49.84-42.45-1.83-23.08-11.52-36.24-17.88-42.47a18.85,18.85,0,0,0-18-5.06c-21.37,5.71-21.14,47.53-21.14,47.53Z" fill="#cdcdcd"/><path d="M361.53,381.86c-10.37-4.52-21.63-14.22-29.2-29.56A251.36,251.36,0,0,0,308,366.46a4,4,0,0,1-6.15-2.37l-1-3.75-.09-.44c-6.56-47.39-2.87-75-2.69-76.24,4.17-28.08,22.32-45.78,47.35-46.23h.92c29,0,62.43,24,71,70.41,7.45,43.9-7.06,62.7-16.4,70a36.23,36.23,0,0,1-22.56,7.65,42.66,42.66,0,0,1-16.93-3.63ZM345.63,245.5c-21.1.39-35.88,15.08-39.49,39.29,0,.26-3.58,26.92,2.4,71.71a223.28,223.28,0,0,1,20.6-11.65,92.51,92.51,0,0,1-5.23-24.06,4,4,0,1,1,8-.71c2.66,30.74,18.68,48.24,32.78,54.36,11.23,4.88,22.64,3.78,31.27-3,13.45-10.55,18.33-33.25,13.42-62.22-7.77-42-37.42-63.73-63-63.73h-.77Z" fill="#202020"/><path d="M432.06,404.15c-.56,1-1,2-1.5,2.83-.24.45-.48.89-.74,1.3s-.57.8-.77,1.19a7.6,7.6,0,0,1-3.08,2.89,5.35,5.35,0,0,1-.59.09c-.2-.06-.32,0-.47-.12l-.21-.09-.2-.11-.45-.27a18,18,0,0,1-2.51-1.83l.53.35a107.89,107.89,0,0,0-9.9-8.27,112.61,112.61,0,0,0-10.58-7c-1.84-1-3.67-2.07-5.59-3-.95-.48-1.89-.92-2.87-1.36-.47-.21-.94-.45-1.44-.65s-1.1-.48-1.66-.68a23,23,0,0,0-6.8-1.51,21.87,21.87,0,0,0-3.43.09,8.15,8.15,0,0,0-1.68.26l-.83.21a3.1,3.1,0,0,0-.41.12l-.21.06h-.09l-.06.06h0c0,.2.06-.45-.09.44s0,.24-.06.44h.06l.09,0h.18l.35.12.74.21c.48.15,1,.26,1.45.44,1,.33,1.92.68,2.84,1.09a38.27,38.27,0,0,1,5.41,3c3.43,2.42,6.86,5,10.25,7.54L408,409.58,418.41,417h0v0a11.5,11.5,0,0,0,5.46,1.66,7,7,0,0,0,5.33-2.48,14.45,14.45,0,0,0,2.66-5.74,38.13,38.13,0,0,0,.85-6.26.41.41,0,0,0-.32-.45.34.34,0,0,0-.33.18l-.12.21Z" fill="#202020"/><path d="M450.36,389.37c.56,1,1,1.95,1.51,2.83a13.68,13.68,0,0,0,.74,1.3c.26.42.56.8.76,1.19a7.6,7.6,0,0,0,3.08,2.89,5.73,5.73,0,0,0,.59.09c.21-.06.33,0,.47-.12l.21-.08.21-.12.44-.27a17.41,17.41,0,0,0,2.51-1.83l-.53.35a107.89,107.89,0,0,1,9.9-8.27,111.47,111.47,0,0,1,10.59-7c1.83-1,3.66-2.07,5.58-3,.95-.48,1.89-.92,2.87-1.36.47-.21.94-.45,1.45-.65s1.09-.48,1.65-.68a23.1,23.1,0,0,1,6.8-1.51,21.84,21.84,0,0,1,3.43.09,8.88,8.88,0,0,1,1.68.26l.83.21a3.57,3.57,0,0,1,.42.12l.2.06h.09l.06.06h0c0,.2-.06-.45.09.44s0,.24.06.44H506l-.09,0h-.18l-.35.12-.74.21c-.47.15-1,.26-1.45.44-1,.33-1.92.68-2.84,1.09a38.27,38.27,0,0,0-5.41,3c-3.42,2.42-6.85,5-10.25,7.54l-10.29,7.57L464,402.19h0v0a11.57,11.57,0,0,1-5.47,1.66,7,7,0,0,1-5.32-2.48,14.18,14.18,0,0,1-2.66-5.74,37.1,37.1,0,0,1-.86-6.26A.41.41,0,0,1,450,389a.34.34,0,0,1,.33.18l.12.21Z" fill="#202020"/><g id="Ellipse_3_copy" data-name="Ellipse 3 copy"><path d="M356.16,404.29c0,36.39-6,77.21,30.71,77.21s41-22.43,41-58.82C427.84,422.47,356.16,404,356.16,404.29Z" fill="#202020" fill-rule="evenodd"/></g><g id="Ellipse_3_Ellipse_4_Ellipse_4_copy_3_Ellipse_4_copy_Clipping_Path" data-name="Ellipse 3 + Ellipse 4 + Ellipse 4 copy 3 + Ellipse 4 copy Clipping Path"><path d="M366.68,411.74c0,29.38-4.88,62.34,24.77,62.34s33-18.12,33-47.5C424.47,426.4,366.68,411.45,366.68,411.74Z" fill="#fff"/></g><g clip-path="url(#clip-path)"><ellipse cx="402" cy="440.33" rx="16.67" ry="22.97" fill="#9c9c9c"/><ellipse cx="403.54" cy="438.2" rx="15.13" ry="20.87" fill="#202020"/><circle cx="410.4" cy="434.71" r="3.58" fill="#fff"/><ellipse cx="402.41" cy="439.35" rx="17.06" ry="23.82" fill="#9c9c9c"/><g clip-path="url(#clip-path-2)"><ellipse cx="408.27" cy="433.65" rx="14.45" ry="21.25" fill="#202020"/><circle cx="411.79" cy="432.85" r="3.58" fill="#fff"/></g></g><g id="Ellipse_3_copy-2" data-name="Ellipse 3 copy-2"><path d="M511.72,404.29c0-.29-60.44,15.34-60.44,15.52,0,30.68,3.54,49.63,34.52,49.63s25.89-34.43,25.89-65.15Z" fill="#202020" fill-rule="evenodd"/></g><g id="Ellipse_3_Ellipse_4_Ellipse_4_copy_2_Ellipse_4_copy_Clipping_Path" data-name="Ellipse 3 + Ellipse 4 + Ellipse 4 copy 2 + Ellipse 4 copy Clipping Path"><path d="M505.69,410.56c0-.24-48.71,12.39-48.71,12.53,0,24.8,2.87,40.09,27.85,40.09S505.69,435.36,505.69,410.56Z" fill="#fff"/></g><g clip-path="url(#clip-path-3)"><ellipse cx="481.13" cy="431.07" rx="16.67" ry="22.97" fill="#9c9c9c"/><ellipse cx="482.67" cy="428.95" rx="15.13" ry="20.87" fill="#202020"/><circle cx="489.5" cy="425.46" r="3.58" fill="#fff"/><ellipse cx="481.54" cy="430.1" rx="17.06" ry="23.82" fill="#9c9c9c"/><g clip-path="url(#clip-path-4)"><ellipse cx="487.4" cy="424.42" rx="14.45" ry="21.25" fill="#202020"/><circle cx="490.89" cy="420.85" r="3.58" fill="#fff"/></g></g><g id="Shape_3_copy_2" data-name="Shape 3 copy 2"><path d="M514.21,402.14c.17-1.33,4.08-6.09,4.08-6.09s-3.64,3.34-6.92,3.1c-1.69-.12-2.87-.83-5.29-2.54,0,0,2,3.16,2.16,5,.06,1.16-1.72,3.88-3.73,6.09,0,0,4.23-2.63,6.18-2.57,1.18.06,4.67,2.31,6.3,3.75,0,0-3.08-4.58-2.78-6.79Z" fill="#fff" fill-rule="evenodd"/></g><path d="M436.05,500.92c-17.44-8.95-27.69,6.27-27.69,6.27a20.34,20.34,0,0,1,15.4-14,26,26,0,0,1,19.77,4.08,8.77,8.77,0,0,1,3.46,4.28c.95,2.57.24,5.12-11-.65Z" fill="#202020"/></g></g><text transform="translate(555.73 470.47)" font-size="276.01" fill="#fff" font-family="ArialRoundedMTBold, Arial Rounded MT Bold">4</text><text transform="translate(563.56 473.78)" font-size="276.01" font-family="ArialRoundedMTBold, Arial Rounded MT Bold">4</text><text transform="translate(36.42 470.47)" font-size="276.01" fill="#fff" font-family="ArialRoundedMTBold, Arial Rounded MT Bold">4</text><text transform="translate(44.25 473.78)" font-size="276.01" font-family="ArialRoundedMTBold, Arial Rounded MT Bold">4</text></g></g></svg>