<svg xmlns="http://www.w3.org/2000/svg" viewBox="0 0 717 764"><g id="Layer_2" data-name="Layer 2"><g id="Layer_1-2" data-name="Layer 1"><rect width="717" height="764" fill="#e9e9e9"/><path d="M362.4,369.7a24,24,0,0,1,0-4.22C363.87,357,365.12,348.4,367,340c7.07-32.32,18.64-63.18,30.27-94.05A229.43,229.43,0,0,0,406.59,215c2.17-9.72-.15-19.36-8.81-25.05-18.08-11.88-31.65-10.36-43.23,4.13a164,164,0,0,0-16.44,25.76c-16.54,31.24-35.41,118.87-27.95,161.81.64,3.69-.62,5.57-3.81,7.49a129.64,129.64,0,0,0-50.13,54.14c-9.92,19.94-14.1,40.92-8.62,62.89,9.21,36.9,33.2,60.76,69.19,70.27,38.87,10.27,77.66,6.11,114.4-10.56,24-10.91,39.59-29.89,44.07-56.2,6.36-37.31-2-71.58-26-100.93-6.78-8.28-7.74-15.23-5.4-24.81,4.68-19.18,13.16-36.63,23.43-53.14,12.39-19.93,26-39.11,38.86-58.75A95.2,95.2,0,0,0,514,257.2c2.52-5.91,1.75-11.9-1.66-17.39-7-11.33-26.55-17.75-38.22-11.41a81.47,81.47,0,0,0-21.17,16.06c-27.3,29.83-42.24,66.25-53.49,104.39-2.21,7.48-2.84,15.43-4.08,22.54ZM616.87,501.91c0,7.33,0,14.37,0,21.41.08,7.78.25,15.56.42,23.35.15,6.67,4.81,12.65,13.69,10.43,12.56-3.15,25.17-6.12,37.72-9.37,7.28-1.88,10.29-5.81,10.47-13.34q1.62-67.44,3.1-134.88c.21-9.36-4.21-13.35-13.54-13.08q-21,.61-41.92.9c-8.29.12-12.59,4.31-12.35,12.58.26,8.79.7,17.57.9,26.36.15,6.3,0,12.61,0,19.44L576,448.38c1-2,1.31-2.74,1.68-3.49q28.61-58.14,57.16-116.28c3.52-7.18,1.57-12.62-5.39-16.23q-15.33-8-30.73-15.84c-9.26-4.72-14.66-2.87-19,6.68-3.69,8.13-7.15,16.36-10.66,24.57-23.11,54-49.86,106.08-81.67,155.51-6.71,10.44-2.79,18.79,9.66,19.77a609.69,609.69,0,0,0,82.1,1.33C591.52,503.72,603.87,502.78,616.87,501.91Zm-449.64,0c0,1.79,0,3.36,0,4.92.07,12.84,0,25.67.23,38.51.13,8.52,5.48,13.68,12.5,12q19.33-4.53,38.58-9.49c8.07-2.09,10.83-5.86,11-14.26Q231,466.81,232.45,400c.21-10-4-13.87-13.89-13.55q-20.53.65-41.07.88c-9,.11-12.94,3.93-12.73,13,.3,13.26.7,26.52,1.05,39.79.05,1.68,0,3.36,0,5.59l-39.68,2.77c1.41-2.73,2.32-4.46,3.18-6.21q27.93-56.82,55.79-113.64c3.32-6.8,1.57-12.38-4.79-15.79q-16.2-8.67-32.61-16.9c-7.79-3.89-13.53-1.73-17.27,6.24-2.51,5.35-4.79,10.8-7.08,16.24-24.21,57.46-52.12,113-86.13,165.33-5.12,7.87-2.69,18.59,9.28,19.4C73.73,505,101,505.9,128.2,504.47,141,503.8,153.78,502.8,167.23,501.9Z" fill="#fefefe"/><path d="M362.4,369.7l33,1.69c1.24-7.11,1.87-15.06,4.08-22.54,11.25-38.14,26.19-74.56,53.49-104.39A81.47,81.47,0,0,1,474.1,228.4c11.67-6.34,31.19.08,38.22,11.41,3.41,5.49,4.18,11.48,1.66,17.39A95.2,95.2,0,0,1,506.13,272c-12.87,19.64-26.47,38.82-38.86,58.75-10.27,16.51-18.75,34-23.43,53.14-2.34,9.58-1.38,16.53,5.4,24.81,24,29.35,32.38,63.62,26,100.93-4.48,26.31-20,45.29-44.07,56.2-36.74,16.67-75.53,20.83-114.4,10.56-36-9.51-60-33.37-69.19-70.27-5.48-22-1.3-43,8.62-62.89a129.64,129.64,0,0,1,50.13-54.14c3.19-1.92,4.45-3.8,3.81-7.49-7.46-42.94,11.41-130.57,27.95-161.81a164,164,0,0,1,16.44-25.76c11.58-14.49,25.15-16,43.23-4.13,8.66,5.69,11,15.33,8.81,25.05a229.43,229.43,0,0,1-9.36,30.93C385.6,276.79,374,307.65,367,340c-1.84,8.43-3.09,17-4.52,25.51A24,24,0,0,0,362.4,369.7Zm91.48,64.39c-.08-1.46.38-3.32-.34-4.32-6.1-8.52-11.68-17.6-18.85-25.14C420.05,389.23,402,379,380.47,378.1c-48.63-2.05-86.18,18.29-112.08,59.35-12,19.08-17.27,40.05-13.07,62.77,8.15,44.21,50.11,72.73,92.09,72.22,23.37.77,46.39-1.29,68.45-9.52,23.79-8.88,41.56-24.08,48.91-49.27,4.39-15.06,4.2-30.44,1.89-45.85-2.9-9.82-5.68-19.69-8.82-29.44C457.3,436.69,455.24,435.5,453.88,434.09ZM397.83,207.45c-3.21-10.45-11.79-13.8-21.21-16s-16.3,2.14-21.41,8.95a138.81,138.81,0,0,0-14.47,23.42c-9.84,20.69-14.81,42.9-18.78,65.34-4,22.86-7.42,45.8-5.59,69.13.61,7.81,1.73,15.58,2.67,23.9l3.3-1.74c11.77-3.1,23.56-6.13,35.28-9.41a4.87,4.87,0,0,0,2.67-3.36c.67-4,.74-8,1.25-12,3.07-24.19,9.13-47.68,16.73-70.79,6.06-18.42,12.7-36.65,18.74-55.09C399.38,222.55,400.91,215,397.83,207.45Zm37.82,186.24c.68-2,1.15-3.18,1.49-4.4,4.24-15.2,9.89-29.89,18.13-43.31,12.05-19.63,24.89-38.77,37.27-58.2,4.87-7.64,10.09-15.16,13.91-23.32,5-10.78,2.5-19.56-6.12-26.7-9.51-7.86-18.7-8.95-28.47-1.86a108.25,108.25,0,0,0-18.61,17.24c-14.56,17-24.47,36.93-33.08,57.45-8.09,19.26-15.92,38.61-17.66,59.79-.25,3,.42,4.14,3.13,5.45,7.37,3.56,14.54,7.54,21.64,11.61C430.11,389.06,432.56,391.35,435.65,393.69Z" fill="#060606"/><path d="M616.87,501.91c-13,.87-25.35,1.81-37.71,2.49a609.69,609.69,0,0,1-82.1-1.33c-12.45-1-16.37-9.33-9.66-19.77,31.81-49.43,58.56-101.51,81.67-155.51,3.51-8.21,7-16.44,10.66-24.57,4.33-9.55,9.73-11.4,19-6.68q15.4,7.84,30.73,15.84c7,3.61,8.91,9.05,5.39,16.23q-28.49,58.18-57.16,116.28c-.37.75-.73,1.51-1.68,3.49l39.41-2.67c0-6.83.12-13.14,0-19.44-.2-8.79-.64-17.57-.9-26.36-.24-8.27,4.06-12.46,12.35-12.58q21-.3,41.92-.9c9.33-.27,13.75,3.72,13.54,13.08q-1.45,67.44-3.1,134.88c-.18,7.53-3.19,11.46-10.47,13.34C656.17,551,643.56,554,631,557.1c-8.88,2.22-13.54-3.76-13.69-10.43-.17-7.79-.34-15.57-.42-23.35C616.82,516.28,616.87,509.24,616.87,501.91Zm55.7-100.79v-4.47H623.92c.52,19.32,1,37.81,1.53,57-10.12,1-19.66,2.18-29.23,2.95-8.44.69-16.92,1-25.38,1.41l-10.79-.63c1.08-2,1.84-3.52,2.67-5C586.31,411.12,606,367.93,626.19,325c1-2.19.67-3.32-1.5-4.4-8.5-4.22-16.92-8.59-25.38-12.9l-8.6-4.58a15.82,15.82,0,0,0-1.34,1.88c-1.63,3.53-3.3,7.05-4.79,10.63-24.31,58.19-52.21,114.53-86,167.87a100.54,100.54,0,0,0-4.64,9.29l11,1.05a19.81,19.81,0,0,0,2.93.61,650.56,650.56,0,0,0,96.92-1.13c7.08-.64,14.14-1.36,21.34-2,.14,2.16.24,3.72.34,5.29v52.33L636.71,546c9.08-2.17,18.12-4.47,27.24-6.46,4.41-1,5.93-3.12,6-7.73q.26-46.83,1.07-93.65C671.2,425.81,672,413.47,672.57,401.12Z" fill="#050505"/><path d="M167.23,501.9c-13.45.9-26.23,1.9-39,2.57-27.25,1.43-54.47.49-81.69-1.36-12-.81-14.4-11.53-9.28-19.4,34-52.33,61.92-107.87,86.13-165.33,2.29-5.44,4.57-10.89,7.08-16.24,3.74-8,9.48-10.13,17.27-6.24q16.42,8.19,32.61,16.9c6.36,3.41,8.11,9,4.79,15.79q-27.78,56.87-55.79,113.64c-.86,1.75-1.77,3.48-3.18,6.21l39.68-2.77c0-2.23,0-3.91,0-5.59-.35-13.27-.75-26.53-1.05-39.79-.21-9,3.77-12.85,12.73-13q20.53-.24,41.07-.88c9.91-.32,14.1,3.57,13.89,13.55q-1.42,66.81-2.9,133.62c-.18,8.4-2.94,12.17-11,14.26q-19.23,5-38.58,9.49c-7,1.64-12.37-3.52-12.5-12-.19-12.84-.16-25.67-.23-38.51C167.22,505.26,167.23,503.69,167.23,501.9Zm19.56,44.18c9.22-2.22,18.42-4.57,27.68-6.61,4.25-.94,5.71-3.05,5.72-7.48q.15-42.56.83-85.11c.26-15.25,1.11-30.48,1.69-45.73v-4.49H174.25c0,2.28,0,3.71,0,5.14.36,15.67.61,31.35,1.18,47,.14,3.8-1.21,5-4.75,5.29-9.31.75-18.59,1.88-27.9,2.64-7.29.61-14.61.9-21.92,1.33l-10.46-.77c.88-1.76,1.43-2.92,2-4,7.5-13.94,15.43-27.67,22.41-41.87,14.1-28.66,27.7-57.57,41.38-86.44.48-1,.12-3.47-.6-3.85-8.25-4.34-16.64-8.42-25-12.57-9.07-7.05-9.82-6.87-14.25,3.35-.06.14-.09.28-.15.41-17.95,42.46-37,84.43-59.84,124.51-10,17.51-20.65,34.64-31,51.92-2.47,4.11-2.22,4.72,2.67,4.94,2.58.11,5.17,0,7.75,0,4.42.41,8.82,1,13.24,1.2a615,615,0,0,0,87.12-1.77l20.23-1.92.53,5.13v52.39Z" fill="#050505"/><path d="M466.66,467.8c2.31,15.41,2.5,30.79-1.89,45.85-7.35,25.19-25.12,40.39-48.91,49.27-22.06,8.23-45.08,10.29-68.45,9.52-1.22-.64-2.4-1.38-3.66-1.91-8.75-3.63-18-6.31-26.18-11-28.45-16.35-43.64-50-36.92-82.06,6.65-31.71,25.28-55,52.85-71.51,4.08-2.44,7.52-2.71,12-.51,9.67,4.77,20.28,3.45,30.63,3.53-.95.64-2.16,1.08-2.81,1.95-1.46,2-4,4.49-3.6,6.16.51,2,3.39,4.45,5.61,4.9a26.77,26.77,0,0,0,11-.37c4.71-1.08,6-6.37,2.11-9.21-2.67-2-6.5-2.33-9.81-3.41,3.9-1,7.83-1.83,11.69-2.92,4.84-1.36,8.43-4.11,10-9.18.26-.84,2-1.73,3.05-1.69a17.2,17.2,0,0,1,4.94,1.44c19.12,7.2,33,20.54,43.85,37.44-.86,1.15-1.73,2.3-2.59,3.46a41,41,0,0,0-5.14,2q-24.84,13.56-49.62,27.22c-1.42.78-3,1.34-5.41,2.44V445.47l-1.06-.06c-2.61,12.73-5.22,25.45-8,39.08l10.13-6.29c.41,5,.35,9.33,1.22,13.48,1.41,6.7,2.49,13.73,5.41,19.8,5.43,11.27,16.37,13.73,27.69,14.25,17,.78,27-6.64,28.9-23.47,1.64-14.81,1.1-29.86,1.49-44.81,0-.35-.38-.71-.84-1.5l-46.95,12a7.33,7.33,0,0,1,2.89-3.2q17.94-12,35.89-24.06a30.57,30.57,0,0,0,3.42-3.13c2.48-1.35,4.19-1,5.31,1.89,2.91,7.46,5.95,14.87,9,22.28C464.7,463.78,465.72,465.78,466.66,467.8ZM354,471.19l-.48,1-64-16.37a17.82,17.82,0,0,0-.55,2.5c-.15,11.1-.6,22.2-.28,33.29a130.22,130.22,0,0,0,2.49,21.83c3.46,17.18,14,25.53,31.38,25.25a80.82,80.82,0,0,0,14.11-1.63c12.41-2.43,20.75-9.84,24.36-21.9,1.85-6.14,2.7-12.63,3.58-19,.72-5.17.83-10.42,1.25-16.29l11.11,7.64,1-.51q-3.28-18.87-6.58-37.72l-1.66.17v20.27l-64.28-35.24-.68,1.2Zm40.61,74.5c-11.61-5.75-35.41-3.06-44.15,7.16C365.07,546.84,379.33,542.87,394.65,545.69Z" fill="#999"/><path d="M397.83,207.45c3.08,7.56,1.55,15.1-.82,22.33-6,18.44-12.68,36.67-18.74,55.09-7.6,23.11-13.66,46.6-16.73,70.79-.51,4-.58,8-1.25,12a4.87,4.87,0,0,1-2.67,3.36c-11.72,3.28-23.51,6.31-35.28,9.41-.54-1.15-1.43-2.27-1.55-3.47-.73-7.43-1.93-14.9-1.75-22.33.26-11,1.14-22.1,2.46-33.07,3.16-26.33,7.89-52.37,17-77.41,4.74-13.05,10.7-25.44,19.55-36.32,6.84-8.39,16-11.44,26.14-7.57C389,202.08,393.3,205,397.83,207.45Z" fill="#999"/><path d="M435.65,393.69c-3.09-2.34-5.54-4.63-8.37-6.25-7.1-4.07-14.27-8.05-21.64-11.61-2.71-1.31-3.38-2.46-3.13-5.45,1.74-21.18,9.57-40.53,17.66-59.79,8.61-20.52,18.52-40.41,33.08-57.45a108.25,108.25,0,0,1,18.61-17.24c9.77-7.09,19-6,28.47,1.86,8.62,7.14,11.15,15.92,6.12,26.7-3.82,8.16-9,15.68-13.91,23.32-12.38,19.43-25.22,38.57-37.27,58.2-8.24,13.42-13.89,28.11-18.13,43.31C436.8,390.51,436.33,391.7,435.65,393.69Z" fill="#999"/><path d="M376.09,409c-10.35-.08-21,1.24-30.63-3.53-4.44-2.2-7.88-1.93-12,.51-27.57,16.52-46.2,39.8-52.85,71.51-6.72,32.06,8.47,65.71,36.92,82.06,8.14,4.69,17.43,7.37,26.18,11,1.26.53,2.44,1.27,3.66,1.91-42,.51-83.94-28-92.09-72.22-4.2-22.72,1-43.69,13.07-62.77,25.9-41.06,63.45-61.4,112.08-59.35,21.48.9,39.58,11.13,54.22,26.53,7.17,7.54,12.75,16.62,18.85,25.14.72,1,.26,2.86.34,4.32h-1.74c-10.85-16.9-24.73-30.24-43.85-37.44a17.2,17.2,0,0,0-4.94-1.44c-1,0-2.79.85-3.05,1.69-1.61,5.07-5.2,7.82-10,9.18-3.86,1.09-7.79,1.95-11.69,2.92Z" fill="#b4b4b4"/><path d="M397.83,207.45c-4.53-2.43-8.87-5.37-13.64-7.19-10.12-3.87-19.3-.82-26.14,7.57-8.85,10.88-14.81,23.27-19.55,36.32-9.11,25-13.84,51.08-17,77.41-1.32,11-2.2,22-2.46,33.07-.18,7.43,1,14.9,1.75,22.33.12,1.2,1,2.32,1.55,3.47l-3.3,1.74c-.94-8.32-2.06-16.09-2.67-23.9-1.83-23.33,1.56-46.27,5.59-69.13,4-22.44,8.94-44.65,18.78-65.34a138.81,138.81,0,0,1,14.47-23.42c5.11-6.81,12.12-11.14,21.41-8.95S394.62,197,397.83,207.45Z" fill="#b1b1b1"/><path d="M452.14,434.09h1.74c1.36,1.41,3.42,2.6,4,4.27,3.14,9.75,5.92,19.62,8.82,29.44-.94-2-2-4-2.81-6.08-3-7.41-6.08-14.82-9-22.28-1.12-2.87-2.83-3.24-5.31-1.89h0C450.41,436.39,451.28,435.24,452.14,434.09Z" fill="#aaa"/><path d="M626.46,496.51c-.1-1.57-.2-3.13-.34-5.29-7.2.69-14.26,1.41-21.34,2a650.56,650.56,0,0,1-96.92,1.13,19.81,19.81,0,0,1-2.93-.61,25.75,25.75,0,0,1,1.47-3.09,1029.7,1029.7,0,0,0,72.47-135.45c7-15.79,13.64-31.73,20.44-47.6,8.46,4.31,16.88,8.68,25.38,12.9,2.17,1.08,2.53,2.21,1.5,4.4-20.15,43-39.88,86.17-63.47,127.45-.83,1.45-1.59,3-2.67,5l10.79.63c-1.36,3.57.24,4.65,3.63,4.52,8.77-.33,17.56-.32,26.31-.93,9.46-.66,18.87-2,28.33-2.78,4.28-.37,5.88-2.18,5.73-6.61-.54-15.25-.64-30.5-1.09-45.75-.12-3.89,1.09-5.36,5.13-5.29,11.23.18,22.46,0,33.69,0-.55,12.35-1.37,24.69-1.59,37.05q-.81,46.82-1.07,93.65c0,4.61-1.55,6.77-6,7.73-9.12,2-18.16,4.29-27.24,6.46-.33-13.94-.74-27.89-1-41.83C635.61,495,635.73,495,626.46,496.51Z" fill="#a9a9a9"/><path d="M599.31,307.65c-6.8,15.87-13.45,31.81-20.44,47.6A1029.7,1029.7,0,0,1,506.4,490.7a25.75,25.75,0,0,0-1.47,3.09l-11-1.05a100.54,100.54,0,0,1,4.64-9.29c33.78-53.34,61.68-109.68,86-167.87,1.49-3.58,3.16-7.1,4.79-10.63a15.82,15.82,0,0,1,1.34-1.88Z" fill="#ececec"/><path d="M672.57,401.12c-11.23,0-22.46.22-33.69,0-4-.07-5.25,1.4-5.13,5.29.45,15.25.55,30.5,1.09,45.75.15,4.43-1.45,6.24-5.73,6.61-9.46.82-18.87,2.12-28.33,2.78-8.75.61-17.54.6-26.31.93-3.39.13-5-.95-3.63-4.52,8.46-.45,16.94-.72,25.38-1.41,9.57-.77,19.11-1.91,29.23-2.95-.51-19.18-1-37.67-1.53-57h48.65Z" fill="#ebebeb"/><path d="M626.46,496.51c9.27-1.52,9.15-1.52,9.29,7.67.22,13.94.63,27.89,1,41.83l-10.25,2.83Z" fill="#eee"/><path d="M222.71,401.15c-.58,15.25-1.43,30.48-1.69,45.73q-.74,42.56-.83,85.11c0,4.43-1.47,6.54-5.72,7.48-9.26,2-18.46,4.39-27.68,6.61-.13-13.62-.28-27.24-.36-40.86-.06-9.76,0-9.76-9.54-8.87l-.53-5.13-20.23,1.92A615,615,0,0,1,69,494.91c-4.42-.21-8.82-.79-13.24-1.2,1.25-2.55,2.36-5.18,3.76-7.64C73.31,462,88.2,438.4,100.68,413.64c16.12-32,30.31-64.94,45.4-97.44a86.21,86.21,0,0,1,4.55-7.66c8.36,4.15,16.75,8.23,25,12.57.72.38,1.08,2.84.6,3.85-13.68,28.87-27.28,57.78-41.38,86.44-7,14.2-14.91,27.93-22.41,41.87-.6,1.12-1.15,2.28-2,4l10.46.77c-1.16,3.19,0,4.57,3.34,4.44,8.2-.31,16.42-.28,24.6-.88,10.33-.74,20.61-2.08,30.93-2.94,4.06-.33,5.29-2.15,5.17-6.1-.49-15.54-.64-31.09-1.08-46.64-.1-3.55,1.15-4.83,4.74-4.79C199.94,401.31,211.33,401.18,222.71,401.15Z" fill="#a9a9a9"/><path d="M150.63,308.54a86.21,86.21,0,0,0-4.55,7.66c-15.09,32.5-29.28,65.46-45.4,97.44C88.2,438.4,73.31,462,59.53,486.07c-1.4,2.46-2.51,5.09-3.76,7.64-2.58,0-5.17.07-7.75,0-4.89-.22-5.14-.83-2.67-4.94,10.39-17.28,21.05-34.41,31-51.92,22.88-40.08,41.89-82.05,59.84-124.51.06-.13.09-.27.15-.41C140.81,301.67,141.56,301.49,150.63,308.54Z" fill="#ececec"/><path d="M222.71,401.15c-11.38,0-22.77.16-34.14,0-3.59,0-4.84,1.24-4.74,4.79.44,15.55.59,31.1,1.08,46.64.12,3.95-1.11,5.77-5.17,6.1-10.32.86-20.6,2.2-30.93,2.94-8.18.6-16.4.57-24.6.88-3.36.13-4.5-1.25-3.34-4.44,7.31-.43,14.63-.72,21.92-1.33,9.31-.76,18.59-1.89,27.9-2.64,3.54-.28,4.89-1.49,4.75-5.29-.57-15.67-.82-31.35-1.18-47,0-1.43,0-2.86,0-5.14h48.46Z" fill="#ebebeb"/><path d="M176.89,496.35c9.53-.89,9.48-.89,9.54,8.87.08,13.62.23,27.24.36,40.86l-9.9,2.66Z" fill="#ededed"/><path d="M354,471.19l-49.21-35.5.68-1.2,64.28,35.24V449.46l1.66-.17q3.3,18.85,6.58,37.72l-1,.51-11.11-7.64c-.42,5.87-.53,11.12-1.25,16.29-.88,6.39-1.73,12.88-3.58,19-3.61,12.06-11.95,19.47-24.36,21.9a80.82,80.82,0,0,1-14.11,1.63c-17.41.28-27.92-8.07-31.38-25.25a130.22,130.22,0,0,1-2.49-21.83c-.32-11.09.13-22.19.28-33.29a17.82,17.82,0,0,1,.55-2.5l64,16.37Zm2.11,26.89c.7-2.71,1.41-5.41,2.11-8.11a38.22,38.22,0,0,1,.35-5.16c.8-4.15-1-5.71-5-6.65-12-2.88-23.84-6.21-35.77-9.29-7-1.81-14-3.48-21.95-5.43.48,14.85.22,29,1.58,43,1.63,16.74,11,24.72,26.52,24.53,2.43-.23,4.87-.64,7.3-.65,3.93,0,4.45-1.89,3.66-5.29-1.52-6.54,0-12.68,3.71-18.12,2.66-3.93,5.86-7.57,11.18-8-2.28,3.05-2.5,6.35.24,8.9,1.12,1.06,5.18,1.15,5.38.66C356.82,505.15,358.88,501.67,356.15,498.08Z" fill="#040404"/><path d="M449.55,437.55a30.57,30.57,0,0,1-3.42,3.13q-17.91,12.07-35.89,24.06a7.33,7.33,0,0,0-2.89,3.2l46.95-12c.46.79.85,1.15.84,1.5-.39,14.95.15,30-1.49,44.81-1.86,16.83-11.87,24.25-28.9,23.47-11.32-.52-22.26-3-27.69-14.25-2.92-6.07-4-13.1-5.41-19.8-.87-4.15-.81-8.5-1.22-13.48l-10.13,6.29c2.8-13.63,5.41-26.35,8-39.08l1.06.06v23.77c2.45-1.1,4-1.66,5.41-2.44q24.82-13.6,49.62-27.22a41,41,0,0,1,5.14-2Zm-42.45,58c-.05.72-.4,1.61-.1,2.12,1,1.66,2,4.26,3.43,4.53,2.8.55,3.75-1.94,3.82-4.5,0-.71-.09-1.43-.14-2.15,8.93,2.45,11.9,9.16,10.13,23a4.42,4.42,0,0,0,1.18.39c1.14,0,2.28-.06,3.42-.1,8.94,0,15.45-5.16,18.06-14.83,3.67-13.55,2.06-27.35,1.8-41.71l-51.93,13.47c0,3.65-.13,7,0,10.25.15,2.86.63,5.71,1,8.56.36,1.73.71,3.46,1,5.06Z" fill="#050505"/><path d="M376.09,409l2.48,0c3.31,1.08,7.14,1.45,9.81,3.41,3.88,2.84,2.6,8.13-2.11,9.21a26.77,26.77,0,0,1-11,.37c-2.22-.45-5.1-2.86-5.61-4.9-.41-1.67,2.14-4.18,3.6-6.16C373.93,410.06,375.14,409.62,376.09,409Z" fill="#b5b5b5"/><path d="M394.65,545.69c-15.32-2.82-29.58,1.15-44.15,7.16C359.24,542.63,383,539.94,394.65,545.69Z" fill="#090909"/><path d="M324,530.94c-15.54.19-24.89-7.79-26.52-24.53-1.36-14-1.1-28.12-1.58-43,7.92,1.95,15,3.62,21.95,5.43,11.93,3.08,23.8,6.41,35.77,9.29,3.92.94,5.76,2.5,5,6.65a38.22,38.22,0,0,0-.35,5.16c-3.85-.37-7.8-1.52-11.52-1-15.95,2.32-26.74,17.93-23.9,33.89C323.31,525.55,323.64,528.25,324,530.94Z" fill="#fcfcfc"/><path d="M324,530.94c-.39-2.69-.72-5.39-1.19-8.06-2.84-16,8-31.57,23.9-33.89,3.72-.54,7.67.61,11.52,1-.7,2.7-1.41,5.4-2.11,8.11l-6.27.78c-5.32.45-8.52,4.09-11.18,8C335,512.32,333.47,518.46,335,525c.79,3.4.27,5.27-3.66,5.29C328.9,530.3,326.46,530.71,324,530.94Z" fill="#959595"/><path d="M349.88,498.86l6.27-.78c2.73,3.59.67,7.07-.65,10.34-.2.49-4.26.4-5.38-.66C347.38,505.21,347.6,501.91,349.88,498.86Z" fill="#f8f8f8"/><path d="M397.77,494.55c-.33-2.85-.81-5.7-1-8.56-.17-3.29,0-6.6,0-10.25l51.93-13.47c.26,14.36,1.87,28.16-1.8,41.71-2.61,9.67-9.12,14.82-18.06,14.83.21-1.42.53-2.83.62-4.25.57-9.24-2.24-17.13-10.24-22.26C411.69,487.49,404.44,489.24,397.77,494.55Z" fill="#fcfcfc"/><path d="M397.77,494.55c6.67-5.31,13.92-7.06,21.45-2.25,8,5.13,10.81,13,10.24,22.26-.09,1.42-.41,2.83-.62,4.25-1.14,0-2.28.12-3.42.1a4.42,4.42,0,0,1-1.18-.39c1.77-13.83-1.2-20.54-10.13-23-2.34-3-4.67-3.07-7,0l-8.29,4.08C398.48,498,398.13,496.28,397.77,494.55Z" fill="#969696"/><path d="M407.1,495.53c2.34-3.07,4.67-3,7,0,.05.72.16,1.44.14,2.15-.07,2.56-1,5.05-3.82,4.5-1.4-.27-2.43-2.87-3.43-4.53C406.7,497.14,407.05,496.25,407.1,495.53Z" fill="#f9f9f9"/></g></g></svg>