<svg xmlns="http://www.w3.org/2000/svg" xmlns:xlink="http://www.w3.org/1999/xlink" viewBox="0 0 107.69 127.94">
    <defs>
        <clipPath id="clip-path">
            <path d="M21.71,76h16.1l1.08-19.62c.16-1.6-1.38-3-3.35-3H22.86c-2,0-3.52,1.38-3.35,3Z" fill="none" />
        </clipPath>
    </defs>
    <g id="Layer_2" data-name="Layer 2">
        <g id="Layer_1-2" data-name="Layer 1">
            <path
                d="M23.39,39.54c-3.48,2.23-8.5,2.54-7.57,8s.79,5.29-.53,9,.4,4.63,2.12,8.59,4.89,2.38,7.93,5.82,10.31-4.76,11-9.52.17-8.48,2-11.37c2.84-4.53-.4-8.66-5.49-11.37C29.84,37.06,27.26,37.06,23.39,39.54Z"
                fill="#333331" />
            <path d="M54.91,63a4.21,4.21,0,1,1-5.07-3.12A4.2,4.2,0,0,1,54.91,63Z" fill="#3b589c" />
            <rect x="50.33" y="61.62" width="0.96" height="4.67" transform="translate(-13.48 13.57) rotate(-13.44)"
                fill="#fff" />
            <rect x="48.48" y="63.47" width="4.67" height="0.96" transform="translate(-13.47 13.56) rotate(-13.44)"
                fill="#fff" />
            <path d="M107.69,69.65a6.11,6.11,0,1,1-6.1-6.1A6.1,6.1,0,0,1,107.69,69.65Z" fill="#3b589c" />
            <path
                d="M105,72.67H98.34a.79.79,0,0,1-.79-.79V67.63a.79.79,0,0,1,.79-.8H105a.79.79,0,0,1,.79.8v4.25A.79.79,0,0,1,105,72.67Zm-5.86-1.59h5.06V68.42H99.13Z"
                fill="#fff" />
            <path d="M102.69,69.64a.95.95,0,1,1-.94-.94A.95.95,0,0,1,102.69,69.64Z" fill="#fff" />
            <path d="M103.45,68.36a1,1,0,0,1-1-1v-.51a1,1,0,0,1,2,0v.51A1,1,0,0,1,103.45,68.36Z" fill="#fff" />
            <circle cx="50.27" cy="49.78" r="6.95" fill="#ffb909" />
            <path d="M55.35,50.21a6.38,6.38,0,0,1-5.25,2.65,6.45,6.45,0,0,1-4.7-2.65,5.46,5.46,0,0,1,10,0Z"
                fill="#fff" />
            <path d="M52.57,50a2.1,2.1,0,1,1-2.1-2.1A2.11,2.11,0,0,1,52.57,50Z" fill="#ffb909" />
            <circle cx="54.8" cy="103.93" r="9.41" transform="translate(-55.26 62.8) rotate(-41.71)" fill="#84d8cc" />
            <path
                d="M59.38,99.74c.45.15.76,1.11.42,2.63s-.85,5-.85,5H57.68s.59-3.74-.6-4.08-1.95,4.08-4.67,4.08-4.42.08-4.5-.68,3.65-1.45,5.18-3.4C55.35,100.42,58.61,99.49,59.38,99.74Z"
                fill="#fff" />
            <path d="M19.15,100.86A5.84,5.84,0,1,1,13.32,95,5.83,5.83,0,0,1,19.15,100.86Z" fill="#ffbb15" />
            <polygon
                points="13.32 96.76 14.56 99.27 17.34 99.68 15.33 101.64 15.8 104.4 13.32 103.09 10.83 104.4 11.31 101.64 9.3 99.68 12.08 99.27 13.32 96.76"
                fill="#fff" />
            <path d="M13.09,64.08a6.16,6.16,0,1,1-6.15-6.16A6.15,6.15,0,0,1,13.09,64.08Z" fill="#ff5f33" />
            <rect x="2.93" y="61.67" width="8.01" height="4.81" fill="#fff" />
            <polygon points="6.46 62.99 8.36 64.09 6.46 65.18 6.46 62.99" fill="#ff5f33" />
            <circle cx="91.03" cy="44.24" r="6.62" fill="#ff5f33" />
            <rect x="86.8" y="41.45" width="8.46" height="5.27" rx="1.47" fill="#fff" />
            <path
                d="M91.33,46.48s.68.49.62,1.1a4.16,4.16,0,0,1-.31,1.16,2.84,2.84,0,0,0,1.78-1.35,1.66,1.66,0,0,0,.12-1.59Z"
                fill="#fff" />
            <path d="M98.31,55.44a2.85,2.85,0,1,1-2.84-2.85A2.85,2.85,0,0,1,98.31,55.44Z" fill="#75c6bd" />
            <path d="M57.64,124.86a1,1,0,1,1-1-1A1,1,0,0,1,57.64,124.86Z" fill="#75c6bd" />
            <path d="M64,75.14a1,1,0,1,1-1-1A1,1,0,0,1,64,75.14Z" fill="#75c6bd" />
            <path d="M99.23,80.43a1.56,1.56,0,1,1-1.56-1.56A1.56,1.56,0,0,1,99.23,80.43Z" fill="#75c6bd" />
            <circle cx="85.77" cy="34.94" r="0.96" fill="#75c6bd" />
            <circle cx="41.34" cy="53.02" r="0.96" fill="#75c6bd" />
            <circle cx="14.1" cy="52.4" r="0.96" fill="#75c6bd" />
            <path d="M105.77,61a1,1,0,1,1-1-1A1,1,0,0,1,105.77,61Z" fill="#75c6bd" />
            <circle cx="104.12" cy="81.49" r="0.96" fill="#75c6bd" />
            <path d="M7.39,95.34a1,1,0,1,1-1-1A1,1,0,0,1,7.39,95.34Z" fill="#75c6bd" />
            <path d="M8.88,81.75a4,4,0,1,1-4-4A4,4,0,0,1,8.88,81.75Z" fill="#75c6bd" />
            <path d="M100.91,97.62a2.18,2.18,0,1,1-2.18-2.18A2.18,2.18,0,0,1,100.91,97.62Z" fill="#75c6bd" />
            <path d="M102,49.73a1.82,1.82,0,1,1-2.2-1.35A1.82,1.82,0,0,1,102,49.73Z" fill="#3b589c" />
            <path d="M10.85,74.45a1.83,1.83,0,1,1-2.2-1.34A1.83,1.83,0,0,1,10.85,74.45Z" fill="#3b589c" />
            <path d="M61.89,88.74a1.82,1.82,0,1,1-2.2-1.35A1.81,1.81,0,0,1,61.89,88.74Z" fill="#3b589c" />
            <path d="M92.2,106.11a1.83,1.83,0,1,1-2.2-1.35A1.83,1.83,0,0,1,92.2,106.11Z" fill="#3b589c" />
            <path d="M63.54,123.35a1.08,1.08,0,1,1-1.3-.8A1.08,1.08,0,0,1,63.54,123.35Z" fill="#3b589c" />
            <path d="M16.74,109a1.08,1.08,0,1,1-1.3-.8A1.09,1.09,0,0,1,16.74,109Z" fill="#3b589c" />
            <path d="M17.79,37.87a1.07,1.07,0,1,1-1.3-.8A1.07,1.07,0,0,1,17.79,37.87Z" fill="#3b589c" />
            <path d="M71.5,36a1.08,1.08,0,1,1-1.3-.79A1.08,1.08,0,0,1,71.5,36Z" fill="#3b589c" />
            <path d="M103.29,55.24a1.12,1.12,0,1,1-1.12-1.12A1.13,1.13,0,0,1,103.29,55.24Z" fill="#ffb909" />
            <path d="M43.52,43.61a1.12,1.12,0,1,1-1.12-1.13A1.12,1.12,0,0,1,43.52,43.61Z" fill="#ffb909" />
            <circle cx="70.7" cy="23.57" r="1.12" fill="#ffb909" />
            <circle cx="51.13" cy="71.9" r="1.12" fill="#ffb909" />
            <circle cx="61.18" cy="51.34" r="1.12" fill="#ffb909" />
            <path d="M11.31,52.57A3.55,3.55,0,0,1,7.9,56.24a3.68,3.68,0,0,1,0-7.34A3.55,3.55,0,0,1,11.31,52.57Z"
                fill="#ffb909" />
            <ellipse cx="100.73" cy="87.48" rx="3.4" ry="3.67" fill="#ffb909" />
            <path d="M45.42,112a2.22,2.22,0,1,1-2.21-2.39A2.3,2.3,0,0,1,45.42,112Z" fill="#ffb909" />
            <path d="M2.58,73.82a1.34,1.34,0,0,1-1.29,1.39,1.39,1.39,0,0,1,0-2.77A1.34,1.34,0,0,1,2.58,73.82Z"
                fill="#ffb909" />
            <ellipse cx="11.98" cy="41.82" rx="1.29" ry="1.39" fill="#ffb909" />
            <path d="M46.07,94.38A1.29,1.29,0,1,1,44.78,93,1.34,1.34,0,0,1,46.07,94.38Z" fill="#ffb909" />
            <circle cx="89.21" cy="100.27" r="2.17" fill="#ff5f33" />
            <path d="M98,61.39A1.37,1.37,0,1,1,96.61,60,1.36,1.36,0,0,1,98,61.39Z" fill="#ff5f33" />
            <path d="M84.23,30.75a1.37,1.37,0,1,1-1.37-1.36A1.37,1.37,0,0,1,84.23,30.75Z" fill="#ff5f33" />
            <path d="M14.14,46.58a1.37,1.37,0,1,1-1.36-1.36A1.36,1.36,0,0,1,14.14,46.58Z" fill="#ff5f33" />
            <circle cx="8.02" cy="89.16" r="1.36" fill="#ff5f33" />
            <path d="M65.29,45.13A2.13,2.13,0,1,1,63.16,43,2.13,2.13,0,0,1,65.29,45.13Z" fill="#ff5f33" />
            <circle cx="86.43" cy="113.89" r="0.94" fill="#ff5f33" />
            <circle cx="95.56" cy="103.32" r="0.94" fill="#ff5f33" />
            <path d="M41,73.56a.94.94,0,1,1-.94-.94A.94.94,0,0,1,41,73.56Z" fill="#ff5f33" />
            <circle cx="59.19" cy="118.65" r="2.13" fill="#ff5f33" />
            <circle cx="59.32" cy="81.23" r="2.13" fill="#ff5f33" />
            <path d="M79.25,29.94a4.9,4.9,0,1,1-4.9-4.89A4.9,4.9,0,0,1,79.25,29.94Z" fill="#75c6bd" />
            <path
                d="M76.5,28.17a1.78,1.78,0,0,0-2.14.78,1.85,1.85,0,0,0-2.2-.78,1.39,1.39,0,0,0-.54,2,16.29,16.29,0,0,0,2.74,2.65,16.31,16.31,0,0,0,2.73-2.65A1.39,1.39,0,0,0,76.5,28.17Z"
                fill="#fff" />
            <circle cx="26.39" cy="31.98" r="4.87" fill="#ff5f33" />
            <rect x="25.19" y="29.09" width="0.72" height="5.78" fill="#fff" />
            <rect x="26.88" y="29.09" width="0.72" height="5.78" fill="#fff" />
            <rect x="23.5" y="30.78" width="5.78" height="0.72" fill="#fff" />
            <rect x="23.5" y="32.46" width="5.78" height="0.72" fill="#fff" />
            <path d="M53.55,120.56A5.54,5.54,0,1,1,48,115,5.54,5.54,0,0,1,53.55,120.56Z" fill="#3b589c" />
            <circle cx="48.01" cy="120.56" r="3.28" fill="#fff" />
            <path d="M46.88,119.8a.41.41,0,0,1-.41.41.41.41,0,1,1,0-.81A.41.41,0,0,1,46.88,119.8Z" fill="#3b589c" />
            <path d="M49.9,119.8a.41.41,0,1,1-.81,0,.41.41,0,0,1,.81,0Z" fill="#3b589c" />
            <path
                d="M48,123.06a2.61,2.61,0,0,1-.48,0,2.15,2.15,0,0,1-1.76-1.65.6.6,0,0,1,.54-.65.6.6,0,0,1,.65.54,1.05,1.05,0,0,0,.81.59,1.13,1.13,0,0,0,1.28-.7.59.59,0,1,1,1,.57A2.37,2.37,0,0,1,48,123.06Z"
                fill="#3b589c" />
            <path
                d="M53.77,0c-5.17-.61-4.83,15-4.83,15s-12.78-2.13-16.43,2.12.61,22.51,8.82,23.43c6.66.73,15.82-.31,15.82-.31S58.94.63,53.77,0Z"
                fill="#fff" />
            <rect x="59.8" y="19.79" width="7.37" height="20.78" rx="1.01" fill="#fff" />
            <path
                d="M21.19,87.8H38.44L38,124.64h-3.3s-2.49-18.53-3.43-28.77H29l-.69,28.77H25S21.1,95.75,21.2,90.18A23.73,23.73,0,0,1,21.19,87.8Z"
                fill="#ffb263" />
            <path
                d="M21.71,76h16.1a39.34,39.34,0,0,1-.7-4.3c-.09-3.85,1.78-15.32,1.78-15.32.16-1.6-1.38-3-3.35-3H22.86c-2,0-3.52,1.38-3.35,3,0,0,3,11.22,3,15.06A31.2,31.2,0,0,1,21.71,76Z"
                fill="#3b589c" />
            <path
                d="M30.62,54.74H28.4a1.34,1.34,0,0,1-1.25-1.41V50.6a1.34,1.34,0,0,1,1.25-1.41h2.22c.54-.48,1.13.26,1.25,1.41v2.73A1.34,1.34,0,0,1,30.62,54.74Z"
                fill="#fc963a" />
            <path d="M38.49,124.59H34.77v2.86h7.55c.5,0,.67-1.12.24-1.36Z" fill="#f5abbc" />
            <path d="M28.63,124.59H24.9v2.86h7.56c.5,0,.67-1.12.23-1.36Z" fill="#f5abbc" />
            <path
                d="M37.81,75.78H21.71s-3.55,1.67-4,7.08c-.77,9.85,5.4,27.19,5.4,27.19H38.33s5.05-20.69,3.93-27.19A9.85,9.85,0,0,0,37.81,75.78Z"
                fill="#f99d8f" />
            <g clip-path="url(#clip-path)">
                <path d="M23.58,52.85A5.89,5.89,0,1,0,29.46,47,5.88,5.88,0,0,0,23.58,52.85Z" fill="#fc963a" />
            </g>
            <path
                d="M20.84,54.12s-2.1.8-3.43,4.23S14,69.12,13.68,70.06s-1.5,17.72-1.5,17.72l3.42.16,2.48-14.38,4.62-12.3Z"
                fill="#3b589c" />
            <path
                d="M12.18,87.78l3.42.16a17.84,17.84,0,0,1,.63,3.39,9,9,0,0,1-1.67,1.87,6.11,6.11,0,0,1-3.09-.58C11.07,92.33,12.05,87.84,12.18,87.78Z"
                fill="#ffb263" />
            <path
                d="M37.66,54a19.22,19.22,0,0,1,4.24,5,99,99,0,0,1,4.19,9.13c.44.88,4.28,17.25,4.28,17.25L47,86.16,42.29,72.35,35.81,62.07Z"
                fill="#3b589c" />
            <path
                d="M50.37,85.45,47,86.16a17.4,17.4,0,0,0-.09,3.44,8.74,8.74,0,0,0,1.94,1.59,6.21,6.21,0,0,0,3-1.06C52.18,89.78,50.5,85.5,50.37,85.45Z"
                fill="#ffb263" />
            <path
                d="M65.94,51.61s-4,2.64-5.82,5.81S55.39,67.32,55,68.2s-4.28,17.25-4.28,17.25l3.35.71,4.72-13.81,6.49-10.28Z"
                fill="#ffb206" />
            <path
                d="M50.67,85.45l3.35.71a17.4,17.4,0,0,1,.09,3.44,9,9,0,0,1-1.94,1.59,6.17,6.17,0,0,1-3-1.06C48.86,89.78,50.54,85.5,50.67,85.45Z"
                fill="#fc963a" />
            <path
                d="M86.83,52.4c.38.1,2.91,1.85,4.29,7.26C92,63.22,92.8,70.49,93,71.47s-.88,17.75-.88,17.75l-3.41-.29-.54-14.59L84.89,62.63Z"
                fill="#ffb206" />
            <path
                d="M92.09,89.22l-3.41-.29A17.65,17.65,0,0,0,87.6,92.2,9.15,9.15,0,0,0,89,94.28a6.22,6.22,0,0,0,3.14-.16C92.58,93.88,92.21,89.3,92.09,89.22Z"
                fill="#fc963a" />
            <path
                d="M85.82,82.05H65.71l.54,43h3.84s2.9-21.61,4-33.55h2.66l.8,33.55h3.84s4.53-33.69,4.41-40.18A26.07,26.07,0,0,0,85.82,82.05Z"
                fill="#ff5f33" />
            <path d="M85.82,82.05H65.71L63.2,55.34c-.23-2.18,1.88-4.05,4.56-4.05h16c2.68,0,4.78,1.87,4.56,4.05Z"
                fill="#ffb206" />
            <path
                d="M74.81,56.21a.84.84,0,0,0,1.54.06c.89-1.83,2.86-4.57,2.86-5.16V47.17c0-.89-1.33-.81-2.13-.81H74.53c-.79,0-2.12.72-2.12,1.61v3.14C72.41,51.69,74.1,54.37,74.81,56.21Z"
                fill="#fc963a" />
            <path d="M66.19,125H70.1v3H62.18c-.52,0-.7-1.17-.25-1.43Z" fill="#112256" />
            <path d="M77.67,125h3.9v3H73.65c-.52,0-.7-1.17-.24-1.43Z" fill="#112256" />
            <path d="M34.73,46.18a5.42,5.42,0,1,1-5.42-5.42A5.43,5.43,0,0,1,34.73,46.18Z" fill="#ffb263" />
            <circle cx="76.05" cy="43.74" r="6.02" fill="#ffb263" />
            <path
                d="M70.6,41.13c.3-1.19.49-3.67,5.06-4.76,4.27-1,8.82,1.19,8.82,1.58s-3.07,1-2.38,3c.4,1.13.5,3.67-.39,4.66s-.5-2-1.49-2.08-.8,2.57-1.59,2.57-1-1.9-1.88-3.27C75.06,40.13,70.6,41.13,70.6,41.13Z"
                fill="#ff9b17" />
            <path
                d="M31.72,40.53c-.5,1.59-1,3.17-5.26,5.55s-6.74,2.68-5.95.9,5.26-6.65,6.85-6.65S31.72,40.53,31.72,40.53Z"
                fill="#333331" />
        </g>
    </g>
</svg>