<svg xmlns="http://www.w3.org/2000/svg" xmlns:xlink="http://www.w3.org/1999/xlink" viewBox="0 0 121.1 117.51">
    <defs>
        <clipPath id="clip-path">
            <path
                d="M106.61,34H94l1.74-6.47L92.37,17.15c-.14-1.37,1.18-2.54,2.87-2.54h10.08c1.68,0,3,1.17,2.87,2.54L104.6,27.5Z"
                fill="#343436" />
        </clipPath>
        <clipPath id="clip-path-2">
            <path d="M110.08,59.6a4.53,4.53,0,1,0,5.52-3.25A4.53,4.53,0,0,0,110.08,59.6Z" fill="#ffb263" />
        </clipPath>
        <clipPath id="clip-path-3">
            <path d="M95.63,8a4.53,4.53,0,1,0,5.52-3.25A4.53,4.53,0,0,0,95.63,8Z" fill="#ffb263" />
        </clipPath>
        <clipPath id="clip-path-4">
            <path d="M41.6,4.53A4.53,4.53,0,1,1,37.07,0,4.53,4.53,0,0,1,41.6,4.53Z" fill="#ffb263" />
        </clipPath>
        <clipPath id="clip-path-5">
            <path d="M13.67,61.05A4.53,4.53,0,1,1,8.4,57.41,4.54,4.54,0,0,1,13.67,61.05Z" fill="#ffb263" />
        </clipPath>
    </defs>
    <g id="Layer_2" data-name="Layer 2">
        <g id="Layer_1-2" data-name="Layer 1">
            <path d="M100.24,4.71a5.28,5.28,0,0,1,5.65,3.19,5,5,0,0,1,.43,2.79,1.23,1.23,0,0,1-1.23,1.1H103Z"
                fill="#ff5f33" />
            <path
                d="M106.61,34H94l.34,27h2.42s1.83-16.37,2.52-23.88h1.67L101.4,61h2.42s2.85-21.21,2.78-25.3A17,17,0,0,0,106.61,34Z"
                fill="#ffb263" />
            <path
                d="M106.61,34H94l1.74-6.47L92.37,17.15c-.14-1.37,1.18-2.54,2.87-2.54h10.08c1.68,0,3,1.17,2.87,2.54L104.6,27.5Z"
                fill="#f5abbc" />
            <path
                d="M100.22,16.39c2.24,0,2.23-1.53,2.23-1.89V12c0-.57-.84-.52-1.34-.52h-1.6c-.5,0-1.34.46-1.34,1v2A1.91,1.91,0,0,0,100.22,16.39Z"
                fill="#ff9283" />
            <path d="M94.26,61h2.45v1.89h-5c-.33,0-.44-.74-.16-.9Z" fill="#fc6262" />
            <path d="M101.48,61h2.46v1.89H99c-.33,0-.44-.74-.15-.9Z" fill="#fc6262" />
            <path
                d="M106.38,14.83c1,.12,2.55,2,4.8,5.94s2.76,5.49,2.72,6.06-8.52,3.89-8.52,3.89l.22-2.38,4.63-2.4-4.07-7.19Z"
                fill="#343436" />
            <path d="M88.28,34.62h2.43s-.14,2.07-1.43,2.28C87.66,37.16,88.28,34.62,88.28,34.62Z" fill="#ff9283" />
            <path
                d="M93.83,14.83c-1,.12-2.55,2-4.79,5.94s-2.44,4.72-2.4,5.29,1.64,8.56,1.64,8.56h2.43L90,25.94l4.07-7.19Z"
                fill="#f5abbc" />
            <path
                d="M106.61,34H94l1.74-6.47L92.37,17.15c-.14-1.37,1.18-2.54,2.87-2.54h10.08c1.68,0,3,1.17,2.87,2.54L104.6,27.5Z"
                fill="#343436" />
            <g clip-path="url(#clip-path)">
                <path d="M105.05,12.53A5.08,5.08,0,1,1,100,7.45,5.07,5.07,0,0,1,105.05,12.53Z" fill="#ff9283" />
            </g>
            <polygon
                points="106.61 33.97 93.95 33.97 89.11 55.96 98.24 55.96 100.06 42.15 100.06 55.96 109.08 55.96 106.61 33.97"
                fill="#45665d" />
            <path d="M101.58,5.34c.9,0,2.62-2.7,1-4.2a2.43,2.43,0,0,0-4,1.43C98.51,5.19,99.64,5.34,101.58,5.34Z"
                fill="#ff5f33" />
            <path d="M113.63,86l-13,0,3.93-18c.3-1.43,2.68-3.66,4.08-3.23l9.4,2.75a2.5,2.5,0,0,1,1.6,3.32Z"
                fill="#ff5f33" />
            <path
                d="M114.22,67.4l-1.64-.5a1,1,0,0,1-.6-1.31l.6-2a1,1,0,0,1,1.24-.76l1.63.49a1,1,0,0,1,.61,1.32l-.6,2A1,1,0,0,1,114.22,67.4Z"
                fill="#ea6a47" />
            <path
                d="M7.85,62.07c-1.39.25-6.33.67-7.6,4.84C-.87,70.56,2,73.76,4.55,73.53s4-5.46,4.77-7.89A3,3,0,0,0,7.85,62.07Z"
                fill="#ffce76" />
            <path
                d="M31.07,29.37H43.78l-.33,27.17H41s-1.84-13.67-2.54-21.23H36.8l-.51,21.23H33.87S31,35.23,31.08,31.12A14.71,14.71,0,0,1,31.07,29.37Z"
                fill="#ff5f33" />
            <path d="M110.08,59.6a4.53,4.53,0,1,0,5.52-3.25A4.53,4.53,0,0,0,110.08,59.6Z" fill="#ffb263" />
            <g clip-path="url(#clip-path-2)">
                <path
                    d="M116.13,58.89s-.4,1.54-.19,1.59a1.56,1.56,0,0,1,1.48.84c.39.89-.44,1.46-1.16,1.44s-.72,1.91,1,2,3.3-3.6,2.84-5.3-2.74-4-3.72-4.18-8.13,1.62-8.13,1.62Z"
                    fill="#3b589c" />
            </g>
            <path d="M95.63,8a4.53,4.53,0,1,0,5.52-3.25A4.53,4.53,0,0,0,95.63,8Z" fill="#ffb263" />
            <g clip-path="url(#clip-path-3)">
                <path
                    d="M101.68,7.24s-.4,1.54-.19,1.59a1.56,1.56,0,0,1,1.48.84c.39.89-.43,1.46-1.16,1.44s-.72,1.91,1,2,3.3-3.6,2.84-5.3-2.74-4-3.72-4.18S93.8,5.26,93.8,5.26Z"
                    fill="#ff5f33" />
            </g>
            <path d="M31.07,29.37H43.78l1.59-16.9c.14-1.37-1.19-2.56-2.88-2.56H32.36c-1.69,0-3,1.19-2.88,2.56Z"
                fill="#3b589c" />
            <path
                d="M37.49,11.7c-2.26,0-2.24-1.53-2.24-1.9V7.31c0-.56.84-.52,1.34-.52H38.2c.5,0,1.35.46,1.35,1v2A1.92,1.92,0,0,1,37.49,11.7Z"
                fill="#fc963a" />
            <path d="M43.48,56.5H41v1.9h5c.33,0,.44-.75.15-.91Z" fill="#343436" />
            <path d="M36.22,56.5H33.75v1.9h5c.33,0,.44-.75.16-.91Z" fill="#343436" />
            <path d="M41.6,4.53A4.53,4.53,0,1,1,37.07,0,4.53,4.53,0,0,1,41.6,4.53Z" fill="#ffb263" />
            <g clip-path="url(#clip-path-4)">
                <path
                    d="M35.92,2.33s0,1.58-.22,1.58a1.55,1.55,0,0,0-1.64.44c-.6.77.06,1.53.77,1.7s.22,2-1.48,1.69-2.29-4.32-1.42-5.85,3.66-3.22,4.65-3.11S44,2.38,44,2.38Z"
                    fill="#343436" />
            </g>
            <path
                d="M113.23,61.13a2.13,2.13,0,1,0,1.43,2.66A2.14,2.14,0,0,0,113.23,61.13Zm-1,3.35a1.37,1.37,0,1,1,1.7-.91A1.36,1.36,0,0,1,112.23,64.48Z"
                fill="#3b589c" />
            <path d="M110.71,62.28l4,1.21s-.68,5.91-3.9,4.74C107.8,67.13,110.71,62.28,110.71,62.28Z" fill="#3b589c" />
            <path
                d="M113.63,86l-13,0v29.38h2.57s2-14.5,2.69-22.51h1.78l-.12,11.4L118,113.45l1.4-2.36-7-9s1.31-11.65,1.27-13.66A22.21,22.21,0,0,0,113.63,86Z"
                fill="#5d5d5d" />
            <path d="M100.6,115.35h2.62v2H97.91c-.35,0-.47-.79-.17-1Z" fill="#343436" />
            <path d="M118,113.27l1.45-2.18,1.67,1.12-2.94,4.42c-.19.29-.91,0-.88-.39Z" fill="#343436" />
            <path
                d="M8.44,87.62l12.09.17-.35,27.82H17.7s-1.89-14-2.6-21.74H13.38l-.52,21.74H10.38S7.88,94.09,8,89.89A13.22,13.22,0,0,1,8.44,87.62Z"
                fill="#ffb263" />
            <path
                d="M7.77,88.22,20.59,85.9l-1.07-6.69-.41-10.62c-.11-1.42-1.67-2.37-3.38-2.06L5.53,68.38c-1.71.31-2.83,1.74-2.44,3.11L8.63,81.3Z"
                fill="#75c6bd" />
            <path
                d="M11,69.25c-2.27.41-2.54-1.14-2.6-1.51L8,65.23c-.1-.57.76-.67,1.26-.76l1.63-.3c.5-.09,1.43.22,1.54.79l.36,2A2,2,0,0,1,11,69.25Z"
                fill="#fc963a" />
            <path d="M20.22,115.57H17.69v1.94h5.13c.34,0,.45-.76.16-.93Z" fill="#3b589c" />
            <path d="M12.79,115.57H10.26v1.94h5.13c.34,0,.45-.76.16-.93Z" fill="#3b589c" />
            <polygon points="20.82 85.76 7.77 88.22 3.31 106 24.34 106 20.82 85.76" fill="#e6f9ff" />
            <rect x="18.99" y="12.15" width="39.71" height="39.71" rx="1.99" fill="#75c6bd" />
            <rect x="34.54" y="21.65" width="2.56" height="20.7" fill="#fff" />
            <rect x="40.58" y="21.65" width="2.56" height="20.7" fill="#fff" />
            <rect x="28.49" y="27.7" width="20.7" height="2.56" fill="#fff" />
            <rect x="28.49" y="33.74" width="20.7" height="2.56" fill="#fff" />
            <rect x="65.22" y="12.15" width="39.71" height="39.71" rx="1.99" fill="#ffc9c0" />
            <path
                d="M92.2,25.74c-2.43-1.31-5.62.33-7.11,2.6-1.49-2.27-4.84-3.91-7.27-2.6S74.63,29.8,76,32.38s9.06,8.84,9.07,8.77,7.7-6.2,9.08-8.77A4.64,4.64,0,0,0,92.2,25.74Z"
                fill="#fff" />
            <rect x="18.99" y="57.89" width="39.71" height="39.71" rx="1.99" fill="#fcb71e" />
            <path
                d="M37,65.71c2.69-.32,2.51,7.83,2.51,7.83s6.65-1.11,8.55,1.1-.31,11.72-4.59,12.19a45,45,0,0,1-8.23-.15S34.35,66,37,65.71Z"
                fill="#fff" />
            <rect x="30.06" y="76" width="3.84" height="10.82" rx="0.52" fill="#fff" />
            <rect x="65.22" y="57.89" width="39.71" height="39.71" rx="1.99" fill="#3b589c" />
            <path d="M94.34,77.74a9.6,9.6,0,1,1-9.59-9.6A9.59,9.59,0,0,1,94.34,77.74Z" fill="#fff" />
            <path d="M81.44,75.52a1.19,1.19,0,1,1-1.19-1.19A1.19,1.19,0,0,1,81.44,75.52Z" fill="#3b589c" />
            <circle cx="89.1" cy="75.52" r="1.19" fill="#3b589c" />
            <path
                d="M84.69,83.79a6,6,0,0,1-1.17-.12c-2.14-.45-4-2.12-4.15-3.71a.49.49,0,0,1,.44-.53.48.48,0,0,1,.53.44c.09,1,1.51,2.45,3.38,2.85C84.93,83,87.2,83,88.81,80a.48.48,0,0,1,.66-.19.49.49,0,0,1,.19.66A5.69,5.69,0,0,1,84.69,83.79Z"
                fill="#3b589c" />
            <path d="M13.67,61.05A4.53,4.53,0,1,1,8.4,57.41,4.54,4.54,0,0,1,13.67,61.05Z" fill="#ffb263" />
            <g clip-path="url(#clip-path-5)">
                <path
                    d="M7.69,59.9s.28,1.56.06,1.6a1.54,1.54,0,0,0-1.53.72c-.46.86.33,1.5,1,1.53s.58,2-1.15,1.93-3-3.84-2.43-5.5,3-3.82,4-3.89,8,2.22,8,2.22Z"
                    fill="#ffce76" />
            </g>
            <path d="M105.31,30.46l.51-2.38s-2-.3-2.53.92C102.69,30.52,105.31,30.46,105.31,30.46Z" fill="#ffb263" />
            <path d="M19.12,83.74l1.45-1.92S22.2,83,21.65,84.18C21,85.71,19.12,83.74,19.12,83.74Z" fill="#ffb263" />
            <path
                d="M3.51,71C3.14,72,4,74,6.8,77.75s3.46,4.22,4,4.42,8.75,2,8.75,2l1-2.3L12.08,79S9.41,72.9,6.91,70.4C6.24,69.73,4.11,69.34,3.51,71Z"
                fill="#82cec3" />
            <path d="M102.74,85l-1.64-2.16s-1.84,1.29-1.21,2.67C100.69,87.28,102.74,85,102.74,85Z" fill="#ffb263" />
            <path
                d="M120.29,70.51c.43,1.13-.51,3.45-3.67,7.69s-3.89,4.79-4.51,5-9.88,2.25-9.88,2.25l-1.13-2.59,9.57-3.28s3-6.86,5.78-9.71C117.2,69.14,119.6,68.69,120.29,70.51Z"
                fill="#ff7352" />
            <path d="M18.93,21.2C18,21,17.42,23,18,24.11s1.73,1.08,1.94-.53S20.12,21.42,18.93,21.2Z" fill="#ffb263" />
            <path d="M58.73,21.2c1-.17,1.51,1.84,1,2.91s-1.73,1.08-1.94-.53S57.54,21.42,58.73,21.2Z" fill="#ffb263" />
        </g>
    </g>
</svg>