<svg xmlns="http://www.w3.org/2000/svg" xmlns:xlink="http://www.w3.org/1999/xlink" viewBox="0 0 142.34 154.49">
    <defs>
        <clipPath id="clip-path">
            <rect x="12.74" y="15.96" width="115.5" height="115.5" rx="5.8" fill="none" />
        </clipPath>
        <clipPath id="clip-path-2">
            <path d="M131.53,110.64H117.81l-.92-16.72c-.14-1.36,1.18-2.53,2.86-2.53h10.8c1.68,0,3,1.17,2.86,2.53Z"
                fill="none" />
        </clipPath>
        <clipPath id="clip-path-3">
            <path d="M23.41,81a5.71,5.71,0,1,1-5.7-5.71A5.7,5.7,0,0,1,23.41,81Z" fill="#ffb263" />
        </clipPath>
        <clipPath id="clip-path-4">
            <path d="M26.87,6.52A6.52,6.52,0,1,1,20.35,0,6.51,6.51,0,0,1,26.87,6.52Z" fill="#ff5f33" />
        </clipPath>
    </defs>
    <g id="Layer_2" data-name="Layer 2">
        <g id="Layer_1-2" data-name="Layer 1">
            <g clip-path="url(#clip-path)">
                <rect x="12.74" y="15.96" width="115.5" height="115.5" rx="5.8" fill="#f99d8f" />
                <path
                    d="M59.3,86.47,93,88c6,0,12.35.36,16.62,10.06,2,4.63,2.08,9.87,2,15.12-.14,13.61-.77,28.22-6.69,28.22L45.21,133c-6,0-11.51,3.32-11.51-2.67,0,0,1.13-25.14,4.65-32.19C44.56,85.69,53.31,86.47,59.3,86.47Z"
                    fill="#f9c764" />
                <path d="M81,86.86s-3.7,7.75-9.69,7.36c-12-.77-10.09-7.75-10.09-7.75l1.3-19.82H77Z" fill="#fc963a" />
                <circle cx="69.66" cy="57.11" r="23.06" transform="translate(-19.98 65.98) rotate(-45)"
                    fill="#ffb263" />
                <path d="M61.91,57a1.83,1.83,0,1,1-1.82-1.82A1.83,1.83,0,0,1,61.91,57Z" fill="#3a3a38" />
                <circle cx="80.46" cy="56.98" r="1.82" fill="#3a3a38" />
                <path
                    d="M71.07,71.79a9.5,9.5,0,0,1-1.31-.09,6.48,6.48,0,0,1-4.9-3,.61.61,0,1,1,1.07-.59,5.34,5.34,0,0,0,4,2.39,8.49,8.49,0,0,0,7.12-2.41.62.62,0,0,1,.87,0,.6.6,0,0,1,0,.86A9.78,9.78,0,0,1,71.07,71.79Z"
                    fill="#ff5f33" />
                <path d="M68.61,62.66c-.87-.37,1.73-3.95,2.34-3.83s3.34,3.58,2.35,4S68.61,62.66,68.61,62.66Z"
                    fill="#db763e" />
                <path d="M81,106c-1.3.24-2.55-6.75-1.77-7.11s7.38,2,6.77,3.28S81,106,81,106Z" fill="#ff5f33" />
                <path
                    d="M71.71,36.83c-.38.74-.88,7.18-13.48,12.55-4.84,2.07-6.12,7.69-5.18,12,2.22,10.38,12.41,10,11.3,18.53-.66,5-1.3,10.75-1.3,10.75s-13.45,13.61-23.16,0c-2.17-3-2.7-6.4,1.57-15.48,4.54-9.67,2.58-14.67,1-21.39C39.52,41.05,46,32.39,55,30.23,75.22,25.42,71.71,36.83,71.71,36.83Z"
                    fill="#343436" />
                <path
                    d="M66.66,39.54c.37.74,3,4.47,15.6,9.84,4.84,2.07,6.12,7.69,5.18,12C85.22,71.8,75,71.43,76.14,80c.65,5,1.3,10.75,1.3,10.75-1.37.54,12.57,13.39,23.35.81,2.33-2.72,2.32-6.82-1.94-15.9-4.54-9.68-2.41-15.06-.85-21.78,3-12.78-2.53-21.44-11.56-23.6C66.25,25.42,66.66,39.54,66.66,39.54Z"
                    fill="#343436" />
                <circle cx="91.33" cy="112.56" r="13.83" transform="translate(-34.45 184.59) rotate(-80.74)"
                    fill="#ff5f33" />
                <path d="M96.91,102.06c-.65-1.16,5.59-4.56,6.17-3.94s.51,7.62-1,7.46S96.91,102.06,96.91,102.06Z"
                    fill="#ff5f33" />
                <path d="M85.88,108.36a1.25,1.25,0,1,1-1.25-1.26A1.25,1.25,0,0,1,85.88,108.36Z" fill="#3a3a38" />
                <path d="M100.22,108.36A1.25,1.25,0,1,1,99,107.1,1.25,1.25,0,0,1,100.22,108.36Z" fill="#3a3a38" />
                <path d="M94.34,110.15c.89.38-1.76,4-2.38,3.9s-3.4-3.64-2.39-4S94.34,110.15,94.34,110.15Z"
                    fill="#f8afa0" />
                <path
                    d="M91.82,118.72a9.76,9.76,0,0,1-1.32-.09,6.46,6.46,0,0,1-4.89-3,.6.6,0,0,1,.24-.83.62.62,0,0,1,.83.24,5.32,5.32,0,0,0,4,2.39A8.46,8.46,0,0,0,97.8,115a.63.63,0,0,1,.87,0,.6.6,0,0,1,0,.86A9.74,9.74,0,0,1,91.82,118.72Z"
                    fill="#343436" />
                <rect x="84.89" y="122.92" width="13.19" height="11.25" fill="#ff5f33" />
            </g>
            <path
                d="M29.84,119.2c-1.36-.73-3.15.18-4,1.45-.84-1.27-2.71-2.18-4.08-1.45a2.58,2.58,0,0,0-1,3.72c.78,1.44,5.08,5,5.09,4.91s4.31-3.47,5.08-4.91A2.6,2.6,0,0,0,29.84,119.2Z"
                fill="#fff" />
            <path
                d="M132,120.7H117.28l.39,31.4h2.8s2.13-15.8,2.93-24.53h1.95l.58,24.53h2.81s3.31-24.63,3.22-29.37A17.26,17.26,0,0,0,132,120.7Z"
                fill="#ffb263" />
            <path d="M131.53,110.64H117.81l-.92-16.72c-.14-1.36,1.18-2.53,2.86-2.53h10.8c1.68,0,3,1.17,2.86,2.53Z"
                fill="#3a3a38" />
            <path
                d="M123.94,92.53h1.89a1.14,1.14,0,0,0,1.06-1.2V89a1.13,1.13,0,0,0-1.06-1.2h-1.89a1.14,1.14,0,0,0-1.07,1.2v2.33A1.14,1.14,0,0,0,123.94,92.53Z"
                fill="#fc963a" />
            <path d="M117.23,152.05h3.17v2.44H114c-.42,0-.57-1-.2-1.16Z" fill="#75c6bd" />
            <path d="M125.63,152.05h3.18v2.44h-6.44c-.43,0-.57-1-.2-1.16Z" fill="#75c6bd" />
            <path
                d="M117.81,110.46h13.72s3,1.42,3.38,6c.66,8.4-4.6,23.17-4.6,23.17H117.37S113.06,122,114,116.49A8.41,8.41,0,0,1,117.81,110.46Z"
                fill="#3b589c" />
            <g clip-path="url(#clip-path-2)">
                <path d="M129.94,90.91a5,5,0,1,1-5-5A5,5,0,0,1,129.94,90.91Z" fill="#fc963a" />
            </g>
            <path
                d="M118.73,91.6c-1.32-.51-10.28,9.68-10.79,10.6s2,4.48,3.66,6.21a11.9,11.9,0,0,0,4.28,2.55l.1-3.57s-3.36-3.26-3.15-4.28,4.68-3.87,5.29-4.68S120.57,92.32,118.73,91.6Z"
                fill="#3a3a38" />
            <path
                d="M131.48,91.6c1.32-.51,10.29,9.68,10.8,10.6s-2,4.48-3.67,6.21a11.9,11.9,0,0,1-4.28,2.55l-.1-3.57s3.36-3.26,3.16-4.28-4.69-3.87-5.3-4.68S129.65,92.32,131.48,91.6Z"
                fill="#3a3a38" />
            <path d="M130.86,84.57a5.71,5.71,0,1,1-5.71-5.7A5.71,5.71,0,0,1,130.86,84.57Z" fill="#ffb263" />
            <path
                d="M122,90.28V84.12a1.07,1.07,0,0,1,1.07-1.07h3.57a1.07,1.07,0,0,1,1.07,1.07v6.46s5-1.32,5-4.78-3.37-7.71-7.44-7.54c-4.89.2-7.94,6.31-6.41,8.66A11.65,11.65,0,0,0,122,90.28Z"
                fill="#ff5f33" />
            <path
                d="M132.09,116.25H118a2.22,2.22,0,0,1-2.23-2.22V99.94c0-1.59,1-2.12,2.23-2.23h14.08a2.23,2.23,0,0,1,2.23,2.23V114A2.22,2.22,0,0,1,132.09,116.25Z"
                fill="#66bcaf" />
            <rect x="123.87" y="101.23" width="2.37" height="11.5" transform="translate(-2.12 2.53) rotate(-1.15)"
                fill="#fff" />
            <rect x="119.3" y="105.8" width="11.5" height="2.37" transform="matrix(1, -0.02, 0.02, 1, -2.13, 2.54)"
                fill="#fff" />
            <path d="M115.32,107.54c.34-1,1.73-.5,2.14.51s0,3.42-1.58,2.91S114.81,109,115.32,107.54Z" fill="#ffb263" />
            <path d="M134.89,107.54c-.34-1-1.73-.5-2.14.51s.05,3.42,1.58,2.91S135.4,109,134.89,107.54Z"
                fill="#ffb263" />
            <path d="M11.85,66.7c-1.24-1.09-2.56-.8-3.14-2.51s1.11-5.6,1.48-4.4S11.85,66.7,11.85,66.7Z"
                fill="#ffb263" />
            <path
                d="M11.78,88.8C10,88.12,6.11,77,6.11,77s5.71-9,5.71-10.28S9.57,64.24,8.56,64.6,0,77,0,78.26,6.72,91.89,8.76,95.47,11.78,88.8,11.78,88.8Z"
                fill="#3b589c" />
            <path d="M25.44,66.32c1.51-.69,2.7,0,3.74-1.51s-.1-6-.79-5S25.44,66.32,25.44,66.32Z" fill="#ffb263" />
            <path
                d="M25.17,88.8C27,88.12,30.83,77,30.83,77s-5.7-9-5.7-10.28,2.24-2.52,3.26-2.16S36.94,77,36.94,78.26s-6.72,13.63-8.76,17.21S25.17,88.8,25.17,88.8Z"
                fill="#3b589c" />
            <path
                d="M10.14,112.3h16l-.42,34.22H22.68s-2.32-17.21-3.19-26.73H17.37l-.64,26.73H13.67s-3.61-26.84-3.51-32A18.52,18.52,0,0,1,10.14,112.3Z"
                fill="#ff5f33" />
            <path d="M10.14,112.3h16l2-21.27c.18-1.74-1.5-3.23-3.63-3.23H11.78C9.64,87.8,8,89.29,8.14,91Z"
                fill="#3b589c" />
            <path
                d="M18.23,90.05c-2.84,0-2.82-1.93-2.82-2.39V84.52c0-.71,1.06-.65,1.69-.65h2c.63,0,1.69.58,1.69,1.29v2.5A2.41,2.41,0,0,1,18.23,90.05Z"
                fill="#fc963a" />
            <path d="M25.78,146.48H22.67v2.39H29c.41,0,.56-.94.19-1.14Z" fill="#343436" />
            <path d="M16.64,146.48H13.53v2.39h6.31c.41,0,.55-.94.19-1.14Z" fill="#343436" />
            <path d="M23.41,81a5.71,5.71,0,1,1-5.7-5.71A5.7,5.7,0,0,1,23.41,81Z" fill="#ffb263" />
            <g clip-path="url(#clip-path-3)">
                <path
                    d="M16.26,78.25s0,2-.28,2a1.93,1.93,0,0,0-2.06.56c-.76,1,.07,1.92,1,2.13s.28,2.54-1.86,2.13-2.89-5.43-1.79-7.36,4.61-4.06,5.85-3.92,9.41,4.53,9.41,4.53Z"
                    fill="#343436" />
            </g>
            <path
                d="M26.29,65.93H12.21A2.22,2.22,0,0,1,10,63.71V49.62c0-1.59.95-2,2.23-2.22H26.29a2.22,2.22,0,0,1,2.23,2.22V63.71A2.22,2.22,0,0,1,26.29,65.93Z"
                fill="#66bcaf" />
            <path
                d="M23.64,52.6c-1.46-.78-3.37.2-4.26,1.56-.9-1.36-2.91-2.34-4.37-1.56a2.75,2.75,0,0,0-1.08,4c.83,1.55,5.44,5.31,5.45,5.27s4.61-3.72,5.44-5.27A2.78,2.78,0,0,0,23.64,52.6Z"
                fill="#fff" />
            <path d="M26.87,6.52A6.52,6.52,0,1,1,20.35,0,6.51,6.51,0,0,1,26.87,6.52Z" fill="#ff5f33" />
            <g clip-path="url(#clip-path-4)">
                <path
                    d="M16.94,9.93h6.83a1.49,1.49,0,0,1,1.54,1.42v3a1.48,1.48,0,0,1-1.54,1.42H16.94a1.49,1.49,0,0,1-1.55-1.42v-3A1.5,1.5,0,0,1,16.94,9.93Z"
                    fill="#ffbb15" />
                <path d="M21.31,9.88s-.21.43-1,.43a1.45,1.45,0,0,1-1.22-.48l.13-3h1.89Z" fill="#fc963a" />
                <path d="M23.17,5.59a3,3,0,1,1-3-3A3,3,0,0,1,23.17,5.59Z" fill="#ffb263" />
                <path d="M19.15,5.57a.24.24,0,1,1-.24-.24A.24.24,0,0,1,19.15,5.57Z" fill="#3a3a38" />
                <path d="M21.81,5.57a.24.24,0,1,1-.24-.24A.24.24,0,0,1,21.81,5.57Z" fill="#3a3a38" />
                <path
                    d="M20.35,7.58h-.19a.89.89,0,0,1-.69-.43.15.15,0,0,1,.06-.22.16.16,0,0,1,.21.06.66.66,0,0,0,.47.28,1,1,0,0,0,.86-.3.16.16,0,1,1,.23.23A1.39,1.39,0,0,1,20.35,7.58Z"
                    fill="#ff5f33" />
                <path d="M20,6.31c-.11,0,.23-.51.31-.5s.44.47.31.52A2.32,2.32,0,0,1,20,6.31Z" fill="#db763e" />
                <path
                    d="M20.24,3.42c0,.09.07.46-1.57,1.16A1.36,1.36,0,0,0,18,6.15c.29,1.36,1.62,1.31,1.48,2.42-.09.65-.17,1.4-.17,1.4h-3A1.67,1.67,0,0,1,16,8a4.07,4.07,0,0,0,.58-2.88,2.4,2.4,0,0,1,1.83-3C21.08,1.51,20.24,3.42,20.24,3.42Z"
                    fill="#3b589c" />
                <path
                    d="M20.23,3.42c.05.09-.07.46,1.58,1.16a1.35,1.35,0,0,1,.67,1.57C22.19,7.51,20.86,7.46,21,8.57l.17,1.4h3A1.66,1.66,0,0,0,24.44,8a4.18,4.18,0,0,1-.58-2.88A2.34,2.34,0,0,0,22,2.2C19.37,1.57,20.23,3.42,20.23,3.42Z"
                    fill="#3b589c" />
            </g>
            <path
                d="M49,7a1.68,1.68,0,0,1-1.68,1.67H30.56A1.68,1.68,0,0,1,28.88,7h0a1.68,1.68,0,0,1,1.68-1.68H47.31A1.68,1.68,0,0,1,49,7Z"
                fill="#cdeefc" />
            <path d="M48.06,123.46a4,4,0,1,1-4-4A4,4,0,0,1,48.06,123.46Z" fill="#fff" />
            <polygon points="56.29 120.13 65.25 119.42 61.38 127.53 56.29 120.13" fill="#fff" />
            <path d="M122.45,11.18a1.33,1.33,0,1,1-1.32-1.33A1.32,1.32,0,0,1,122.45,11.18Z" fill="#cdeefc" />
            <path d="M122.45,6.92a1.33,1.33,0,1,1-1.32-1.33A1.32,1.32,0,0,1,122.45,6.92Z" fill="#cdeefc" />
            <path d="M122.45,2.67a1.33,1.33,0,1,1-1.32-1.33A1.33,1.33,0,0,1,122.45,2.67Z" fill="#cdeefc" />
        </g>
    </g>
</svg>